<?xml version="1.0" encoding="UTF-8"?>
<svg id="Calque_1" data-name="Calque 1" xmlns="http://www.w3.org/2000/svg" viewBox="0 0 589.97 393.94">
  <defs>
    <style>
      .cls-1 {
        fill: #fff;
      }
    </style>
  </defs>
  <path class="cls-1" d="M50.08,44.11c18.07-.19,38.31,13.11,44.38,30.21,3.46,9.74,3.61,20.99-1.58,30.11.03.49,5.24,6.55,6.08,7.54,1.03,1.21,6.6,6.79,6.69,7.54.22,1.88-5.03,2.22-6.69,2.34-6.07.44-12.56-.2-18.45-1.65C56.91,148.48,8.59,136.63.9,100.36c-6.21-29.31,20.64-55.95,49.18-56.25ZM101.77,117.98c-.1-.11-1.65-.95-2.37-1.72-1.23-1.33-9.47-11.07-9.52-11.83,11.85-21.67-1.49-45.06-22.65-54.05C32.45,35.61-8.93,70.61,5.85,107.45c7.14,17.79,27.49,28.14,46.19,25.53,10.24-1.43,21.57-6.85,27.33-15.65,6.36,1.56,13,2.49,19.59,1.93.43-.04,3.64-.31,2.8-1.28Z"/>
  <path class="cls-1" d="M521,66.88c1.13,10.61,1.59,25.01,12.99,29.8,4.22,1.78,8.88,2.45,13.47,2.36,2.85,3.48-4.36,2.68-6.75,3.09-17.62,2.99-16.92,14.43-19.31,28.87-.26,1.6-.98,1.48-2.29.78-1.12-.91-.44-4.28-.61-5.84-1.42-13-5.51-21.51-19.18-23.83-1.3-.22-7.78.08-7.45-1.93.24-1.44,6.15-1.36,7.81-1.67,14.07-2.64,17.22-11.54,18.77-24.67.16-1.34-.38-7.05,1.17-7.44l1.39.48ZM536.57,99.92c-9.72-1.35-14.61-10.64-16.56-19.36-1.76,7.82-4.78,14.6-12.4,18.14-1.49.69-3.63.77-4.59,2.07,5.73.22,11.75,5.53,14.27,10.47,1.27,2.5,1.71,5.18,2.49,7.83.18.63-.25.75.87.63.81-7.61,4.73-14.33,11.76-17.71,1.14-.55,2.44-.78,3.52-1.22.5-.2.81.33.64-.86Z"/>
  <path class="cls-1" d="M585.59,217.54c.25-.9,2.21-1.48,3.04-.89.43.3.76,2.39.83,3.04,1.37,13.32-.42,30.23-.45,43.85-.02,9.19.56,18.45.48,27.52-.06,6.82-.33,13.67-.67,20.45l-.95.81c-.56.27-2.28-.71-2.28-1.02v-93.75Z"/>
  <path class="cls-1" d="M169.5,388.92l-.44-.42c-.59-.79.15-1.83.96-2.07l82.93-.11c2.51.32,2.1,2.6,1.27,2.6h-84.72Z"/>
  <path class="cls-1" d="M433.78,388.92h-83.65c-.08,0-1-.91-1.04-1.13-.13-.44.93-1.45,1.04-1.45h83c.83,0,1.19,1.85.65,2.58Z"/>
  <path class="cls-1" d="M576.03,263.02c.48.49.49,1.56.55,2.24,1.23,14.29-.97,30.29,0,44.77.09.91-1.07,2.36-1.96,2.36-1.08-.27-1.94-1.24-1.96-2.36l.25-46.24c.64-1.14,2.11-1.78,3.11-.76Z"/>
  <path class="cls-1" d="M556.3,161.02l-.36,1.92c-4.25.39-7.56,1.6-9.39,5.66-.92,2.05-1,4.86-1.71,6.46-.59,1.32-1.87,1.47-2.24-.13-.89-3.9-.95-8.72-5.17-10.74-1.43-.68-5.14-.93-5.62-1.26-.58-.4-.79-1.69.12-2.09,2.67-1.16,5.36,0,8.08-3.1,1.9-2.18,3.1-10.42,3.66-10.53,1.65-.34,1.86,4.62,2.24,5.92,1.77,6.07,4.33,7.03,10.4,7.88ZM544.3,154.53c-1.28-.31-.77,1.09-1.19,2.03-1.33,2.95-2.82,4.09-5.68,5.5,3.58.76,5.97,3.89,6.02,7.52,1.33-1.34,1.54-3.17,2.78-4.74.96-1.21,2.46-2.63,4.1-2.57-1.05-1.2-2.45-1.3-3.63-2.6s-2.01-3.45-2.4-5.13Z"/>
  <path class="cls-1" d="M563.98,284.95c.48.49.49,1.56.55,2.24.64,7.43-.53,15.74,0,23.27-.34,2.85-3.76,2.18-3.92-.43.67-7.22-.82-15.78.01-22.83.13-1.07.43-1.91,1.31-2.59.57-.32,1.61-.09,2.04.35Z"/>
  <path class="cls-1" d="M579.87,346c6.33-1.46,9.03,6.61,3.98,9.56-6.82,3.99-10.64-8.03-3.98-9.56Z"/>
  <path class="cls-1" d="M305.47,383.04c5.22,5.2-1.22,14.06-7.82,9.75-7.36-4.81,1.53-16.01,7.82-9.75ZM301.17,383.88c-4.61.24-4.87,6.9-.49,7.21,5.86.41,4.81-7.43.49-7.21Z"/>
  <path class="cls-1" d="M323.58,381.25c6.35-.73,9.5,9.31,2.98,12.05-9.12,3.83-12.45-10.95-2.98-12.05ZM326.57,384.74c-3.63-3.12-8.62,2.64-5.03,5.67,3.62,3.05,8.7-2.51,5.03-5.67Z"/>
  <path class="cls-1" d="M277.99,381.25c6.93-.8,9.23,11.32,1.57,12.35-9.04,1.22-9.42-11.44-1.57-12.35ZM278.38,383.88c-4.51.23-4.9,6.9-.49,7.21,5.58.39,4.82-7.43.49-7.21Z"/>
  <path class="cls-1" d="M579.87,324.07c6.95-1.59,8.28,8.45,1.95,9.3-5.35.72-7.16-8.1-1.95-9.3Z"/>
  <path class="cls-1" d="M56.35,106.37c5.61-7.58,15.82-17.63,11.53-27.82-4.31-10.24-18.45-6.8-20.73,2.88-12.64-13.07-29.75,3.51-15.91,16.13,5.99,5.46,15.04,7.54,21.94,11.64h1.29s.87-1.54.87-1.54l.25.19c.05-.56.31-1.01.76-1.48ZM53.18,106.18c-6.66-3.64-19.18-7.08-22.99-14.03-5.41-9.85,5.88-17.03,14.15-9.85,1.21,1.05,2.17,3.54,3.83,2.97.67-.23,1.17-3.06,1.61-4,1.26-2.71,4.09-5.66,7.14-6.19,5.87-1.01,9.74,3.41,9.54,9.08-.25,7.01-9.49,16.3-13.29,22.03Z"/>
  <g>
    <path class="cls-1" d="M389.91,221.19c-4.69-.9-9.36-2.39-14.19-2.14l2.15.86c.26,1.23-.6.87-1.52.87-1.8,0-3.42-.71-5.15-.87-.56-.05-7.48.34-6.66-.86,7.68-2.49,18.63-2.97,25.37,2.14Z"/>
    <path class="cls-1" d="M392.49,312.37c.88.91-4.84,8.04-5.8,9.03-.62.65-5.2,4.93-5.81,4.29-.18-.87.19-1.15.62-1.74,1.83-2.47,5.19-6.24,7.33-8.59.43-.47,3.2-3.48,3.66-3Z"/>
    <path class="cls-1" d="M408.83,230.22c-1.4-1.09-2.67-2.37-4.16-3.36-.39-.26-5.78-2.6-4.87-3.52,3.31,1.34,7.75,3.25,9.02,6.88Z"/>
    <path class="cls-1" d="M277.66,215.6c.36,2.25-1,3.33-2.58,4.52l2.8,1.5-.45.86c-1.93-.09-3.64-2.27-5.6-1.97-.55.08-2.16,1.9-3.19,2.2-2.06.62-4.53.07-6.35-1-.97-.58-3.12-2.8-.85-2.16,2.41.68,3.15,2.22,6.35,1.45,1.92-.46,2.57-2.3,3.39-2.59.69-.25,2.4.69,3.35-.13l3.12-2.68Z"/>
    <path class="cls-1" d="M246.27,229.37c.54.77-1.63,3.14-2.36,3-1.36-.69.42-1.49.02-2.16-2.02-.86-6.69-3.79-5.19-6.45.6-.76.63-.19.98.32,1.89,2.78,2.64,4.75,6.55,5.28Z"/>
    <path class="cls-1" d="M257.02,229.37c-.45,3.43-4.3,4.4-6.89,2.36v-1.07c2.89,1.2,4.45-.15,6.89-1.29Z"/>
    <path class="cls-1" d="M237.67,211.73c.13-3.3,3.78-5.84,6.44-7.31.96,1.21-5.85,5.77-6.44,7.31Z"/>
    <path class="cls-1" d="M237.67,216.89l.43,4.73c-.85,1.01-3.82-4.59-.43-4.73Z"/>
    <path class="cls-1" d="M209.28,197.97c-2.41.35-2.23-2.79-.64-3.87l.64,3.87Z"/>
    <g>
      <g>
        <path class="cls-1" d="M158.75,327.42c.41.06,2.79.97,2.37,1.29-.8.37-1.98-.43-2.37-.43h-13.12c-.03-.28.57-.86.65-.86,3.62,0,9.14-.48,12.47,0Z"/>
        <path class="cls-1" d="M103.86,250.79c.47-.8-2.06-4.68-.15-5.95.45.76.86,4.13,2.12,3.85l6.26-4.93v-.63c-2.86-1.48-4.35-5.89-1.29-8.18-.56,8.07,8.01,12.06,12.69,4.74.82,1.16,1.19,2.3,2.15,3.43s3.17,2.14,3.48,2.57-.49.92-.49,1.49c.02,3.28.95,6.15.61,9.86-1.39,15.27-17.99,35.87-34.8,27.6-14.82-7.3.63-28.03,9.42-33.85ZM91.02,275.81c.83,7.23,9.05,8.76,15.07,7.55,7.57-1.52,14.11-8.08,16.31-15.29-.95.73-1.54,2.08-2.36,3.01-6.89,7.84-20.72,13.72-29.03,4.73Z"/>
        <path class="cls-1" d="M128,291.72l-6.24-6.01c-.67-1.36-2.5-2.23-2.35-3.88,2.78,3.37,6.58,5.95,8.6,9.89Z"/>
        <path class="cls-1" d="M166.16,250.93c3.81-.95,7.8,9.31,2.81,10.19-4.53.8-6.53-9.27-2.81-10.19Z"/>
        <path class="cls-1" d="M198.94,238.08c3.13-.78,6.41,7.65,2.31,8.37-3.72.66-5.36-7.61-2.31-8.37Z"/>
      </g>
      <g>
        <path class="cls-1" d="M377.01,308.92c1.02-2.64,2.25-5.74,4.29-7.74-.69,2.68-2.31,5.86-4.29,7.74Z"/>
        <path class="cls-1" d="M255.3,325.27l-11.19-10.53c-8.18-9-16.91-18.19-21.06-29.9.84-.19,1.02.44,1.46.9,7.52,7.66,14.4,18.52,20.28,27.46,3.14,3.56,6.58,6.94,9.65,10.56.41.48,1.04.7.85,1.51ZM241.11,308.92l-10.15-14.15-1.46-1.33c.25,1.21,1.28,2.38,1.98,3.39.62.9,9.1,12.66,9.63,12.09Z"/>
        <path class="cls-1" d="M165.42,307.64c-1.66,6.08,1.06,11.65.86,17.63l-2.36-6.45c-.45.15-.71,5.98-1.94,6.45-.73-3.76-1.59-10.19-.77-13.88.14-.63.48-1.18.98-1.59l1.07,1.71c-.02-.35,1.35-4.88,2.15-3.86Z"/>
        <path class="cls-1" d="M354.22,244.85c.63.63-.05.77-.64.85-1.81.25-3.22-.47-4.74-.47-1.23,0-2.29.48-3.42.48-2.66.02-5.32-.05-7.97-.02-.21-1.2.26-.72.94-.97,4.74-1.71,11.12-1.56,15.83.12Z"/>
        <path class="cls-1" d="M369.75,246.94c.44-1.38.85-2.72.16-3.81-.54.91-.96,1.93-1.22,2.98.36.26.72.54,1.06.83Z"/>
        <g>
          <path class="cls-1" d="M336.34,297.75c2.36-7.01-7.61-15.43-13.73-11.19-1.16-2.42-3.12-4.99-5.88-5.72-4.9-1.29-14.39,2.04-14.13,8.29-2.61-.31-6.63,1.01-6.66,4.1-.01.92.83,2.21.61,2.95-.2.68-2.86,1.65-3.3,3.6-.34,1.49-.07,3.23,1.17,4.24,1.56,1.27,2.27-.56,3.46.83-1.67,1.93-1.47,2.68-4.29,1.94-1.33,2.37,2.23,3.83,2.51,5.03.31,1.35-1.06,3.35.17,5.84.64,1.29,3.21,3.1,4.63,2.46-.6,4.25,3.88,7.13,7.72,5.6.74,3.21,3.11,5.16,6.5,4.1,1.02-.32,1.89-1.83,2.4-1.92.51-.09,2.05,1.39,3.05,1.59,3.33.66,6.08-2.3,6.14-5.5,3.37,1.27,7.83,1.66,10.08-1.74.29-.43,2.64-4.75,2.71-5.03.94-3.59-1.59-5.19-1.59-5.49,0-.15,1.52-1.73,1.88-2.39,2.38-4.37,1.43-9.62-3.44-11.58ZM322.7,287.84c3.88-2.37,10.22,1.77,11.58,5.9.2.43.36.88.46,1.33.24,1.09.22,2.34-.44,3.29-.06.08-.13.16-.2.22-.38.54-.99.91-1.81.88-.05-.7-.23-1.35-.47-1.97-.25-.08-.47-.24-.63-.47-.02-.03-.05-.07-.07-.1,0,0-.02-.03-.06-.07-.07-.07-.13-.15-.2-.22-.17-.18-.35-.34-.53-.5-.36-.32-.74-.63-1.1-.95-.41-.38-.81-.8-1.12-1.28l-6.48-4.1c.53-.47.59-1.66,1.07-1.96ZM308.44,284.24c.97-.65,2.14-.93,3.31-1.04.65-.13,1.3-.17,1.95-.07.29,0,.58.03.87.06,4.1-1.03,9.59,5.77,3.18,7.54-.91.25-5.27,1.15-6.09,1.22-.59.05-.89-.67-1.31-.48-.48.22-2.67,2.8-3.23,2.81-1.26.03-.36-2.45,1.51-1.71-.4-2.68-3.55-.07-3.87-3.26-.22-2.26,1.55-4.33,3.67-5.08ZM300.14,291.83c.06-.05.13-.08.2-.11,1.43-.85,3.74-.32,4.75,1.17,1.94,2.85-.3,3.14-1.25,5.66-.61-.04-1.02-.16-1.3-.34-.24.03-.49,0-.69-.13-.93-.6-1.77-1.52-2.3-2.49-.3-.55-.54-1.18-.52-1.82.03-.83.44-1.46,1.1-1.94ZM297.19,303.27c-.39-.16-.74-.34-1.05-.63-.4-.36-.55-.87-.61-1.39-.11-.9.3-1.78.84-2.47.53-.68,1.34-1.16,2.22-1.17.41,0,.74.23.92.56l2.96,2.36c-.29,1.06-.67,1.72-1.13,2.11-.51.64-1.34.89-2.14.95-.67.05-1.4-.06-2.02-.31ZM297.18,309.88c-.12-.15-.24-.29-.32-.46-.08-.17-.16-.34-.18-.53-.05-.32-.05-.52,0-.84.05-.27.27-.5.49-.64.15-.1.33-.14.51-.14.04-.06.09-.11.13-.17.19-.21.48-.3.76-.31.13,0,.27.03.41.08,1.64-.54,2.27,2.62,2.33,3.77-.09.05-.18.08-.26.12-.1.17-.24.33-.4.42-.25.15-.55.17-.83.11-.24-.05-.47-.12-.7-.21-.62-.23-1.2-.52-1.71-.96-.08-.07-.16-.15-.23-.24ZM298.74,312.8c.07.04.13.09.2.13.23-.12.54-.17.79-.09.12.04.22.09.33.14.15,0,.31,0,.47.04.48.11.85.46,1.12.85.12.17.2.38.27.58.02.01.05.02.07.03.18.1.34.28.43.48.06,0,.12,0,.19,0-.53,5.44-6.35,2.1-3.87-2.15ZM304.97,318.39s0,0,0,0c.07-.08.15-.14.23-.19.24-.14.56-.18.83-.11.6.16,1.13.48,1.61.86.19.15.36.31.51.49.2.24.39.49.53.76.14.27.17.54.11.83,0,0,0,0,0,0,.09.04.17.09.26.13-2.45,4.66-8.25,1.35-4.08-2.79ZM315.79,325.11c0,.14-.05.28-.13.4-.05.09-.12.17-.2.23.05.19.06.36,0,.52l-2.67,1.53-1.37-2.14c-.16-.19-.26-.45-.26-.69,0-.06,0-.12.01-.18.02-.14.03-.28.06-.42.03-.13.09-.25.15-.37.02-.04.04-.08.06-.12.08-.13.18-.27.3-.37.12-.1.24-.2.38-.27.15-.07.29-.13.45-.16.16-.03.33-.06.5-.05.17.01.34.03.51.07.17.04.32.12.48.18.24.11.45.27.65.44.06.05.11.11.15.18.05,0,.09,0,.14.02.09.04.17.07.26.11.16.1.29.22.39.39.04.09.07.17.11.26.04.14.05.29.02.43ZM324.26,325.32c-.49,1.02-1.42,1.78-2.59,1.79-1.03,0-2-.52-2.8-1.11-.24-.18-.4-.36-.49-.64-.09-.28-.02-.58.11-.83.02-.04.06-.09.09-.13.01-.04.03-.09.05-.13.04-.13.12-.25.22-.35.1-.1.21-.18.35-.22.13-.07.27-.1.41-.09h.76c.14,0,.26.03.39.08.95-.31,2.17-.21,3.35-.57.04.33.05.64.03.95.11.13.19.28.23.42.08.29.02.56-.11.83ZM309.53,294.99c3.33-2.48,4.98-1.55,8.24-2.51.85-.25,1.83-1.44,2.76-1.51.48-.04.76.16,1.15.38,1,.56,7.41,5.43,8.03,6.18,1.94,2.34,1.41,3.6,1.88,5.82.81,3.78,3.34,3.25,1.63,8.03-1.14,3.17-3.78,6.67-6.73,8.32-15.63,8.74-31.55-13.84-16.96-24.7ZM337.77,315.97c-.05.38-.16.76-.33,1.13h0c-.17.77-.67,1.46-1.18,2.06-.01.06-.02.11-.03.17-.04.2-.16.36-.31.5-.34,1.23-1.44,2.35-2.6,2.82-2.46,1-4.23.23-6.62-.39-.24-1.02.18-.69.56-.95.28-.2.69-.42,1.14-.66,0-.29.11-.6.3-.83.74-.89,1.48-1.79,2.3-2.61.48-.48,1-.95,1.56-1.36.05-.05.1-.1.15-.15.13-.21.26-.4.41-.58.02-.04.04-.09.07-.14.33-.57.78-1.1,1.34-1.43,0,0,0,0,0,0l-.08-.1.16-.11c.05-.11.12-.21.21-.3.17-.18.4-.27.64-.3l.25-.18c1.22.39,1.94,1.38,2.08,2.53.02.05.04.1.06.15.08.25.03.52-.07.75ZM335.36,309.51c.79-2.11,1.99-3.83,1.22-6.17-1.37-.31-.91,1.62-1.93,2.14-4.56-5.41,4.05-8.17,4.54-1.08.15,2.2-1.42,8.29-3.83,5.12Z"/>
          <path class="cls-1" d="M316.24,299.1c2.5-.73,2.44,2.69.27,2.87-1.43.12-2.08-2.34-.27-2.87Z"/>
          <path class="cls-1" d="M323.55,307.69c1.48-.4,2.48,2.01.69,2.48-1.57.42-2.62-1.96-.69-2.48Z"/>
        </g>
      </g>
    </g>
    <g>
      <path class="cls-1" d="M500.86,202.27l-2.37,3.86c-8.09,7.29-17.44,11-28.28,7.22-7.2-2.51-11.37-8.23-16.22-13.67,3.33,8.52,11.11,13.75,15.91,21.29-.43.7-.95-.14-1.29-.43-2.17-1.82-4.08-4.35-6.23-6.24l-.21.64c5.98,6.15,12.32,11.31,17.29,18.4,10.63,15.18,16.56,35.81,7.64,53.2-1.13-.06-.01-1.64,0-1.93.17-2.91,0-6.09,0-9.03,0-8.81-7.51-17.69-12.14-24.42-2.71-3.94-5.09-8.27-8.07-11.92,5.88,14.94,9.52,32.77,3.21,48.16-2.84,6.94-8.59,14.07-16.12,15.92,1.49-10.04,2.03-20.17,2.34-30.32l-.61-5.37c-.52,5.78-.65,11.31-2.19,16.95-2.84,10.42-11.08,20.12-22.33,21.32l6.44-5.81c10.66-12.15,10.07-41.79,3.48-55.49-.29-.6-.55-1.07-1.1-1.48-.02,2.12,1.01,4.52,1.45,6.72,1.31,6.53,2.03,13.06,1.77,19.73-.02.52.32,1.6-.43,1.5-.52-3.3-1.46-6.54-2.58-9.68-1.85-5.23-3.53-7.1-4.31-12.89-.18-1.33-.54-2.66-.76-3.98-.14-.83.01-.52.76-.54.71,2.39,1.79,5.4,3,7.54.34.59.34,1.26,1.31,1.05-1.02-7.11-3.27-13.96-6.51-20.36-.48-.95-.91-1.92-1.49-2.82-.39-.6-1.02-1.97-1.89-1.76,3.22,15.38,7.05,37.25-9.5,46.3-.52,9.38-4.23,16.55-11.37,22.5l-5.79,3.88c-1.04-4.05-2.27-8.08-3.68-12.02-1.28-3.59-3.41-7.56-4.49-10.99-.07-.22-.12-.7.21-.63l6.46,6.88.21-.64c-3.25-4.62-6.73-9.17-9.64-14.02-1.19-1.98-3.93-6.4-4.54-8.36-.07-.22-.12-.7.21-.63,2.34,1.79,4.42,3.92,6.66,5.81.34.29.86,1.13,1.29.43-3.38-3.6-7.45-7.14-10.54-10.96-2.24-2.78-3.91-6.07-6.24-8.81-5.27-6.19-11.96-10.49-19.33-13.77,1.04-1.39,2.72-1.65,4.21-2.26.64-.26,1.17.26.94-.97-2.98-.37-6.27,1.88-8.8,2.16-3.12.34-7.97-.66-11.64-.46-5.69.31-11.08,2.02-16.54,3.46,5.42-6.49,8.26-15.1,10.32-23.22l-5.17,7.94c-4.79,5.55-11.63,8.71-16.98,13.56-.13-1.99,3.03-3.74,2.58-5.59-6.61,6.93-12.29,14.72-16.78,23.22.09-3.76,1.35-7.31,2.49-10.84.09-.29.79-1.57-.13-.99-1.27,2.17-2.69,4.33-3.65,6.68-.82,2.01-1.6,6.79-2.35,7.97-.27.43-7.19,4.97-8.4,5.8-1.27.87-2.99-1.83-3.59-2.89-3.32-5.86-2.02-15.92.78-21.86l4.73-7.95c-5.84,5.18-11.19,11.46-14.62,18.49-.61-.13-.86-2.35-.85-2.79.18-8.13,7.49-18.35,13.32-23.66,6.46-5.87,14.81-9.39,21.28-14.84,6.61-5.57,12.67-13.6,17.61-20.66l5.41-10.72c-9.32,10.61-22.49,18.85-36.98,19.35,17.79-15.98,20.86-44.17,18.44-66.82-.9-8.42-3.22-17.68-7.04-25.21l2.67,11.52c2.23,14.13,3.61,29.84,1.28,44.04-.38,2.32-.81,5.1-1.8,7.23-1.3-4.75-2.53-9.53-4.41-14.1-.26-.64.26-1.17-.97-.94l4.34,18.27-3.48,10.11c-4.37-1.91-7.33-5.67-10.53-9.03-.5,2.49,3.24,3.78,3.01,5.59-12.74-9.66-17.88-25.16-19.14-40.64l-.44-12.68-1.3,9.23c.29,14.69-.03,31.59,9.48,43.67-8.54-2.35-15.77-8.53-19.79-16.33-.79-.11-.35.89-.24,1.31,1.13,4.3,4.86,8.37,7.98,11.37-5.17,2.57-12.35-.21-16.9-3.31-14.41-9.8-17.07-32.93-16.21-48.95l-.85,3.23c-1.38,12.06.8,32.47,7.56,42.75.43.66,3.52,4.01,3.19,4.33-26.34-9.25-30.41-37.5-25.16-61.93,2.8-13.02,8.36-25.78,16.13-36.55-.74-.67-3.98,4.1-4.47,4.77-9.57,13.18-16.3,32.84-16.62,49.18-.07,3.61.74,7.05.33,10.65-.67,5.92-3.55,13.38-6.33,18.62-.82.6-.32-.79-.23-1.09,1.26-4.49,2.3-8.62,2.81-13.31-1.19-.21-.73.25-.97.94-1.47,4.17-2.36,8.46-4.31,12.48-1.6,3.28-3.98,6.14-5.68,9.36-2.44-1.63-4.24-3.62-4.54-6.64-.71-7.24,1.94-14.48,3.89-21.31-3.15,4.36-5.53,10.47-5.59,15.91-.62.1-.6-.76-.72-1.2-2.06-7.35-1.08-18.84.51-26.32,1.8-8.48,5.08-16.55,8.39-24.51-1.74,1.6-2.77,4.17-3.81,6.3-7.26,14.97-10.9,31.33-7.08,47.82,1.59,6.86,3.97,13.63,9.17,18.56-9.14-1.32-16.12-7.42-18.5-16.34-.87.22-.7.63-.68,1.28.07,2.1,1.06,4.57,1.97,6.45-.7.17-.87-.25-1.3-.63-3-2.67-7.3-13.78-7.3-17.65v-9.68c-1.08.63-1.23,2.68-1.51,3.87-1.82,7.71-2.02,15.59.22,23.23-.65-.19-1.06-.86-1.37-1.42-15.96-28.1,12.93-82.18,34.72-101.36,12.46-10.96,40.33-26.46,57.07-21.39,4.32,1.31,8.11,4.36,11.51,7.19.33-1.87-2.64-5.67-4.06-6.47-1.04-.59-6.76-2.54-8.22-2.96-1.85-.53-3.79-.78-5.69-.98l-2.24-3.77c11.47-3.31,23.53-5.96,35.27-2.38l-.86,2.8c14.66-7.34,33.12-.74,46.87,6.03.12.6.09.55-.27.89-1.73,1.65-4.86,3.21-6.84,5.1-1.07,1.02-6.18,7.61-6.86,7.66-2.79-1.53-6.49-3.77-9.55-4.55-.92-.24-1.14-.21-.99.77,1.23.02,2.27.65,3.3,1.22,11.84,6.63,22.15,17.35,28.04,29.59.67,1.39,2.8,5.75,3,6.93.25,1.5-2.28,4.94-3.01,6.69-4.62,11-3.48,21.87,2.48,32.08,1.03,1.76,5.55,6.91,5.76,8,.44,2.31-.22,5.9-.8,8.22l-3.06,7.47v-9.68c0-.07-.42-1.26-.86-1.07-.14,8.85-2.3,17.47-3.75,26.14-.66,3.94-.76,7.76-1.55,11.78-1.43,7.25-3.8,14.72-6.3,21.66-.03,1.12.05,1.01.52.09,1.23-2.43,2.55-5.12,3.54-7.65,1.31-3.36,2.04-6.77,3.18-10.15.19-.56.13-1.31.91-1.45-.11,13.22-1.92,26.89-6.44,39.36-2.92,8.06-6.63,13.34-12.91,19.13,1.83-.06,3.85-1.59,5.17-2.79,2.13-1.95,4.09-5.76,6.14-7.19,1.75-1.21,7.16-3.1,9.32-3.58,2.27-.51,4.93-.27,6.89-1.28-4.66-2.54-9.26-.87-13.76,1.08l3.91-10.71c1.76.17,5.62-.89,5.99,1.24,1.15.35.74-.69,1.54-1.23.92-.62,2.5-1.13,3.62-1.34.48.44-4.29,5.38-4.74,6.22-.13.25-1.34,2.43-.2,2.37.58-.03,5.76-6.7,6.89-7.72,8.36-7.54,29.48-6.64,38.92-1.52,4.92,2.67,11.41,7.63,11.51,13.77.05,3.06-2.09,6.42-2.1,8.63,0,.78.8.54.89.91.89,3.76-1.57,9.06-3.73,12.08-.23.32-.04.66-.76.54l-15.51-9.9c-.29-.09-.31.41-.21.64.21.46,3.42,3.49,4.09,4.08,3.74,3.3,9.79,7.41,14.4,9.25,1.18.47,7.14,2.82,7.21.87-.96-1.1-1.04-2.56-1.71-3.8-.78-1.45-2.02-2.59-2.95-3.91.9-2.43,1.98-4.92,1.74-7.56,3.73.47,6.21,4.41,7.68,7.59,1.04,2.25,1.44,5.22,2.32,7.14.59,1.3,1.69,1.1,1.63,3.09-.11,4.11-2.97,11.79-6.5,14.19-1.56,1.06-3.51,1.03-4.7,2.39,6.36.11,9.95-4.75,11.94-10.21,1.17-3.21,2.58-7.88,3.42-11.2,4.78-18.99-9.96-30.84-13.6-48.2,2.83-1.39,4.31-4.65,5.99-7.15l15.04-3.67c1.22,6.57,4.34,15.18,8.77,20.27.36.42,0,1.09,1.12.8-3.56-7.07-7.39-14.1-9.03-21.93,2.6-.48,13.93-3.07,14.2-5.83.08-.75-.3-1.31-.68-1.9-.77-1.19-4.51-4.97-5.77-6.27-4.14-4.28-8.76-8.23-13.16-12.24l-.19-.64c.52-.96.77-1.43.9-2.56.64-5.65-2.43-12.77-4.32-18.1-.93-2.6-3.25-4.52.85-5.37l1.44,5.23,1.57,2.94-2.51-8.75,6.6-6.73c1.24,2.52,1.81,5.52,3.21,7.97.34.59.34,1.26,1.31,1.05l-3.44-10.75c1.29.27.71,2.49,2.14,2.15.17-.19-.87-2.82-.73-3.59.33-1.97,5.01-6.78,4.61-9.74.7-.72,1.62,1.9,1.79,2.29,5.17,11.8,9.27,28.12,10.67,40.94,2.08,19.12-.23,38.37,18.96,49.85,6.09,3.64,17.23,7.09,22.33.46-1.92-.03-3.87.9-5.81,1.07-12.81,1.1-24.66-8.6-28.72-20.3-3.47-10.03-2.78-19.53-3.75-29.79-1.05-11.08-4.29-24.11-7.97-34.6-.95-2.72-5.17-11.36-5.35-13.18-.23-2.33,2.36-10.1,2.59-13.7,2.31-35.99-27.69-68.87-63.46-71.19-2.77-.18-11.31.77-12.8.34-.71-.21-2.95-2.31-3.95-2.93-37.56-23.24-83.03-28.1-122.65-6.54-26.28-12.5-55.02-4.73-74.13,16.21-15.34,16.82-29.69,44.06-16.08,65.99,1.32,2.13,2.96,3.76,4.41,5.76-1.68,2.54-2.72,6.56-4.43,8.91-2.96,4.08-12.12,9.5-16.15,13.52-2.44,2.44-1.19,3.22.86,5.17,3.2,3.04,12.8,8.85,14.64,11.16,1.25,1.57,2.24,5.05,3.93,7.25,1.06,1.38,2.42,2.48,3.6,3.74-1.05,8.77-8.23,16.07-16.67,18.17-5.77,1.44-9.72.13-14.96-2.27,1.56,4.24,5.02,6.9,8.17,9.88-6.61,1.43-12.46,5.58-16.2,11.14-20.76-3.68-41.27,14.54-41.47,35.27-18.5,5.35-27.91,32.58-15.94,48.07-10.96,18.12-3.43,42.37,18.97,45.31-1.5,11.45,6.17,20.57,16.07,25,5.66,2.53,12.73,4.77,18.14.49,7.83,5.5,17.13,9.16,26.82,7.2,4.44,8.04,12.83,13.79,22.19,14.18,2.79.11,7.08-1.17,9.02-.88.75.11,3.67,1.89,5,2.35,10.52,3.63,22.35,3.3,33.33,3.66,27.79.9,55.37.26,82.86-4.41,19.07-3.24,38.8-9.17,54.38-20.88l20.36,8.1c.14-1.11-.98-1.48-1.7-1.95-4.23-2.69-11.31-4.67-16.11-6.68-.43-.18-1.05-.15-1.11-.82,6.62-4.16,15.73-5.94,21.7-11.2.3-.26,3.26-3.13,1.31-2.56-1.26.36-3.71,2.34-5.1,3.08-3.69,1.96-7.51,3.68-11.26,5.51-.29.09-.31-.41-.21-.64.4-.88,3.61-3.84,4.48-4.99,12.1-16.07,20.58-47.33,21.32-67.27.02-.52-.32-1.6.42-1.5,7.46,15.49,12.83,31.42,17.08,48.07,1.66,6.5,2.79,9.1,5.06,15.15,3.01,7.99,3.39,15.54,4.54,23.85.08.62-.41,1.27.62,1.08,1.11-.88,1.62-3.1,2.57-3.88,1.14-.94,5.7-2.31,7.49-3.26,9.32-4.93,17.07-15.32,18.12-25.97,5.79,6.43,14.26,8.74,22.36,5.15.34-1.41-1.28-.69-2.26-.96-6.2-1.67-9.71-7.13-7.14-13.38,1.94-4.7,6-5.38,9.6-8.46,12.68-10.84,13.1-29.44,10.55-44.71,7.65,8.97,12.07,21.75,8.72,33.45-.56,1.97-1.47,3.44-2.27,5.25.31.32,2.61-1.58,3.01-1.93,19.83-16.79,5.65-54.51-10.31-69.69l-5.18-7.08c11.55,4.39,29.17.27,31.82-13.33ZM414.42,244.85l-4.11-2.14.68-2.16c.7-.52,3.74,3.97,3.43,4.3ZM153.92,136.14c.11.57.8.84-.32.75-3.29-3.21-7.71-5.63-10.98-8.81-.63-.62-1.4-1.11-1.32-2.12l12.93-10.14c-1.39,6.92-1.67,13.36-.31,20.31ZM315.74,236.26l15.25-10.33-5.18,9.65c-5.09,1.78-9.51,4.95-14.6,6.68l4.53-6ZM278.67,252.08c.92-3.2.55-7.95,3.72-10.25-1.4,5.73.63,11.59,3.01,16.77-15.4-1.66-31.22,1.12-45.15,7.74-.61-.62,4.19-5.07,4.52-6.05.28-.85-.2-1.43.09-2.41.44-1.5,2.27-2.1,2.27-2.93-1.5-.99-6.82-5.82-6.9-7.31l1.52-1.51c2.88,2.49,6.72,4.53,10.54,4.73.58,2.84-2.91,2.21-3.87,4.29,1.48.36,3.85-1.73,4.88-1.63.78.08,1.61,1.19,2.41,1.44,2.92.9,7.85-1.16,10.77-1.95.17.17-1.35,4.64-.22,4.72.87-.47,1.94-.49,1.95-1.71,1.65,1.55,4.68.02,6.75.11.77.03,1.33.99,2.27.74-1.15-2.19.9-2.95,1.43-4.8ZM241.54,251.73l3.84,3.71c.11.64-1.63,2.23-2.11,1.87l-1.72-5.59ZM254.44,250.87c2.79.02,5.57-1.61,7.88-3.09.6-.38,1.23-1.29,1.57-1.45.24-.11,4.07,1.31,5.17.67l-2.43,5.18c-4.06.5-8.26,3.1-12.19,1.24v-2.55ZM310.12,191.5c.95-.77,4.89-1.86,6.41-2.62,4.59-2.32,8.64-5.41,12.31-8.97l-5.41,8.57c-5.02,6.68-9.12,11.09-16.13,15.7-.97.63-9.02,5.77-9.42,5.41,1.54-2.22,3.36-4.27,4.91-6.48,1.45-2.08,6.26-10.72,7.33-11.59ZM305.62,192.81c.17.86-.41,1.03-.99,1.37-1.18.7-7.96,2.71-8.88,2.3-.64-.28-1.24-1.68-1.93-1.78l-3.68.25c1.69-2.32,3.29-1,4.98-.89,3.4.21,7.19-.45,10.5-1.25ZM211.43,163.98c.12-.17-.63-.9-.67-1.47-.15-2.76.73-6.42,2.6-8.42l.94,3.32c.08-.19.17-.39.26-.57.55-1.08,1.37-2.08,2.42-2.7.01,0,.02,0,.03-.02,1.1-1.86,2.9-4.43,3.51-5.76,1.57-3.41,2.34-7.1,3.58-10.61,1.64,6.63,4.87,13.03,9.26,18.27,2.97,3.55,7.42,5.62,7.3,10.98,1.2-.19.26-3.92,1.49-3.43.62.25,1.95,1.44,2.86,1.88,4.22,2.02,8.24,3.26,12.84,4.14.19-.74-.29-.86-.64-1.29-1.13-1.43-2.72-2.76-3.83-4.34-.34-.48-1.47-1.54-.91-2.11,5.12,5.68,13.7,10.02,21.52,9.04,1.44-.18,2.67-1.39,3.76-1.23,1.27.19,4.15,2.26,5.81,2.82.97.33,7.12,1.66,7.41,1.41l-4.8-7.88-2.29-7.17c4.57,8.42,11.88,15.84,21.29,18.49-1.12,3.22-5.89,6.88-9.25,6.88h-9.68l7.08.88c2.41-.1,4.92.38,7.11-.88.67.79-4.29,4.56-5.02,5.08-2.03,1.45-6.5,4.18-8.74,5.03-3.78,1.43-8.21,1.16-11.03,4.92-6.08-5.23-14.66-5.07-21.52-1.33-1.2.65-3.29,1.78-3.59,3.08-3.26-4.28-6.72-7.29-12.47-7.09-2.64-7.1-9.68-9.95-16.76-7.54,1.52-6.31-5.79-6.91-8.6-9.67-.69-.67-3.46-5.84-3.01-6.23,2.93-.1,5.9.12,8.83.01,1.13-.04,3.19-.82,3.88-.71.59.1.8,1.19,2.09,1.13,1.16-.05,2.72-1.29,2.4-2.59-5.62.51-12.46,1.62-17.23-2-.29-1.78,1.63-2.14,1.75-2.32ZM209.84,177.32c.41.12.5.92.99,1.23,4.39,2.79,9.49,3.36,8.24,10.07-.43,2.3-3.69,3.83-.97,5.9,1.4-1.05.85-2.55,2-4.01,4.48-5.72,16.88-1.32,15.42,6.17,5.47-1.33,9.46.29,12.46,4.95-1.17,1.04-3.03,1.25-3,3.22l2.3-.46.92,1.32c.79-.46,1.11-1.72,1.71-2.19.57-.44,1.16,0,1.74-.35,1.14-.68,2.21-2.45,3.94-3.4,4.38-2.4,15.13-3.72,18.25.99.6.9-.49,1.68.6,2.38,1.6-.89,2.15-1.5,4.08-.87l-.76-1.51c3.37-3.47,8.97-4.63,13.66-3.65.47.96-2.29,1.58-1.29,2.58.31.31,7.26-1.97,8.51-2.06,1.4-.1,2.8.54,4.4.14-1.99,2.73-10.54,17.53-13.56,17.31-.54-.04-.99-1.49-1.93-1.19l-.26,2.19c-1.4,1.05-2.57-1.35-3.61.18l2.13,2.55c-2.76,3.4-5.65,6.83-7.91,10.59-.59.99-2.56,5.59-2.82,5.79-.81.64-4.25-3.62-4.74-1.3-.26,1.22,3.49,2.22,4.26,2.85.23,4.85-4.7,9.66-9.43,7.46-1.08-.51-1.55-1.49-2.57-1.51-2.99,7.41-12.27,7.11-17.84,2.57-2.1-1.71-3.57-3.66-2.71-6.57.42-1.43,2.8-1.76,2.92-3.31-4.12.48-5.62,2.93-5.8,6.88-3.48-4.57-11.85-5.32-12.26-11.83-.15-2.43.86-4.68.33-7.2-.3-1.41-5.93-9.02-5.49-9.34l7.09,3.01.64-.86c-1.79-1.03-5.42-2.81-6.65-4.33-1.46-1.81-2.77-5.84-3.25-8.16-.6-.64-.79.06-.86.65-.25,1.97,1.54,6.6,2.59,8.38-.78.58-11.19-3.49-11.93-4.41-.59-.72-1.29-4.59-2.5-6.31-1.12-1.59-5.64-4.9-6.03-5.62-1.15-2.15,4.52-3.76,4.54-4.09-.63-.95-.88-.46-1.63-.35-1.88.27-3.41,1.04-4.81,2.29.28-2.44-.39-5.63,0-7.96.59-3.56,7.01-9.91,10.88-8.82ZM225.62,227.21c-2.33-1.52-2.59-4.43-4.3-6.45.95-.24.96.55,1.38.98,1.41,1.46,3.26,3.23,2.92,5.46ZM215.31,215.17c-1.7-.71-3.6-1.44-5.17-2.37-.24-.14-1.65-.4-.85-1.07.27-.22,5.8,2.35,6.02,3.43ZM207.35,163.55l-2.36-3.86,3.41,2.36-1.05,1.51ZM207.99,172.6l.86,3.01-3,.43c-.1-.68,1.2-4.15,2.14-3.44ZM177.9,177.32c.26.18.63-.47.77-.73,2.12-4.11,2.34-10.71,3.96-15.18l1.29.43c-1.6-2.44-.16-4.76-.85-7.31l6.67,7.75-.23,5.58.97-.94,1.82-5.51c2.47,3.59,6.27,5.78,10.15,7.57-1.33,2.98-1.43,6.7-2.4,9.63-.16.47-.94,1.98-1.5,2.15-.55-3.98.92-8.4.43-12.26-.1-.78.15-.7-.86-.64l-1.74,19.55.88,7.11-5.57-.02c-1.39-8.97-9.33-15.37-18.08-16.76l5.81-11.6c.3,3.79-3.47,7.65-1.5,11.18ZM172.07,120.11c-1.43,7.29-.89,14.75.36,22.04.8,4.68,2.2,9.21,3.74,13.67-3.21-1.25-5.48-5.28-6.95-8.31-6.07-12.48-4.69-28.68,2.23-40.53l4.73.25c-1.61,4.09-3.25,8.56-4.1,12.88ZM181.7,94.43c-.33,2.34-4.39,7.09-4.28,10.17-5.3.36-10.46.18-11.14-6.19-.95-8.86,2.81-17.98,12.47-19.14-1.35,3.82-1.76,7.8.35,11.48.71,1.23,2.79,2.39,2.61,3.68ZM187.23,61.74c1.03-.22,2.43-.39,3.11.54-1.8,5.81-5.04,11.28-10.09,14.83-3.35-5.48.8-14.05,6.98-15.37ZM209.52,56.04c-.57,1.14-4.81,4.62-6.05,6.03-7.88,8.94-14.52,19.9-20.63,30.11-1.53-.33-3.02-4-3.19-5.41-.94-7.55,5.33-9.18,8.74-14.41,1.23-1.88,1.89-4.08,3.02-6.02l7.99-1.9c-1.28-2.09-7.35,1-7.74.64,2.49-5.74.45-16.52-7.52-15.92-1.22.09-2.17.97-3.23.66,5.75-6.84,17.32-7.46,23.22-.65-4.11,1.29-7.11,2.93-9.89,6.24-.41.48-1.04.7-.85,1.51,3.28-3.39,6.93-5.49,11.04-7.69.98-.15,5.63,5.76,5.1,6.81ZM225.86,44.03l-13.99,9.44c-.08-1.2-1.64-2.09-1.95-3.04-.45-1.37,1.83-5.69,2.38-7.49,1.63-5.4,2.55-10.92,2.79-16.56,4.37,2.96,7.64,6.42,9.75,11.32.71,1.65,2.37,4.92,1.02,6.33ZM315.67,21.7c-6.09-.72-10.41,1-14.97.78-1.41-.07-4.33-1.28-6.17-1.57-11.15-1.76-23.39.41-33.79,4.54l-5.44-5.52c4.19-1.39,8.21-3.29,12.47-4.52,26.53-7.64,57.22-5.11,81.65,7.8,1.7.9,4.68,2.28,6.06,3.4.5.41,1.04.7.89,1.48l-10.11,4.74c-9.08-5.7-19.85-9.87-30.58-11.14ZM350.34,68.09l-7.95-10.32-10.1-9.24c-.01-.47,5.87-6.58,6.43-6.89.31-.17.45-.3.86-.2.98,2.13,3.54,4.03,5.39,5.58,3.65,3.05,7.8,5.37,11.34,8.46-2.41,3.96-5.1,7.95-5.98,12.62ZM351.42,69.77c2.77-15.5,18.27-24.1,32.47-27.05-4.9,6.23-6.59,14.09-5.17,21.92-9.65,1.62-17.08,7.35-23.21,14.63l-4.09-9.5ZM391.63,84.01c17.15-1.61,20.6,21.2,3.01,23.22.41-2.13,1.88-3.72,2.55-5.83,2.19-6.89.03-13.02-5.57-17.39ZM394.72,90.16c2.15,4.2,1.74,9.89-1.01,13.76-.85,1.2-2.59,3.58-3.81,2.24-.07-.07-.18-.31-.33-.67-1.1-.29-2.12-.98-2.92-1.75-.26-.25-.51-.53-.73-.82-.06-.05-.12-.1-.18-.15-.51-.44-.96-.94-1.35-1.49l-1.71-1.65c-2.02-3.47-2.68-7.4-.28-10.9,0,0,0,0,0,0,.02-.04.04-.08.06-.12.78-1.38,2.28-2.23,3.73-2.71.36-.12.75-.22,1.15-.3.33-.36.72-.6,1.17-.67,2.15-.32,5.32,3.5,6.21,5.23ZM385.4,79.7l-4.51-12.89c6.59-1.4,13.93-1.14,19.9,2.22,2.77,1.56,5.52,4.22,6.75,7.23-5.54-3.57-13.31-2.59-18.71.85-.77.49-3,2.69-3.42,2.59ZM383.88,81.18c-1.68,3.52-4.63,6.48-5.19,10.52-8.23.52-17.46-9.76-13.63-17.71,1.62-3.35,10.96-6.4,14.52-7.19l4.3,14.38ZM351.66,109.99c-3.88-12.28,1.91-26.86,11.37-35.02.35,1.01-.28,2.05-.25,3.22.18,7.47,8.61,14.79,15.89,15.33,0,4.21,3.55,7.68,3.03,11.74-1.04,8.09-10.77,12.91-18.23,12.29-5.12-.43-10.19-2.44-11.81-7.55ZM353.79,114.97c10.59,8.37,27.13,3.27,29.88-10.32,5.36,6.83,15.07,4.75,19.09,13.17,3.56,7.46.52,19.67-8.81,20.76-7.13.83-16.33-2.03-22.69-5.18-7.61-3.76-14.71-10.34-17.47-18.43ZM353.14,186.79l1.44,2.3-2.08,2c-.07-1.44-.04-2.99.64-4.3ZM361.43,203.24c-1.33,2.47-9.12,1.64-11.51,2.47-.36-.48,1.78-10.69,2.16-11.81.56-1.66,3.84-2.65,5.3-3.63l6.25,6.04c.18.32-1.87,6.3-2.21,6.93ZM368.23,200.59c-1.36.7-2.93,1.03-4.12,2.11l1.29-4.3,3.44,1.3c.2,1.12-.16.66-.61.89ZM361.54,191.29c-14.1-15.73-7.85-43.04,3.44-58.69l10.31,5.17c-14.24,15.57-17.07,43.59-2.58,59.99-4.06.12-8.51-3.5-11.17-6.46ZM365.45,176.63c-1.53-11.96,1.91-27.34,10.26-36.29-.23,1.31-1.34,2.21-1.92,3.45-6.43,13.63-9.32,30.89-3.44,45.14.81,1.96,2.18,3.61,2.78,5.6-4.67-4.3-6.89-11.7-7.68-17.9ZM378.73,142.49c-1.86,4.5-4.26,8.75-5.7,13.43-3.17,10.33-3.75,23.42.76,33.44.76,1.69,2.28,3.32,2.79,5.16-11.73-14.3-8.46-37.95,2.15-52.04ZM392.65,199.21c-6.89.63-10.44-.52-14.28-6.26-9.76-14.58-5.63-39.14,5.29-52.22,1-.64,2.74.47,3.45.47h7.53c-3,3.83-6.19,7.72-8.24,12.18-6.9,14.98-7.11,35.89,8.67,45.02-.05.6-1.94.76-2.42.8ZM385.18,179.26c.02.4,1.22,2.53,0,2.79-2.96-11.11-.41-24.45,6.7-33.51.14-.18.84-1.25,1.04-.68-1.83,3.29-3.53,6.73-4.75,10.3-.79,2.32-3,9.56-3,11.63,0,3.09-.17,6.4,0,9.46ZM427.32,246.13c-1.13.11-.7.02-.85-.64-1.75-7.67-4.31-12.02-8.69-18.42-.55-.8-3.04-3.47-3.13-3.71-.12-.3.74-3.82.58-5.35-.44-4.36-4.3-8.76-7.68-11.23,1.22-1.86,3.09.75,4.18-.33l1.83-7.2c-.59-.64-4.29,3.34-3.44,4.73-.83-.14-.52-1.32-1.58-1.65-2.88-.9-2.71,2.1-1.42,3.8-1.37.24-1.89-.99-2.87-1.64-1.52-1.02-3.16-1.78-4.6-2.71-.52-.34-.98-.52-.28-1.03.74-.53,7.56-.82,9.48-1.28,2.32-.55,4.38-1.66,6.44-2.8,3.03,16.64,19.09,31.78,12.04,49.46ZM443.25,171.08c.61.64,6.29,6.73,6.01,7.1l-29.79,8.11c-6.98-7.31-4.08-21.24,3.55-27.24,4.17-3.28,5.04-2.21,8.61.86,3.73,3.2,8.22,7.59,11.62,11.18ZM417.01,187.42c-4.6,3.31-8.88-2.1-10.2-6.13-2.72-8.3.26-19.21,5.92-25.67,4.49-5.13,11.75-8.7,15.9-1.09-6.14-.5-11.03,5.41-13.49,10.38-3.73,7.53-3.51,15.86,1.88,22.52ZM430.77,154.96c-.84,1.05-1.57-2.77-1.76-3.18-3.61-7.54-13.29-3.68-17.81,1.02-7.61,7.91-11.68,23.83-4.86,33.27,2.18,3.02,7.4,6.54,10.9,3.74.68-.54,1.61-2.99,1.9-1.11-5.25,8.91-18.98,12.56-26.2,3.89-11.1-13.33-3.47-42.47,10.64-51.7l15.6-3.8c8.66,1.9,11.69,9.75,11.6,17.88ZM422.6,135.18l2.8-1.28,1.5,4.29-4.3-3.01ZM434.85,55.19c6.03,8.21,9.84,18.45,10.96,28.6.98,8.82.44,14.11-6.67,19.98-3.89,3.21-8.27,4.79-13.1,6.04-.11.72,1.01.44,1.51.44,6.98-.04,14.07-5.67,17.84-11.19-3.49,23.05-22.13,38.24-45.15,39.13,7.24-6.7,7.92-20.48-.29-26.59-1.48-1.1-3.2-1.44-4.44-2.65,4.53.35,7.4-2.89,10.48-5.56,3.25,2.93,7.79,6.35,12.31,6.21-4.14-2.15-8.57-4.09-11.85-7.53,4.46-8.39-1.37-17.32-9.99-19.22-3.48-.77-5.03-.28-8.36-.01-.51.04-.85.85-.75-.32,4.51-6.03,14.06-7.83,20.35-3.59,1.85,1.24,2.46,3.3,4.28,4.16,2.52-1.24,5.48-1.5,8.16-2.61,4.07-1.68,8.85-5.3,10.64-9.36l2.57,2.58c.29-1.36-1.25-3.01-1.26-4.09,0-.78,1.09-2.28,1.38-3.32,1.05-3.74,1.26-7.22,1.38-11.08ZM425.4,43.13c7.22,6.97,9.78,11.07,6.78,21.43-2.61,9.01-10.8,14.62-19.71,16.35-.46-.04-1.23-3.22-1.55-3.94-5.32-11.94-18.14-15.27-30.21-12.78-2.25-.67-.47-10.63.14-12.68.63-2.09,3.65-8.17,5.62-9,2.38-1,7.85-.53,10.52-.22,3.57.42,7.21,1.26,10.54,2.57.24-1.15-.29-.74-.84-1.07-5.74-3.37-12.93-3.91-19.36-2.8,1.35-5.85.18-11-4.3-15.05,15.25.1,31.43,6.62,42.37,17.19ZM378.97,25.92c5.56.59,9.28,10.16,6.55,14.99-10.45,1.62-20.82,5.96-28.08,13.84-5.29-5.12-12.5-8.46-16.88-14.41,8.75-7.58,26.79-15.67,38.41-14.43ZM275.5,5.5c26.39-5.7,52.75-2.24,77.15,8.89,5.69,2.59,11.87,5.88,16.62,9.83l-10.85,2.51c-29.91-21.44-72.03-23.73-105.05-8.11l-4.94-3.42c8.67-4.13,17.65-7.66,27.08-9.7ZM239.93,14c8.3,3.23,16.45,9.63,21.82,16.67-8.5.9-16.53,3.34-24.24,6.95-3.32,1.55-6.36,3.66-9.73,5.1-.46-5.96,7.11-9.33,11.18-12.47-4.76,1.55-8.91,4.71-12.04,8.6-2.2-6.18-6.56-11.54-12.49-14.44,1-5.7,5.4-9.77,10.66-11.69,5.44-1.99,9.57-.77,14.84,1.28ZM178.58,27.28c12.58-12.08,29.63-17.65,47.05-16.38l-5.55,2.83c-3.49,2.23-6.3,5.91-6.92,10.07-12.45-6.67-28.58-.93-38.27,8.17l3.7-4.69ZM181.53,28.51c8.14-5.33,16.28-7.65,25.94-5.27,1.24.3,5.4,1.68,5.9,2.7.52,1.07-.51,8.23-.84,9.92-.86,4.42-2.65,8.64-4.11,12.88l-7.3-4.94c-6.52-2.94-13.77-2.51-19.36,2.15-.99.82-3,3.66-3.44,3.9-1.91,1.03-5.54-3.84-6.04-5.59-2.07-7.24,3.87-12.2,9.26-15.73ZM153.38,71.75l1.71-7.1c1.53,6.09,5.83,10.41,12.04,11.61.22-1.14-.24-.75-.86-1.05-4.96-2.42-7.39-3.48-9.35-9.16-1.75-5.05-.15-7.44,1.97-12.01,2.43-5.25,6.61-11.92,10.23-16.44.68-.85,1.62-2.48,2.75-2.62-3.72,6.54-.94,13.9,5.84,16.75l-.67,3.89c6.3-6.97,14.17-4.78,13.33,5.16-4.88-.22-9.63,3.06-11.89,7.25-.68,1.25-.92,3.21-1.63,3.96-1.13,1.19-5,2.24-6.69,2.56.1.85,2.14.41,2.68.31,1.72-.3,2.68-1.01,4.2-1.61l.86,4.29c-10.33,1.78-16.78,15.2-11.62,24.31.07.32-.44.29-.64.21-9.16-3.76-13.65-21.37-12.26-30.31ZM157.18,138.47c-2.36-8.11-1.89-17.29.61-25.32.53-1.69,3.65-9.76,5.24-9.8l5.39,2.59c-7.95,12.47-8.38,28.23-2.23,41.57l2.44,4.44c-6.08-2.14-9.72-7.5-11.46-13.49ZM136.6,171.74c12.45,3.87,26.46-6.1,28.82-18.5,4.98.81,8.33,4.3,12.71,6.45.92,1.46-5.27,15.6-6.87,17.67-3.91.65-7.95,1.27-11.22,3.71l-4.94-3.31c1.98-1.14,4.45,1.41,4.11-1.72-1.55-2.1-3.38-.24-5.62-.01-3.72.37-10.42-.53-13.84-2.06-1.06-.47-2.48-1.25-3.14-2.23ZM90.59,331.29c-2.28-4.51-4.13-8.69-3.41-13.94.4-2.91,4.35-8.74,7.5-8.88,2.69-.12,5.74,3.67,4.41,5.96-.11.19-2.64,2.03-3.33,2.89-1.83,2.25-3.15,5.22-4.11,7.94l-1.06,6.03ZM107.52,341.67c-5.49-1.32-12.12-4.3-15.42-9.03.09-5.18,1.76-11.4,5.59-15.1,3.61-3.5,9.41-2.9,10.04,2.51-3.62,2-7.02,7.76-7.26,11.88-.05.79,0,3.68.45,4.1,1.2,1.14.43-2.19.5-2.68.33-2.24,4.68-12.14,7.4-11.49l3.26,4.48c-.41,1.77-2.1,2.75-2.92,4.39-1.32,2.61-1.98,7.75,1.64,8.74-1.87-3.5-.35-11.8,4.71-7.93,2.78,2.13,1.32,5.81,1.96,8.82-3.08,2.85-6.27,2.2-9.94,1.32ZM113.8,327.74c-.05-.19-2.1-1.09.46-1,1.36.51,2.02,1.84,2.13,3.25-.43-.12-2.42-.83-2.51-.94-.22-.28.03-.94-.08-1.32ZM135.53,347.63c-.96-.13-4.82-1.47-5.8-1.94-2.31-1.1-2.57-1.38-5.02-2.25-.88-.31-4.77-2.91-5.09-3.56-1.03-2.08-.2-6.05-.84-8.19-.18-.6-.86-1.19-1.12-1.89-.37-1.02-.25-2.17-.81-3.06-.65-1.04-2.88-1.64-3.85-2.6-2.94-2.88-.43-7.57-2.41-10.91-.74,0-.93,3.01-1.08,3.65-.47,2.06-1.09-.54-1.51-1.06-2.3-2.83-5.26-1.74-6.66-2.81-.96-.74-.44-4.76-4.19-6.12-2.84-1.03-3.84.98-6.05-2.55-1.02-1.63-.98-3.63-2.43-4.87-2.46,2.48.82,6.1,2.79,7.95-1.06,1.2-2.4,2.22-3.42,3.45-1.29,1.54-1.41,3.78-3.61,3.62-7.08-.5-15.16-6.47-18.28-12.72-4.58-9.17-3.21-19.27,1.46-28.12l3.22,1.93c-1.91-3.11-3.27-5.2-.43-8.38-.61-.57-2.56,1.97-2.79,2.57-10.44-14.04-1.92-39.48,15.26-43.44l.32,2.48.97.53c-.21-2.1.26-5.04,2.58-5.6-.17-2.53-2.05-.29-2.14-.42-.61-18.54,19.26-35.29,37.41-32.25l-.43,2.58c1.46.12,1.33-1.64,2.54-1.97,1.24-.34,1.9,0,3.04.25l-1.7-2.33c5.88-8.23,18.18-13.59,27.93-9.49.78.33,3.64,1.86,4.11,2.34,1.4,1.44-.12,1.93-.23,3.46.47.49,2.01-1.59,2.86-1.65.67-.05,2.31,1.89,2.51-.05l-.65-1.08c10.58-6.79,24.46-.24,27.51,11.62.31,1.19-1.08.17-1.81.28-.86.13-2.53.74-2.9,1.63,2.54-.65,4.03-.19,5.87,1.7,5.96-4.03,12.86,1.48,15.1,7.23,4.5,11.54-8.71,15.27-17.64,13.77-.82-.14-3.35-1.18-3.79-1.8-1.01-1.43.29-4.65-2.54-4.55.27,12.28-13.65,19.22-24.31,14.63-1.43-.62-2.23-1.79-3.64-2.16,1.98,8.46-4.65,15.77-12.46,17.86l-6.46.85c1.26,1.63,2.65,2.16,4.7,1.96.86,6.08.67,12.69-2.13,18.24,1.98.98,3.97,1.15,5.8,2.81,3.07,2.8,6.21,9.96,3.66,13.76,4.59-1.4,6.56-.59,8.39,3.87,3.28-3.51,7.93-2.31,11.55-.06,5.17-6.45,11.99-10.38,20.06-12.2,9-2.02,18.43-2.38,27.51-.66l5.61-11.17h.64c1.2,1.45,2.75,2.03,4.52,1.28.64-.66-.06-.77-.64-.85-1.25-.17-2.82.28-3.6-1.16.29-1.77.16-3.71.42-5.47.15-.99,1.21-3.5,1.16-3.84-.08-.47-1.72-2.48-2.14-3.44-1.4-3.17-1.64-6.85-3.17-9.73-1.01-1.89-4.27-5.86-5.79-7.54-3.36-3.7-7.69-7.16-12.46-8.83l6.73-3.35c.65-.06,5.03,2.45,5.87,3.01,1.88,1.24,3.24,2.89,5.06,3.98,2.94,1.75,5.16,1.78,7.03,5.45.74,1.45.91,4.08,1.52,4.93.6.83,5.67,3.64,7.11,4.93,1.26,1.12,3.06,2.54,2.74,4.39-.1.59-2.82,4.53-.76,4.01.38-.1.57-.66,1.26-.46,2.46.71,4.23,5.41,4.31,7.76.04,1.13-.52,2.2-.44,2.97.08.81,1.27,1.67.85,2.81-2.59.41-5.56-1.34-7.31,1.29h6.24c.09,0,.48-.64.64-.43.17,1.35-1.08,2.09-1.73,3.21-.44.76-.59,1.67-1.07,2.37-.22.32-3.02,2.74-3.22,2.83-.6.25-1.39-.25-2.22-.13-2.38.34-5.65.94-7.64,2.3-.78.53-1.8,2.1-2.48,2.27-.59.15-9.82-2.35-11.96-2.51-16.49-1.26-36.84,2.22-44.29,18.9-1.1-1.24-3.56-.98-5.16-.84-4.82.41-8.63,3.74-11.62,7.3-.96,1.14-3.84,6.18-4.17,6.36-.4.23-3.03.34-4.2.75-4.85,1.71-6.96,6.69-6.43,11.57.1.91.83,1.88.79,2.62-.03.67-.96,1.65-1.16,2.67-.48,2.53.03,5.74,1.26,8.01,1.2,2.22,4.28,4.15,5.19,5.99.86,1.74,1.36,4.83,2.16,6.87.62,1.57,1.71,2.97,2.05,4.62-2.64-.25-5.83.35-8.39,0ZM194.49,259.29c.12.08.21.18.28.3.19.28.39.56.59.83.04.06.09.11.13.17.13.13.23.29.28.47.01.1.03.19.04.29.01.29-.13.56-.31.76-.1.1-.21.18-.35.22-.13.07-.27.1-.41.09-.15,0-.29-.03-.41-.09-.13-.04-.25-.12-.35-.22-.38-.46-.73-.94-1.06-1.43-.09-.15-.13-.32-.14-.49-1.03-.08-2.06-.2-3.07-.38-.59-.1-.87-.8-.75-1.32.14-.6.77-.85,1.32-.75.28.05.56.09.84.13.02,0,.22.03.08.01-.15-.02.13.02.13.02.12.02.24.03.36.04.33.04.66.06.99.08.37-.67.8-1.29,1.22-1.93.33-.5.93-.67,1.47-.39.49.26.7,1,.39,1.47-.27.4-.54.79-.8,1.19-.13.21-.26.41-.38.63-.05.09-.09.17-.14.26.02.01.04.02.06.04ZM196.69,235.47c7.57-1.7,12.79,12.47,4.02,14.34-9.24,1.97-10.45-12.9-4.02-14.34ZM167.16,265.3c-9.79,1.98-13.07-15.08-4.88-16.92,11.09-2.5,15.31,14.81,4.88,16.92ZM137.04,323.33c.1.45,1.81,1.39,2.06,2.24.6,2.01-.55,4.61.52,6.57-2.97-.99-5.04-6.28-4.21-9.15.32-1.09,3.5-3.54,3.34-3.74-4.6-.77-3.19-7.9-.64-10.32,1.41-1.34,3.2-1.52,4.94-2.15.32.41-2.07,6.2-2.37,7.31-.36,1.33-1.25,7.84-1.55,8.12-.23.21-2.37-.15-2.09,1.12ZM368.05,322.12c-16.52,29.37-52.65,37.89-83.78,41.8-24.05,3.02-48,3.67-72.19,2.65-21.51-.91-39.68-.04-46.77-24.19l-2.46-12.8c-1.96,6.38-.65,13.21,2.57,18.92l-13.34-1.07,14.08,2.49,8.29,10.63c-15.51,3.2-25.13-5.79-30.3-19.36-4.73-12.42-2.81-27.87,4.4-39,3.88-5.99,8.79-10.23,16.44-9.58-2.2,4.84-4.87,10.53-3.87,15.91l-11.18.44c-.26,1.54.21.43.65.43,2.88,0,7.75.44,10.32,0,2.15-.36,2.08-5.78,2.58-7.75,5.66-22.6,24.83-28.21,46.04-26.68,1.56.11,10.63,1.64,10.81,2.79l-.07,2.82c2.48-3.62,5.7-7.33,10.54-6.88-.18,1.15-.7,2.01-.86,3.22-.06.42-.31,2.03.43,1.93.02-.77.24-1.51.62-2.18,5.46-9.57,29.62-15.2,40.03-15.88,14.66-.96,28.39,3.77,42.36,7.3-3.52-2.74-8.56-4.13-12.81-5.46-2.37-.74-4.84-1.14-7.2-1.83-.62-.18-.75.25-.62-.86,11.46-8.03,25.88-9.42,39.13-12.91.02-.69-1.51-.87-1.95-.88-7.45-.1-17.28,4.26-24.71,5.61,9.71-9.44,23.64-16.26,37.21-17.62,19.43-1.94,40.71,10.15,41.52,31.15.59,15.32-8.28,43.39-15.86,56.86ZM421.94,342.03c-.22.07-.7.12-.63-.21,4.02-3.98,6.81-11.15,6.9-16.76.01-.89.24-1.26-.87-1.09-.54,3.47-1.41,7.17-2.68,10.44-.56,1.45-3.11,6.94-3.92,7.91-.19.22-1.66,1.39-2,.79,2.52-3.68,5.39-8.16,6.35-12.58.09-.43.44-1.51-.33-1.4-2.33,5.28-5.1,11.22-9.46,15.05-.15-7.13-2.55-13.84-4.3-20.65l.79.37c1.55-2.39,3.61-4.25,5.03-6.8,2.49-4.49,4.12-10.01,4.92-15.07l-7.53,16.77c-.9.92-.69.26-.48-.48.56-1.94,1.46-3.88,1.89-5.85.09-.43.44-1.51-.33-1.4-2.22,3.96-2.89,8.37-4.52,12.47l-6.17-20.82c8.77-5.17,16.6-12.82,18.38-23.31.21-1.26-.27-2.97.26-4.04.25-.5,3.5-2.7,4.26-3.48,4.94-5.04,6.58-9.16,7.58-16.08.08-.58.21-1.35.85-.65,3.61,10.32,8.25,21.23,5.47,32.34-2.16,8.6-8.36,16.64-17.07,19.05,5.31,2.76,10.85,1.34,15.91-1.07-1.15,2.64.04,5.48.02,7.93-.1,9.25-9.03,25.77-18.3,28.61ZM456.57,322.25c-7.58.64-13.97-4.16-14.57-11.88-.1-1.3.13-5.12.6-6.18.18-.41,5.04-4.43,6.02-5.59,1.47-1.74,2.6-3.72,3.87-5.59.03,3.4-1.25,6.74-1.5,10.11-.52,6.98-.15,14.41,5.59,19.13Z"/>
      <path class="cls-1" d="M276.8,45.73c-1.18,1.4-3.76,1.1-5.5,1.59-6.31,1.76-11.54,4.67-16.63,8.74-2.59,2.07-4.75,4.72-7.53,6.44-1.23-1.47,8.91-9.54,10.36-10.5,5.53-3.65,12.57-6.7,19.31-6.27Z"/>
      <path class="cls-1" d="M238.96,62.93c-2.16,2.21-5.12,3.61-7.51,5.6-4.67,3.89-8.41,8.84-12.61,13.19-.42.44-.43,1.22-1.38.98,2.48-4.78,6.25-9.17,10.32-12.69,3.06-2.65,7.35-5.88,11.19-7.09Z"/>
      <path class="cls-1" d="M308.2,46.59c.03.72.23.94-.62.84-2.35-.29-4.96-1.52-7.75-1.72-4.1-.29-6.3.21-10.09,1.13-.43.1-1.2.5-.89-.46.1-.31,2.98-1.41,3.59-1.57,5.71-1.54,10.5-.6,15.76,1.79Z"/>
      <path class="cls-1" d="M298.73,64.65l-12.47-13.76c2.55.58,5.34,3.24,7.1,5.15,2.03,2.19,4.78,5.67,5.37,8.61Z"/>
      <path class="cls-1" d="M308.2,28.1c.08,1.08.1.74-.64.85-2.84.42-5.22.62-8.05,1.42-2.22.63-4.29,1.44-6.36,2.46.32-1.95,3.18-3.01,4.82-3.56,3.3-1.1,6.77-1.33,10.22-1.17Z"/>
      <path class="cls-1" d="M299.17,34.97l-9.89,3.01c.92-3.12,5.56-4.2,8.4-3.88.64.07,1.33.09,1.49.87Z"/>
      <path class="cls-1" d="M282.39,45.3l-7.73-4.3c2.83-.27,7.37,1.01,7.73,4.3Z"/>
      <path class="cls-1" d="M278.52,32.39l-8.6-3.43c3.11-.19,6.84.57,8.6,3.43Z"/>
      <path class="cls-1" d="M340.88,160.13c-1.3,2.79-1.78,6.6-4.3,8.6.85-2.26,1.85-5.49,2.99-7.55.33-.6.35-1.25,1.31-1.05Z"/>
      <path class="cls-1" d="M377.87,108.08l-1.28-7.1v-6.23c.86.17.7.91.85,1.51.91,3.6,1.17,8.17.43,11.82Z"/>
      <path class="cls-1" d="M191.65,174.96c.04-.16.74-.77.86-.64-.2.56.43,1.27.43,1.5v6.88l-.65.64-.65-.64c.36-2.15-.49-5.83,0-7.74Z"/>
      <path class="cls-1" d="M182.63,169.59c.74-.11.46,1.02.42,1.49-.07.94-.86,7.52-1.5,7.53-1.81-2.63.79-6.22,1.08-9.02Z"/>
      <path class="cls-1" d="M163.7,170.87c-.45-.51,3.66-7.77,4.72-8.6-.12,1.58-.86,3.27-1.56,4.68-.21.43-2.49,4.68-3.17,3.92Z"/>
    </g>
  </g>
</svg>