<?xml version="1.0" encoding="UTF-8"?>
<svg id="Calque_1" data-name="Calque 1" xmlns="http://www.w3.org/2000/svg" viewBox="0 0 1181.54 1083.26">
  <defs>
    <style>
      .cls-1 {
        fill: #fff;
      }
    </style>
  </defs>
  <g>
    <path class="cls-1" d="M146.31,219.4c7.14,7.07-11.47,7.94-14.98,9.03-19.4,6.09-26.54,28.03-28.77,46.23-.34,2.81.79,16.59-6.6,10.58-1.82-1.48-1.99-13.59-2.67-17.32-3.32-18.1-11.11-34.98-30.51-39.49-3.84-.89-13.86-.14-13.86-4.77,0-4.35,10.35-4.51,14.06-5.58,18.7-5.36,27.81-21.08,30.46-39.54.77-5.4-1.62-12.62,3.75-16.24l4.21,2.52c-.98,23.18,8.63,48.55,33.91,53.09,3.01.54,9.05-.44,11,1.5ZM126.56,222.17c-15.4-4.41-25.07-17.95-28.49-33.01-2.43,4.2-3.13,9.32-5.33,13.67-4.32,8.55-13.11,16.88-22.52,19.33-3.3,1.72,5.13,3.94,6.87,4.97,11.9,7.07,18.29,18.62,20.97,32.02,3.86-9.25,6.47-19.86,14.01-26.99,4.25-4.02,10.41-5.79,14.49-9.99Z"/>
    <path class="cls-1" d="M1008.56,1060.16c.98,3.21,2.09,6.19-1.7,7.8l-245.3-.3c-3.11-1.95-1.78-4.6-1-7.5h248Z"/>
    <path class="cls-1" d="M211.06,1060.16h244c1.81,0,2.78,6.63-1.2,7.8l-242.3-.3c-2.58-1.25-2.9-5.91-.5-7.5Z"/>
    <path class="cls-1" d="M1093.31,227.92c-1.33,1.26-7.78,1.54-10.75,2.74-9.98,4.04-15.11,17.28-16.91,27.09-.68,3.72,1.28,6.99-2.04,9.99-6.8,6.12-6.94-12.84-8.11-17.03-2.36-8.43-8.77-18.11-17.67-20.33-3.08-.77-9.87.8-9.92-4.72-.04-4.06,10.72-4.46,14.35-6.3,5.71-2.89,11.17-9.85,13.02-15.98,1.14-3.79,1.11-22.34,6.66-21.17,4.33.91,3.91,15.29,5.11,19.95,1.93,7.52,7.07,15.61,14.78,18.22,3.54,1.2,7.02.09,9.71,1.28,2.33,1.04,3.89,4.24,1.77,6.24ZM1062.54,206.16l-1.98.65c-1.96,8.42-8.86,14.59-15.98,18.84,3.77,2.86,8,5.18,10.98,9s3.81,8.95,6.99,12.5c.89-8.64,7.27-16.86,15.02-20.51-1.81-3.42-5.6-4.35-8.44-7.57s-5.73-8.63-6.59-12.92Z"/>
    <path class="cls-1" d="M1144.8,407.41c2-2.12,5.2-.55,6.24,1.77,1.31,2.93.64,10.97,2.21,15.78,1.93,5.88,8.64,13.51,14.57,15.43,3.3,1.07,10.34.03,10.39,5.25.04,4.17-7.54,3.64-11.32,5.34-6.3,2.82-12.1,10.47-14.05,16.95-1.4,4.67.03,14.82-4.83,15.27-6.11.57-5.03-10.29-5.9-14.1-1.63-7.14-7.02-15.04-13.88-18.12-3.67-1.65-11.56-1.29-11.64-5.3-.11-5.44,5.84-4.26,9.53-5.46,6.9-2.26,14.25-11.08,16-18,.81-3.22.92-12.94,2.68-14.81ZM1162.55,444.18c-8.62-2-11.16-10.02-15.99-16.01-1.2,7.35-8.31,10.94-12.95,15.56-.83.83-1.43.89-1.06,2.42,7.47,2.2,12.13,10.02,14.49,17.01,4.03-6.71,7.05-13.75,14.88-16.91l.63-2.07Z"/>
    <path class="cls-1" d="M529.28,1041.39c14.47-2.99,28.6,12.64,23.75,26.75-9.47,27.56-48.53,12.8-39.5-12.52,2.22-6.24,9.23-12.88,15.75-14.23ZM532.31,1048.32c-9.44,1.6-16.72,14.51-9.16,22.74,9.97,10.86,27.85-1.12,21.91-13.92-1.83-3.95-8.05-9.63-12.75-8.83Z"/>
    <path class="cls-1" d="M696.2,1076.81c-20.85,20.87-53.3-13.95-25.98-32.48,19.96-13.55,42.78,15.68,25.98,32.48ZM690.22,1071.82c12.03-12.15-5.41-31.77-18.16-19.65-13.64,12.96,6.54,31.38,18.16,19.65Z"/>
    <path class="cls-1" d="M624.22,1048.5c14.65,16.88-5.1,42.46-25.71,32.22-16.19-8.05-13.98-31.78,2.51-38.59,8.1-3.35,17.59-.09,23.2,6.38ZM606.32,1048.36c-17.03,2.33-15.09,29.8,4.67,26.74,16.55-2.56,11.92-29.01-4.67-26.74Z"/>
    <path class="cls-1" d="M1114.06,983.16c1.11.16,3.22,1.25,2.5,2.99-9.24,1.5-18.78,1.49-28.01,0v-2.99c7.9.83,17.9-1.13,25.51,0Z"/>
    <path class="cls-1" d="M959.56,989.16c2.51,1.86-5.64,3.04-6.55,3.04-2.19-.02-4.03-.98-5.96-1.04-6.57-.19-13.16.57-19.5-1.51l2.54-2.54,29.47,2.05Z"/>
    <g>
      <path class="cls-1" d="M1177.06,925.16h-16.5c6.44-16.14,13.54-33.2,15.88-50.62,5.52-41.15-11.02-87.77-26.11-125.65-23.39-58.72-59.43-111.52-105.1-154.97-11.76-64.21-32.54-128.69-71.23-181.7-.67-9.55.85-18.93.6-28.6-3.27-123.36-101.94-276.7-200.72-347.28-58.78-42-127.2-43.88-195.08-24.45-29.91,8.56-59.31,19.75-89.23,28.77-49.61,14.96-112.27,51.87-142.03,94.97-1.59,2.3-4.03,8.39-5.41,9.59-5.85,5.09-21.46,9.7-30.57,17.43-44.56,37.8-83.44,118.29-50.79,173.82,2.9,4.93,6.84,9.14,9.74,14.06-15.5,17.3-41.06,35.07-64.29,20.73-7.23,3.89-.39,9.79,3.34,13.42,3.03,2.94,8.87,7.62,14.28,10.31,1.16-.91,2.39-1.72,3.61-2.48,1.2-.75,2.43-1.46,3.67-2.15-2.22-.51-4.39-1.38-6.49-2.75-2.38-1.55-5.93-5.29-8.06-7.43,22.95,5.01,41.59-11.09,57.5-25.05l15.42,14.64c.42,1.77-11.36,20.12-12.5,24.4-.74,2.8.36,4.39.59,7,1.29,1.33,15.26-26.36,17.48-27.98l13.49,7.48c-11.51,19.47-16.78,44.03-12.52,66.54,2.01,10.59,6.5,20.69,9.53,30.96-1.69,1.96-17.64-14.52-19.04-17.45-1.27-2.65-3.07-9.01-3.89-12.11-3.97-15.01-4.3-30.02-5.06-45.44l-38.04,26.7c-.41.83-.99,1.91-.91,2.82.17,2.07,13.7,13.13,16.48,15.45,1.55,1.29,3.44,2.69,5.47,3.04.97,1.45-5.86,7-7.2,9.27-6.87,11.62-5.57,36.64-5.02,50.09-24.81,25.48-29.88,63.01-35.32,96.57-25.4,22.36-49.7,48.03-61.48,80.52-2.61,7.2-3.5,14.36-5.69,21.31-5.11,16.24-12.42,30.56-11.48,48.52-27.48,32.55-42.9,79.69-32.52,121.91,4.54,18.48,11.99,36.74,23.72,51.77-.09,0-.18,0-.27.02,2.2,2.12,4.2,4.47,6.07,6.86.32.4.54.79.65,1.24l.84.09c31.04,32.61,77.4,32.41,118.91,39.09,18.11,2.92,35.91,7.73,54.29,9.71,34.78,3.73,85.73,3.73,119.72-4.27,10.64-2.5,16.22-5.78,21.37-15.67,2.89,1.04,6.94,2.62,9.9,2.94,9.39,1.03,20.41-.76,30,0l1.01-.99c2.51-4.01-4.46-4.74-7.02-5-6.68-.67-21.41-.77-28.01-.04-2.27.25-3.57.92-5.47,2.02.48-16.96-4.84-31.24-15-44.51,8.3-3.2,8.22,6.01,16.72,2.72,11.87-4.59,22.71-22.12,27.79-33.21,2.4-.43,1.21,1.1,1.45,2.51.73,4.27,1.41,10.74,3.61,14.41,1.96,3.27,6.16,4.29,8.09,7.56-11.48,28.7-2.78,63.5,30.11,71.25,26.62,6.27,77.75,10.34,104.61,7.16,8.91-1.06,25.39-6.93,32.12-6.96,12.46-.06,33.57,5.35,47.12,6.96,65.4,7.77,131.9,7.66,195.59-11.16,38.99-11.52,76.85-37.08,103.78-67.23l-1.48-1.48c-32.21,28.17-68.53,52.73-110.51,63.5-73.84,18.95-150.62,14.99-225.39,3.38-4.91-.76-10.22-2.71-15.14-3.79-1.82,1.04-.04,2.68-2.08,3.71-4.9,2.48-20.09,5.26-26.02,6.06-25.53,3.41-62.76-1.42-88.86-4.88-34.87-4.62-50.43-25.01-39.23-60.21,11.21-35.2,57.42-89.24,81.74-119.26,58.04-71.62,131.59-129,187.95-202.05,2.38-3.09,10.42-13.15,10.86-16.2.86-5.93-5.14-2.09-7.49.08-4.46,4.13-16.5,23.42-20.36,25.14-13.62.79-26.61,5.08-38.98,10.51-.63-.68,6.49-15.42,7.55-16.94,3.87-5.53,25.13-22,31.41-23.59,4.73-1.2,10.14.17,15.03-1.48,4.04-4.42-13.07-1.91-14.22-1.72-3.69.61-7.19,1.76-10.77,2.73-4.13-2.94,6.18-22.42,7.97-26.51-.97-1.22-1.68-1.91-3.37-1.39-1,.31-11.13,16.41-11.43,17.66-.86,3.56,3.45,11.3,2.8,12.21-6.18,1.62-10.06,7.39-14.97,11.03-.54-6.83,3.96-16.13,3.9-22.39-.07-7-1.2-18.83-2.03-25.98-1.36-11.71-4.98-24.18-7.87-35.62,1.72-.45,2,.69,3.01,1.48,4.02,3.17,6.96,7.17,11.67,10.33,2.23,1.5,13.65,6.74,14.11,7.39.54.78,1.56,12.79,5.29,8.17,1.18-1.46,2.08-4.67.93-6.38,4.83.6,9.56,1.45,14.49.98,4.79-.45,8.51-3.05,12.23-3.77,7.39-1.43,20.26.1,22.31-10.21l7.95,2.5c1.67,1.14.58,1.07.19,2.13-4.61,12.61-14.91,24.89-18.72,37.31-.61,2-.8,2.68,1.05,4.02,10.23-11.53,18.17-26.31,24.67-40.31,49.84-107.29,25.29-206.11-27.65-305.7-20.78-39.09-49.37-73.51-84.05-100.95-11.35-8.98-23.36-16.32-36.43-22.6l-3.02,2.07c-.02,1.94,23.38,16.46,26.9,19.09,1.48,1.11,10.9,8.24,11.09,8.93.57,2.07-1.04,1.35-2.2,1.75-11,3.81-22.46,6.33-32.49,12.59-39.27-24.75-91.58-28.88-136.53-20.56-25.69,4.76-51.55,16.44-70.43,34.56-25.88-13.71-50.87-22.37-80.73-17.71-7.73,1.21-14.55,4.24-21.91,6.1-1.32.33-1.91,1.9-1.71-.71,17.29-23.05,38.17-41.18,62.47-56.54,66.73-42.18,125.18-53.51,203.71-39.67,14.04,2.48,27.66,6.79,41.81,8.68-2.9-3.3-9.02-4.88-13.24-6.25-10.12-3.3-21.9-5.84-32.42-7.58-25.33-4.2-51.75-6.56-77.34-4.16.02-1.43,2.86-1.99,4.04-2.45,85.33-33.14,171.3-37.76,244.97,22.94,67.23,55.4,119.88,130.23,153.45,210.55,32.52,77.8,31.42,145.46,15.26,227.2-3.25,16.44-7.29,32.63-11.73,48.76,2.67.51,1.74-.57,2.44-2,10.65-21.6,10.32-49.16,16.99-71.08.67-2.2,2.8-1.99,3.9-5.07,2.46-6.87,3.75-25.1,4.65-33.35.29-2.61-.16-5.36,0-7.99l1.99-.5c33.71,51.42,55.01,112.73,63.86,173.65,2.37,16.29,2.61,34.04,5.21,49.79.43,2.63,2.47,4.48,2.89,7.11,1.05,6.55.09,15.76,1.11,22.89.51,3.62,2.62,7.34,2.99,12.01,1.73,21.77-1.65,56.75-4.05,79.03-1.15,10.64-5.17,21.48-3.98,32.51,2.79.78,3.12-4.11,3.54-5.96,1.79-7.84,2.07-16.13,3.46-24.04,7.26,1.08,12.3,11.72,12.9,18.61.2,2.28-1.7,3.27,0,5.92,2.61,4.06,4.97,1.27,8.32,1.64,7.06.78,11.65,8.79,15.57,15.34.26.1.52.21.78.35.96.53,1.77,1.31,2.59,2.05.66-.07,1.32-.11,1.98-.12.17-.53.38-1.05.6-1.56-5.86-9.4-14.1-20.09-20.51-21.07-2.05-.31-3.36.58-5.23.85-.68-9.78-4.84-25.6-17.01-25,1.99-26.76,5.22-53.62,4.05-80.54-.66-15.2-2.51-32.67-4.04-47.96-1.12-11.17-3.48-22.26-3.99-33.5,23.93,22.47,45.38,48.83,62.78,76.71,31.48,50.41,73.17,144.89,59.71,204.3-1.41,6.22-2.95,11.91-4.65,17.15-.25,1.21-.67,2.41-1.21,3.57-11.75,33.06-31.29,46.64-71.43,56.99-35.53,9.16-72.42,9.38-108.67,9.24-8.03-.03-19.54-.91-27.06.04-1.45.18-2.74.45-1.48,1.99,8.66,1.79,17.69,3.29,26.5,4.01,37.43,3.07,82.99.66,119.01-9.97,22.54-6.66,46.15-15.81,58.68-36.82,3.06-.56,24.79.83,24.78-2.7-.69-.85-3.79-2.5-4.48-2.5ZM271.12,341.09c-14.28-21.55-17.63-47.79-12.55-72.93l10.96,15.52c7.81,7.71,18.3,13.31,29.5,13.53,3.34.07,7.3.29,7.53-4.06-4.5-.49-10.19.68-14.5,0-14.73-2.33-30.18-20.76-30.58-35.5-.2-7.31,6.04-22.86,9.22-29.86,4.7-10.35,11.53-21.9,19.85-29.64-1.54,11.56-1.48,23.05,5.57,32.94,2.14,3,11.3,10.49,14.7,9.9,1.32-.23,2.49-1.7,4.21-1.76,5.79-.17,19.7,11.27,20.54,17.42.3,2.22-.31,1.19-1.51,1.47-19.01,4.53-25.03,17.57-23.51,36.53.21,2.62,1.78,4.76,1.85,6.96.19,6.13-2.18,10.96-.61,18.8,1.56,7.76,6.62,15.88,13.83,19.3-4.62,11.71-9.39,23.98-11.06,36.44-17.92-3.36-33.73-20.43-43.43-35.07ZM328.11,292.22c-.89,2.8-6.36,7.01-8.05,9.93-12.15-14.25-3.98-40,15.5-40.98,1.09,1.03-6.26,14.8-6.76,17.73-.72,4.3.56,9.38-.68,13.32ZM315.54,315.71l21.02-21.07c.43-1.75-3.22-3.24-3.8-5.18-1.39-4.62,3.62-14.2,5.72-18.91.42-.94-.59-1.75,1.57-1.38l14.5,11.49-25.99,54.5c-2.6,2.34-15.54-15.11-13.01-19.45ZM340.75,262.43c-2.33-10.85,15.14-26.95,24.15-31.07,4.05.38,14.46,14.44,13.53,18.09l-20.89,27.7c-1.43.36-1.65-.32-2.5-.97-2.75-2.09-13.77-11.36-14.28-13.75ZM358.28,230.44c-7.41,6.66-15.4,12.66-18.73,22.72-6.19-9.05-13.21-14.63-22.97-19.5,10-14.58,28.7-11.82,42.98-5.48.66,2.34-.63,1.68-1.28,2.26ZM301.68,438.54c-1.34-14.48,3.64-29.73,7.89-43.37,1.78-.23.98,2.25.87,3.37-2.16,23.01-2.83,45.08,3.6,67.63,1.74,6.11,4.91,11.84,6.51,17.98-2.1.38-2.76-1.36-3.82-2.67-7.25-8.96-13.99-31.49-15.05-42.95ZM260.64,446.58l-17.06-13.95,28.06-21.89,3.91-1.58c-.6,16.54.92,33.51,7,48.99l-21.92-11.57ZM440.08,950.14c2.19,8.15,4.19,16.09-3.01,22.04-5.03,4.16-20.18,6.09-27.03,6.97-60.04,7.75-115.75.49-174.86-9.12-63.33-10.29-106.8-18.4-125.35-87.65-9.99-37.29.29-79.13,21.9-110.53,1.45-2.11,8.89-10.23,9.13-10.9,2.57-6.93.84-17.45,3.15-24.82l18.54-54.96h.02c.17-.57.47-1.09.91-1.55.13-.14.28-.25.44-.35,0,0,0-.01,0-.02,0-.04,0-.08,0-.13,0-.69.28-1.3.73-1.74,1.1-3.23,6.27-12.47,8.08-15.53,11.39-19.27,29.59-37.18,47.09-50.91,3.85-25.75,9.76-65.22,25.49-86.51,3.49-4.72,6.71-4.9,10.02-8.98,2.47-18.45-6.13-46.75,11.25-58.88,4.15,2.78,9.94,4.33,13.9,7.15,3.46,2.47,7.04,7.3,10.43,10.06,1.85,1.5,7.92,6.23,9.66,6.85,2.43.86,4.99.08,6.98,1.02,1.28.6,2.5,3.74,3.93,5.07,6.13,5.66,9.93,1.56,13.01,2.91,2.91,1.27,7.77,9.74,13.04,9.56.48.64-5.81,13.09-6.99,14.5-1.15,1.37-9.34,6.49-10.53,6.51-3.92.05-8.63-13.36-10.44-16.56-.77-1.37-.83-2.9-3.04-2.45,2.95,9.43,8.53,25.08,20.99,21l-1.99,13.99c4.44-3.21,4.36-9.68,6.22-14.27,3.99-9.89,9.18-19.27,11.79-29.72,1.39-.3,1.27-.2,2.06.63,1.81,1.91,2.96,4.2,5.45,6.33,9.03,7.72,21.88,14.45,33.48,17.04-4.51,20.13-4.12,42.68-1.01,62.99-12.49-2.53-12.09-16.65-15.54-25.99-.61-1.66.05-2.42-2.45-1.99-1.27,12.94,4.42,27.88,16.3,34.19,5.55,2.94,8.09.3,11.69-4.69,5.36-7.43-3.11-6.02-4.48-7.43-5.61-5.8,5.35-21.19,1.42-28.39,6.81-6.98,16.99-5.78,24.77-.87,4.01,2.53,12.63,13.35,15.03,14.05,3.91,1.14,8-4.38,11.31-3.46,2.51.69,7.33,8.9,5.93,10.56-7.56,3.48-16.07,2.99-23.65,5.86-4.64,1.76-8.71,5.47-13.29,7.71-20.21,9.9-36.64,15.08-46.51,37.49-.97,2.2-1.21,6.16-2.5,7.5-1.23,1.29-5.8,2-7.92,3.08-1.64.84-5.29,4.3-5.64,4.38-3.01.7-3.29-7.02-3.98-8.96-3.62-10.21-7.36-19.87-10.8-30.23-.35-1.05-.39-3.6-2.17-2.78-2.13,1.34-1.17,2.3-1.07,3.97.81,14.11,6.71,27.28,11.36,40.34-6.62,10.32-16.26,18.05-23.79,27.68-3.29-14.56-4.12-30.89,7.49-41.98,4.22,3.01,5.08,8.9,8.52,12.46.75.78,2.02,2.63,2.99,1.01.56-3.02-3.06-5.32-3.58-7.41-.41-1.64,1.71-2.79,1.12-4.1-.98-2.2-6.98-8.18-9.07-11.96-4.76-8.6-7.16-17.48-6.36-27.39,1.06-13.07,6.71-28.49,6.91-41.1.05-3.24-4.89-.67-5.6.45-1.39,2.2,1.72,3.8,1.38,7.23-.72,7.19-6.22,16.87-8.12,24-4.13,15.49-.16,28.74,7.12,42.48-5.73,8.54-10.48,18.41-10.74,28.99-.31,12.58,6.04,26.62-1.19,38.72-1.73,2.9-9.85,5.85-7.42,10.59,2.18,4.26,5.22-.34,5.53.03-1.21,5.88-1.02,13.64-2.22,19.27-1.63,7.67-9.38,13.32-7.78,21.72-1.53.42-1.66-.41-2.5-.98-2.43-1.65-2.64-5.14-5.49-5.01.18,9.45,7.61,16.59,10.27,25.22,4.69,15.16,2.93,27.53,12.89,42.11,6.23,9.12,16.33,14.63,21.01,23.99,5.5,10.99,6.97,14.92,15.3,24.7,24.78,29.11,82.33,69.81,92.04,105.96ZM395,501.18l9.57-22.02c.17-.13.41-.13.69-.04.31-2.87,1.97-5.18,3.76-7.48,1.36-5.06,6.12-18.56,7.04-20.48.56-1.17.99-2.75,2.49-3,0,.08-.01.15-.02.23.79-.9,2.28-1.02,3.33-.38.21-.98.58-1.94,1.21-2.86,5.78,11.1,11.36,22.97,19.08,32.93,6.65,8.58,14.69,12.7,23.97,18.05l-1.59,4.53,1.55,2.5c5.49-3.12,11.72-3.79,18.01-3.03,5.53.67,7.47,6.28,14.23,3.27,1.7-.76,2.66-3.04,4.67-3.17,1.85-.12,5.82,1.5,8.19,1.81,6.05.78,15.32,2.71,20.89,2.12,7.25-.77,10.28-6.5,12.13-6.85.66-.13,9.68,3.56,12.86,3.84,18.05,1.54,24.16-7.13,9.5-19.49,3.6-3.14,7.32,3.92,10.52,6.48,9.18,7.34,19.69,13.94,31.44,16.06,1.72,1.96-5.15,17.06-6.77,19.66-3.98,6.4-13.28,12.69-12.16,20.72.4,2.88,2.86,4.73,2.96,7.58-4.86.49-10.8-.67-15.5,0-7.44,1.06-17.85,10.91-22.09,17.08-6.22-2.17-10.97-6.74-17.88-7.13-10.79-.61-20.2,7.25-30.08,6.92-2.88-.1-9.13-4.41-13.94-4.87-6.87-.66-13.15,3.18-19.07,2.9-3.31-.16-9.39-7.88-15.93-7.92-1.75,0-3.88,1.64-5.52.59-1.05-.67-2.93-5.72-4.59-7.47-7.2-7.55-12.82.31-15.76-.25-1.57-.3-10.32-10.68-13.31-12.68-4.27-2.85-9.31-4.07-14.34-4.66l-9.99-17.5c3.84.14,8.78,0,10.87-3.7,1.17-4.03-7.28-10.04-10.43-12.28ZM605.55,587.66c-1.79,1.03-7.13,9.09-9.05,6.87-3.03-2.47-1.62-5.54-2.41-7.31-1.41-3.18-11.9-7.37-13.53-3.54-1.19,2.79,5.98,5.34,7.9,7.08,1.67,1.51,3.1,4.42,4.99,6.05.29,1.62-9.67,13.02-11.42,13.34-9.31,1.7-7.9-3.98-11.11-9.86-7.98-14.63-22.49-30.56-40.37-31.13.11-1.44,4.47-2.84,5.33-2.77,1.21.1,8.9,3.41,10.72,4.22,3.41,1.53,3.33,4.19,8.36,3.53,5.27-.69,14.18-13.65,20.32-15.74l24.68-1.31,15.57-2.92c-1.83,5.1-2.01,10.99-4.79,15.7-3.79,6.43-17.18,11.7-5.21,17.79ZM612.62,548.7c-5.86-1.92-10.2,2.69-16.01,2.41-3.28-11.98,1.34-7.88,9.22-9.19,3.83-.64,6.77-3.81,10.73-3.76l-3.94,10.54ZM525.55,576.17l-11.46,2.98-6.53-3.98,17.99,1ZM434.94,585.93c-6.8-1.77-13.6-.39-20.38.22,10.24-13.43,30.35-9.41,39.65-22.07,2.07-.34,10.16,4.04,9.35,5.07-10.97,2.86-20.38,9.17-28.61,16.78ZM436.55,598.15c-3.39-.75-14.17,4.62-15.78,3.74-.42-.23.58-1.76-2.66-1.84-4.14-.11-9.37,1.63-13.56,2.1,3.63-4.93,13.71-7.79,19.61-7.9,1.33-.02,9.88.81,10.73,1.07,1.31.4,1.93,1.48,1.66,2.83ZM396.56,534.15c-1.12.1-2.46.49-3.38,1.12-2.38,1.64-1.86,4.22-4.61,3.88,2.41-6.29-.14-12.13,0-18.49l1.99-.5c2.73,2.33,2.7,11.19,6.02,13.98ZM363.56,633.17l-2.01,8c-4.96-2.25-7.4-.11-11.98.99-.48-4.11,12.13-10.56,14-8.99ZM315.83,681.93c3.25-14.18,14.13-28.25,27.72-33.77.71.69-3.27,5.56-4.02,6.47-5.05,6.08-11.95,10.89-16.39,17.61-9.67,14.65-9.91,31.51-.61,46.42l-3.97,1.5c-4.69-13.45-5.95-24.21-2.74-38.22ZM316.08,723.14l-12.51,23.02-4.55-10.07c.1-3.26,14.01-18.09,15.52-16.93l1.54,3.98ZM316.57,786.16c8.95,9.51,17.27,17.07,31,18.49,2.03,1.23-1.37,5.13-3.55,5.51-11.72,2.01-24.68-13.82-27.45-24ZM471.04,892.15c-5.69,13.3-14.2,23-29.48,24.01l13.41-15.08c1.35-2.04,6.91-13.54,5.58-14.91-1.64-.16-2.28-.24-3.48,1.01-1.85,1.94-4.13,8.87-6.1,11.9-3.78,5.81-13.7,16-20.41,17.69-1.43.36-1.38.25-2.52-.52-4.02-2.7-9.7-11.62-13.45-15.61-13.58-14.43-29.18-26.98-42.52-41.53,1.53-12.18,1.13-22.94,5.19-34.75,1.17-3.42,3.8-6.5,4.29-10.2-11.27,10-14.49,26.59-13,41-.83,1.01-17.21-16.72-18.04-18.55-.07-.7.08-1.32.34-1.89-1.13-1.25-2.31-2.45-3.49-3.64-9.5-3.05-5.5-16.79,4.51-13.72,2.5.77,2.62,2.25,1.75,4.03.21-.07.43-.11.66-.1.34-.01.67.06.96.22.31.1.58.27.8.52l2.16,2.16c.23-.43.42-.73.56-.81,2.18-1.25,8.48-.39,8.74,3.16l2.08.15,8.13-19.87c20.97-23.28,54.46-32.25,76.84-5.12,16.47,19.98,26.74,66.56,16.51,90.47ZM450.35,727.36c19.7-1.71,23.49,32.78,4.65,35.73-26.86,4.21-26.34-33.86-4.65-35.73ZM493.79,908.87c-.62.96.11,1.8-2.22,1.28-5.09-6.82-5.75-14.56-8.72-21.77-.51-1.25-2.14-1.11-2.31-1.9-.47-2.24.7-4.22.64-6-.6-18.27-4.37-37.32-9.62-54.84l-9.01-19.48c4.55,2.96,10.12,2.49,15.26,3.23,1.76.25,3.6,1.72,5.34,1.77,2.23.07,3.22-1.72,4.92-1.97,3.34-.49,6.97.44,10.45-1.03-2.8,7.82-7.64,13.09-8.74,21.75-1.7,13.41.59,19.88,5.89,31.6,3.44,7.63,7.95,14.76,11.85,22.14-5.89,7.53-8.67,17.35-13.76,25.21ZM487.07,768.47c-1.23-.67-1.51-2.25-.9-3.42.64-1.22,2.27-1.52,3.42-.9.05.03.1.05.15.08.11.04.22.08.34.11.18.05.36.1.55.13.03,0,.07.01.1.02.21,0,1.01.1,1.11.1.4.02.81.02,1.21.01,1.59-.03,3.17-.2,4.76-.2,1.4,0,2.44,1.15,2.5,2.5.06,1.35-1.19,2.5-2.5,2.5-.52,0-1.04.02-1.57.05,0,.01.02.03.03.04.24.56.56,1.08.92,1.57.55.67,1.18,1.28,1.86,1.83.35.26.7.51,1.07.74,1.19.74,1.54,2.2.9,3.42-.29.54-.91.99-1.49,1.15-.61.17-1.38.08-1.93-.25-1.17-.73-2.3-1.59-3.27-2.58-.32-.33-.62-.68-.92-1.04-.06,0-.13-.01-.19,0-.17.01-.35.05-.54.1-1.37,1.09-2.74,2.16-4.13,3.22-.52.4-1.32.39-1.93.25-.64-.15-1.15-.62-1.49-1.15-.34-.53-.42-1.33-.25-1.93.08-.33.23-.61.45-.85.18-.27.41-.49.7-.64.31-.24.63-.48.94-.72,1.3-1.01,2.6-2.03,3.87-3.08-1.31-.12-2.58-.42-3.77-1.07ZM612.57,726.65c3.12,5.95,17.24.53,21.51-2.47l3.4,3.35c-19.25,18.89-37.32,38.82-54.53,59.6-6.95-5.49-12.15-11.37-21.91-11.03-18.9.66-34.71,3.8-47.88,18.17-.74.81-7.41,9.73-3.12,7.89,1.36-.59,5.2-5.47,7.04-6.96,14.44-11.73,39.45-19.62,55.8-7.85,2.13,1.53,3.83,3.48,5.66,5.33-20.51,22.51-36.83,48.34-56.01,71.97-2.7,3.32-7.16,9.48-9.94,12.06-.98.91-1.42,1.83-3.02,1.47-4.36-9.09-8.96-18-13.1-27.22-.34-.75-1.74-.76-1.89-1.47-3.76-17.6,1.15-23.59,7.46-38.32,1.37-3.19,1.67-7.25,3.34-10.66,6.55-13.36,23.36-23.38,37.8-25.2,8.16-1.03,13.04,1.9,18.79-5.21,13.2-16.31,10.67-39.61,2.77-57.59-.98-2.23-5.44-10.94-6.69-12.34-1.9-2.13-9.59,3.43-13.05,3.95-6.53,1-10.29-2.89-11.76-2.76-3.06.27-8.85,4.81-13.68,2.81l6.99-9.5c-3.95-1.45-6.88,4.71-10.06,6.94-4.9,3.45-15.4,7.55-19.92,2.06,2.46-2.46,7.28-7.45,7-10.99l-1.99-.5c-.15,1.12-.6,2.26-1.43,3.04-6.74,6.4-21.02,18.92-28.09,6.97-10.42,12.98-25.76,12.42-40.51,8.4-5.17,11.31-11.19,22.31-18.75,32.2,2.44,5.77-.83,13.94.41,19.15,1.8,7.56,7.39,14.54,13.35,19.22-3.98.48-7.39-1.35-11.39-.93-16.46,1.7-37.64,16.2-45.06,30.99-.97,1.94.11,6.08-3.03,5.98-.39-.01-6.85-2.28-7.47-2.57-3.21-1.5-5.85-6.9-5.05-10.46,2.48-.13,5.04.18,7.52,0,1.31-.09,3.07.7,2.47-1.48-.51-1.85-6.42-6.85-8-9.01-1.02-1.4-.97-3.38-2.48-4.49-4.81,2.58,3.98,10.58,3.5,10.97-32.86,4.58-50.17-28.07-43.55-57.04,1.05-4.59,6.02-16.63,10.01-19.01,2.57-1.54,5.32.03,5.56-4.42-5.12-1.16-7.39-7.82-8.55-12.48-4.11-16.42.9-29.98,13.53-40.03,2.79-4.26,13.45-19.52,17.27-21.23,3.03-1.36,9.78-2.54,12.19.28,1.2,1.41,1.1,5.47,4.55,4.94-1.47-3.74-3.33-9.34-2.96-13.37.14-1.57,5.15-14.83,6.11-16.97,1.21-2.67,7.04-9.49,9.37-11.63,5.8-5.31,13.29-8.11,19.98-12.02,2.08,1.62-.11,1.7-.78,2.28-6.78,5.83-14.92,10.27-20.75,17.19-.81.96-4.83,5.61-3.97,6.52l11.67-8.82c8.84-5.18,18-8.42,28.32-9.17-1.73,4.28-10.61,9.2-12.45,12.04-.71,1.11-2.22,7.78-2.47,9.54-.17,1.22-.52,3.2,1.4,2.4,2.39-1,8-12.93,11.02-15.98,8.15-8.25,17.93-7.64,24.88-12.12,2.6-1.67,4.64-7.01,6.6-9.4,12.13-14.73,36.16-19.42,53.79-13.78,3.84,1.23,11.8,3.34,10.22,8.29,23.5-11.49,60.33,4.85,54.02,33.96,3.24-.14,4.76,1.91,5.88,4.68l.15.85c-2.04.87-2.41.94-2.05,3.5l11,3.01c1.48-1.35-5.03-6.53-6.98-6.05l1.03-5.9c16.16-.57,28.98,8.98,32.69,24.72,1.93,8.2-.23,14.25-.28,22.23,4.67,2.9,10.11,3.82,15.22,6.83,12.88,7.58,29.39,36.45,14.28,47.69-.36.26-7.91,2.39-8.53,2.46-2.71.33-4.91-.86-6.79-.69-.5.05-6.41,1.7-5.62,3.2ZM531.32,727.35c21.15-2.96,26.08,36.1,2.7,36.85-20.9.68-22.06-34.15-2.7-36.85ZM606.56,636.17c1.06-1.06,4.26,2.68,4.98,3.51,6.73,7.84,10.68,18.19,10.01,28.48l-10.53-4.95c.34-8.94.51-19.14-4.46-27.05ZM740.55,618.17c-.45,5.4-5.62,4.35-8.72,5.78-4.1,1.89-8.08,6.55-12.79,8.21-1.92,3.29-.14,9.53-.88,12.04-.62,2.1-9.43,12.1-11.59,14.5-10.41,11.55-22.15,22.87-33,34-7.8,8-15.78,15.93-24.02,23.47,1.11-4.39,1.1-7.61,0-12,8.42,4.1,3.76-4.11.97-5.51-1.25-.63-3.74-.33-3.94-.53-.24-.24.08-4.65-.27-6.23-.54-2.41-1.81-5.91-2.74-8.25-1.75-4.37-4.38-7.29-6.01-11.48l20.54,4.04c4.35.37,5.63-1.7,2.93-5.01-3.27-4-11.72-2.86-16.47-3.03-.45-.44,1.82-8.05,2.48-9.01,1.56-2.27,3.45,3.13,5.75,1.86,10.54-5.19,23.35-6.49,31.26-15.83,2.24,1.76,8.24,9.54,10.98,8.99,5.07-4.01-5.52-9.5-5.52-12.5,11.51-15.26,32.82-20.96,51.03-23.49ZM652.56,651.16c2.39-8.22,10.14-12.55,15.4-18.09,7.7-8.12,15.03-16.66,22.59-24.9-2.45,9.58-5.87,25.65-12.47,33.02-5.96,6.66-7.51,4.82-14.79,6.21-3.85.73-6.76,3.75-10.73,3.76ZM726.64,513.58c-31.94-23.83-33.9-72.19-25.08-107.9l-2-1.04-1.99,1.53c-1.86-1.38-.53-18.01-5-20,.76,11.83.6,23.69.95,35.54.55,18.62,2.02,37.37,3.08,55.92.76,13.16-1.41,25.58-2.03,38.54,1.44.24,1.35-1.73,1.69-2.78,2.44-7.5,2.7-15.53,4.31-23.21,2.19,1.79,5.05,7.97,5.76,10.73,6.13,23.79,10.96,68.04,6.1,91.64-2.94,14.3-8.31,30.79-21.38,38.62l8.16-39.7c-.18-1.84-.14-3.94-2.64-3.29-8.28,19.71-26.98,32.16-39.98,48.53l-2-.03c1.28-1.72-.99-5.65-3.06-4.03-1.56,1.22-7.91,18.61-10.44,21.56l-5.04,15.96c-4.79-12.11-7.19-25.92-15.98-36.01-2.02-2.31-9.4-7.09-9.54-7.69-1.4-5.73,5.45-12.47,5.02-18.3-2.05-.42-2.32,1-3.19,2.3-2.4,3.56-3.55,8.76-7.31,11.68-3.6-3.58-7.24-7.83-12.5-9-1.76-2.4,18.07-21.91,20.98-24.5,6.93-6.15,22.07-14.7,24.29-23.74,1.54-6.25-5.16,1.9-6.8,3.23-3.73,3.02-8.72,6.66-12.74,9.26-1.71,1.1-4.22,3.87-5.71,1.27,3.78-3.95,6.13-11.13,7.49-16.49,1.88-7.36,3.61-17.08,2.64-24.43,9.52-9.33,31.79-20.99,33.86-35.08.09-.59.27-1.65-.51-1.5-6.09,5.72-10.2,12.87-16.49,18.51-2.15,1.93-17.44,13.49-19.03,14.02-1.18.39-1.99-1.45-3.32-1.37-2.11.12-14.18,10.48-19.66,7.84l12.76-25.73c8.82-22.74,10.79-50.42,8.11-74.64-.25-2.29-.85-5.37-1.37-7.64-.26-1.12,0-3.23-1.5-2.99v36.5c0,1.41-2.09,5.45-.99,8l-1.99.5-20.01-35.99c.33,8.25,5.09,17.16,9.18,24.3,2.11,3.68,11.11,15.06,11.62,17.42.47,2.15-1.87,17.22-2.75,17.86-4.41.6-10.89-2.11-15.06-4.09-33.26-15.82-49.65-59.47-54.25-93.75l-2.76-1.74c-.85,19.54,2.99,39.15,8.73,57.76,2.26,7.34,5.22,17.11,9.87,23.13,2.4,3.11,9.32,8.08,10.91,11.09.71,1.34.68,1.58-.5,2.53-12.67,4.19-22.88-.61-32.49-8.54-1.75-1.44-8.43-9.3-10.01-8.97-3.66.77,1.53,7.27,2.51,8.47,2.93,3.61,7.9,7.55,11.98,9.54.26.37-1.46,2.17-1.95,2.54-5.95,4.49-25.07.45-32.04-2.07-17.38-6.29-28.08-21.51-37.52-36.48-1.1,1.95.18,5.19.79,7.21,3.19,10.45,9.5,20.9,15.71,29.78-21.85-1.32-36.82-17.21-48.03-34.46-27.03-41.6-22.84-109.18-4.74-153.79,2.86-7.06,7.43-13.44,9.75-20.74-3.36,2.69-6.1,7.35-8.41,11.08-20.45,32.95-25.92,77.25-20.44,115.29.87,6.05,5.09,17,4.66,21.85-.68,7.64-13.22,36.56-17.1,44.98-2.54,5.5-5.45,13.47-10.18,16.81-3.44-.87-12.03-25.29-12.14-29.66-.1-3.85,2.91-12.17,2.43-14.75-.13-.72-1.47-1.92-1.79-1.6-1.32,3.81-.57,7.86-1,11.52-.17,1.48-.75,3.02-2,1.48-.99-7.54-3.23-14.92-4-22.51-2.11-20.94-.8-42.9,3.48-63.51,2.05-9.85,5.47-19.17,7.5-28.99-3.14,2.21-4.07,7.6-5.26,11.23-11.96,36.53-14.44,81.8-2,118.54,4.74,14.01,11.51,23.38,21.27,34.22-34.53.64-61.37-29.53-63.01-62.99-2.64-.31-1.57.08-2.02,1.47-1.62,5.06.98,20.87,2.52,26.54,1.56,5.73,5.15,10.28,5.5,15.99-9.88-4.63-15.9-15.07-19.45-25.04-18.92-53.12,11.64-139.98,41.43-185.49,33.41-51.02,83.45-90.9,145.03-100.48.29-.37-1.31-1.99-1.5-1.99h-15c-.33,0-.8,1.2-2.02.13-.73-.64-4.16-5.53-3.48-6.13,6.58-.3,12.97-2.34,19.51-2.99,4.19-.42,10.92,1.66,13.49-2-9.87-1.98-18.29-2.57-28.23-.74-2.19.41-6.69,2.81-8.14,2.53-2.59-.51-5.01-3.64-1.34-6.01,11.62-7.48,35.61-13.92,49.34-15.66,5.15-.65,14.04-2.03,18.84-1.12,3.81.72,5.05,6.7,9.52,5.98.73-3.42-2.83-4.49-4-7h17c-.44,2.01-17.76,10.39-15,13,13.14-5.58,20.82-14.39,36.38-12.88,13.24,1.29,28.38,6.82,40.62,11.89.41,1.52-.4,1.66-.98,2.5-3.89,5.65-12.46,12.08-17.43,18.57-3.54,4.63-7.24,10.61-10.44,15.59-.82,1.28-.79,3.34-1.4,4.08-1.04,1.25-6.69,1.61-5.37,5.28.99,3.51,7.89,5.14,10.94,7.15,21.25,13.98,40.75,34.68,52.46,57.17-12.04,24.81-10.19,47.55,3.41,70.97,9.51,16.36,24.29,33.02,41.74,40.77.38,3.88-3.28,6.77-3.87,10.48-.46,2.84-.97,8.77,2.92,8.44l7.58-15.06c8.32,4.44,18.03,5.08,26.42,8.56-22.41,34.67-17.87,81.4,3.61,115.41l14.41,17.08c-10.98-.82-21.18-5.06-29.92-11.58ZM712.58,222.66c15.4-9.17,37.57-6.57,49.98,6.49-17.76,1.52-36.01,16.25-43.49,32.02-6.43,13.55-5.52,17.82,1.31,30.66,5.81,10.92,13.4,14.2,8.35,28-5.07,13.86-21.58,27.17-36.65,26.32-17.07-.96-26-10.73-30.8-26.22-11.29-36.43,14.85-79.88,47.24-96.37l12.03,9.59-7.97-10.5ZM745.76,298.87c-4.14,6.87-9.01,3.55-13.85-1.06-8.66-8.23-11.9-24.2-5.75-34.71,17.71-1.89,27.99,21.85,19.6,35.76ZM756.03,515.19c-29.61-26.4-35.25-87.47-12.97-120.02l3.34,5.31c-14.17,31.69-15.28,83.44,8.64,110.7,3.55,4.05,8.13,6.84,11.51,10.98-3.66-1.19-7.68-4.43-10.53-6.96ZM772.27,517.95c-26.5-10.8-33.36-58.54-30.7-83.28,1.52-14.13,5.43-30.87,13.7-42.3l24.29-3.21c-2.24,6.35-5.76,12.1-8.01,18.48-10.82,30.62-10.78,72.95,11.51,98.53,2.45,2.81,6.1,6.81,9.51,8-2.54,7.75-14.01,6.33-20.28,3.77ZM821.06,480.16c-16.7-13.23-13.76-44.97-3.31-61.3,1.17-1.82,12.63-16.04,14.8-13.69.05,25.29-3.78,50.96-11.49,74.99ZM832.35,396.96c-31.83,16.63-41.72,66.73-13.08,90.68l-12.2,26.42c-17.23-6.54-25.74-19.76-31.26-36.65-11.53-35.28.54-88.49,37.86-103.63,6.61-2.68,11.45-1.13,17.41,2.37l1.28,20.82ZM829.55,359.16l1,11-9.99-2.01c2.11-2.65,4.46-5.17,6.72-7.71.59-.66-.07-1.92,2.28-1.28ZM785.57,237.17l6.85,12.64,21.13,52.89c.45,3.57-7.49-.31-9.44.42l-9.54,1.04c7,.15,14.18,4.53,20.99,3,1.25,8.06,13.53,38.67,11.27,44.73-.94,2.53-7.45,9.21-9.79,11.25-37.49,32.67-96.02,30.28-131.02-4.93-1.4-1.4-9.54-10.83-8.44-12.05,25.94,9.39,58.96-10.02,58-39,.79-.85,13.59,8.76,16.98,6.54.79-.52,1.14-2.31,2.08-2.98,10.01-7.27,14.84-12.13,16.66-25.34.21-1.53,1.32-6.72-.71-7.22-.44,9.15-4.42,19.98-11.53,25.97-5.54,4.67-5.78,3.23-12.47,2.02.41-2.66,2.48-4.34,3.47-7.02,4.19-11.27.88-28.41-8.98-35.97-3.58-2.75-7.19-3.37-11.12-4.91-.68-.27-2.13.14-1.37-1.58,1.28-2.93,10.1-11.82,12.98-14.03,12.8-9.83,30.42-14.09,38.54,3.51,2.46.61,5.81-6.76,5.49-8.99ZM740.57,164.65c11.56,15.3,23.47,30.49,32.51,47.49,1.32,2.48,7.84,14.49,7.05,16.02-6.06,7.29-11.18-2.25-16.1-5.97-16.16-12.19-28.93-13.34-48.26-7.31-22.33,6.96-41.23,26.65-51.23,47.28l-13.86-19.65c-.92-1.13-1.01-2.17-.92-3.57.27-4.22,7.01-19.34,9.27-23.79,15.35-30.33,46.73-52.46,81.53-50.49ZM703.87,130.3c3.43.84,8.58,16.1,9.7,19.85,1.91,1.51,2.9-2.59,2.91-3.56.02-3.26-2.47-6.33-1.43-9.43l20.5,21.99c-44.46,1.62-76.65,36.51-89.01,77.01-12.52-11.36-24.27-25.06-39.95-32.04-.92-1.32,2.94-6.85,3.94-8.49,20.45-33.49,54.34-58.52,93.34-65.33ZM475.25,141.35c43.78-27.32,116.92-28.82,164.83-12.21,2,.69,22.2,8.5,20.48,11l-21.5,13.7c-16.17-8.77-35.57-13.8-53.96-14.73-37.33-1.89-81.02.9-112.19,22.97l-12.36-8.46c-.59-2.43,12.28-10.77,14.69-12.27ZM362.34,144.44c9.18-2.55,18.59-5.01,28.22-4.27-4.3,5.65-13,9.07-13.99,16.99,1.25,1.3,9.62-8.34,10.98-9.51,7.41-6.38,9.15-8.2,19.5-7.47,22.6,1.58,60.63,18.42,72.5,38.51.46.77,1.82.97.03,2-2.64,1.52-11.41,3.26-15.27,4.73-18.98,7.25-35.31,17.28-51.26,29.74-.86-.79-.56-2.62-1-3.98-.35-1.11-1.43-5.74-2.98-5-3.45,1.65-.44,8.1-.45,10.54-.01,3.48-2.18,3.08-4.08,4.93-6.95,6.71-13.53,13.81-20.49,20.51l-5.46-7.51c-11.43-12.78-25.83-16.43-42.4-14.36-12.72,1.59-19.39,4.69-26.22,15.82-15.32-4.21-19.03-29.12-13.18-41.21,3.11-6.43,22.5-17.73,29.42-20.58,21.15-8.71,44.22-4.17,61.83,9.89,6.27,5.01,10.73,11.47,16.52,16.97-3.24-9.98-12.29-18.01-20.68-23.81-16.74-11.58-34.4-12.54-54.31-6.68-10.01,2.95-17.4,8.91-27,12.49,12.99-20.16,37.22-32.43,59.78-38.71Z"/>
      <path class="cls-1" d="M222.45,659.56c-.74-2.93-1.44-5.92-1.88-8.92-.79-5.35-.14-13.11-1.04-17.96-.51-2.74-1.98-3.98-4.52-2.62-8.59,4.59-14.48,18.72-21.41,25.64-3.59,3.58-9.95,5.57-12.56,8.44-1.4,1.54-1.78,3.05-1.19,3.99,1.43-1.18,3.03-2.19,4.71-2.94.39-.23.81-.34,1.26-.34.05,0,.11.01.16.02,2.49-1.51,5.28-2.78,8.12-3.4,7.38-8.28,13.94-20.92,20.45-25.31,2.28,9.09-1.5,22.32,8.64,27.87,2.81,1.54,10.67,1.72,11.24,4.77-1.74,8.22-12.69,13.95-14.93,20.81-2.25,6.9,1.11,15.13-.4,22.76.17.8.3,1.62.35,2.44.08,1.38-.2,2.88-1.22,3.88-1.44,1.42-3.5,1.08-5.12.22-1.7-.91-2.79-2.44-3.79-4.04-4.34-2-8.3-6.12-12.28-8.36-4.37,1.68-15.08,9.75-19.54,8.1-6.52-2.41,2.96-12.32,2.89-17.97-.05-4.28-5.44-14.26-9.47-16.35-.29-.15-.62-.26-.97-.36.03,1.71.16,3.41.25,5.12l1.3.66c2.5,3.08,5.3,8.5,4.65,12.47-1,6.15-10.05,13.29-2.13,19,8.14,5.87,15.47-3.52,22.87-5.81.58.06,7.3,4.17,11.08,6.61.56.04,1.23.29,1.59.71.92,1.07,1.95,2.03,3.05,2.9.43.32.87.64,1.33.93.68.43,1.08,1.09,1.18,1.81.44.14.89.26,1.34.36.21.04.42.08.64.11,0,0,0,0,0,0,.12.01.24.02.36.03.52.04,1.05.05,1.57.03.17,0,.35-.03.52-.04-.33.03.31-.04.51-.09.24-.05.48-.12.71-.2.07-.02.14-.05.21-.08,0,0,0,0,0,0,.2-.1.39-.21.58-.33.05-.04.11-.09.15-.12.08-.07.15-.16.23-.23.09-.15.19-.29.27-.45.03-.1.06-.19.09-.29.03-.12.06-.24.09-.36.01-.06.02-.09.03-.13.03-.2.08-.39.14-.58.02-4.11-.17-8.23-.08-12.34.06-2.68,1.14-5.12,1.13-7.96,0-3.43-1.59-6.55-1.06-9.93.65-4.12,5.91-6.26,8.41-9.63,1.25-1.69,6.55-10.94,6.62-12.41.31-6.66-10.1-8.94-15.17-10.12Z"/>
      <path class="cls-1" d="M323.57,707.16c1.99-.41,1.7-2.05,1.98-3.51,2.22-11.61,5.14-27.59,16.47-34.53,3.36-2.06,10.21-1.24,7.03-7.96-2.6-5.51-11.81,3.85-14.5,5.99-7.97,12.17-15.1,24.81-10.99,40Z"/>
      <path class="cls-1" d="M897.57,424.17c1.77-.17,1.07,3.39.98,4.48-5.75,74.9-42.28,145.03-84.17,205.83-46.06,66.84-103.93,113.06-165.34,164.66-2.75,2.31-21.52,18.3-22.96,18.02-1.61-.31-1.23-1.45-.71-2.67,1.03-2.42,8.73-9.58,11.17-11.84,47.51-43.83,102.95-81.7,143.99-132.01,29.76-36.48,57.66-79.69,77.74-122.26,18.75-39.75,32.07-80.71,39.29-124.21Z"/>
      <path class="cls-1" d="M921.71,692c8.62.26,25.79-.43,27.63,10.91,2.02,12.44-14.46,21.05-13.76,29.63.59,7.2,4.26,11.46,2.89,21.03-2.67,18.66-25.34,5.8-34.27-.32-7.91,6.44-22.89,22.07-33.6,13.37-7.98-6.49-2.37-23.78-2.2-32.73-7.37-8.63-25.03-15.78-15.27-29.66,6.27-8.91,20.25-6.62,24.19-10.31,2.06-1.94,6.71-16.34,9.8-20.69,15.44-21.76,29.45,4.1,34.59,18.78ZM894.9,672.5c-6.24,6.07-8.86,19.45-13.77,26.73-6.24,2.48-17.83,2.29-22.6,7.4-10.12,10.88,12.91,17.77,14.82,24.23,2.16,7.28-3.83,24.17.12,29.88,6.89,9.92,24.98-13.09,30.76-13.33,4.75-.2,25.73,19.93,29.1,5.05,2.12-9.33-4.93-17.6-3.58-24.55,1.43-7.36,16.55-17.58,13.29-24.72-2.48-5.44-19.14-5.79-24.51-6.5-4.47-7.08-6.1-15.8-11.96-22.04-3.56-3.79-7.05-6.65-11.68-2.14Z"/>
      <path class="cls-1" d="M782.05,839.15c-8.23.43-15.69-1.34-23.79-.79-4.63,4.4-7.67,10.89-12.19,15.81-3.08,3.35-6.63,5.99-10.02,8.98-1.74-14.6-21.83-34.04-36.85-24.85-7.74,4.74-5.24,12.98-8.79,19.21-.88,1.54-7.6,9.5-8.9,10.1-7.09,3.3-15.44,3.22-22.95,5.05-8.16,1.98-16.56,5.92-24.79,8.21-22.49,6.27-52.65,9.49-72.9,20.1-.99.52-8.9,4.75-7.31,6.18,10.54-3.16,20.2-8.58,30.78-11.71,16.84-4.99,35.74-7.75,53.04-11.96,6.41-1.56,28.26-9.18,33.09-7.94.88-.45,1.84-.77,2.84-.98.67-.34,1.39-.59,2.14-.79.01-.18.04-.38.1-.61,5.64-.2,9.34-1.22,13.53-4.98,7.81-7.02,4.26-13.99,9.47-21.53,8.04-11.65,28.65.56,31.55,10.46.92,3.14-.69,10.03,2.1,10.94,7.06.31,12.12-3.72,16.35-8.63.94-3.17,3.11-5.85,5.51-8.25.49-.55,1-1.08,1.53-1.58.76-12.9,14.3-7.11,23.52-7.39,9.66-.29,19.83-2.8,29.27-4.73l10.18-3.31c-12.05.57-24.56,4.36-36.5,4.98Z"/>
      <path class="cls-1" d="M786.55,701.17c.43,1.88-1.06,2.37-1.99,3.5-5.94,7.16-16.51,14.19-24.11,19.89-22.51,16.9-48.27,35.89-71.58,51.42-1.37.92-7.13,5.35-8.31,4.18-.36-2.05.22-2.65,1.48-4.01,5.45-5.89,19.6-16.04,26.6-21.4,21.82-16.69,45.88-32.82,68.6-48.4,1.33-.91,8.42-6.07,9.31-5.18Z"/>
      <path class="cls-1" d="M984.56,842.16c-.36-1.78.48-2.88,1.16-4.33,8.66-18.44,20.09-35.37,28.3-54.7,10.33-24.31,15.67-47.03,23.03-71.97.4-1.35.9-4.79,2.49-5-1.76,19.77-8.35,39.98-14.72,58.77-7.31,21.58-21.72,58.47-36.87,75.13-1.01,1.11-1.48,2.51-3.4,2.09Z"/>
      <path class="cls-1" d="M681.56,119.15c-23.2-7.08-45.94-15.85-69.81-20.68-17.55-3.55-33.87-4.61-51.7-5.31-1.21-.05-3.72.76-3.49-.99,35.17-3.81,71.45,3.78,104.25,16.24,7.01,2.66,15.43,5.37,20.75,10.74Z"/>
      <path class="cls-1" d="M822.55,130.16c-8.79-9.75-15.56-21.37-24.48-31.01-11.51-12.45-26.16-21.5-37.51-33.98l12.72,7.77c20.63,14.35,39.05,34.07,49.27,57.22Z"/>
      <path class="cls-1" d="M516.55,101.17c-.03,1.42-2.84,1.97-4.03,2.45-12.58,5.14-25.91,8.57-37.99,15.01l-29.97,18.52c10.23-11.54,26.6-20.39,40.64-26.85,9.81-4.51,20.43-8.85,31.35-9.13Z"/>
      <path class="cls-1" d="M231.79,333.41l2.79-.8c7.32,4.39.04,28.55-6.53,28.58-9.17.05,2.74-15.04,3.28-17.76.77-3.89-1.42-6.88.45-10.02Z"/>
      <path class="cls-1" d="M812.56,648.15l36.99-44.99c-6.16,14.67-18.66,31.34-30.98,41.51-.93.77-5.14,4.25-6.01,3.48Z"/>
      <path class="cls-1" d="M987.55,907.17c1.42,1.54-8.73,15.94-10.48,18.01-4.39,5.17-9.84,9.22-16.51,10.98-.19-2.03,1.31-3.56,2.48-5.01,4.81-5.98,12.52-12.19,18.03-17.97.83-.86,4.95-7.67,6.48-6.01Z"/>
      <path class="cls-1" d="M755.56,61.15c-6.87-1.3-12.63-7.24-18.69-10.8-7.29-4.27-16.36-7.52-22.31-13.18,15.23,3.06,31.06,12,41,23.98Z"/>
      <path class="cls-1" d="M785.08,65.16c2.42-.44,27.99,21.04,27.48,23.49-.94,4.48-10.46-4.68-12.01-5.97-3.89-3.22-13.54-11.26-15.99-15.02-.85-1.3-1.05-2.22.52-2.5Z"/>
      <path class="cls-1" d="M941.55,437.16l-2.94-2.41,6.44-40.59c2.17,1.81,1.62,4.98,1.5,7.49-.59,11.6-3.79,23.92-5,35.5Z"/>
      <path class="cls-1" d="M744.06,538.18c3.27,2.16-.38,7.66-2.54,9.44-1.78,1.47-10.49,5.12-12.72,5.37-3.5.39-4.57-2.43-1.61-4.69,4.88-3.73,12.16-5.61,16.87-10.11Z"/>
      <path class="cls-1" d="M679.56,969.16c0,1.69-3.33,1.92-4.49,2.01-10.2.79-24.09,1.93-34.06,1.04-1.15-.1-2.19.04-2.96-1.05-.99-.55.9-2,1.01-2h40.5Z"/>
      <path class="cls-1" d="M456.56,91.17c-6.51,5.18-14.05,8.61-20.47,14.02-4.03,3.39-7.17,7.92-11.52,10.97.24-6.03,7.14-10.52,11.53-13.96,6.01-4.71,12.77-9.63,20.46-11.03Z"/>
      <path class="cls-1" d="M933.55,502.15c-1.76.25-1.02-2.29-.77-3.26,1.24-4.68,4.46-10.08,6.05-14.96,2.03-6.23,3.25-13.75,5.45-19.55.48-1.27.59-2.94,2.27-3.22-1.58,14.44-7.11,27.93-13,40.99Z"/>
      <path class="cls-1" d="M873.55,180.16l-3.17-4.32-12.81-32.68c3.54,2.47,5.7,8.02,7.48,12.01,3.41,7.67,6.46,16.81,8.5,24.99Z"/>
      <path class="cls-1" d="M948.56,361.66c.1-.36,1.65-1.75,1.99-1.5,2.26,8.79.64,18.08,0,27-.26.33-1.99-1.28-1.99-1.5,0-5.4-1.06-19.99,0-24Z"/>
      <path class="cls-1" d="M465.55,451.16c-2.86-1.74-3.86-6.65-4.7-9.79-3.17-11.8-4.2-28.58-3.34-40.76.12-1.73-.11-3.29,1.56-4.44,1.12,18.49,2.42,36.89,6.49,55Z"/>
      <path class="cls-1" d="M498.56,219.17c-5.57,5.62-12.95,9.22-19.02,14.48-4.77,4.14-8.79,10.17-12.97,14.03-1.36,1.26-1.96,1.84-4.01,1.48,2.35-6.27,7.62-11.59,12.52-15.97,6.16-5.51,15.27-12.7,23.47-14.02Z"/>
      <path class="cls-1" d="M606.55,380.16l-18.98-48c5.35,5.39,8.97,14.56,11.74,21.75,3.17,8.25,6.29,17.53,7.24,26.25Z"/>
      <path class="cls-1" d="M554.55,247.16c-6.26-6.25-14.43-12.74-19.99-19.5-.93-1.13-2.43-1.61-1.99-3.5,2.03-.43,2.67.44,4.04,1.45,3.72,2.75,14.43,13.55,16.61,17.39.78,1.38,1.72,2.35,1.34,4.15Z"/>
      <path class="cls-1" d="M658.57,498.16l2.97-11.52,5.01-10.48c-.59,7.75-2.38,16.32-7.98,22Z"/>
      <path class="cls-1" d="M652.55,519.17c-1.75,7.07-2.34,15.68-7.99,20.99,1.69-6.08,2.87-13.3,5.53-19.01.7-1.49-.15-2.48,2.46-1.99Z"/>
      <path class="cls-1" d="M565.55,168.17c.42,2.06-1,2.31-2.3,3.19-4.26,2.87-10.81,5.02-15.69,6.8,1.11-3.17,16.75-11.07,17.99-9.99Z"/>
      <path class="cls-1" d="M250.71,880.86c6.88-8.27,19.45-16.04,12.87-28.22-7.45-13.79-23.09-3.1-28.62-7.38-1.48-1.15-6.89-15.18-9.99-19.01-4.87-5.99-10.71-8.1-17.76-3.94-9.71,5.73-7.85,22.2-10.88,31.62-9.12,2.69-24.35,8.29-21.57,20.52,1.23,5.41,13.97,13.9,18.25,17.75l3.56,19.95,3.04-.44.8-7.16c-1.28-.49-2.15-1.95-1.3-3.51.25-.47.53-.95.82-1.42.05-.2.11-.39.17-.59-.17.03-.34.05-.5.08,2.67-11.33-18.73-19.5-19.86-26.68-1.62-10.31,17.24-10.92,20.85-15.76,4.49-6.02-.78-27.71,10.69-30.31,13.51-3.07,13.83,19.25,20.9,23.68,6.65,4.17,26-4.16,27.98,8.06,1.36,8.41-13.9,15.55-14.62,20.6-.86,6.04,9.69,14.13,5.51,23.43-2.22,4.95-12.67,7.97-17.18,4.72-.02-.02-.04-.04-.07-.06-.02.35-.06.69-.12,1.04.53.32.95.84,1.19,1.42.02.02.03.04.06.08,0,.01.03.03.04.05.02-.02.09.05.14.18.08.07.16.14.23.22,0,0,0,0,0,0,.14.08.27.18.42.26.12.07.25.13.37.19.11,0,.17.02.21.04.17.05.36.14.53.21,2.62.33,5.26.35,7.8-.16,2.11-.43,3.84-1.78,5.62-2.91,1.43-.92,2.9-1.63,4.47-2.09,5.07-6.94-4.77-14.11-4.03-24.47Z"/>
      <path class="cls-1" d="M294.35,486.43c.5.31,1.61,3.1,4.25,3.4,2.22,12.93,3.72,27.47,7.93,39.86,1.85,5.44,3.33,10.83,9.03,12.98.64,2.64-8.4,5.04-10.03,4.03s-9.49-31.1-10.48-35.53c-1.84-8.18-3.86-16.6-3.48-25.02.94.06,1.94-.25,2.78.28Z"/>
      <path class="cls-1" d="M268.55,647.16c-2.65.95-2.87-5.04-2.99-6.51-2.03-24.97-.7-53.37-2.02-78.98-.3-5.93-1.77-13.04-2.04-18.96-.29-6.48.29-13.06.05-19.54,1.83.38,1.85,1.96,2.03,3.46,1.85,15.6,1.89,31.46,3.95,47.05l1,73.49Z"/>
      <path class="cls-1" d="M269.55,806.16c-4.08-3.36-6.93-9.27-9.51-13.98-12.49-22.79-22.83-49.99-24.47-76.02,1.45.54,2.08,4.45,2.51,5.98,2.67,9.64,4.77,19.5,8.02,28.97,6.5,18.92,16.75,36.23,23.45,55.04Z"/>
      <path class="cls-1" d="M347.55,899.16c-13.76-8.36-26.71-18.11-39.01-28.48-3.4-2.87-47.33-42.37-44.98-44.51,1.88-.44,2.38,1.05,3.5,1.99,13.44,11.28,26.03,25.86,39.48,37.52,12.14,10.52,27.06,19.78,38.94,30.06,1.15,1,2.47,1.55,2.07,3.42Z"/>
      <path class="cls-1" d="M382.55,931.16c-1.33,1.26-29.07-15.18-32.3-17.19-5.31-3.3-11.73-7.09-15.69-11.8,2.95.57,6.01,2.4,8.67,3.82,10.11,5.4,24.1,12.42,33.24,18.76.98.68,7.71,4.87,6.08,6.41Z"/>
      <path class="cls-1" d="M425.55,965.16c-1.63.27-2.7-.77-3.91-1.58-2.79-1.86-14.24-15.08-16.63-18.37-.99-1.36-1.87-2.07-1.44-4.05,1.17-1.36,19.19,17.67,20.53,19.96.76,1.31,2.02,1.95,1.46,4.03Z"/>
      <path class="cls-1" d="M282.56,520.17c4.91.26,2.62,7.91,3,11.49s1.33,7,1.51,10.51c.05.93.89,4.03-1.02,3.98-2.66-.07-3.71-22.73-3.5-25.98Z"/>
      <path class="cls-1" d="M349.55,527.16c-1.3,1.61-1.82-.1-2-1.48-.7-5.5-.27-14.49,3.99-18.52l-1.99,20Z"/>
      <path class="cls-1" d="M585.56,516.17c-2.42,3.52-12.19.56-15.99-.52-1.33-.38-4.8-.9-5-2.49,7.07-.12,14.02,1.99,20.99,3Z"/>
      <path class="cls-1" d="M787.57,359.16c3.67-15.99-2.2-28.65-14.01-38.99,5.72.26,12.95,8.6,15.02,13.47,3.07,7.24,4.48,19.34-1.01,25.52Z"/>
      <path class="cls-1" d="M770.55,272.16c-3.09-2.52-4.05-6.71-6.58-9.91-3.81-4.82-8.67-7.62-14.46-9.54l-9.95-2.54c13.77-1.97,29.04,7.77,30.99,21.99Z"/>
      <path class="cls-1" d="M449.56,177.17c-5.79,4.87-13.46,7.27-19.91,11.58-5.79,3.87-10.75,9-16.08,13.41-1.66-1.96,8.84-11.4,10.66-12.83,7-5.52,16.48-10.66,25.33-12.16Z"/>
      <path class="cls-1" d="M285.56,347.16c-2.8.47-1.67-.6-2.25-2.2-5.67-15.64,4.93-35.17,20.94-39.63,1.17-.33,2.95-.71,2.32,1.31-.19.62-6.14,3.4-7.51,4.51-4.26,3.45-13.5,14.08-13.5,19.5v16.5Z"/>
      <path class="cls-1" d="M651.55,202.16l-16.99-12.99c3.54-.19,6,3.08,8.92,4.57l8.07,8.42Z"/>
      <g>
        <path class="cls-1" d="M408.55,676.17c1.33,1.49-8.09,12.71-.52,20.02,3.06,2.96,10.16,3.98,13.54,1.49,2.57-1.89-2.22-8.68,2.98-8.51-.99,6.07,1.82,10.46,6,14.5-3.1,1.51-4.03-5.24-7-.98-.54,2.84,3.58,3.98,3.91,5.1.44,1.54-1.59,8.8-3.89,9.38l-2.5-2.99c-.73,3.65-9.96,17.76-8.5,19.99l2.98.48c-8.24,11.33-17.54,17.24-31.59,18.43-3.72.31-10-3.12-10.4,4.08,2.19-.26,4.26.97,6.4.92,4.14-.1,10.66-6.36,11.6.08-7.97,2.16-12,6.44-20.71,2.22-13.26-6.42-4.62-22.52,1.3-31.13,8.71-12.65,20.43-21.15,33.28-29.22l-.05-2.14c-2.37-3.31-4.18-6.91-3.77-11.11.17-1.73,4.66-13.19,6.95-10.61Z"/>
        <path class="cls-1" d="M570.89,712.82c-1.25-1.12-2.9-4.23-4.33-5.65,3.57,1.27,5.36,3.71,9.61,3.92,10.72.52-.5-5.52-2.12-6.92-2.61-2.26-4.99-5.12-7.49-7.55-1.69-1.65-4.07-1.14-3.05-4.81.18-.65,5.05-2.49,6.54-3.64,5.55-4.27,10.4-10.78,7.51-17.99l19.47,14.02c9.61,8.97,25.08,23.42,12.52,36.47-3.98,4.14-13.74,7.74-19.02,5.03-1.88-.97-1.66-3.9-3-5-2.76-2.28-11.78-3.51-16.65-7.86Z"/>
        <path class="cls-1" d="M546.56,617.17c4.23-.53,9.49.91,11.87,4.62,1.12,1.75,3.51,8.31-.36,7.37-.56-.14-2.51-3.51-3.48-4.53-2.56-2.66-5.46-4.85-8.03-7.46Z"/>
        <path class="cls-1" d="M453.26,737.34c5.23-1.56,8.11,4.58,5.31,7.33-5.28,5.2-11.8-5.4-5.31-7.33Z"/>
        <path class="cls-1" d="M541.39,743.01l-8.13,2.06c-2.57-1.18-3.19-3.65-2.6-6.29l8.3-4.58c3.1,2.23,4.53,5.36,2.44,8.81Z"/>
      </g>
      <g>
        <path class="cls-1" d="M849.06,970.16c.83.24,1.82,1.92,1.5,2.99-17.72,4.34-25.94,2.33-19.1-17.34-7.78-6.94-26.2-15.25-13.8-27.06,7.41-7.05,19.6-5.62,28.66-8.85,4.82-8.8,8.13-28.82,20.75-28.84,10.45-.02,17.96,18.55,20.66,26.93,7.7.84,15.56-1.67,22.35,3.16,4.4,3.13,5.65,6.72,4.04,12.06-1.5,4.96-9.98,12.72-12,16.99s-.83,11.37-7.49,13.51c-2.8.9-7.84.68-4.54-2.54,1.77-1.73,4.57-2.45,5.73-5.27s.32-5.67,1.5-8.5c1.29-3.08,7.8-9.69,10.05-13.95,1.6-3.03,3.82-5.27.14-7.75-5.63-3.79-17.43.56-22.34-2.66-3.89-2.55-6.75-16.09-10.16-20.84-14.43-20.06-19.51,17.19-25.47,22.41-5.4,4.73-31.35,1.91-30.54,13.04.31,4.27,16.12,11.72,17.42,16.22s-3.81,11.49-1.84,16.28h14.5Z"/>
        <path class="cls-1" d="M856.56,969.15c4.29-6.18,13.91-8.28,19.98-3.49-1.22,1.87-2.67,1.38-4.45,1.53-5.45.48-10.17,1.65-15.53,1.96Z"/>
      </g>
    </g>
  </g>
  <path class="cls-1" d="M195.79,898.64c.58,2.6.14,5.22-.29,7.81-.46,2.79-1.15,6.21-.32,9.01.65,2.18,2.94,3.72,4.99,4.38s4.44.59,6.46-.09c2.36-.8,4.13-2.3,5.63-4.26,1.62-2.11,2.3-4.66,3.33-7.07.34-.79.77-1.85,1.4-2.46.84-.82,2.54-1.34,3.66-1.71s2.3-.64,3.47-.39c1.37.29,2.37,1.27,3.47,2.05,5.21,3.71,11.46,5.4,17.76,6.02,1.35.13,2.5-1.24,2.5-2.5,0-1.46-1.15-2.37-2.5-2.5-5.03-.5-9.98-1.9-14.25-4.67-1.04-.68-1.98-1.53-3.05-2.16-1.36-.8-2.89-1.24-4.46-1.33-2.84-.15-5.57,1.05-8.06,2.26-1.4.68-2.25,1.45-3.12,2.74-.73,1.07-1.23,2.28-1.71,3.48-.82,2.03-1.42,4.08-2.88,5.76-1.11,1.28-2.41,2.09-3.88,2.24-.91.09-1.41.05-2.18-.16-.63-.18-1.23-.5-1.65-.98-.25-.28-.14.02-.24-.35.15.56.03-.71.03-.71-.04-.7-.03-1.4.02-2.1.09-1.41.34-2.79.56-4.19.52-3.19.83-6.28.12-9.47s-5.52-1.81-4.82,1.33h0Z"/>
  <path class="cls-1" d="M175.62,667.8c-8.97,7.97-5.31,21.13.76,29.66.78,1.1,2.18,1.62,3.42.9,1.09-.64,1.68-2.31.9-3.42-4.77-6.71-8.78-17.18-1.54-23.6,2.41-2.14-1.14-5.67-3.54-3.54h0Z"/>
  <path class="cls-1" d="M178.26,672.26c2.2-2.62,4.64-4.65,7.44-6.42s6.03-3.34,8.86-4.52c1.25-.52,2.14-1.66,1.75-3.08-.32-1.18-1.82-2.27-3.08-1.75-6.87,2.85-13.65,6.44-18.51,12.22-.87,1.03-1.01,2.52,0,3.54.89.89,2.66,1.04,3.54,0h0Z"/>
  <path class="cls-1" d="M9.22,396.52c12.65-7.88,21.75-21.11,24.35-35.81.22-1.22-.23-2.46-1.45-2.95-1.05-.42-2.6-.13-3.12,1.02-1.61,3.55-1.03,7.2.42,10.71,1.32,3.19,2.92,6.3,4.86,9.16,3.86,5.68,9.39,10.52,16.38,11.58,3.91.59,7.83.11,11.3-1.87,2.82-1.61.34-5.75-2.52-4.32-5.76,2.88-11.67,5.99-16.09,10.8s-7.09,10.74-6.35,17.04l4.66-1.26c-4.01-6.99-10.81-11.53-18.23-14.31-3.6-1.35-7.36-2.26-11.16-2.86s-8.62-1.17-11.6,2.1c-2.16,2.37,1.36,5.92,3.54,3.54,1.89-2.07,5.8-1,8.19-.57,3.42.61,6.8,1.5,10.05,2.74,6.06,2.32,11.62,6.18,14.89,11.88,1.15,2.01,4.96,1.3,4.66-1.26-1.41-12.11,10.79-18.95,19.96-23.53l-2.52-4.32c-6.06,3.46-13.38.41-17.85-4.21-2.47-2.55-4.34-5.6-5.95-8.75-1.36-2.66-3.71-6.71-2.33-9.76l-4.57-1.93c-2.38,13.45-10.43,25.59-22.05,32.82-2.73,1.7-.22,6.02,2.52,4.32h0Z"/>
  <path class="cls-1" d="M231.4,337.18c4.75,8.99,15.01,15.1,25.24,12.98l-1.93-4.57c-3.39,1.47-6.48,3.72-8.94,6.47-1.22,1.37-2.33,2.85-3.25,4.44-.44.76-.83,1.54-1.19,2.33-.15.35-.68,1.95-.83,2.02l1.26-.34c-.44.04-1.26-.55-1.73-.76-.79-.35-1.59-.67-2.4-.95-1.56-.54-3.16-.92-4.8-1.16-3.46-.51-6.88-.41-10.3.29-1.32.27-2.09,1.84-1.75,3.08.38,1.37,1.75,2.02,3.08,1.75,3.5-.72,7.14-.61,10.59.3,1.75.46,3.31,1.18,4.95,1.93,2.07.95,4.3.51,5.42-1.6.75-1.42,1.19-2.96,2.01-4.36s1.67-2.57,2.72-3.7c2.16-2.35,4.75-4.14,7.68-5.41,1.13-.49,1.47-2.1,1.02-3.12-.52-1.18-1.7-1.71-2.95-1.45-8.05,1.67-15.95-3.79-19.59-10.68-1.5-2.85-5.82-.32-4.32,2.52h0Z"/>
  <path class="cls-1" d="M842.7,975.7c7.89-.66,14.68-4.83,22.29-6.58,8.36-1.93,16.81.73,25.23.39,2.29-.09,4.51-.77,5.76-2.83.45-.74.73-1.58,1.03-2.38.11-.29.2-.5.26-.61.12-.22.02-.13.36-.28,1.24-.54,1.52-2.35.9-3.42-.75-1.28-2.18-1.44-3.42-.9-1.51.66-2.25,2.14-2.81,3.6-.48,1.25-.43,1.71-1.88,1.82-4.07.29-8.25-.39-12.3-.75-4.27-.37-8.54-.52-12.78.21-3.67.63-7.15,1.98-10.61,3.32-3.87,1.49-7.85,3.07-12.02,3.43-1.35.11-2.5,1.07-2.5,2.5,0,1.26,1.15,2.61,2.5,2.5h0Z"/>
  <path class="cls-1" d="M214.31,385.68c5.87,9.42,17.15,12.89,27.72,12.93,6.09.02,12.21-.82,18.22-1.75s11.46-2.22,16.76-4.71,10.03-6.27,13.21-11.24c1.33-2.07-1.34-4.8-3.42-3.42-5.72,3.79-10.47,8.88-13.75,14.92-1.54,2.83,2.78,5.35,4.32,2.52,2.87-5.28,6.94-9.8,11.96-13.13l-3.42-3.42c-5.32,8.3-15.25,11.6-24.48,13.24-5.44.97-10.99,1.69-16.5,1.93-5.12.22-10.27-.14-15.13-1.87-4.49-1.6-8.62-4.45-11.16-8.53-1.7-2.72-6.03-.22-4.32,2.52h0Z"/>
  <path class="cls-1" d="M276.74,388.39c.14,6.27-6.73,9.81-11.28,12.68-5.32,3.36-11.05,6.77-17.4,7.59-1.34.17-2.5,1.03-2.5,2.5,0,1.22,1.15,2.67,2.5,2.5,7.63-.98,14.27-4.67,20.67-8.75,6-3.83,13.19-8.48,13.01-16.53-.07-3.21-5.07-3.22-5,0h0Z"/>
  <path class="cls-1" d="M227.54,392.91c2.51,3.5,6.62,3.69,10.57,3.94,4.35.27,8.72.49,13.08.45,8.85-.08,17.68-1.32,25.74-5.11,1.22-.57,1.54-2.33.9-3.42-.73-1.25-2.19-1.47-3.42-.9-6.96,3.27-14.71,4.29-22.33,4.42-3.92.07-7.84-.08-11.76-.31-1.77-.1-3.57-.13-5.34-.36-1-.13-2.49-.35-3.12-1.23-.78-1.1-2.18-1.62-3.42-.9-1.08.63-1.69,2.32-.9,3.42h0Z"/>
  <path class="cls-1" d="M221.02,394.34c2.96,2.31,6.33,3.23,10.02,3.57s7.77.24,11.63.24c8.49.01,16.99-.35,25.34-2.01,1.32-.26,2.09-1.84,1.75-3.08-.38-1.38-1.75-2.01-3.08-1.75-7.58,1.51-15.32,1.82-23.03,1.83-3.67,0-7.36.04-11.03-.14-2.73-.13-5.83-.47-8.07-2.21-1.06-.83-2.5-1.04-3.54,0-.86.86-1.07,2.7,0,3.54h0Z"/>
</svg>