<?xml version="1.0" encoding="UTF-8"?>
<svg id="Calque_1" data-name="Calque 1" xmlns="http://www.w3.org/2000/svg" viewBox="0 0 1345.75 983.21">
  <defs>
    <style>
      .cls-1 {
        fill: #fff;
      }
    </style>
  </defs>
  <g>
    <path class="cls-1" d="M288.88,261.15c-2.77,3.97-51.83,6.52-59.19,4.06-43.41,72.89-158.06,66.14-191.88-12.29C2.53,171.11,77.09,79.71,163.35,90.37c61.53,7.6,111.67,73.19,88.76,134.17,10.67,11.7,22.77,22.12,35.44,31.63l1.32,4.99ZM280.98,258.24c-12.05-10.46-24.35-20.6-34.85-32.71,1.41-7.92,4.96-14.62,5.72-22.91,3.94-42.86-24.92-84.99-64.35-100.39C106.79,70.7,19.56,147.34,36.66,231.06c18.56,90.87,144.65,107.66,190.02,29.16,18.16-.05,36.33.8,54.3-1.99Z"/>
    <path class="cls-1" d="M834.48,965.25h189c1.98,0,1.99,6,0,6h-189c-.18,0-2.32-2.11-2.42-2.64l2.42-3.36Z"/>
    <path class="cls-1" d="M421.48,965.25h189c1.98,0,1.99,6,0,6h-189c-.18,0-2.32-2.11-2.42-2.64l2.42-3.36Z"/>
    <path class="cls-1" d="M6.98,760.75c1.05-3.72,7-2.2,7,0v108c0,2.04-7,2.04-7,0v-108Z"/>
    <path class="cls-1" d="M1318.7,229.41c4.4-1.3,5.73,3.36,3.26,6.33l-56.05,34.98c-3.06,1.72-7.05-1-5.47-4.46l58.25-36.86Z"/>
    <path class="cls-1" d="M1344.72,321c-3.2,3.09-55.84,4.68-64.26,7.34-4.73.4-7.26-3.54-3.78-7.11l64.87-6.9c2.99.59,5.76,4.17,3.17,6.67Z"/>
    <path class="cls-1" d="M768.71,954.48c22.97-4.7,24.82,25.9,6.52,28.55-18.32,2.65-21.88-25.41-6.52-28.55ZM772.71,959.46c-11.39,1.11-9.53,18.94,1.67,17.79s9.59-18.88-1.67-17.79Z"/>
    <path class="cls-1" d="M1277.7,380.39c2.25-.61,8.24,1.97,10.79,2.84,10.24,3.46,33.93,10.95,42.2,15.79,3.12,1.83,4.13,6.09.62,7.12s-46.21-17.8-53.62-19.11l-2.56-4.15c.18-.93,1.63-2.24,2.57-2.49Z"/>
    <path class="cls-1" d="M715.69,954.46c22.53-5.08,25.02,25.89,6.53,28.57s-22.41-25-6.53-28.57ZM718.73,959.42c-9.24,1.51-10.31,14.9-.77,17.37,14.15,3.67,13.97-19.53.77-17.37Z"/>
    <path class="cls-1" d="M661.72,954.49c25.98-6.66,24.47,33.24,2.46,28.09-15.16-3.55-14.28-25.06-2.46-28.09ZM665.73,959.42c-10.88,1.79-9.38,18.52,1.68,17.79,12.58-.83,10.28-19.75-1.68-17.79Z"/>
    <path class="cls-1" d="M8.74,652.44c15.39-2.23,16.42,23.05-.18,20.76-11.82-1.63-10.91-19.15.18-20.76Z"/>
    <path class="cls-1" d="M8.74,703.44c13.42-1.94,16.97,19.13,2.39,20.24s-14.77-18.45-2.39-20.24Z"/>
    <path class="cls-1" d="M7.69,602.45c16.34-3.7,16.53,22.79.03,19.58-10.95-2.13-9.47-17.44-.03-19.58Z"/>
    <path class="cls-1" d="M106.82,244.41c-20.16-3.73-35.02-14.65-25.02-36.85,1.23-2.74,5.59-7.66,6.03-10.05.53-2.86-1.54-6.61-1.83-9.77-1.49-15.96,7.6-31.06,23.94-34.04,7.38-1.35,15.25,1.21,20.47.55,2.67-.34,10.44-7.81,15.61-9.48,20.85-6.74,33.06,5.07,37.46,24.49,17.36,3.11,29.29,17.14,19.34,34.3-1.63,2.82-7.67,8.52-8.22,10.64-.5,1.93.67,8.05.29,11.43-2.15,19.2-20.87,25.67-37.88,23.05-13.16,22.37-48.29,29.09-50.17-4.28ZM176.97,168.24c-2.17-16.44-15.45-24.37-30.99-17.5-3.33,1.47-5.56,4.49-9,5.52l15.7,11.78c8.11.42,16.31-2.4,24.29.2ZM125.97,159.25c-9.47-.56-17.02-1.73-25.02,4.47-8.73,6.77-9.66,16.02-8.97,26.52l19.7-12.3,14.29-18.69ZM145.97,168.26c-3.83-.51-9.91-7.76-13.28-6.89-1,.26-7.05,6.51-8.22,7.85-.84.96-6.18,7.3-5.48,8.01,7.81-4.35,17.29-3.96,25.61-6.89,1.42-.5,1.68.28,1.37-2.09ZM174.48,173.25c-4.45-.6-9.92.43-14.5,0l10.52,11.02c5.85-1.06,12.17-9.92,3.98-11.02ZM156.97,179.26c-6.46-3.61-6.36-7.15-13.73-1.31-.8.64-1.84-.03-1.27,2.28,6.18,1.76,7.71,4.09,14.38,1.01l.62-1.98ZM192,207.24c1.9,1.31,6.16-5.98,6.87-7.61,5.66-13.04-2.39-21.73-14.88-24.39-.66.9.76,20.82,1.32,22.35.99,2.76,6.52,5.71,6.69,9.65ZM143.98,185.26l-8.98-4.51,1.97-3.5c-16.97,3.13-29.19,7.99-26.98,28,2.26-2.72,8.61-4.23,10.47-6.02,3.14-3.04,7.11-15.37,11.04-16.96,1.88-.6,2.4,2.58,2.41,3.56.02,3.67-1.85,8.31-.91,12.42,2.61-1.74,3.98-5.18,6-7.49,1.63-1.87,5.29-2.46,4.99-5.49ZM168.97,203.25c3.08-10.86.2-21.34-12.98-19l7.84,9.65c1.1.78,2.76,11.73,5.15,9.34ZM104.94,200.21l3.03-14.96c-4.7,3.55-18,9.87-11.54,16.78l8.5-1.81ZM175.98,198.24c5.58.84,4.68-12.06,2.49-11.98l-4.56,3.54,2.07,8.43ZM151.64,188.47c-3.44.29-16.25,11.19-16.69,14.32-.85,6.04,5.9,12.23,10.51,15.16l18.41-12.38c.5-5.35-6.35-17.59-12.23-17.09ZM149.98,229.24c.32-1.41-.22-1.64-.98-2.51-3.85-4.41-11.37-8.63-14.86-14.14-2.76-4.35-3.27-9.54-4.66-14.33-3.53,5.38-12.79,10.08-12.58,17.46.28,10.09,15.33,4.99,21.48,5.63.94.1,4.32.53,3.59,2.4-1.79,4.6-17.74,2.68-21.99,3.01,3.05,2.63,4.95,8.16,9.54,8.47,1.15.08,8.03-1.67,8.31-2.11.77-1.22-.62-5.49,2.64-6.83l3.53,4.97,5.97-2ZM177.99,222.25l10.91-5.64c.82-2.5-2.6-10.98-4.44-13.35l-3.01,10.96-3.46,8.03ZM104.97,204.24c-.5-.55-6.88,1.27-6.97,2.5,1.56,2.24,6.75,12.23,7.37,4.62.18-2.26-.73-4.75-.4-7.12ZM174.97,204.25c-2.34-.51-1.61.3-2.24,1.28-2.44,3.8-3.12,8.29-4.88,12.08-1.49,3.21-3.79,5.48-4.87,8.62,12.37-.57,12.47-12.19,11.99-21.99ZM104.98,237.24c-5.1-4.05-1.47-14.58-2.47-16.96s-10.93-10.36-12.03-15.01c-13.33,14.56-4.03,31.43,14.5,31.97ZM159.68,223.97c1.83-1.58,5.61-10.9,4.29-12.72l-13.98,9.02.61,2.05c2.83.69,6.47,3.92,9.09,1.66ZM160.98,243.24c14.47,1.8,27.68-5,28.97-20.51l-1.95-1c-4.69,5.04-14.06,6.09-18.91,10.12-2.63,2.18-5.52,8.58-8.1,11.39ZM118.98,238.24c-.47-1.78-6.75-7.14-7.99-5.99l-.05,5.54,8.05.45ZM142.98,239.23l10.41,2.86,7.57-8.34c-3.97-3.93-12.73.7-16.69,3.26-.97.63-1.79-.11-1.29,2.23ZM150.98,247.26c-6.59.45-12.61-.36-19.04-1.46-1.97-.34-3.98-2.09-5.59-2.25-3.36-.33-9.4,1.66-13.38.7.17,26.91,27.49,19.15,38,3.01Z"/>
    <g>
      <g>
        <path class="cls-1" d="M495.93,719.58c.46-6.72-1.18-13.29-4.84-18.86,10.36-7.91,8.54-13.99,3.06-24.15-5.83-10.8-17.36-23.75-27.87-30.13-2.13-1.3-9.75-3.97-10.11-4.39-.43-.49-.8-5.33-1.46-7.04-1.65-4.25-10.71-18.28-13.75-22.25-6.1-7.97-14.09-11.04-23.51-13.49-1.19-13.32-11.95-27.48-25.02-30.98-4.68-1.25-11.56-.28-14.42-1.58-4.22-1.92-12.83-14.79-17.46-17.53-6.26-3.71-9.2,7.59-13.03,10.92-11.55-6.08-24.15,2.17-24.61,15.04-16.75-1.21-24.04,15.29-18.03,29.49-10.67,6.61-12.11,18.81-6.87,29.58-28.68,12.31-28.02,48.36,6,51.01-3.08,5.26,5.55,14.71,5.64,16.51.06,1.11-2.44,6.09-2.44,9,0,13.91,15.1,31.71,28.68,34.61-3.72,18.5,19.81,42.58,36.72,44.84,2.58.34,7.6-1.72,8.39,1.58.03.12-.06.32-.21.57,1.13.31,2.02,1.16,2.35,2.32.12-.11.24-.22.37-.33,4.18,6.58,13.9,2.16,16.85,3.01.78.23,8.54,9.68,11.33,11.72,10.26,7.53,25.91,11.76,37.47,4.82,1.92-1.15,6.71-6.31,7.34-6.36,2.14-.17,12.93,5.96,17.93,1.69.07.09.14.2.21.3.09-.12.17-.24.27-.35.4-.41.86-.71,1.36-.92.42-.74,1.19-1.14,2-1.2-.1-.26-.18-.52-.26-.79l10.57,1.76c.38,0,.76.02,1.14.03,2.35.02,5.36.23,7.51-.9,1.06-.56,1.79-1.34,2.99-1.66.12-.03.24-.04.35-.06,9.78-5.91,10.74-20.5,4.54-29.69,20.48-12.32,10.2-47.8-9.15-56.14ZM455.38,647.23c5.34,1.41,11.02,4.7,14.6,9.01-3.22.13-5.98-1.83-8.95-2.55-1.01-.24-3.27-1.31-3.04.54,11.01,2.24,18.5,7.45,25.41,16.1,3.25,4.06,11.3,16.07,9.08,20.9-5.74,12.49-40.4-.63-47.49-8.49-1.11-1.23-10.66-20.02-10.84-21.23-.38-2.59,2.67-6.32,2.95-9.14,2.01-1.42,8.85,3.38,14.41-1.09,1.9-1.52,1.97-4.1,3.87-4.04ZM357.1,555.37c1.39-.6,2.34.1,3.43.82,1.66,1.1,12.88,12.51,11.45,14.04l-5.37,1.9-12.5-9.04,2.99-7.73ZM308.75,609.45c3.53-.83,6.76,2.53,9.21-.7-10.74-4.21-13.08-20.03-3.31-26.33,6.49-4.19,9.05-1.4,15.33.83-5.89-30.16,25.59-19.14,35.5-3.08,15.1-12.7,36.68-7.38,43.99,11.1.78,1.96,2.11,5.68,2.17,7.64.06,2.17-2.65,6.87-.11,7.34,1.42.26,3.91-1.15,6.68-.8,6.34.81,15.56,6.63,19.21,11.88,1.94,2.79,2.58,6.41,4.15,8.85,3.38,5.26,7.7,6.33,8.42,14.59,1.23,14.05-8.41,5.82-17.04,6.92-1.33,12.14-8.1,16.32-19.3,10.42-4.6-2.42-8.16-9.24-8.85-9.65-1.76-1.05-5.85.91-8.28.85-6.44-.16-9.86-5.12-14.17-8.98-3.45,1.68-4.8,4.51-8.67,6.12-12.05,5.02-23.17-3.01-29.2-13.18-2.13,2.93-1.58,5.92-3.67,9.31-6.8,11.06-26.32,8.17-26.84-5.34-6.22,2.7-12.21-6.02-12.91-11.58-.7-5.56,1.48-14.75,7.68-16.21ZM338.74,687.98c-2.68-11.7-6.75-21.91-4.61-34.59,5.64-1.07,9.21-5.81,12.35-10.12,9.25,10.33,23.56,12.33,34.86,4.09,3.02,2.63,7.63,5.64,11.58,6.45,2.85.58,8.69-.24,9.13-.04.71.33,5.41,6.53,8.59,8.33,2.81,1.59,7.57,2.3,9.87,4.13,4.46,3.55,16.42,25.91,17.21,31.78,1.4,10.35-3.52,28.53-14.71,31.78-4.19,1.22-8.28,2.27-12.49,3.51-11.58,3.39-11.32-.09-21.31-2.77-5.45-1.47-14.11-2.36-19.2-4.8-2.4-1.15-5-7.19-8.69-9.31-3.15-1.81-7.53-1.55-9.35-2.65-.66-.4-5.61-11.04-7.56-13.44-1.5-1.84-4.69-2.82-5.26-4.74-.66-2.23.15-5.09-.42-7.58ZM305.31,682.08c-6.19-2.61-12.15-3.67-17.34-8.33-13.82-12.43,2.75-34.93,17.85-36.38,3.65,8.61,10.86,14.91,20.15,16.37-5.3,5.81-5.11,13.92-5.16,21.35l-15.51,7ZM493.99,768.25c2.06,5.15,7.6,9.08,8.76,14.72,3.72,18.07-13.33,27.22-27.25,16.25-5.28,10.21-13.35,5.41-20.89,1.15-13.82,22.27-45.31,8.27-52.65-12.12-1.35-1.02-4.62,3.54-6.25,4.25-5.92,2.58-13.8-5.02-13.75-11.25-5.37,5.42-9.42,4.6-15.69,1.2-3.03-1.64-11.58-8.24-14.3-10.7-6.87-6.19-10.8-14.1-9.98-23.51,1.4-1.66,10.97,11.3,13.99,8.5-2.18-1.64-3.21-5.41-4.97-7.03-2.37-2.18-5.52-1.72-7.01-2.99-1.11-.95-.91-2.94-2.62-4.38-9.94-8.44-21.16-6.08-26.89-24.11-2.73-8.57-.94-11.7,2.58-19.36-4.99-2.87-8.35-6.8-6.92-12.97.9-2.56,11.57-5.16,14.2-8.94,2.32-3.33.13-7.01,1.09-11.79.52-2.58,2.28-5.93,4.06-7.93-.21,5.77-.09,11.43.77,17.22.74,5.01,3.2,10.75,3.64,15.38.29,3.05-1.38,8.45.34,10.13,8.71.91,10.11,15.45,14.17,18.33,2.34,1.66,6.49.54,10.09,2.91,3.16,2.09,5.69,9.09,8.18,9.82,2.08.62,4.85,0,7.39.61,3.03.73,6.19,4.09,8.64,4.38,2.07.25,3.86-1.12,6.53-.64,3.73.67,8.76,5.57,13.34,5.77,5.06.22,11.52-5.47,14.99-5.95,3.18-.44,5.73,2.01,8.81,1.95l14.12-18.92c1.77,1.59,5.51,4.38,7.48,1.48l-6.91-4.14c4.61-19.33-4.7-34.69-15.07-49.86l4.86-1.42c1.98,4.14,4.77,7.69,6.61,11.94,2.02,4.67.36,6.5,4.6,10.4,6.27,5.76,22.27,13.02,30.67,14.33,6.42,1,11.08-1.97,15.09,4.91,3.1,5.32,2.64,12.58,1.15,18.34,12.96-.73,21.48,19.11,21.73,29.78.21,9.16-6.57,20.84-16.71,14.23Z"/>
        <path class="cls-1" d="M301.97,787.24l8.43,23.08,31.58,8.91c-1.76.13-3.49.04-5.24-.25-3.54-.58-26.19-6.06-27.76-7.24-1.95-1.47-8.89-20.12-9.02-23-.09-1.99.19-1.57,2-1.5Z"/>
        <path class="cls-1" d="M192.98,449.24h-10c-.74,6.07,2.06,11.87,2.9,17.62.15,1.05.84,3.64-.89,3.38-.48-5.34-5.57-16.53-3.88-21.36,1.09-3.11,10.15-2.92,11.87.35Z"/>
        <path class="cls-1" d="M250.98,691.26c-2.9,4.45-7.6,4.41-12.4,3.88-1.37-.15-16.57-4.14-13.6-6.88,8.53,2.04,17.17,3.59,25.99,3.01Z"/>
        <path class="cls-1" d="M444.98,781.25c4.96.38,7.26,5.56,12.61,5.96,8.51.63,8.53-6.62,9.9-6.96,8.21,2.99-1.69,10.78-7,10.84-4.12.05-17.09-3.75-15.51-9.84Z"/>
        <path class="cls-1" d="M479.99,783.24c1.47-4.95,6.49-5.75,6.96-11.62.12-1.47-1.76-7.28,1.53-7.36,6.02-.14.23,23.3-8.49,18.97Z"/>
        <path class="cls-1" d="M403.68,680.38c5.37-1.31,13.46,11.3,7.3,14.38-7.94,3.97-14.04-12.73-7.3-14.38Z"/>
        <path class="cls-1" d="M352.64,671.46c6.71-.57,9.17,13.14,1.78,13.83-6.85.64-8.79-13.24-1.78-13.83Z"/>
      </g>
      <g>
        <path class="cls-1" d="M894.98,753.25l-9.82-32.68c-12.69-31.89-30.56-54.32-63.19-66.81-2.22-.85-5.68-2.56-7.98-2.02,4.33,4.08,8.35,8.39,11.61,13.39.56.85,2.46,2.22.89,3.11-30.78-37.74-98.25-44.68-133.01-9-1.86-1.05,2.57-5.4-.98-4.99l-5.51,6.98c3.24.98,6.77,1.39,9.96,2.55,8.25,3.01,11.92,3.65,20.25,5.75,3.52.88,8.77,3.06,11.78,5.22l-16.99-3.5,9.98,11.52c-.12,4.23-5.13-2.35-6.52-3.49-5.75-4.74-12.58-10.69-20.47-10.53,15.91,12.74,35.08,24.82,38.99,46.5l-16.48-24.01c-14.9-11.34-28.55-29.35-49.51-26.98.98,6.63,9.4,8.34,12.99,13.51l-3,1.49c.5,7.87,3.8,6.3,8.15,9.35,17.69,12.4,27.78,49.38,28.9,70.09.67,12.4-1.28,29.7-3.23,41.84-.59,3.68-9.52,16.21-11.68,20.38l1.87,4.32c-5.32-.69-7.6,5.72-11.3,7.29-1.98.84-3.69-.08-4.72.35-5.5,2.31-10.59,7.02-16.98,7.86,9.18,7.45,21.71,8.97,33.01,6.02,3.63-.95,7.07-4.44,10.27-2.51,1.07.64-.13,2.22,3.03,1.95,14.58-1.24,29.02-17.38,35.86-29.28.81-1.4,7.55-18.34,9.82-15.67-.32,11.25-7.77,24.04-15.02,32.47-14.02,16.3-28.26,17.43-48.46,19.56-.87.09-3.41-.66-2.51,1.46s8.74,10.02,10.98,12.03c24.14,21.61,60.71,29.82,92.5,27.47,7.47-.55,16.85-4.35,23.15-4.63,8.67-.39,20.44,2.94,30.85,2.64,87.05-2.54,126.07-73.19,148.01-146.99,1.62-5.47,4.79-22.61,6.99-26.01.31-.48,1.28-1.3,1.5-.99l-.11,9.38-9.38,42.62c11.3-11.18,21-24.17,26.99-39.01,2.77-6.87,4.09-14.47,6.78-21.23.42-1.06.28-2.98,1.73-2.75-1.4,19.35-11.57,41.56-24.02,56.47-3.9,4.67-11.42,9.98-14.43,14.57-1.17,1.78-7.01,16.13-6.47,16.88l25.93,15.07c-9.87-1.63-18.31-8.71-26.5-13.96-13.17,26.34-28.65,52.35-52.02,70.94-27.52,21.89-62.69,33.06-97.96,31.02-5.04-.29-12.47-2.54-17.02-2.47s-13.5,3.58-19.11,4.36c-37.4,5.22-83.15-7.45-108.41-36.35-1.63-1.87-6.43-9.73-6.95-10.05-3.69-2.2-12.21-.33-19.04-5.96-3.32-2.73-4.15-7.51-8.98-6.51-1.79,1.75,12.07,35.08,10.83,41.26-.8,3.95-17.81,24.14-23.96,23.2l-347.38-78.46-4.35-4.65-36.15-104.36c-14.33,3.51-29.44-.07-38.52-11.97-3.99-5.23-3.15-8.72-5.41-13.59-2.33-5.03-10.08-10.05-13.25-16.75-3.61-7.61-1.41-12.88-3.26-18.74-.8-2.54-3.93-4.3-5.39-6.61-3.38-5.32-3.86-12.68-3.16-18.84.3-2.69,2.7-7.12,2.65-7.99-.04-.65-5.44-8.24-6.37-11.28-4.29-14.12,2.54-30.77,15.49-37.68-7.4-22.55-15.09-45.07-22.04-67.77-5.02-16.38-11.23-34.31-15.23-50.77-2.6-10.69-5.67-21.31,4.99-29.01,2.03-1.46,4.45-1.72,6.02-2.98,3.3-2.64,11.5-11.73,15.03-11.97l218.11,44.9c5.5.33,7.4-8.62,12.34-11.44-3.33-1.17-6.97,1.17-10.5,1.5-13.65,1.24-36.83-4.33-41.49-18.99,3.84,1.47,7.39,3.4,11.6,3.89,33.81,3.93,61.88-27.98,60.22-60.74-10.22-3.49-16.46-9.39-22.25-18.24-1.95-2.97-3.44-8.19-5.55-10.45-2.86-3.06-15.25-9.58-19.94-13.06-2.92-2.16-16.93-13.24-17.65-15.35-.84-2.47-.8-4.36.51-6.62,1.86-3.2,17.66-17.88,21.52-21.47,2.56-2.38,12.12-8.71,13.22-10.27,2.56-3.62,4.07-15.74,7.34-20.28l-.17-1.27c-31.66-25.63-31.98-73.95-22.79-110.58,22.08-87.97,114.03-154.79,201.25-104.73,80.28-56.51,194.48-49.2,273.64,5.56l24.53-2.48c75.16,1.56,138.8,64.3,144.51,138.59.44,5.71-1.06,14.81.25,19.75,1,3.77,13.33,21.71,16.29,27.71,13.52,27.4,22.75,57.51,29.79,87.21,9.36,39.46,10.75,85.88,43.67,114.33,18.94,16.37,51.52,25.61,71.86,6.83l6.14-12.34c3.26,17.52-10.37,36.13-25.32,44.16-3.56,1.92-15.71,6.83-19.17,6.83h-23c-.17,0-1.75-2.14-2.5-.5,15.19,15.62,33.97,28.22,49.02,43.98,35.52,37.16,68.34,102.9,38.17,152.22-.86,1.4-8.49,11.97-10.19,10.3,12.06-17.68,5.86-39.54-1.83-57.66-5.24-12.36-12.77-24.74-22.16-34.33,9.59,35.59,13.98,74.84-5.59,107.92-5.82,9.84-12.63,13.72-15.12,25.88-3.89,18.96,4.11,47,26.7,48.7-19.98,9.91-45.12-.89-55.49-19.49-1.13.49-4.19,13.9-5.33,16.67-7.59,18.5-26.05,35.36-45.02,41.48-.13,4.31.08,8.22-2.66,11.84-2.01-.91-7.42-31.85-8.79-37.21-6.13-24.03-16.09-43.73-24.47-66.53-15.18-41.31-27.33-83.83-47.26-123.24-1.79-.23-.97,2.25-.87,3.37,1.71,18.39,7.67,47.78,5.79,65.04-.11.97-.44,3.76-1.9,3.58-2.18-17.87-2.72-36.29-9.25-53.26-.89-2.32-6.1-8.61-1.78-7.74l5,10.99c-.63-26.65-9.59-53.69-32.49-68.99l-2.99,9.99c-4.39-3.14.37-10.5-.95-12.98-.49-.92-6.59-5.12-8.03-6.04-44.53-28.42-106.07,10.79-122.52,55.03,15.08-10.98,30.77-21.61,48.47-28.02,18.83-6.81,47.09-12.84,66.56-7.52,2.03.55,5.07,1.36,5.96,3.53-20.24-5.93-42.35-1.24-62.22,4.29-12.33,3.44-25.7,8.18-35.78,15.71,3.12.11,5.64-2.06,8.73-2.76.99-.22,3.52-1,3.26.76-21.65,6.82-38.01,23.67-50.99,41.52,8.82-.16,17.65-3.08,26.45-3.55,16.14-.86,38.03,2.38,53.76,6.33,7.17,1.8,17.13,4.35,22.78,8.71-40.14-11.43-88.9-19.75-124.98,6.51l30.7,13.28,28.27,4.23c.19,1.81-3.34,1.03-4.38.88-4.38-.63-8.44-2.5-13.07-2.93-1.24-.11-6.28-.72-6.53,1.03,11.25,4.15,20.98,12.83,30.45,20.05,14.01,10.69,29.13,22.11,40.54,35.46-1.01,1.64-2.21-.35-3-1-5.48-4.51-10.91-9.18-16.68-13.32-1.13-.81-7.7-5.77-8.32-5.17,4.63,7.79,6.67,16.91,10.47,25.02,6.32,13.46,17.92,27.68,22.58,41.42.37,1.09,2.19,5.44-.04,5.54-3.75-8.74-8.37-18.13-15.01-24.99v14ZM861.97,47.24c.35-2.4-2.45-3.29-4.08-4.41-6.1-4.18-14.76-8.33-21.55-11.45-75.91-34.87-163.83-34.63-235.34,10.36l9.48,7.21c69.51-41.19,162.31-36.04,231.14,4.05l20.36-5.77ZM707.77,26.54c-32.05,1.72-65.44,9.16-92.78,26.21l11.47,12.32c24.94-16.28,54.67-18.28,83.35-13.16,10.49,1.87,8.85-.11,18.78-1.54,22.34-3.2,46.75,4.86,67.05,13.71,5.04,2.2,10.22,4.98,14.84,7.98l24.47-16.31c-37.5-21.28-84-31.52-127.19-29.21ZM547.97,29.26c-39.65-5.1-83.55,14.24-108.96,44.52-1.01,1.2-6.8,8.62-6.02,9.47,10.79-8.9,21.9-16.49,35.79-19.7s24.31-1.89,38.2,1.71c1.6-13.34,13.98-24.4,25.65-29.86l15.35-6.13ZM577.98,81.25c13.55-7.11,28.82-10.44,43.99-12.49-13.93-17.98-36.84-31.84-58.98-37.01-13.73-3.21-34.77,6.56-43.98,17.04-2.64,3-11.09,15.76-8.05,18.97,1.17,1.24,9.53,4.78,12.34,6.69,9.9,6.71,18.5,17.21,21.7,28.81,9.31-10.83,19.77-17.19,32.99-22-6.58,3.45-14.11,7.88-19.9,12.6-1.89,1.54-9.24,8.27-10.16,9.84-2.63,4.51,1.85,9.52,1.06,14.55,24.45-17.47,51.56-32.86,82-36.51-.02-.62-5.9-9.96-6.52-10.48-2.48-2.11-16.12.95-20.13,1.86-8.68,1.97-18,5.09-26.37,8.13ZM954.08,168.17c27.5-5.25,44.04-30.57,45.88-57.43.49-7.12.45-8.66-3.96-14.01-26.33-31.93-69.76-49.84-111.02-47.47,10.46,8,19.28,20.45,14,33.98,17.19-1.69,34.27-2.7,50.04,5.47,1.92,1,5.43,2.72,5.97,5.03-5.14-.99-9.9-3.72-15-5-9.63-2.42-36.02-4.97-43.93,1.09-1.45,1.11-6.48,9.27-7.6,11.4-6.14,11.62-9.44,26.07-6.43,38.98,26.65-7.69,62.71-1.66,72.04,27.95ZM863.99,96.26c4.85-2.43,9.66-4.8,14.74-6.76,4.21-1.62,14.81-3.38,16.35-6.65,4.42-9.4-1.27-22.17-9.16-28.04-1.47-1.09-7.79-4.57-9.39-4.61-4.98-.13-19.82,4.17-25.09,6.01-20.12,7.03-40.51,20.62-53.38,37.68l32.43,30.34h1.47c1.99-4.13,6.94-8.99,10.52-11.99,1.12-.94,1.63-2.43,3.5-1.99-10.72,13.28-22.22,28.65-23,46.53-.37,8.39,6.21,13.8,8.02,21.46,1.53.35,1.6-.23,2.43-1.06s8.74-11.2,8.98-11.9c.77-2.19-1.4-10.4-2.42-13.03,2.68-.52,1.74.58,2.44,2,1.02,2.04,1.55,4.54,2.47,6.6.42.94-.58,1.75,1.57,1.38,8.49-9.24,19.97-14.1,30.35-20.65-1.01-19.23,2.73-36.71,14.16-52.33-8.75-.37-16.37,4.76-23.96,7.53-.94.34-3.26,1.32-3.03-.53ZM520.98,344.75c-.35,6.13,0,12.79,0,19,0,3.35,4.84,19.87,6.52,23.48,1.24,2.68,2.72,6.24,5.94,7.01,3.62-.88,15.83-36.15,16.55-41.99l.97,8.48-2.98,16.51c6.78-7.01,9.89-18.37,11.7-27.79,4.24-22.13-1.79-35.47-2.75-56.66-1.47-32.64,7.19-74.16,23.52-102.56,1.16-2.02,2.42-4.81,4.51-5.98-21.89,51.88-32.85,115.76-8.17,168.68,10.54,22.6,31.24,43.87,56.18,49.31-12.82-13.27-20.03-30.69-25.27-48.22-5.34-17.88-8.5-35.51-7.73-54.28.05-1.21-.76-3.72.99-3.48,1.68,34.45,10.33,76.2,40.7,96.8,10.59,7.18,27.18,13.12,39.85,9.22,4.14-1.28-.28-2.24-1.57-3.47-3.22-3.07-6.6-6.37-8.77-10.27-.49-.88-2.2-2.52-.71-3.29,10.25,10.79,23.79,21.01,39.5,19.99-12.47-11.02-18.35-26.06-22.72-41.77-5.67-20.4-9.15-42.5-8.28-63.73.05-1.21-.76-3.72.99-3.48,2.93,41.83,16.7,85.56,54.99,107.51,5.02,2.88,12.31,6.98,18.05,7.06,1.25-.86,4.88-18.74,4.66-20.95-.37-3.68-8.51-19.88-10.44-25.38-1.63-4.63-3.49-9.37-4.24-14.24l15.98,34.99c4.93-47.55-5.73-95.27-20.28-140.2-.22-.67-1.83-3.65.3-2.3,10.38,18.99,16.4,40.17,20.69,61.32,9.94,49.08,12.86,111.88-24.69,150.18,19.24-3.1,38.39-10.78,54.01-22.48l18-18c-.71,1.61-.29,3.66-.82,5.18-3.2,9.17-7.84,21.29-12.02,29.98-2.41,5.01-5.36,9.86-8.68,14.32-1.5-.78.29-2.41.67-3.33,4.24-10.03,10.2-19.59,11.82-30.66-1.55.18-1.56,2.28-2.93,3.55-7.39,6.87-17.19,12.52-26.13,17.13-5.42,17.06-13.12,33.27-20.92,49.32l31.5-26.99c.75-.16.65.97.48,1.48-2.82,8.74-30.2,31.13-38.01,39.99-17.19,19.5-29.58,43.28-28.01,70.07,1.4,4.27.54,8.89,1.04,12.98.18,1.48.81,3.08,2,1.47,1.51-21.8,12.49-44.85,27-60.99-2.77,7.33-6.65,14.13-8.7,21.79-5.33,19.84-3.42,39.96,8.3,57.13l10.41,12.08c-9.64-1.69-15.83-11.44-19.99-19.57-3.47-.16-5.48,1.9-9.39,1.53s-6.21-3.04-9.62-3.95l-3,31.99c21.03-9.01,43.62-9.77,65.99-6-16.1-21.65-8.69-49.83,2.5-71.99,2.18-2.12,1.52-.55,1.14,1.14-3.43,15.42-6.75,33.5,8.35,43.86-12.27-26.47,4.6-53.11,18.52-74.99,2.01-2.14,1.71-.56,1.12,1.12-1.96,5.64-5.49,10.89-6.62,16.87,12.54-10.85,23.73-23.24,31.51-37.98l8.47-21.01c3.63,16.86-1.35,32.5-6.17,48.31-.3.99-1.7,2.99-.32,3.68,10.44-14.12,17.93-30.45,21.21-47.79,4.45-23.52,2.13-54.88-1.79-78.62-.56-3.42-2.48-7.02-2.93-10.57l-6.3,37.18c-3.25,15.77-10.44,43.84-18.83,57.17-.64,1.02-2.06,3.08-1.84.17,10.98-22.58,18.87-49.14,21.86-74.14.94-7.82,2.28-20.25,2.15-27.82-.08-4.96-2.74-12.48-3.02-18.06-.91-18.29,4.13-38.61,4.79-56.99.06-1.71-1.18-3.62-.79-5.5l2.03,3.46,1.94,9.54c3.12-12.2,3.67-23.65,1.02-35.99l9.99,4.99c-13.11-9.2-24.99-19.29-33.17-33.32-14.85-25.48-17.38-51.81-5.06-79-13.28-34.27-37.84-66.11-71.76-81.68-.23-1.86,2.04-.79,3.04-.55,5.91,1.42,11.23,4.62,16.93,6.56,6.68-14.82,19.38-26,31.01-36.99-24.78-9.92-53.92-22.36-81.22-16.74-8,1.65-14.6,6.31-22.27,8.73l7.49-6.51c-16.34-6.64-36.07-4.97-53.01-1.01-3.92.92-27.68,8.79-27.97,12.01-.18,2,3.06.84,3.76.8,7.4-.36,14.69-2.15,22.21-1.29l-23.99,3c1.97,1.89,3.33,7.6,4.5,8.99,1.48,1.75,6.62.76,7.5,3.99-84,7.63-145.24,81.25-171.02,156.49-14.72,42.96-24.78,94.69-11,139.04.53,1.69,7.18,19.87,9.01,18.48,3.23-5.38-.14-8.88-.86-14.62-1.78-14.13-.99-29.65,1-43.75.18-1.27.41-5.44,1.87-5.62-.5,14.55,3.01,29.37,7.3,43.2,1.81,5.83,6.39,11.63,5.21,17.79l-3.49-3.99c-5.39,25.69-21.96,47.84-24.06,74.34l7.04,2.66.13-12.38,3.87-13.62c1.22,4.68-3.17,24.13-.01,26.52l53.02,11.47c-5.39-17.69-2.62-37.16.3-55.19.46-2.87.84-5.85,2.58-8.31l-20.88-10.48c-.98,1.11-.55,23.94-1,27.51-.19,1.46-.76,3.1-2,1.48l-1.01-31c-2.85,1.51-4.24-1.89-5.52-3.97-4.12-6.66-6.85-15.26-7.46-23.03.82-1.1,4.97,8,5.57,8.92,10.39,15.85,27.33,25.85,46.41,27.07-1.56-1.89-3.69-2.94-5.5-4.98-35.52-39.94-35.18-107.01-14.99-154.01,2.05-2.1,1.7-.59,1.13,1.12-12.3,36.61-16.15,80.53-1.12,116.87-.72-9.7-.59-21.71,1.79-31.21.25-1.01.28-3.01,1.7-2.78.89,1.99-.92,4.38-.99,5.5ZM500.96,125.24c6.03-13.33,8.18-27.89,7.05-42.53-.55-7.09-1.23-13.71-8.34-16.66-22.52-9.39-55.82,4.93-69.7,23.7-9.76,13.2-7.03,37.65,8.51,45.49,8.17-15.19,27.96-22.23,44.35-18.35,6.91,1.63,11.98,5.27,18.13,8.36ZM517.99,148.24c6.3-4.88,10.92-11.37,16.46-17.02,4.14-4.23,10.89-6.32,10.55-13.42-.91-18.87-17.2-40.31-35.02-46.55,4.87,18.42,3.56,40.26-6.96,56.51,6.64,4.92,12.42,12.46,14.97,20.48ZM437.99,147.25l1.56-9.04c-16.75-6.83-19.51-26.25-15.58-41.96-1.18-1.53-14.93,26.7-15.76,28.73-7.68,18.91-14.21,45.77,3.83,60.7l7.93,4.55c-13.04-.35-20.04-13.45-21.49-24.98-1.66,1.14-1.44,2.73-1.56,4.44-1.05,14.71-1.11,27.33,2.34,41.76,6.7,28.02,26.33,50.98,57.1,49.85l9.61-27.05c-13.91-2.22-19.48-19.74-16-31.99-9.71-3.72-17.86,7.36-21.18,15.3-4.48,10.72-4.99,21.81-.83,32.68-8.5-6.72-6.71-21.17-4.02-30.53,3.44-11.97,10.71-19.1,21.95-24.05l-1.93-9.42c-4.89,1.62-9.72,4.21-14.99,4.6-1.57.12-2.51.34-3-1.59l17.84-6.17c.41-12.92,8.95-25.6,22.16-27.85-4.87-17.24-15.21-23.56-27.99-7.99ZM819.97,156.24c.12-10.92,5.22-20.39,8.88-30.29-9.97-11.49-22.61-20.18-34.37-29.69l-11.58,19.34,17.6,15.62,19.48,25.01ZM992.98,230.26c15.4-3.01,33.43-19.22,38.74-33.77,2.83-7.75-.5-28.39-2.42-37.05-4.26-19.18-13.83-37.73-25.82-53.18-1.71,29.18-9.15,51.56-37.51,63.48-6.24,2.62-14.23,1.2-9.98,10.51l-8.04-11.45c-15.98-10.11-34.83-4.37-45.95,9.97l11.27.71c20.71,7.94,24.3,33.97,11.73,50.76,14.77-1.13,23.72-13.85,29.5-26,2.03.08-2.05,15.72-5.49,16.52v1.48s17.98,7.02,17.98,7.02c.24,1.8-2.17.91-3.23.74-5.57-.88-10.96-3.73-16.28-5.41-6.26,5.78-13.55,11.28-22.48,11.67-2.11,1.76,5.96,3.49,6.68,3.82,24.56,11.23,30.68,40.98,11.32,60.17,50.47-7.98,88.72-48,89.99-99.98l-6.56,10.93c-7.95,11.12-19.78,17.86-32.95,21.05l-.48-1.97ZM495.97,129.26c-15.46-9.76-35.17-11.16-47.99,3.49,23.37-.15,25.53,25.69,22.72,43.72-1.07,6.88-2.82,14.41-7.21,19.79-3.88,4.76-8.75,5.54-9.54,12.46-1.12,9.84,2.31,20.49,12.56,23.47,12.3-27.74,28.03-54.23,47.34-77.65.75-2.9-10.41-20.27-13.59-21.15-3.84-1.06-15.3,9.74-19.27,11.86-2.27-2.47,16.8-13.37,14.98-15.98ZM922.48,158.25c4.51-.61,11.16,0,16,0,.22,0,1.21,1.49,2.5.99-12.11-17.45-38.05-18.58-57-12.98,4.08,9.29,10.06,17.82,12.01,27.99,6.77-6.27,17.01-14.72,26.49-16ZM881.8,148.42c-3.03-1.78-14.73,5.53-17.73,7.41-4.19,2.63-21.28,15.12-20.86,19.75l3.78,7.65c-1.44,1.43-4.73-4.22-4.92-5.36l-2.06-.62c-13.28,20.59-19.66,45.18-10.5,68.97,12.25,31.8,57.61,23.5,66.98-7.97,3.21-10.79-.86-7.88-5.7-15.31-3.01-4.62-4.75-10.28-5.26-15.74l-13.54-7.46c13.59-2.01,15.82-13.69,22.51-23.39-2.58-9.97-7.67-19.09-12.69-27.93ZM466.97,159.25c-15.77,3.38-23.81,25.67-13.49,37.98,4.55-2.49,2.69-5.95,3.74-9.25,3.42-10.8,12.37-16.46,9.76-28.73ZM913.99,231.24c1.18.86,6.61-4.8,7.51-5.97,7.37-9.58,7.76-23.77.47-33.52-6.78-9.06-20.55-11.77-19.03,3.02.46,4.43,5.14,20.24,6.74,25.26,1.22,3.82,3.72,7.15,4.3,11.21ZM884.97,204.24l.99-10c-2.92,1.98-4.92,5.35-8.99,5.01l.62,2.06,7.38,2.93ZM901.97,209.25l-7.01-13.99c-1.44-.23-1.39,1.77-1.67,2.79-3.28,11.81.15,20.91,9.68,28.2-1.66-4.93-3.47-11.13-5.79-15.7-.98-1.93-4.22-3.77-2.71-5.29l7.5,3.99ZM1156.98,640.25v17.5c0,9.64-10.08,32.92-16.17,40.83-10.4,13.5-30.87,22.9-47.82,19.66l12.46-8.02c25.9-26.9,20.77-64.18,8.3-96.24-1.73-4.44-5.24-13.85-7.52-17.45-.64-1.02.06-1.75-2.24-1.28-2.12,13.62-11.47,24.34-21.85,32.66.89,24.54-11.04,49.67-30.04,64.94l16.89,46.4c1.42,1.45,1.81-.09,1.99-1.48.71-5.6-.88-10.7-1.05-15.98-.04-1.11-.63-3.8,1.04-3.53,2.66,10.54.7,20.7,2.02,30.99,9.82-13.4,10.27-33.28,10.98-49.51.05-1.21-.75-3.71.99-3.48,2.75,20.49.71,41.89-8.62,60.49,5.24,13.99,9.9,28.57,11.63,43.5,1.16,1.44,4.24-3.92,4.81-4.69,4.99-6.66,9.11-14.07,12.2-21.79l3.97-13.52c-.33,15.89-8.12,32.53-18.99,43.99,22.54-8.13,38.12-27.94,43.51-50.98,3.01-12.84,1.9-23.8,3.5-36.52.23-1.82-.38-1.63,1.99-1.49v16.5c0,2.68,3.46,13.37,4.82,16.18,6.33,13.08,22,21.91,36.18,23.31-24.61-19.05-17.83-49.23-13.99-75.99l2.48,12.99c38.62-43.95,22.89-108.55-.48-155.99,23.9,29.67,54.9,59.54,57,99.99,2.85.47,1.67-.59,2.13-2.31,4.38-16.13,2.11-41.48-2.86-57.47-12.05-38.83-43.32-74.58-74.79-99.21-1.68,1.05.44,2.19,1.01,2.99,3.44,4.94,7.72,10.58,9.81,16.19.25.67,1.75,3.69-.32,2.32-3.72-6.78-8.4-12.87-12.84-19.16-11.74-16.61-29.08-26.71-41.57-42.43-2.64-3.32-5.92-8-7.57-11.92,4.69,3.51,7.29,9,11.46,13.03,23.99,23.18,67.44,21.13,86.53-7.02-33.93,16.99-72.66-6.66-90.42-36.09-16.02-26.55-18.46-59.97-25.26-89.74-8.83-38.62-21.36-77.14-41.82-111.18-2.32,17.93-7.26,35.84-18.15,50.5l8.64,17.5-10.01-15-10.91,11.64c4.48,5.78,6.95,11.51,9.49,18.3,3.15,8.46,3.03,6.7,7.28,13.72,6.52,10.76,9.61,22.74,7.6,35.32,6.58,5.42,42.67,34.86,43.31,40.65.2,1.85-.9,4.07-2.36,5.26-2.99,2.46-21.79,9.43-22.31,11.71l19.91,44.4c-6.69-8.18-12.24-18.35-16.46-28.03-1.94-4.45-3.03-10.57-4.75-14.25s-8.99,2.17-12.11,3.46c-5.4,2.22-10.91,4.27-16.49,6.01,2.21,6.85-10.49,17.21-11.03,19.51-1.13,4.85,5.45,18.99-.88,25.82,10.43,10.15,20.15,24.19,17.21,39.53,13.87,8.29,25.51,23.16,34.32,36.64,12.1,18.5,15.11,36.82,5.2,57.31,13.99-14.28,14.24-43.66,9.5-62.01-6.03-23.35-24.59-39.86-39.51-57.49-.95-1.12-2.42-1.63-1.99-3.5,15.61,14.57,29.63,31.13,41.81,48.68,9.72,14.02,20.22,29.55,24.2,46.31,1.85.03,1.04-4.29.88-5.39-1.32-9.23-5.02-19.18-9.88-27.12l1.98-.49c14,28.63,30.49,56.79,35.72,88.79,5.09,31.14,4.36,69.55-17.71,94.2,25.94-6.64,37.93-29.1,42.71-53.78.96-4.95.9-9.65,1.57-14.43.14-1.01.29-3.99,1.72-3.78ZM837.99,262.25c-1.64,1.69,12.56,16.33,14.46,18.03,22.22,19.71,91.95,43.35,97.42-1.64,3.55-29.21-18.25-32.54-38.86-40.92-2.67-1.09-6.39-3.79-8.58-4.43-2.04-.59-1.19.49-1.47,1.42-1.66,5.49-2.72,10.18-5.78,15.24-11.49,18.96-38.85,24.65-57.19,12.3ZM441.98,365.24c-16.83-30.15-20.9-69.12-5.03-100.5l-12.49-6.38c-12.88,22.36-14.82,52.05-7.74,76.65,3.64,12.66,11.22,27.59,25.26,30.23ZM453.98,267.26l-9.91-.95c-16.27,32.92-13.37,76.16,9.9,104.94-1.01-5.78-2.35-11.66-2.98-17.51-2.52-23.47-5.63-45.15-1.72-68.7.99-5.95,2.56-12.16,4.71-17.78ZM1011.98,293.24l-8.5-13.97c-4.03,2.41-6.65,7.16-11.5,8l11.98,2.5,8.01,3.48ZM408.97,284.25l-28.98,27.49c9.91,7.75,19.2,16.68,30.47,22.51-3.26-16.45-5.1-33.41-1.49-50ZM1026.97,338.25c1.58-28.5-19.28-52.52-48.97-40.48-48.19,19.55-63.41,124.85-11.99,140.95,16.67,5.22,44.03-9.09,49.97-25.46-4.75-1.13-4.57,2.49-6.95,4.54-11.48,9.89-27.23.86-33.87-10.23-14.33-23.92-8.8-64.59,13.34-82.3,10.34-8.27,25.61-10.01,33.31,2.65,2.38,3.9,1.31,8.33,5.16,10.33ZM912.98,448.24c-40.63-32.7-41.39-97.13-14.02-138.49l-21.5-7.35c-17.16,21.98-22.26,48.92-20.52,76.4,1.97,31.05,19.81,70.46,56.04,69.45ZM863.99,316.25l4.98-7.43-4.49-3.56-.48,10.99ZM944.98,306.26l-22.3,4.19c-18.82,25.98-23.91,62.12-15.41,93.02,3.59,13.05,14.57,33.66,26.57,40.42,4.55,2.56,14.1,1.89,19.56,1.28,2.29-.26,4.3-1.65,6.58-1.93l-14.47-9.01c-33.87-34.01-29.64-92.34-.52-127.97ZM927.98,445.24c-30.68-27.27-36.33-72.12-23.27-109.76l7.78-20.22c-25.68,32.87-23.72,98.61,9.02,125.97,1.69,1.41,4.29,3.7,6.47,4.02ZM901.98,318.26c-2.04-.36-2.85,1.28-3.83,2.66-20.21,28.32-16.18,86.6,6.86,112.81.81.93,5.83,6.65,6.97,5.52-28.1-33.2-27.62-82.9-10-120.98ZM926.98,362.75c-.51,5.26.37,11.16,0,16.5l5.28-30.22,10.73-27.27c-2.13.63-4.14,4.89-5.18,6.82-4.94,9.16-9.82,23.86-10.83,34.17ZM1018.97,335.24c-1.78-7.88-10.27-11.54-17.71-9.21-14.89,4.66-24.32,31.54-25.32,45.68-1.21,17.19,4.32,49.11,28.04,42.53-18.21-18.08-17.04-52.2-.51-71,3.66-4.16,9.68-9.89,15.5-7.99ZM1069.98,384.23c.41-1.51-.4-1.66-.98-2.5-3.1-4.49-15.25-14.77-20-19s-24.12-21.25-28.73-22.29c-9.22-2.08-16.76,13.26-19,20.59-3.75,12.28-4.51,27.69.86,39.57,5.03,11.11,8.93,7.45,19.06,4.36,16.9-5.15,32.63-13.78,48.79-20.73ZM641.98,406.24c-33.36-.18-59.98-26.94-72.49-55.99-6.76,9.17-6.3,20.97-11,31-2.56,5.45-7.33,10.1-8.34,16.7l5.84,5.29-15.99-2.99c.23,4.82-1.49,9.35,2.93,12.55,6.79,4.92,25.16-1.92,33.06-3.55-8.65,7.33-21.09,8.4-31.93,10.08-1.27,14.94,12.29,13.47,20.87,19.47,3.85,2.7,8.01,7.75,9.16,12.37,13.82-4.69,28.63,1.92,32.93,16.08,8.47-4.7,11.3-.58,17.77,1.7,7.63,2.69,12.28,2.8,17.84,10.22,3.78-1.81,5.5-5.3,9.31-7.48,13.99-8.01,31.5-7.1,44.57,2.33,5.24-6.18,11.41-7.56,18.17-10.59,1.86-.83,4.03-3.24,5.33-3.7,1.03-.36,2.22,1.28,3.53,1.46,5.25.73,12.09,2.72,14.46-2.93l-15.99-3c2.37.02,4.14-1.23,5.91-2.6,10.95-8.5,19.26-22.59,23.16-35.8-7.63-2-14.94-6.5-22.26-8.92-1.26-.42-8.82-2.46-9.5-2.48-1.44-.04-6.22,3.67-10.8,3.86-7.79.32-18.97-6.14-22.03-6.03-1.64.06-2.9,1.98-4.49,2.46-20.07,6.15-41.21-3.44-54.5-18.5-1.57.89.34,2.26.89,3.11,3.89,5.96,9.02,10.53,13.61,15.88ZM452.98,466.25v-14.5l15.76-48.84c-1.9-3.32-4.52-6.23-6.27-9.64-1.42-2.75-6.34-15.43-6.97-16.03s-6.76-2.56-8.13-2.89c-2.42-.59-1.25,5.21-1.51,7.27-1.22,9.37-4.27,17.98-7.87,26.62l13.99-5.5c-4.02,5.73-11.91,6.75-16.95,10.05-9.22,6.03-17.17,19.96-30.51,22.49l-15.54,3.45c13.83,4.69,29.52,4.28,43-1.49l-10.41,14.08-3.58,7.91,35,7.01ZM723.97,403.26c-10.95-5.05-17.06-16.49-24.98-25.02,1.47,5.02,11.52,24.62,15.69,25.8,2.6.73,6.05-.33,8.79,1.22l.51-2ZM548.98,399.24c-2.06-5.42,3.04-13.08-2.99-16.99l-5.02,15.99,8,1ZM476.96,388.25c-2.96-2.59-1.15,6.54-.92,7.37.33,1.16.4,2.44,1.92,2.62-.16-1.77,2.16-3.87,1.86-5.35-.05-.27-2.66-4.46-2.86-4.64ZM563.98,498.26c-122.82-30.15-247.32-53.14-371-79.63l-4.99,1.63,1.24,2.22c121.37,25.21,242.95,49.56,363.77,77.24l3.98,2.51c-43.1-8.75-85.81-19.44-128.81-28.68-75.15-16.14-152.5-33.27-227.98-47.02-8-1.46-15.21-4.77-21.2,2.22-.43,2.4,1.09,1.21,2.51,1.46,84.41,14.5,171.58,34.42,255.52,52.49,27.62,5.95,55.5,11.59,83,18,5.97,1.39,27.18,5.66,30.91,8.09,2.11,1.37,2.54,3.52,3.33,5.67,5.7,15.36,9.39,36.6,14,53,12.99,46.19,26.78,92.15,39.63,138.37.68,3.09,3.51,2.49,6.09,2.4-17.84-67.98-39.78-135.39-55.82-203.81l5.21-4.19.61-1.98ZM862.96,422.25l-1.97.48,3.48,15.52c1.25-1.37,3.47-4.58,3.3-6.34-.05-.54-4.42-9.28-4.81-9.65ZM540.98,432.24c.95-2.16-3.66-7.2-5.36-6.92-4.19,2.28-4.06,7.04-5.64,10.91l11-4ZM604.98,708.24c-19.32-63.69-37.47-127.79-54.26-192.23l-2.79-4.21c-124.18-28.24-249.16-53.21-373.89-79.1-6.76,2.49-6.7,10.58-5.61,16.6,2.99,16.5,12.05,39.93,17.28,56.72,8.96,28.77,19,57.21,28.04,85.96,1.96,3.32,18.63,9.38,23.53,12.47,10.62,6.7,18.61,18.51,11.7,30.79,9.5,2.89,14.78,11.68,14,21.52-.16,2.08-1.77,5.08-1.67,6.02.09.85,6.6,10.48,7.43,15.22,1.04,6-1.92,10.62-1.64,12.53.37,2.58,4.65,6.15,4.79,11.33.21,7.91-8.1,12.25-7.75,15.64l37.9,104.21,345.08,78.05,11.5-10.96-12.78-45.88c-.18-1.3-7.57-3.78-6.86-1.15l13.99,50.01c-2.49,3.61-4.59-3.91-5.25-5.73-5.38-14.83-8.04-30.84-13.24-45.76-15.22-6.2-26.4-12.05-29.42-29.68-.33-1.93.83-4.26.41-5.41-.32-.87-8.3-6.75-10.64-11.26-3.75-7.22-1.44-10.37-3.03-15.97-.66-2.33-6.53-7.68-8.22-10.78-2.76-5.07-3.4-11.66-2.5-17.37.46-2.95,3.95-6.8,3.74-8.91-.18-1.83-4.2-7.07-4.71-11.23-1.84-15.07,10.94-23.55,24.91-21.43ZM1005.97,434.25l-17.71,8.76-1.28,2.23c7.67.47,13.73,6.17,19.99,10,2.2-6.96.78-14.18-1-20.99ZM755.98,466.25h-15.5c-1.8,0-7.57,5.31-9,7-2.17-1.72,2.81-6.76,2.5-6.99-7.16-.53-12.35-.05-18.98,2.51-1.92.74-17.36,8.95-15.01,11.48l3.5-1.99c2.06,1.7-5.58,5.73-7,6.01-2.98.6-.47-2.57-1.05-4.07-1.72-4.47-18.21-9.06-22.91-8.98-9.01.16-28.55,7.94-27.55,19.04-6.02-1.43-13.88,3.18-18.47,7.02-3.05,2.54-4.95,6.66-8.52,7.97,2.73-10.37,13.23-15.83,22.99-18.01-.2-1.76-5.36-1.15-6.5-.99-2.85.4-4.81,1.6-7.49,2-.88-4.22,8.88-6.3,8.97-7.49-2.71-6.9-8.42-5.22-13.23-6.75-2.27-.72-4.25-3.26-7.39-3.44s-6.72,2.1-9.75,2.56c-2.46-2.51-3.03-5.78-5.19-8.79-6.19-8.61-17.92-13.68-27.15-6.43l-6.26,7.34,2.97-10.96c-.48-.68-6.18-.29-4.97-2.52l2.98-1.53v-1.45c-4.28-5.52-8.21-7.41-14.74-9.3-1.47-.43-3.32.11-4.51-.24-1.92-.57-1.06-5.04-8.78-3.57-4.18.8-12.62,6.96-14.2,10.83-3.23,7.94,4.41,23.16,5.25,31.74,2.9-3.35,5.92-5.83,10.35-6.83l2.63,2.35c1.32,3.12-6.02-.74-6.8.68-.78,2.54-5.51,6.94-3.3,9.37,5.05,5.56,33.98,2.96,36.59,15.45,18.42,64.17,34.23,129.21,54.02,192.98.62,1.99,3.82,12.9,4.99,12.97l18.44-9.09-.44-7.89-10.48,8.01c.07-6.23,6.76-13,12.9-10.9l2.13,12.87c9.84-2.5,17.21-.13,25.96,4.02-.14-2.76.32-5.66-.09-8.4-.55-3.74-13.02-24.19-16.08-27.92-7.88-9.59-16.81-12.63-29.04-9.38-3.18.85-6.9,3.38-9.29,3.73-1.56.23-1.71.02-1.52-1.53,4.95-10.99,21.34-11.18,31.31-7.28,2.96,1.16,5.19,3.27,8.49,4.51,6.11,2.3,12.85,2.8,19.16,4.26,3.77-8.52,8.26-7.69,9.1-18.45s-.67-21,1.95-31.54c-3.91,1.82-8.42,5.1-12.98,3.5,10.86-5.42,15.84-9.67,15.04-22.85-.19-.77-4.85-2.39-5.57-2.32-.68.07-9.2,5.71-11.8,6.84-8.28,3.56-17.07,5.71-25.15,9.83-2.71-1.26-.02-4.41-1.47-5.49-2.35-1.75-9.97-3.85-13.41-5.66-6.81-3.57-11.1-8.47-19.63-8.86,2.85,12.5,12.81,18.04,21.99,25.5-.93,1.61-2.24-.38-3.09-.91-3.78-2.34-7.14-5.24-10.89-7.6-.88,1.05,10.5,21.55,11.82,24.67.39.92,2.18,2.55.67,3.33l-25.45-46.55c-2.12-3.08-9.6.21-11.04-2.96l2.97-3.95-5.97-8.54c6.22-.48,6.54,3.22,10.66,5.83,6.44,4.09,13.3,6.16,20.82,7.18,2.47-5.38.32-6.79-1.43-11.39,1.88-2.67,4.88-3.4,5.51.33.2,1.21-1.32,2-1.32,3.34,0,3.66,3.69,8.37,1.85,12.55.59.98,18.59,10.02,20.46,10.14,3.27.21,18.97-5.61,22.33-7.59,4.07-2.4,5.67-4.76,8.61-8.3,6.4,5.87,15.03,5.17,22.48,1.84-1.75-7.06.13-14.74,1.02-21.92-6.15.67-8.57-3.64-14.48,0l-1.51-2.48c4.5-7.1,10.02.47,16.82-2.69,3.09-14.73,11.87-26.89,21.16-38.35.16-2.52-2.98-.44-5.51-1.39-.82-.31-3.03-1.39-2.48-2.09,11.16-1.43,16.73-11.96,21.52-20.99,4.44-8.39,7.19-17.57,11.48-26.02ZM865.98,474.25c5.77-.54,10.61-3.85,15.94-5.56,3.45-1.11,8.18.77,9.82-4.18.73-2.2,2.49-12.45,1.27-13.75-3.06-3.27-17.37-7.31-20.54-13.49l-7.37,7.67c-.85,2.48.88,4,.88,4.83v24.5ZM1082.98,540.25v24.5c0,2.31-2.53,10.83-3.51,13.49-3.8,10.26-11.76,19.93-23.48,20.01l6.56-6.93c11.39-26.4,1.32-45.47-17.55-63.62-.87-.84-2.78-1.36-2.93-1.59-.36-.52.91-2.65.71-4.12-.88-6.45-7.54-12.79-12.31-16.73-2.61-.21-1.02.41-.75,1.75.63,3.21,1.72,6.08,1.25,9.53l6.99,6.21c-3.25,4.12-4.67-1.37-7.97-1.5l-.98,5.95c8.29.46,3.09,8.89,4.44,12s16.96,11.08,15.09,15.06l-2.05,1.97-50.02-32.96-.48-3.01c2.94-2.95,19.55,12.03,22.53,12.04,7.85,0,10.85-34.71-2.8-31.86-2.96.62-5.43,5.05-7.09,4.75-3.77-4.07-8.49-6.9-13.63-8.95l.51-2c5.44.39,9.45,4.28,13.01,8l1.42-.02c1.15-4.29,7.04-5.23,10.62-6.9,3.81-22.85-21.02-43.72-41.51-47.61-10.41-1.97-13.31,1.49-22.83,3.27-11.72,2.19-27.07,1.62-38,5-9.45,2.92-17.3,11.56-27.03,14.47-.67,10.48-7.53,18.96-10.18,28.81,4.72-1.41,9.96-3.87,14.75-4.74,1.04-.19,4.4-1.16,4.23.73-5.18.84-10.11,2.6-14.96,4.55-4.27,1.71-24.86,10.78-27.01,12.99-1.51,1.55-4.15,9.31-5.85,12.15-6.44,10.74-14.7,18.7-22.17,28.32,34.36-7.78,75.2-36.99,110.99-28.48,23.47,5.58,44.03,25.28,58.24,43.76,2.45,3.18,4.22,7.98,6.75,10.97,2.93,3.46,8.6,7.35,12.05,11.23,1.83,2.05,6.07,6.54,5.48,8.52l-14.01-13.99-.48,1.48c9.28,14.58,15.27,30.95,21.94,46.81l9.05,3.72c-1.2,3.42-7.72-1.35-7.98-1.01l17.93,50.41,2.04.58c.6-3.33,3.97-5,6-7.51,9.77-12.15,17.34-29.79,17.95-45.42l-2.92-1.04c5.12-1.27,5.78-5.38,0-6.51,21.2-11.57,34.74-39.5,25.75-62.76-3.16-8.19-10.15-16.98-15.76-23.74ZM907.98,453.26l-10-1.01v8c3.48-1.83,7.86-3.54,10-6.99ZM759.98,454.26c-1.76-1.27-21.31,4.19-22,8.98,9.26-.15,19.43,2.31,22-8.98ZM886.98,473.26c-7.29.68-13.38,4.97-20.9,4.09-1.32,10.19-2.66,20.16-6.1,29.89.62.63,14.63-5.99,16.02-7.47,4.47-4.8,7.46-20.27,10.98-26.51ZM564.97,501.25l-4.61,4.46c18.47,66.9,36.47,133.99,56.11,200.54l3.93.93-55.43-205.94ZM818.67,557.93c1.2-.99,5.29-6.52,6.33-8.16,4.7-7.4,7.93-16.82,8.97-25.52l-6.96,8.52c-7.8,9.39-20.22,16.97-27.55,26.45-1.5,1.95-4.27,5.45-2.98,8.02,5.39-3.89,17.5-5.42,22.2-9.31ZM774.98,595.25v15.5c0,2.74,3.82,13.76,5.29,16.71,7.03,14.08,12.27,5.29,23.04.62,4.74-2.06,9.7-3.5,14.67-4.84-.85-4.11-7.66,1.43-7.99,1.01,1.4-7.76,5.51-13.65,4-21.99l2.98,7.99c2.19-6.56,3.83-13.51,6.75-19.8.65-1.41-.6-2.73,2.26-2.18-2.76,6.23-4.08,13.13-3.99,19.99,6.1-2.98,5.67-8.28,8.14-13.35,8.34-17.15,18.1-30.79,29.85-45.64l-66.82,24.17c-3.04,12.61-3.8,24.66,4.84,35.29,3.07,3.78,6.58,5.4,9.98,8.51-11.35-1.11-21.83-6.69-28.97-15.52l-4.03-6.47ZM1106.98,573.25v15.5c0,.93,7.25,13.54,8.47,16.53,3.02,7.43,5.79,15.12,7.54,22.96,1.66.27,1.07-2.42,1.04-3.53-.48-14.28-7.18-36.19-14.52-48.48-.65-1.09-1.01-2.75-2.52-2.98ZM731.98,606.24l-5.99-27.99c-1.82,8.82-6,17.13-6.07,26.34,3.76,3.02,7.7,2.4,12.06,1.65ZM203.96,581.25c-2.23-1.53-8.08,5.39-9.19,7.28-6.61,11.3-4.75,25.67,5.05,34.35-3.98,8.05-6.17,14.56-2.25,23.26,1.28,2.83,8.08,10.05,8.21,10.73.27,1.39-1.76,4.53-1.85,6.9-.33,8.4,9.37,18.56,15.03,24.02.82.79,2.74,1.35,2.89,1.61.2.35-.5,5.13.4,8.04,4.52,14.63,30.27,22.95,40.73,11.3,3.62-4.03,3.93-12.6-1-15.01-3.28-1.61-8.97,1.63-10-1,6.77-3.45,13.66-5.05,11.31-14.31-.48-1.89-3.49-9.32-4.78-10.29-2.11-1.59-10.48,2.57-14.15,3-10.05,1.18-24.43-1.96-32.38-8.41-.43-2.06.98-1.7,2.43-1.44,5.8,1.05,12.57,5.68,19.17,5.85,4.86.13,17.72-2.04,21.35-5.44,7.65-7.15-2.49-23.43-11.37-22.46-1.9.21-3.54,1.77-6.06,2.03-11.86,1.24-20-2.12-29.83-8.23-1.5-.93-11.34-8.55-4.4-6.61,9.49,2.65,15.66,9.9,28.19,9.89,20.98-.02,15.55-18.82,2.19-27.28-5.09-3.22-21.22-8.53-23.73-11.27-2.53-2.77-5.26-16.03-5.98-16.53ZM682.2,704.04c.29.5,4.69,2.51,5.28,4.19,5.14-5.47.02-9.15-4.01-12.97-2.5-1.05-1.67,8.1-1.27,8.78ZM677.61,705.62c-16.9-11.13-36.3,5.15-54.4,8.35-2.75.49-7.01,1.21-9.68,1.31-7.98.3-15.87-3.58-22.56,1.45-10.3,7.73-4.32,19.56,4.72,25.32,11.05,7.05,26.67,10.21,39.67,9.07,5.57-.49,13.65-3.94,18.18-3.92,8.93.03-.26,5.34-4.54,6.55-19.62,5.55-40.1,1.32-57.52-8.52-10.37,7.51-4.25,20.22,4.39,26.65,19.12,14.23,36.71,14.88,59.32,13.01,5.24-.43,4.95,2.34,1.04,4.09-8.07,3.6-30.82-.07-39.49-2.97-5.69-1.9-11.74-4.96-16.76-8.27-2.91-1.04-2.12,8.01-1.75,9.78,3.07,14.71,33.16,24.23,46.23,24.76,5.47.22,10.2-.85,15.54-1.03.5,2.42-.46,1.79-1.85,2.61-11.45,6.74-34.77-1.21-46.13-6.61-1.91,27.6,37.5,32.71,57.43,26.94,13.72-3.97,13.03-8.68,21.48-16.52,1.47-1.36,3.66-1.46,5.11-2.89,2.56-2.51,4.91-11.39,5.05-15.05.08-2.01-1.09-4.68-.86-5.88.2-1.04,4.42-4.58,5.66-7.22,1.61-3.46,2.31-7.61,2.1-11.4l-1.98,1.01c-.44-5.97.58-12.61-.02-18.49s-2.33-14.04-3.25-20.75c-1.18-8.65-6.8-18.56-9.75-26.76-2.73,0-3.5,6.95-5.48,5.99-.75-.36-7.24-8.88-9.88-10.62ZM653.91,842.31c-1.72.8-6.56-2.39-5.94.43l13.49,41.49c1.22-.98,2.26-1.89,2.53-3.55,1.26-7.71-10.24-28.97-10.08-38.38Z"/>
        <path class="cls-1" d="M960.02,684.22c3.86-.45,5.53-1.82,9.33.16,1.91.99,11.33,11.36,12.44,13.54,3.87,7.6-.3,8.97.41,12.7.23,1.17,3.6,3.94,4.3,6.59,1.28,4.84,1.33,7.55,3.02,12.97,1.04,3.34-.5,20.59-2.52,23.32-1.02,1.38-3.27,1.45-3.86,3.41-.89,2.96.77,6.52-1.28,9.72-4.15,6.51-11.66.83-12.83,1.66-1.33,6.95-8.84,13.88-15.14,7.5-1.63-1.65-2.06-4.49-2.88-5.14-.56-.45-7.56,2.88-11.49-3.49-1.53-2.48-3.44-9.8-4.17-12.94-.32-1.38.46-3.58.13-4.05-.56-.8-4.64-1.88-6.54-3.72-4.52-4.41-5.45-11.48-8.12-16.59-1-1.92-3.66-3.16-4.43-5.57-1.99-6.31,1.74-8.43,1.58-11.47-.13-2.43-2.18-4.53-2.09-9.11.17-8.89,6.71-9.62,7.08-11.18.9-3.79-1.14-7.69,1.56-12.22,2.91-4.91,6.6-2.92,9.18-4.33.54-.29.82-2.24,2.45-3.02,6.21-2.95,8.16,1.32,11.45,1.97,1.3.26,2.45-.79,5.04.02,3.7,1.16,7.05,5.27,7.35,9.25ZM956.98,690.24c1.36-3.92-3.23-12.58-7.44-12.04-1.51.19-2.77,2.14-3.93,1.95-1.64-.26-2.94-4.61-5.96-3.82-2,.52-2.61,3.87-3.62,4.43-1.33.73-4.35-2.46-6.93,2.11-1.83,3.23-2.57,13.73,2.86,10.71l.99-3.9,3.02.57.94-5.57,4.06.06c-2.44,1.33-2.62,4.4-3.97,6.03-4.69,5.66-5.98,4.15-11.32,5.68-5.82,1.67-6.23,12.3-1.43,14.16,2.79,1.08,5.33-1.4,7.23,1.61l2.5-5.46-6.08-1.92c-1.22-1.45-1.55-5.05.01-6.16l4.12.02c3.61,10.13,2.98,4.36,7.4.51,5.22-4.54,15.05-8.9,21.82-6.9.98.29.75,2.37,3.46,2.77,1.53.22,3.32-.63,4.32-.27,2.71.98,6.14,12.35,9.45,12.43s.13-9.6-2.2-11.04c-1.16-.72-3.41-.5-4.08-1.16-.51-.51-.57-2.87-1.35-4.13-5.47-8.92-12.24,1.1-13.87-.65ZM984.65,736.98c.82-1.77-1.4-17.34-2.47-19.45-.98-1.95-3.06-3-3.69-4.34-.47-.99.35-2.5-.01-3-.79-1.08-3.47-.97-4.59-2.36-1.92-2.36-1.13-6.09-5.95-9.05-18.37-11.32-35.06,4.13-32.86,23.86.91,8.12,8.59,18.24,8.92,24.09.2,3.57-3.84-1.46-4.93,2.17l1.04,6.21,5.86.13c-1.95-2.37-3.77-6.05.49-6.99,2.34,1.69,9.77,12.35,11.17,12.84,2.77.97,12.94-1.55,15.62-3.05s8.75-11.49,9.52-14.48c.48-1.88-.16-3.94.22-5.62.17-.73,1.53-.69,1.65-.96ZM931.97,721.24l-.95-6.58c-12.84-2.45-12.66,7.68-4.54,14.58,2.1-4.01-2.92-10.44,3.49-11l2,3ZM934.83,733.39c-1.77.11-7.27-1.47-6.86,1.35.6,4.14,8.59,15.9,11,7.51l-4.99.99c1.43-3.71,3.21-5.76.85-9.85ZM941.98,758.25c-.91,8.64,5.84,11.57,10.98,4.49l-5.49-6.5-1.51,4.99-3.98-2.99ZM978.97,758.25l-7.97,5.49c4.24,4.83,9.1-.04,7.97-5.49ZM957.97,764.24c-1.66-2.18-4.65,5.64-1.58,8.09,4.53,3.62,10.97-5.73,9.58-7.08h-6.99s-1,3-1,3v-4.01Z"/>
        <path class="cls-1" d="M797.99,754.24l2.97-9.56,2.02-2.43c.68,9.01-2.02,17.66-3.98,26.33l-3.01.66c2.42-8.53-.08-16.66-2.72-24.78-8.3-25.52-24.98-54.37-49.29-67.23l1.49-1.96c30.08,14.76,46.08,47.52,52.52,78.97Z"/>
        <path class="cls-1" d="M760.97,726.24l-3.19-2.3-18.8-30.69c9.53,8.62,20.13,19.68,21.98,32.99Z"/>
        <path class="cls-1" d="M1012.97,678.24c1.42,7.36,1.2,15.02-.11,22.38-.52,2.91-1.23,8.02-3.87,9.62.62-8.25.32-17.34,1-25.48.07-.81.97-8.98,2.98-6.52Z"/>
        <path class="cls-1" d="M765.97,777.25c-1.24,1.66-1.82-.11-2-1.49-1.28-10.03,1.13-22.23-1.99-32.51,2.18-.34,2.44.85,2.94,2.55,2.78,9.5,2.29,21.7,1.05,31.45Z"/>
        <path class="cls-1" d="M913.97,763.25c-2.98-2.39-2.85-7.62-4.21-11.28-2.5-6.72-6.46-12.93-8.77-19.72,7.08,8.57,12.28,19.8,12.98,31Z"/>
        <path class="cls-1" d="M994.97,602.25l-15.77-25.72-13.21-17.28c12.62,11.4,22.35,27.38,28.98,43Z"/>
        <path class="cls-1" d="M901.98,617.24l-13.38-1.11-7.61-1.87c5.8.07,11.81-.47,17.49,1,1.38.36,3.12-.03,3.51,1.98Z"/>
        <path class="cls-1" d="M738.98,763.25l-2.05-13.45.06-7.54c1.01-.43,1.99,2.33,1.99,2.49v18.5Z"/>
        <path class="cls-1" d="M937.98,635.24l-15.99-7.98c5.71.7,12.07,3.75,15.99,7.98Z"/>
        <path class="cls-1" d="M730.97,826.26c-.2,1.66-3.78,2.01-5.15,2.33-3.49.83-7.27,1.27-10.84,1.65,3.65-3.39,11.16-3.33,16-3.98Z"/>
        <path class="cls-1" d="M647.97,120.25c.59,2.94-.96,1.58-2.21,2.24-19.8,10.53-33.44,21.33-47.78,38.75,8.9-19.81,28.29-37.26,49.98-40.99Z"/>
        <path class="cls-1" d="M726.98,117.24c-6.71-1.71-14.52-4.99-21.51-5.07-5.26-.07-10.34,2.25-15.49,2.59,10.36-6.69,28.22-6.56,36.99,2.49Z"/>
        <path class="cls-1" d="M701.97,161.24l-20.98-28.99c9.55,6.62,17.99,17.68,20.98,28.99Z"/>
        <path class="cls-1" d="M513.97,477.25c-2.44-1.8-3.6-6.19-4.5-8.99-2.29-7.08-4.05-15.61-4.48-23.01,1.41-.24,1.46,1.77,1.7,2.78,2.38,9.75,3.9,19.68,7.28,29.22Z"/>
        <path class="cls-1" d="M665.97,98.25l-4.98-2c-.94,2.83,1.77,1.73,1.98,2,.56.71.2,2.64-1.47,1.98-.93-.36-2.43-2.25-4.11-2.89-2.73-1.05-6.84-.79-8.4-3.09,5.54-.08,14.6-3.15,16.99,3.99Z"/>
        <path class="cls-1" d="M812.97,409.24l-.76-3.25,7.76-24.73c.36,9.85-3.76,18.98-7,27.99Z"/>
        <path class="cls-1" d="M718.97,70.26l-15.27,4.22-9.72,5.77c-1.94-2.06,8.95-7.69,10.3-8.19,4.94-1.81,9.43-2.16,14.68-1.8Z"/>
        <path class="cls-1" d="M703.97,87.26l-17.99,7.98c2.61-6.26,11.67-8.08,17.99-7.98Z"/>
        <path class="cls-1" d="M1161.97,522.25c-7.25-6.18-12.47-14.55-18.96-21.53-11.72-12.59-25.5-22.77-37.03-35.46l16.02,12.47c13.48,12.13,28.69,25.06,38.38,40.62.77,1.25,1.94,2.2,1.6,3.89Z"/>
        <path class="cls-1" d="M700.98,523.23c1.14,1.08,9.22-.48,7.51,2.02-4.2,3.82-8.28.37-13.57,1.43-4.38.88-8.88,5.98-11.56,6.29-2.35.27-20.3-2.13-20.37-4.22,5-4.03,12.23,1.29,18.02.12,1.04-.21,12.28-6.21,13.88-7.2,3.18-1.97,10.79-12.06,14.08-4.93l-8,6.5Z"/>
        <path class="cls-1" d="M635.98,551.24l-11.02-4.51-1.97,3.51c2.38-8.44-5.41-7.84-6.01-14.48l2.01-1.04c3.82,7.44,12.22,10.14,16.99,16.51Z"/>
        <path class="cls-1" d="M665.97,551.25c-.41,5.73-14.56,7.58-16.99,4.98-3.03-3.23,6.77-1.95,7.36-2.03,3.47-.47,6.11-3.01,9.63-2.95Z"/>
        <path class="cls-1" d="M599.97,524.24c-.75.7-16.3-5.89-13.99-7.99,2.07-.5,16.03,6.08,13.99,7.99Z"/>
        <path class="cls-1" d="M614.97,522.25l3,11c-2.68-1.19-3.7-4.01-5.49-6.05-.79-.9-4.41-1-1.85-3.03l4.35-1.93Z"/>
        <path class="cls-1" d="M980.97,490.26c0,1.75-4.38,1.1-5.53,1.03-5.52-.36-12.63-2.6-17.97-2.07-5.72.56-8.34,6.2-15.48,3.02l5.99-2.98-23.01.49c18.12-3.56,38.37-6.26,56,.51Z"/>
        <polygon class="cls-1" points="478 174.24 485.97 171.26 475.47 180.24 475.99 171.25 478 174.24"/>
        <path class="cls-1" d="M444.99,429.25c-1.83-1.9,10.1-9.45,9.97-5.5-2.35,3.55-6.36,3.95-9.97,5.5Z"/>
        <path class="cls-1" d="M949.6,706.3c4.06.43,5.65,7.69,1.78,8.88-4.06,1.25-6.37-7.22-1.78-8.88Z"/>
        <path class="cls-1" d="M982.97,728.25c1.07.69.48,7.54-2.47,6.99s-1.25-9.4,2.47-6.99Z"/>
      </g>
    </g>
  </g>
  <path class="cls-1" d="M449.72,516.17c.25,5.15.7,10.28,1.34,15.4.16,1.29,1.03,2.57,2.5,2.5,1.21-.05,2.68-1.11,2.5-2.5-.65-5.11-1.09-10.25-1.34-15.4-.06-1.3-1.1-2.56-2.5-2.5-1.3.06-2.57,1.1-2.5,2.5h0Z"/>
  <path class="cls-1" d="M456.08,522.17l.92-.72c.14-.11.27-.21.41-.32.23-.19-.22.14.16-.12.26-.18.52-.34.79-.5-.36.21.03.01.15-.03.26-.09-.17-.02-.23,0-.19-.04-.17-.03.07.03l-.23-.08c-.07-.06-.58-.45-.49-.59-.08.13.31.96.36,1.14.22.78.39,1.58.51,2.38,0,.05.07.51.05.34s.03.29.04.34c.04.4.08.81.11,1.22.06.82.08,1.63.08,2.45.01,1.64-.06,3.28-.13,4.92-.06,1.31,1.19,2.56,2.5,2.5,1.4-.06,2.44-1.1,2.5-2.5.18-4.15.31-8.38-.7-12.45-.27-1.1-.59-2.25-1.3-3.16-.79-1.02-2.09-1.54-3.37-1.5-2.31.06-4.04,1.79-5.75,3.13-1.03.81-.91,2.7,0,3.54,1.1,1.01,2.43.87,3.54,0h0Z"/>
  <path class="cls-1" d="M463.53,521.63c0-.57-.13.27-.02,0s.13-.3-.02-.03c.04-.06.32-.52.12-.23s.17-.16.19-.18c.31-.31-.2.07.04-.02.13-.05.53-.19.02-.05.12-.03.26-.06.37-.11-.31.03-.37.03-.18.02.1,0,.2-.01.3,0,.31,0,.11.05-.06-.02,0,0,.61.15.28.05s.17.09.25.13c.07.04.48.38.25.16s.15.17.2.22c.32.29-.06-.17.05.06.07.15.17.3.26.44-.2-.36-.04-.08.03.16.06.21.11.43.15.64-.05-.27,0,.01.01.13.04.46.07.91.1,1.37.06.93.1,1.87.13,2.8.05,1.87.03,3.74-.05,5.61-.06,1.31,1.19,2.56,2.5,2.5,1.4-.06,2.44-1.1,2.5-2.5.1-2.43.1-4.86-.02-7.29-.13-2.57-.2-5.16-1.93-7.22-1.47-1.76-4.04-2.7-6.28-2.03-2.4.72-4.15,2.88-4.19,5.41-.02,1.31,1.16,2.56,2.5,2.5s2.48-1.1,2.5-2.5h0Z"/>
  <path class="cls-1" d="M474.41,528.74h3.89c.62,0,1.27.02,1.87-.19,1.19-.42,2.05-1.46,2.04-2.76-.02-1.6-1.47-2.94-2.81-3.62s-2.85-1.08-4.28-.73c-1.57.38-2.27,1.85-2.9,3.17-.54,1.14-1.1,2.32-1.41,3.55-.36,1.44-.35,2.92.23,4.3.54,1.28,1.47,2.22,2.56,3.05,2.17,1.63,5.06,2.42,7.76,2.28,1.3-.07,2.56-1.1,2.5-2.5-.06-1.29-1.1-2.58-2.5-2.5-.45.02-.9.03-1.36,0l-.19-.02c-.29-.03-.26-.03.09.02-.02.03-.54-.1-.57-.11-.41-.09-.82-.2-1.21-.35-.09-.03-.18-.07-.27-.1.3.13.32.14.06.03-.17-.09-.35-.17-.52-.26-.34-.18-.65-.39-.98-.6-.42-.26.36.32-.12-.1-.15-.14-.29-.29-.44-.43-.35-.33.23.41-.04-.04-.03-.05-.21-.42-.26-.45.13.34.15.37.06.12l-.05-.19c-.06-.28-.06-.26,0,.08,0-.1-.01-.2,0-.29,0-.09.08-.71.01-.36s.1-.39.12-.45c.11-.39.25-.77.39-1.15.2-.53-.15.33.07-.16.1-.22.2-.44.3-.66.19-.41.39-.81.6-1.2.02-.03.29-.47.28-.51.13.33-1.22.75-1.22.71.11,0,.23,0,.34.02-.34-.05-.42-.06-.23-.03.2.05.4.11.6.16.48.12-.41-.24.06.03.15.09.31.18.46.27.45.28-.28-.31.05.05.09.08.17.16.25.25-.19-.29-.22-.32-.1-.09l-.34-1.26.06-.39.64-1.1c.29-.29.63-.45,1.01-.46.24-.02.27-.03.07-.02-.22-.01-.46,0-.69,0h-1.26c-.88,0-1.76,0-2.63,0-1.31,0-2.56,1.15-2.5,2.5s1.1,2.5,2.5,2.5h0Z"/>
  <path class="cls-1" d="M483.35,515.13c.8,7.34,1.35,14.7,1.63,22.08.12,3.21,5.12,3.22,5,0-.28-7.38-.82-14.74-1.63-22.08-.15-1.34-1.04-2.5-2.5-2.5-1.24,0-2.65,1.15-2.5,2.5h0Z"/>
  <path class="cls-1" d="M490.55,515.14c.41,8.31,1.29,16.59,2.6,24.81.21,1.33,1.88,2.08,3.08,1.75,1.42-.39,1.96-1.74,1.75-3.08-1.24-7.78-2.04-15.61-2.42-23.48-.16-3.2-5.16-3.22-5,0h0Z"/>
  <path class="cls-1" d="M502.79,526.61c-2.53,1.17-4.08,3.9-4.56,6.55s-.71,6.14,1.6,8.08c1.24,1.04,2.66,1.4,4.24,1.55,1.15.11,2.43.16,3.52-.26,1.77-.69,2.55-2.17,2.99-3.94.36-1.44.53-2.97.47-4.45-.07-1.6-.39-3.29-1.37-4.6-1.09-1.47-2.82-2.58-4.72-2.41-1.3.12-2.56,1.07-2.5,2.5.06,1.25,1.11,2.63,2.5,2.5.12-.01.74,0,.35-.03s-.04.03,0,.03c.33-.03-.04.32-.12-.06,0,.02.2.12.23.13.26.11-.17-.14-.15-.14.07.02.22.21.26.24.24.22.06-.03-.05-.11.16.11.23.4.34.56.16.25-.06-.15-.06-.16.05.06.1.31.12.37.05.19.09.38.14.57.09.38.05-.05,0-.09.04.03.03.33.04.39.04.49.04.99.02,1.48-.01.22-.03.44-.05.66-.04.49,0,.09.01-.01-.01.14-.04.29-.07.43-.09.5-.21,1-.35,1.49-.03.1-.08.2-.09.3-.05.25.07-.13.09-.17-.22.38.04.01.1-.05-.22.24.01-.02.13-.09.07-.04.56-.16.15-.07-.08.02-.16.03-.24.06-.27.08.25-.06.25-.03,0,0-.37.02-.34.02-.4,0-.8-.01-1.2-.04-.12,0-.23-.02-.35-.03-.07,0-.37-.05-.02,0,.4.06-.27-.06-.35-.08-.11-.03-.39-.17-.49-.14.2-.05.42.22.14.05-.04-.02-.25-.18-.29-.17-.07.01.57.32.11.08-.02,0-.33-.22-.03,0,.2.15.05.09-.01-.03-.03-.05-.14-.29-.16-.3.04.02.14.45.09.19-.01-.08-.05-.17-.07-.25,0,0-.09-.32-.07-.35-.03.05.04.53.02.13-.01-.42-.03-.84,0-1.26.01-.21.03-.41.04-.62.01-.12,0-.29.04-.41-.05.2-.06.34,0,.05.1-.54.21-1.07.38-1.59.03-.1.07-.19.1-.29.09-.3-.19.35.02-.04.11-.21.22-.42.35-.63.05-.08.1-.15.15-.23.03-.05.07-.1.1-.15.11-.15.07-.1-.12.15.03,0,.38-.41.43-.45.09-.08.18-.16.27-.24.24-.22-.36.22-.08.07.24-.12.46-.27.7-.38,1.19-.55,1.58-2.36.9-3.42-.79-1.23-2.15-1.48-3.42-.9h0Z"/>
  <path class="cls-1" d="M512.66,530.4c.1,2.83-.25,5.67.41,8.46.62,2.62,2.23,5.03,4.74,6.13s5.23.75,7.18-1.14c1.74-1.69,2.47-4.24,2.38-6.61h-5c.24,6.03,5.63,11.66,11.93,10.72,3.02-.45,5.37-2.68,6.51-5.44,1.33-3.21.79-6.81-.49-9.95-.51-1.25-1.66-2.13-3.08-1.75-1.18.33-2.26,1.82-1.75,3.08.79,1.94,1.47,4.12.88,6.21-.37,1.31-1.35,2.67-2.75,2.93-3.27.61-6.15-2.84-6.26-5.8-.13-3.21-5.12-3.22-5,0,.07,1.85-.95,4.62-3.15,2.82-1.01-.82-1.38-2.29-1.52-3.53-.23-2.03.02-4.09-.05-6.13-.12-3.21-5.12-3.22-5,0h0Z"/>
  <path class="cls-1" d="M377.26,788.32c-2.68,5.05-3.49,10.73-4.49,16.29-.55,3.05-1.08,6.11-1.54,9.18-.22,1.43-.41,2.87-.6,4.3-.18,1.36-.41,2.71-.17,4.08,1.11,6.13,10.11,4.6,14.03,2.68,4.74-2.31,8.39-6.95,11.1-11.34,3-4.86,3.46-10.89,6.81-15.54.79-1.1.19-2.78-.9-3.42-1.26-.74-2.63-.2-3.42.9-2.62,3.64-3.54,8.08-5.14,12.2s-4.51,7.9-7.74,10.73c-1.55,1.36-3.37,2.41-5.39,2.91-.92.23-1.86.32-2.81.24-.39-.03-1.56-.14-1.68-.36-.32-.57.18-2.23.26-2.84.16-1.24.34-2.47.53-3.7.41-2.66.86-5.32,1.34-7.97.95-5.3,1.56-11,4.11-15.82,1.51-2.84-2.81-5.37-4.32-2.52h0Z"/>
  <path class="cls-1" d="M474.25,806.79c.83,5.27,2.73,10.34,4.35,15.4.79,2.46,1.51,4.96,2.39,7.39.82,2.27,1.88,4.57,3.7,6.22,3.66,3.3,8.86,3.2,11.98-.74,2.88-3.63,4.43-8.65,5.32-13.13,1.11-5.64,1.09-11.37-.03-17-.27-1.32-1.84-2.09-3.08-1.75-1.38.38-2.01,1.75-1.75,3.08,1.57,7.85.57,16.42-3.06,23.59-.61,1.2-1.39,2.74-2.72,3.26s-2.78-.41-3.65-1.37c-1.17-1.29-1.75-3.04-2.29-4.66-.73-2.22-1.43-4.46-2.14-6.69-1.57-4.91-3.4-9.82-4.2-14.93-.21-1.33-1.88-2.07-3.08-1.75-1.42.39-1.96,1.74-1.75,3.08h0Z"/>
</svg>