<?xml version="1.0" encoding="UTF-8"?>
<svg id="Calque_1" data-name="Calque 1" xmlns="http://www.w3.org/2000/svg" viewBox="0 0 1039.49 1072.5">
  <defs>
    <style>
      .cls-1 {
        fill: #fff;
      }
    </style>
  </defs>
  <g>
    <path class="cls-1" d="M70.17,234.14c-1.95-4.2-.61-8.86-1.22-13.27-3.8-27.55-12.74-44.39-41.65-49.35-2.79-.48-6.46.26-8.58-.42-2.43-.78-2.37-4.97,0-5.71,2.71-.85,9.65-.59,13.58-1.42,25.57-5.46,33.48-25.73,36.65-49.35.62-4.66-1.93-11.84,3.63-13.41,4.04,0,3.17,13.49,3.63,16.42,3.57,23.03,11.28,40.68,35.82,46.18,3.87.87,10.17.6,13.39,1.61,2.46.77,2.37,4.96.01,5.7-2.64.82-9.68.65-13.56,1.44-23.77,4.85-32.48,24.17-35.67,46.33-.73,5.07,1.76,16.81-6.03,15.27ZM104.08,167.26c-17.13-3.63-27.44-20.02-31.5-36.02-4.91,15.71-14.27,31.94-31.5,36.02,4.3,3.31,9.55,5.07,13.92,8.57,9.24,7.43,14.06,18.4,17.58,29.43,2.99-11.95,9.43-25.12,20.18-31.83,3.61-2.25,8.4-3.15,11.32-6.17Z"/>
    <path class="cls-1" d="M913.08,1053.25l.94,4.38-1.44,1.62h-240c-.18,0-2.32-2.11-2.42-2.64-.31-1.03,2.16-3.36,2.42-3.36h240.5Z"/>
    <path class="cls-1" d="M137.58,1053.25h240c1.98,0,1.99,6,0,6h-240c-1.64,0-2.41-5.03,0-6Z"/>
    <path class="cls-1" d="M35.59,487.25c1.51-.25,2.82,0,3.32,1.66,1.65,5.52,1.08,13.59,2.89,20.11,2.44,8.75,7.81,16.22,16.59,19.41,3.75,1.36,14.14,1.48,14.63,4.43.68,4.14-7.15,3.09-9.21,3.61-10.98,2.78-18.32,9.31-21.79,20.21-1.98,6.24-1.03,14.27-2.96,19.04-.57,1.42-.47,2.51-2.49,2.52-3.78.02-2.23-6.74-2.62-9.39-2.43-16.39-7.4-29.37-25.48-32.52-2.85-.5-8.08,1.26-8.45-2.61-.46-4.81,9.24-3.48,14.03-5.02,17.82-5.73,18.06-22.53,19.99-38.01.18-1.46.06-2.57,1.55-3.45ZM55.08,532.26c-5.51-.45-8.75-5.66-12.52-8.99l-6.46-12.02c-1.22,4.9-3.72,10.63-7.03,14.47-3.39,3.92-7.57,5.02-10.98,8.51,9.81,2.46,15.93,11.66,18.49,21.01,3.31-8.75,8.52-17.79,17.89-20.93l.61-2.05Z"/>
    <path class="cls-1" d="M136.06,385.25c.8.53,1.49,15.44,2.5,19.01,1.97,7.01,6.62,12.85,13.54,15.46,5.15,1.95,11.39.02,13.02,5.02l-1.71,2.33c-13.63.45-21.51,5.92-24.67,19.33-.75,3.17-1.45,16.82-4.16,16.82-3.75-2.32-2-5.94-2.62-9.36-1.84-10.23-3.93-20.1-14.59-24.41-5-2.02-15.61-.8-14.35-6.61,3.33-2.27,7.47-1.35,11.61-2.55,7.55-2.18,12.37-7.98,14.73-15.27,1.79-5.55,1.06-14.49,2.95-18.05.82-1.56,2.48-2.58,3.76-1.72ZM135.07,407.24c-1.91-2.07-3.21,5.61-3.79,6.7-3.04,5.74-7.64,7.23-12.2,11.29,3.25.49,5.71,2.32,8.03,4.48,3.88,3.63,4.79,7.73,7.96,11.53,1.02-7.74,7.04-13.59,14.02-16.51l-10-7.99-4.01-9.5Z"/>
    <path class="cls-1" d="M594.81,1033.49c21.69-3.64,32.57,24.22,14.22,36.21-6.19,4.05-15.19,3.27-21.29-.61-14.93-9.5-9.99-32.73,7.07-35.6ZM596.85,1039.44c-21.2,2.86-9.82,35.52,8.58,24.66,12.69-7.49,5.12-26.5-8.58-24.66Z"/>
    <path class="cls-1" d="M520.81,1033.49c19.27-3.29,31.59,18.27,18.7,32.7-13.65,15.29-39.35.49-33.39-19.39,1.94-6.47,7.98-12.16,14.68-13.31ZM522.83,1039.46c-16.91,2.44-13.64,27.9,2.62,26.75,18.32-1.3,16.15-29.46-2.62-26.75Z"/>
    <path class="cls-1" d="M446.81,1033.49c26.66-4.61,32.73,34.33,8.53,38.51-27.69,4.78-32.05-34.45-8.53-38.51ZM448.83,1039.46c-19.5,2.82-11.42,33.94,8.13,25.17,13.28-5.95,7.56-27.44-8.13-25.17Z"/>
    <g>
      <path class="cls-1" d="M953.08,549.25c27.97,45.31,74.71,78.76,84.68,133.81,4.68,25.81-.09,66.65-22.67,83.7-2.84,2.15-8.59,4.45-6.07-1.07,1.48-3.25,3.5-5.54,4.57-9.43,8.2-29.84-7.35-68.14-26.51-91.02,14.1,49.19,5.47,112.51-45.05,136.67-.61,11.89.85,30.03,13.31,35.56,2.28,1.01,8.95.66,7.66,5.14-.69,2.38-8.1,3.49-10.4,3.66-17.86,1.38-30-9.38-39.53-23.03-3.83,14.53-15.45,25.14-27.89,32.6,6.04,17.59,13.03,34.95,17.8,52.98,1.4,5.31,6.14,21.42,4.88,25.71-.85,2.9-3.75,3.17-5.13.48-4.87-24.75-13.35-48.43-21.9-72.04-8.07-22.28-16.97-45.95-26.3-67.7-10.87-25.34-24.33-62.26-59.47-51.04,11.43-9.44,27.42-6.49,37.99,3.01-9.53-29.23-22.09-58.71-39.18-84.31-11.8-17.68-38.69-50.42-61.35-51.71-15.19-.86-50.12,18.83-64.13,26.85-4.01,2.29-31.92,18.75-32.08,20.65,2.05,6.05,6.27,9.09,12.76,8.52-.36,6.95-8.7,5.41-12.93,2.43-4.53-3.2-4.78-6.69-6.98-11.01-.39-.77-.34-3.14-2.08-1.42-.4.4-1.03,5.22-1.8,6.71-1.94,3.73-7.75,8.09-8.2,11.88.32,11.51,5.27,35.67,17.24,40.65,3.5,1.45,9.29-.81,8.66,4.16-8.24,6.61-19.97,7.58-28.91,1.59l.56,3.98c-2.6,5.56-17.75-1.78-18.56-.99-3.96,16.98-10.76,44.04,6.08,56.42,2.86,2.1,13.26,4.44,8.89,8.07s-17.67,2.36-22.99,1.03c-32.04-8.05-47.59-50.94-38.99-80.5l-5.84,2.15-4.2,45.3c-1.81,35.61,2.55,73.78.09,109.09-.43,6.16-2.76,8.65-3.93.85-5.5-36.77-4.24-109,2.04-145.73.4-2.32,1.96-11.97,2.73-13.06.62-.88,3.17-.64,4.67-1.51,6.57-3.8,6.3-8.5,9.28-14.77-3.99-5.6-4.87-13.6-13.82-9.79-1.43.61-4.17,4.5-6.1,5.89-10.92,7.85-18.06,11.39-31.21,4.69-15.9,18.8-46.95,20.02-65.19,3.88-1.91-1.69-5.31-7-6.46-7.43-2.32-.88-10.26,3.27-14.05.46-.56.54,5.21,8.5,6.02,9.47,7.31,8.85,16.6,14.67,25.97,21.03l-10.37-3.63c-9.28-4.73-15.44-10.61-21.61-18.88,1.2,8.9,4.56,17.21,8.13,25.36l15.85,25.64c-16.68-15.82-28.18-36.63-30.11-59.88l-7.87-2.12c-1.4,10.55-4.1,21.05-5.84,31.67-4.02,24.5-6.88,49.98-8.21,74.79-1.15,21.38.75,45.14-.98,66.02-.09,1.08-1.75,12.43-3.98,9.51-2.32-48.88-1.09-99.9,7.29-148.2,2.14-12.31,4.56-24.79,9.79-36.19l-8.58-7.6c-7.29,3.48-17.06,63.37-18.36,73.64-4.75,37.47-4.48,74.56-4.14,112.35.43.45,10.13-4.19,8.99,1.49-.38,1.87-3.59.82-4.71,1.27-5.08,2.04-8.02,17.83-11.94,22.75,2.36,5.8,7.5,9.58,11.64,14.01l-4,1.49c.6,3.09,4.23,20.72,7.49,19.99,1.4-.31,5.52-16.87,6.53-19.48l-5-2.01c2.73-2.98,10.73-10.1,10.97-14.07.27-4.39-7.13-11.76-5.92-15.81,1.86-6.23,9.8,8.82,10.45,11.34,2.65,10.2-7.03,14.87-7.25,17.53-.06.69,1.31,1.86,1.24,3.59-.13,3.16-4.63,19.38-6.49,21.44-9.85,10.9-15.2-13.06-16.79-19.26-.54-2.11.15-4.53-.44-6.56-.83-2.9-7.02-5.31-7.59-11.44-.51-5.43,6.22-12.9,8.01-17.53s-.99-21.85-1.26-28.19c-.32-7.48.33-15.06.03-22.54l-5.28,20.21c-5.52,15.96-12.18,31.47-21.3,45.7-3.32,5.18-10.64,13-12.85,17.15-1.97,3.71-8.24,31.84-10.07,31.91-2.16-1.41-1.21-2.19-1.05-4.02.73-8.22,5.33-15.86,6.54-23.96-12.04,10.85-27.99,17.86-44.53,17.03-4.36-.22-12.09-3.2-14.89-3.01-2.34.16-8.14,3.02-11.36,3.68-69.69,14.3-146.5-38.03-155.19-109.21-1.52-12.48,2.15-24.73,1.02-35.02-.42-3.87-3.12-8.84-3.91-13.09-3.79-20.27,2-40.3,10.03-58.74,3.5-8.04,15.03-25.17,16.61-31.39s-.34-18.41.26-25.74c2.33-28.58,23.15-61.18,52.89-66.61,1.29-16.48,4.64-40.58,22.98-46.02,1.1-1.53-5.82-26.23-6.59-30.68-.85-4.85-2.53-13.86-2.06-18.43.79-7.75,10.05-39.37,13.59-46.46,5.1-10.23,12.65-14.95,23.16-18.82-7.42-4.14-10.39-16.13-15.05-20.93-6.35-6.53-32.01-18.16-41.83-25.17-6.38-4.55-15.53-10.87-7.59-19.4,10.1-10.85,35.5-21.22,47.54-31.46,3.49-11.64,9.96-21.3,16.98-31.02-41.24-26.28-52.76-76.56-42.53-122.53,11.52-51.8,57.84-110.13,107.99-129.01,35.58-13.4,74.47-12.17,109.04,3.73,83.09-67.16,207.8-66.09,291.22.14,68.02-16.7,131.76,16.82,168.49,73.43,19.14,29.5,22.95,52.53,22.82,87.27-.05,12.16,1.6,10.29,6.13,20.78,16.5,38.22,26.36,78.99,31.7,120.3,7.08,54.86,1.85,126.76,50.21,164.79,25.63,20.15,61.64,16.02,68.41-19.42,1.08-1.36.96-1.01,2.03-.02,2.68,2.49,1.94,15.25,1.22,19.27-2.54,14.13-12.04,27.44-24.44,34.56-19.93,11.45-41.54,7.82-61.3-1.79ZM680.08,53.23c1.05-1.02-10.35-8.28-11.48-9.01-76.35-49.74-174.66-50.65-251.44-1.39-4.77,3.06-8.99,6.94-14.08,9.43l14.25,8.84c70.12-50.34,170.99-49.16,242.51-2.04l20.24-5.83ZM654.07,62.26c-69.7-41.99-163.12-44.27-231,2.5l15.51,13.16c4.92-2.61,9.42-5.82,14.53-8.13,41.66-18.85,110.56-17.79,153.23-2.3,7.33,2.66,14.72,7.21,22.24,9.7l25.49-14.92ZM345.07,43.25c-37.3-1.58-81.01,14.28-105.51,42.98-.84.98-5.19,6.25-4.48,7.01,22.43-17.51,54.26-25.67,80.98-13,3.18-16.59,14.25-26.24,27.73-34.75,1.01-.64,1.78.09,1.28-2.24ZM449.08,100.24c-17.62-22.8-43.23-41.78-71.04-50.45-4.95-1.54-13.62-4.02-18.58-4.41-17.07-1.37-36.74,19.96-39.41,36.29,21.53,11.22,38.41,31.39,43.04,55.58l38.32-23.17c15.09-6.36,31.14-13.21,47.68-13.83ZM830.07,139.24c.25-10.01,4.39-25.47,1.55-35.04-1.95-6.57-21.55-21.83-27.82-26.18-28.89-20.01-64.65-30.1-99.72-23.77,11.41,10.81,15.51,25.56,12.01,40.99,17.78-5.54,38.81-5.5,56.25,1.24,3.96,1.53,10.2,4.05,11.75,8.25-11.93-3.49-23.85-7.83-36.47-8.53-7.71-.43-29.55,1.36-35.89,5.19-11.65,7.04-16.36,41.59-9.69,53.44,27.12-9.41,61.36-.99,75.86,25.09,1.89,3.4,1.22,8.36,5.64,8.39,13.14.06,38.16-22.99,41.56-36.06,1.94-.11,2.01-.46,2.02,1.52.07,6.91-10.73,19.58-16.03,23.99-8.71,7.25-18.8,10.94-29.9,12.6l-.62,6.88c-4.87-9.45-6.49-14.85-18.11-15.87-16.87-1.48-31.18,10.59-40.38,23.38,3.09.11,5.97-2.87,8.97-4.03,1.42-.55,7.7-2.69,8.98-3.02,16.97-4.35,40.71,7.69,42.93,26.15,2.21,18.36-8.25,32.92-22.89,42.38,23.98,9.91,37.34,29.93,26.19,55.7-.92,2.14-3.06,5.72-4.68,7.32-2,1.98-1.98.6-1.02-1.02,7.22-12.25,10.57-20.53,5-34.98-3.44-8.92-17.13-23.36-26.48-25.59-3.96-.95-12.82,1.26-18.41.49-3.89-.54-10.05-3.42-13.09-5.89-1.56,0-1.77,7.31-2.45,9.53-7.05,22.88-32.5,36.67-55.49,30.39-4.11-1.12-7.65-3.42-11.56-4.93,44.31,61.87,133.44,61.6,182.51,5,17.99-20.75,26.66-47.09,30.48-74.01-4,4.62-6.32,10.42-10.48,15.01-8.31,9.17-23.29,18.5-36.05,17.02-1.49-.17-3.08-.2-3.46-2.02,26.41-2.78,45.92-24.38,50.72-49.79,5.63-29.78-10.82-70.87-29.75-93.7-.98-1.18-5.84-7.45-6.97-6.52,3.62,13.24.37,27.02-3.01,39.99l-17.99-22.99c6.46,1.8,9.94,7.85,13.71,12.73.64.83-.02,1.83,2.29,1.26ZM633.07,174.23c-.87-2.5.04-5.35.68-7.82,7.68-29.72,32.12-52.53,59.65-64.34,3.35-1.44,17.09-5.32,18.14-6.86,5.14-7.55-.86-26.67-6.49-33.44-6.86-8.23-9.51-6.56-18.97-4.02-40.47,10.83-79.54,39.28-98.95,76.41,11.83,6.76,23.46,16.76,32.97,26.55,3.3,3.4,6.68,8.73,9.99,12.01.96.95,1.29,1.91,2.98,1.51ZM547.08,60.25h-23c7.5,6.03,15.48,5.79,23,0ZM465.58,81.25c4.44-.6,9.92.43,14.5,0l-16.21,3.29-13.8,5.23c-.15.67,5.12,8.22,5.99,9,2.44,2.2,7.01,1.7,7.02,5.47-65.22,4.42-119.69,50.35-155.81,101.69-35.29,50.17-73.63,142.22-53.46,203.09,3.34,10.08,8.1,18.76,18.27,23.22-2.7-14.28-6.17-28.82-5-43.5.09-1.16.31-4.48,2-4.49-.11,21.42,8.91,43.27,26.51,55.98,5.71-8.5,15.86-10.82,25.5-11.99-22.62-46.02-12.79-106.84,8.82-151.67,1.32-2.74,2.6-6.58,5.17-8.32-15.45,37.9-25.2,79.22-20.98,120.49l3.98,18.51c.02-7.26,2.05-16.67,5.5-23.04.76-1.39-.09-2.47,2.51-1.94-4.68,11.24-6.41,23.05-3.53,35.02,2.61,10.87,5.55,13.32,17.06,9.99l11.49-38.02.98,8.48-2.99,16.5h1.98c2.93-5.53,5.36-11.13,7.48-17.03,2.77-7.7,8.97-26.03,8.53-33.43-.47-7.95-3.47-17.44-3.98-26.04-2.26-37.98,10.29-88.68,31.76-120.22,2.59-3.81,5.79-8.21,9.22-11.27-5.04,11.03-10.93,21.75-15.46,33.03-20.99,52.23-28.75,114.05-.05,164.99,12.25,21.74,32.63,43.19,59.52,42.97l-8.41-11.08c-16.48-24.66-27.06-66.95-24.58-96.4.1-1.21.37-5.35,1.98-5.51-.62,15.41,1.42,30.79,4.69,45.81,5.19,23.83,17.24,54.06,39.65,66.35,13.08,7.18,11.3,1.22,22.69-3.65,4.67-2,10.07-3.24,14.98-4.53-4.56-5.4-10.08-10.86-11.99-17.99,4.26,2.69,14.37,15.95,18.61,16.75s17.44-3.8,23.38-1.76c-11.78-28.71-19.4-59.61-22.99-90.5l.98-9.48c5.13,28.84,12.22,59.26,31.04,82.47,3.35,4.13,13.59,14.99,18.05,16.95s13.68,1.94,19.11,2.89c5.05.88,9.92,2.22,14.81,3.69-.12-1.87,1.08-3.75,1.04-5.53-.09-3.88-13.91-29.95-16.52-36.48-1.99-4.98-5.64-13.6-6.44-18.57-.17-1.03-.66-2.68.91-2.4l22.03,46.99c1.88.2.81-2.1.7-3.2-.52-5.41-.35-10.12-.73-15.28-3.42-47.01-18.2-92.34-33.55-136.46l.54-3.04c13.47,30.99,24.07,62.56,30.7,95.8,4.16,20.83,8.46,47.6,7.35,68.73-.2,3.8-1.46,7.58-1.95,11.32,8.43,3.39,14.12,9.92,17.53,18.22,8.43-3.22,24.61-3.26,29.11-11.85l8.27-32.22c.23,6.13.02,12.21-1.27,18.22-.68,3.2-5.84,14.4-5.79,15.22.04.57,6.95,3.1,3.05,9.56-6.15-5.58-12.31,2.81-18.99,3.01,2.84,8.37-3.13,9.85-5.57,1.91l-8.42,1.08v15.5c0,.41-2.69,2.89.48,2.49,7.71-5,16.08-6.56,22.49-13.51,1.47-1.59,3.71-8.06,6.11-4.88,3.81,5.06-4.24,12.31-8.16,14.82-6.25,4-15.78,7.75-22.84,9.65l-4.58,20.92,3.49-4c-3.07,22.52-10.38,45.47-21.99,64.99,1.97.46,2.37-1.01,3.41-2.08,20.82-21.56,38.63-48.86,46.6-77.9,1.77-.25.98,2.25.76,3.26-3.89,17.92-16.12,42.33-26.55,57.46-21.05,30.55-71.51,75.86-61.92,116.48.57,2.4,1.42,6.64,3.69,7.8,3.18-22.38,16.79-42.82,33-58l-8.16,12.33c-18.28,30.27-8.69,81.03,29.17,89.67-6-13.68-4.8-28.21-.71-42.21,2.14-7.33,6.01-17.01,10.71-22.78l-.98,12c.6.82,7.71-11.96,8.2-13.29,1.31-3.57,1.33-7.33,2.9-11.1,2.61-6.25,8.72-13.05,11.41-19.6,4.32-3.09-2.61,5.84.97,4.98,15.88-14.74,28.88-33.2,35.53-53.98l1.03,9.53c-2.59,15.6-2.76,31.74-9.03,46.46l10.5-8.99c3.43-.73-1.35,3.98,1.97,2.98,14.69-4.46,30.6-18.02,47.13-19.88,26.23-2.95,54.84,29.65,68.61,49.17,17.03,24.12,30.42,53.06,40.05,80.95,2.7,7.83,2.67,16.65,8.27,22.77,11.6-5.65,21.97-28.24,18.31-40.35-1.18-3.91-7.21,2.51-9.84-.15,17.11-12.25,25.85-27.91,27.98-49.02.45-4.48-.33-9.28.14-13.86s2.23-11.07,3.4-15.61c.29-1.15-.06-3.24,1.48-3.01v40.5c0,8.46-8.5,24.44-13.58,31.42-1.25,1.71-4.92,4.36-5.26,5.78-.46,1.95,1.51,5.51,1.73,7.91,1.43,15.54-7.41,33.28-20.97,41.03l35.1,86.36c18.1-7.06,28.26-28.48,29.99-47,3.43-.81,1.62,3.99,2.11,6.4,3.3,16.2,16.61,28.74,32.88,31.61l-8.18-13.31c-7.38-23.75.31-48.3,5.2-71.68,1.71-.25,1.07,2.38.98,3.48-.78,9.6-2.52,19.36-3.03,28.98-.08,1.58-.88,7.27,1.52,6.53,4.98-1.54,17.82-14.09,21.49-18.52,30.63-36.97,24.22-97.99,4.89-138.83-3.01-6.37-7.37-12.03-9.85-18.64,6.37,5.7,11.24,13.23,16.38,20.11,16.03,21.45,45.61,62.11,45.61,89.39v18c0,.38-3.49,4.07.48,1.48,38.13-77.78-33.76-139.55-79.47-192.5l.49-1.48,8.01,6.99.49-1.48c-5.22-5.64-8.14-13.12-13.01-18.99-1.68-2.03-4.12-3.07-5.38-4.62-10.19-12.56-20.37-25.25-26.61-40.39.64-1.39,1.91,1.31,2.24,1.76,15.83,22.17,35.7,46.94,63.76,53.24,23.32,5.23,49.13-3.53,57-27.51-29.98,29.79-68.95,2.64-88.4-25.09-27.72-39.52-24.63-83.65-29.71-129.29-3.58-32.11-9.17-64.51-18.61-95.39-4.39-14.35-10.18-28.15-15.28-42.23l-7.7,31.78c-5.64,18.95-16.26,34.1-28.1,49.51,1.59,2.56,2.89,5.33,3.83,8.18,2.36,7.14,4.47,14.57,6.49,21.51,3.59,12.29,7.68,22.5,4.96,35.99l47.08,37.98c6.86,7.09,5.53,13.52-2.66,18.43-16.4,9.84-40.07,15.58-57.65,23.85-5.9,17.24-18.47,31.12-37,34.5-4.43.81-9.39-1.33-12.22,2.76,4.04,2.79,5.12,9.76,8.05,12.93,2.4,2.61,11.54,7.19,15.48,10.56,1.59,1.36.76,3.73,3.45,3.01l6.02-38c1.01-.43,1.99,2.33,1.99,2.49v25c0,3.57-4.18,13.05-3.73,15.85.21,1.28,5.59,7.87,6.9,10.98,4.55,10.8,3.3,20.73.31,31.66-.43,1.58-2.14,3.29-2.27,4.68-.14,1.52,3.36,7.45,3.68,10.96s-1.44,8.75-.78,10.7c.38,1.12,7.56,5.78,9.4,7.65,19.7,20.01,33.49,66.08,6.41,85.46-2.19,1.57-7.11,4.24-9.93,4.07,5.41-5.78,12.28-10.97,15.71-18.29,10.52-22.47-3.99-60.24-24.7-73.21-1.05,6.72-4.28,12.84-7.77,18.51,4.81,5.42,13.79,14.1,12.77,21.98l-1.99.5c-9.52-16.82-26.34-28.46-41.01-40.51-1.6-3.8,7.09,1.04,7.66,1.35,6.65,3.64,12.13,8.91,18.32,13.17,3.38-9.97,11.24-23.49,8.8-34.29-2.29-10.15-19.57-15.86-25.79-22.7,4.61-.74,8.25,1.56,12.38,3.11l11.11,7.87c13.99-24.54-7.16-50.18-29.5-59.47-19.77-8.22-26.29-4.67-45.53-5.48-7.8-.33-15.75-5.04-22.5,1.42s-3.34,16.89-4.08,25.92c-.91,11.16-4.76,21.99-7.86,32.63,19.7-8.61,42.49-16.55,64.38-13.89,3.38.41,8.68,1.85,10.61,4.88-7.2,1.25-14.06-1.21-21.55-1.03-5.26.13-13.17,1.49-18.49,2.5-17.66,3.37-35.42,10.27-51.29,18.47l-4.67,22.07c3.34-2.9,7.21-6.07,9.97-9.52,3.14-3.91,7.38-13.77,10.01-16,.69-.59,1.75-1.04,2.01,0-2.56,6.68-5.39,13.42-10.01,18.99-4.09,4.93-10.05,7.57-13.53,11.47s-4.53,10.08-8.03,13.97c-3.15,3.49-5.51,1.02-4.94-2s5.77-11.17,7.24-15.7c11.6-35.75,2.56-77.66-2.59-113.84-1.94-13.66-1.5-27.09-6.14-40.37-1.81.38-1.87,1.96-2.03,3.46-.55,5.05-.37,10.56-1.24,15.76-1.26,7.59-3.42,16.1-5.42,23.58-.45,1.68-.62,5.62-2.29,6.19,3.57-20.65,6.45-41.46,6.03-62.54s-.77-44.65-2.05-64.95c-.79-12.43-4.22-24.71-6-37,1.03-1.58,1.26.79,1.49,1.5,3.84,12.09,7.74,24.33,9.02,37,5.87-12.05,4.67-25.25,4.31-38.32-38.8-27.88-58.03-76.86-35.21-121.69l-.08-1.94c-19.31-32.17-45.23-62.26-80.52-77.07-2.52-2.58,5.36-2.12,6.5-1.99,3.69.43,6.85,2.37,10.45,3,9.02-18.65,24.67-35.12,41.04-47.48-29.93-16.65-66.28-24.76-97.99-7.51-1.15-3.37,6.99-4.8,3.97-6.48-11.76-6.54-36.29-4.08-49.19-1.22s-25.78,8.45-36.8,15.22c4.61,8.63,5.69,4.49,11.31,2.28,2.66-1.04,8.75-3.48,11.19-3.81ZM312.09,133.24c5.13-10.02,11.11-36.97,4.55-46.06s-35.72-8.61-45.81-6.69-31.28,11.48-38.69,18.31c-3.66,3.36-4.85,11.93-5.1,16.89-.86,16.56,6.1,30.1,19.54,39.53,20.5-37.14,69.38-22.86,86,10l26.29-25.27c-2.57-11.68-7.23-22.99-14.37-32.63-3.87-5.23-15.87-17.28-21.94-19.06-1.55-.46-1.6.06-1.44,1.43.4,3.27,1.77,6.47,1.99,10.02.7,11-3.45,25.4-11.02,33.54ZM704.07,103.25c-28.06,8.69-55.38,31.57-64.28,60.21-1.06,3.4-3.89,14.27-3.43,17.14.58,3.6,12.05,13.87,11.72,19.64l2.07-.63c10.8-19.45,27.15-34.34,47.49-43.37-3.78-14.87-3.9-28.8,1.67-43.27,1.35-3.51,3.64-6.28,4.76-9.73ZM244.08,166.24l1.57-8.01c-13.87-6.71-22.31-21.41-23.56-36.5-.46-5.6.9-10.97.49-16.48-14.8,16.98-29.2,40.75-34.02,62.98-4.49,20.73,15.26,44.36,36.02,45.99,6.61.52,11.29-1.57,17.48-1.48-24.07,12.77-46.43-2.37-55.74-25.29-.61-1.5.6-2.71-2.25-2.2-1.33,16.11-1.93,31.1,1.49,47,3.51,16.33,12.16,34.21,23.48,46.52,1.7,1.85,9.96,9.77,11.54,10.46,3.6,1.57-.47-3.74-.71-4.29-11.19-25.2,3.34-58.78,32.2-60.71-11.83-11.72-4.61-30.83,5.51-40.99.6,3.67-3.58,7.19-4.98,11.01-1.98,5.4-3.73,19.24,1.46,22.98-3.78-13.87,5.79-41.59,24-36-1.17-11.77-13.91-25.66-26.47-20.97l-7.52,5.96ZM291.09,169.24c-1.49-1.58,9.18-8.72,10.52-9.97,3.12-2.92,6.09-6.04,8.38-9.69.3-2.03-7.42-5.75-9.23-6.51-16.75-7.08-33.85-4.36-45.67,9.69l10.36,2.62c12.73,5.19,20.4,19.45,19.63,32.87,7.79-.25,14.39,4.22,21.35,6.84l20.52-24.54c.9-3.44-10.39-18.1-13.39-19.29-1.85-.73-4.01,7.11-5.97,8.01l-16.51,9.98ZM768.08,177.24c-23.01-28.14-65.17-23.58-90.52-1.02-5.66,5.04-8.18,7.25-8.09,15.36.15,12.86,8.28,22,17.61,29.66-15.43-4.38-21.25-18.98-20.49-33.98-20.75,23.63-32.22,64.28-17.54,93.53,9.65,19.22,38.35,22.87,55.37,11.3,8.7-5.92,19.82-21.34,17.65-32.32-.22-1.1-7.2-8.42-8.79-11.21-1.48-2.6-2.68-5.34-3.2-8.3-1.61-1.19-4.15,3.92-5.44,5.04-5.52,4.77-13.27,7.65-20.54,7.94l14.47-8.01c6.67-5.32,9.67-11.26,9.52-19.97-4.83,1.14-11.07,2.5-14.97-1.5,2.19-3.01,5.42-.4,8.42-.46,1.98-.04,4.3-1.05,6.37-1.22,1.47-10,6.26-19.1,13.09-26.46l-8.9-19.36c4.77,4.11,7.85,11.9,9,18,13.39-11.59,28.24-22,46.99-17.01ZM278.93,185.39c-18.64-6.44-27.67,24.61-18.34,36.86,10.42-4.49,5.41-6.85,6.5-13.44.73-4.42,7.81-9.4,7-5.06-.49,2.61-5.34,5.89-5.01,9.48,1.41,1.48,4.73-4.5,5.17-5.32,1.98-3.78,6.7-19.3,4.69-22.53ZM304.08,198.25l-18.99-7.01c-1.05,11.43-6.51,24.59-15.12,32.4-5.14,4.66-9.49,3.81-10.68,12.36-1.03,7.48,4.7,17.34,10.29,22.24l34.5-59.99ZM755.58,200.25c-4.01-.62-10.59,0-15,0-.15,0-2.64,1.22-2.5,1.5,19.42,10.74,29.48,37.97,14.44,56.45-1.26,1.55-4.08,2.23-3.94,4.06,25.87-2.74,43.09-40.75,18.82-56.84-1.91-1.27-9.87-4.86-11.83-5.17ZM731.81,205.42c-3.2.66-7.96,5.84-7.72,9.25.19,2.75,4.36,8.56,5.34,12.72,1.82,7.65,1.04,15.33,3.87,23.13,3.72,10.25,8.12,14.45,15.77,4.22,6.93-9.26,7.1-24.02,2.18-34.18-2.81-5.79-12.32-16.63-19.44-15.15ZM721.06,216.25c-2.3-.49-1.6.27-2.23,1.27-5.5,8.62-3.78,21.47,1.81,29.66.93,1.37,8.24,9.05,9.43,8.06-4.8-12.71-2.11-26.67-9.02-38.99ZM256.08,229.25c-29.24-.53-41.83,30.29-31.76,55.26,5.38,13.35,15.2,15.38,28.19,18.64l15.64-41.34c-10.83-6.81-15.18-20.32-12.06-32.56ZM241.07,306.26l-12.51-4.72c-12.24,11.5-18.8,29.08-21.22,45.48-4.06,27.57.68,62.55,25.23,79.27l8.48-5.52c-18.83-26.8-20.39-65.28-9.45-95.48,2.48-6.83,6.1-12.69,9.46-19.03ZM251.05,309.3l-3.35-.93c-20.81,28.89-23.06,77.07-3.43,107.17,1.79,2.75,2.61,5.54,6.29,5.72,1.36.07,1.96.1,1.49-1.5-.9-3.1-3.91-7.59-5.24-11.77-10.68-33.55-4.68-65.65,4.23-98.7ZM838.06,316.25c-1.73-1.28-9.42,6.42-8.98,6.99,5.22,1.08,9.96,3.64,13.99,7.01l-5-14ZM852.07,369.24c.67-17.46-8.92-41.46-29.71-40.69-3.05.11-17.78,9.38-21.93,11.55-8.28,4.32-11.64,3.56-18.88,11.12-24.53,25.61-30.58,76.1-15.65,107.7,12.91,27.34,43.17,37.57,64.15,11.8,1.62-1.99,5.16-6.53,4.53-8.47-9.39,7.88-21.79,3.92-28.92-5.09-20.32-25.69-9.97-76.18,15.5-95.33,13.71-10.3,22.13-5.24,30.9,7.41ZM204.08,337.25l-43.08,28.49.29,4.31,42.28,25.21-3.48-24.52c-.17-11.18.25-22.92,3.99-33.48ZM728.07,349.26l-32.92-10.94c-16.35,30.71-19.81,66.33-11.79,100.14,7.15,30.13,24.81,57.48,58.71,58.78-31.48-23.69-38.26-70.35-30.51-107,3.08-14.56,8.99-28.26,16.51-40.98ZM774.08,348.25l-27.51,3.98c-16.29,29.53-22.47,65.05-15.17,98.2,5.48,24.89,23.2,54.76,52.94,42.57.86-.35,6.52-2,4.75-3.74-14.61-3.2-25.71-18.2-31.18-31.33-14.09-33.82-7.11-81.28,16.18-109.67ZM741.08,351.26c-6.48-2.11-8,1.15-11.19,6.3-22.38,36.09-21.96,104.06,12.72,132.66,2.29,1.89,5.44,4.65,8.47,5.02-13.57-10.53-21.33-25.6-25.32-42.17-8.12-33.67-2.16-72.1,15.32-101.81ZM846.08,373.24c-8.96-21.22-25.84-4.38-33.42,8.09-9.85,16.19-13.33,37.42-9.11,55.95,2.72,11.95,13.12,29.9,27.51,20.46-18.59-16.43-13.37-50.59-2.15-70.17,3.56-6.21,9.31-14.43,17.17-14.34ZM846.75,377.38c-6.13,2.59-10.02,8.24-13.19,13.84-10.31,18.2-15.75,47.78,2.16,62.86l63.6-26.1c3.06-1.88,4.99-3.4,2.19-6.68l-54.76-43.93ZM359.08,410.24c6.31,1.06,4.75-3.66,6.59-6.9,2.3-4.05,6.27-8.29,8.23-12.86l-2.83-11.23-11.99,30.98ZM410.07,439.26c-15.47-10.27-24.65-28.03-33.49-44l-8.39,13.67,3.4,4.31-13.85,1.15c-1.32.44-1.88,2.68-3.29,3.71-4.31,3.16-7.03.39-8.38,8.64-.33,2,.19,1.33,1.49,1.5,20.81,2.73,43.05,2.93,62.03,12.99l.48-1.97ZM546.08,434.24c-7.82-7.31-14.49-15.48-20.99-23.99l8.48,23.01c2.48,2.18,9.1.48,12.51.98ZM223.74,477.91c2.61-2.73,6.75-13.2,9.91-17.59,2.56-3.56,11.62-14.01,14.92-16.17,1.87-1.22,6.39.69,10.36-.57,1.54-.49,7.47-4.19,7.11-5.75-3.3-3.81-4.86-7.3-9.96-9.08-22.17-7.73-24.99,12.75-39.45,23.54-3.81,6.48-4.39,15.5-9.53,20.96,3.19-7.29,4.26-18.79,8.14-25.35,3.08-5.21,11.9-11.01,14.85-17.15-.69-1.38-2.69.02-3.68.32-30.69,9.35-26.35,36.9-35.34,62.64l12.2,58.39c23.51,12.2,48.82,21.61,75.73,22.06,3.48-12.04,6.55-23.71,1.59-35.89-1.95-4.79-6.42-8.29-5.5-14l-3.99,2.99c.06-7.55,5.81-14.45,7.7-21.79,1.4-5.43,1.49-10.62,1.3-16.2,2.3-.1,2.89,2.1,5.49,2.1,4.99,0,9.85-6.4,7.01-11.12-.49-.81-15.69-7.18-17.45-7.55-13.51-2.8-17.47,19.39-24.08,28.04-2.23,2.92-7.56,9.12-7.87,2,4.01-8.9,12.17-19.69,15.11-28.75.76-2.34,1.04-4.26.78-6.72,1.94-.54,2.59,1.98,4.32,1.83,2.12-.18,5.43-3.68,8.16-3.74,5.11-.1,8.44,6.08,14.5-2.6-15.81-8.86-27.88-22.71-43.49-4.51-4.81,5.6-9.51,15.81-14.49,20.51-4.94,4.68-14.03,5.26-14.01,14.5-4.73.27-2.53-8.26-.91-10.42s7.42-1.61,10.58-4.92ZM322.88,434.54c-13,1.21-24.31,4.43-25.79,19.21-1.87,18.64,6,51.28,18.01,65.97,19.85,24.27,74.77,29.26,95.49,3.53,10.09-12.52,9.16-22.8,13.98-36.02,4.24-11.63,22.19-13.99,31.85-7.83,9.82,6.26,8.2,13.28,11.17,22.83,9.19,29.6,20.72,44.33,53.11,48.89,41.09,5.78,67.18-7.25,79.65-47.12,5.04-16.11,12.55-42.82-5.24-53.3-21.68-12.77-90.47-12.53-112.56-.49-8.49,4.63-12.46,10.89-17.13,18.94-12.78-5.73-27.36-7.92-39.86-.15-4.05-5.21-5.49-11.17-10.59-16.16-16.02-15.67-70.28-20.34-92.1-18.3ZM293.07,443.29c-4.39-.32-18.84-12.55-20.01-3.49-1.38,10.79,10.33,14.61,16.53,20.44,2.25.42,1.39-.98,1.49-2.47.35-5.16-.35-9.43,1.99-14.48ZM466.07,455.26c-2.88.23-8.78-4.64-10.49-4.66-1.2-.02-4.67,2.22-7.1,2.56-10.31,1.44-21.01-3.34-30.41-6.9l10.6,14.92c10.72-5.01,23.97-4.7,34.39,1.07l3.01-6.99ZM292.07,474.24l-1.49-8.99-5.5,6.99,6.99,2ZM690.09,472.25l9.49,60.98c10.12-8.94,18.44-19.72,23.42-32.38-.36-1.62-7.19-3.55-9.23-4.79-10.2-6.21-16.63-14.45-23.68-23.81ZM599.09,523.25c-14.57,34.53-55.96,40.1-88.85,32.33-24.89-5.88-39.28-21.27-46.65-45.35-1.7-5.54-3.07-17.48-5.48-21.52-3.98-6.68-16.88-8.94-23.03-3.95.85,2.69,3.01,3.67,3.03,6.94.02,3.55-2.62,19.13-4.57,21.48-1.13,1.37-1.89,2.39-3.93,2.04l-1.55-2.48c-.11-6.7,4.45-15.17,4.98-21.11.17-1.93.34-3.15-1.45-4.38-3.51,7.86-4.24,16.49-7.48,24.5-16.73,41.43-61.62,40.17-97.36,25.56-12.02,12.93-4.11,29.19,10.32,35.41-7.23,6.34.16,17.53,6.66,21.36,3.43,2.02,12.05,2.12,9.85,7.15-4.07.7-10.66-2.72-12.67,2.39-5.07,12.89,11.19,27.05,22.72,29.37,2.84-4.51,9.32-9.5,14.44-5.27-.04,1.11-10.95,4.78-11.96,10.03-2.22,11.46,12.36,22.77,22.63,23.42,5.35.34,3.14-3.22,7.35-3.95,3.57,7.88-4.39,4.82-.89,13.4,4.53,11.09,22.48,15.34,33.18,13.33,4.77-.89,2.33-8.26,5.2-6.73.94.5,4.2,13.03,11.18,17.83,14.91,10.25,35.73,9.16,49.81-1.86,1.95-1.52,9.57-11.01,11.52-8.98-1.69,5.03,6.52,7.24,10.24,6.82,4.88-.54,13.48-5.56,17.32-8.77,1.44-1.21,2.57-4.04,3.46-4.54,1.87-1.04,5.71-.41,7.99-1.52-3.92-11.56-4.19-23.49,0-34.98-2.32-.63-1.67.54-2.29,1.26-4.26,4.98-6.07,9.2-12.66,12.28-1,.47-14.03,4.51-10.04.47.8-.81,9.22-4.28,11.5-6.02,9.19-7.04,14.65-17.23,20.32-26.68,3.9-6.51,8.34-12.76,12.19-19.31l-17.91-3.94c-3.26,7.52-12.93,19.73-20.42,23.1-4.7,2.11-9.65,1.93-14.68,3.32-5.71,1.59-10.46,5.26-16.79,4.27-1.51-.24-2.83.12-1.2-1.75,9.38-7,21.94-6.67,31.29-12.22,9.11-5.41,14.28-13.74,19.21-22.79,2.07-.91,1.49,2.54,3.04,2.9,2.04.47,14.87-5.89,17.37-7.48,1.95-1.24,9.49-6.98,10.6-8.4.59-.74.6-1.1.47-2.02l-7.99-1.5c5.97-4.62,9.3-.17,14.82-7.18,6.02-7.65,15.35-33.36,17.74-43.27.24-1.01,1.31-3.27-.55-3.04ZM299.07,503.24l-4.5-11.97c-2.93,3-4.71,5.91-9.5,4.98v8s14-1,14-1ZM792.99,496.3l-9.91,4.93c4.89.15,9.45,2.38,13.99,4.01l-4.08-8.94ZM293.42,534.59c5.01-5.59,11.29-4.2,12.48-15.12.25-2.35-3.68-11.81-5.42-12.17-1.18-.24-2.58,1.44-3.87,1.52-3.69.24-7.37-2.87-12.49.96-.87.65-4.68,10.03-4.78,11.11-.5,5.84,8.23,15.03,7.74,21.34,1.66,1.8,5.32-6.51,6.34-7.65ZM699.09,571.24c6.07-3.22,10.81-8.69,13.47-15.02,4.55-10.8,6.74-26.34,7.51-37.98l-9.49,10.99-11.4,5.1c.12,12.3,2.24,24.67-.09,36.9ZM309.06,520.25l-1.99.5c2.53,3.43-1.31,6.07-1.03,8.95.14,1.42,5.07,7.99,5.78,13.3s-.76,13.39.46,17.54c.47,1.6,6.29,6.65,7.98,10.02,5.86,11.68,1.81,27.5.78,39.98l7.53,6.69,11.49-18.96c-8.74-3.88-13.57-14.79-9.99-23.99-16.29-6.58-18.7-26.88-9.13-40.4-4.4-4.11-9.74-7.63-11.89-13.62ZM283.08,574.24c4.24.18,17.63.06,19.83-3.66,3.61-6.11,5.72-35.83-2.47-37.26-1.78,1.22-10.82,11.48-11.16,12.63-.9,3.07.21,7.43-.22,10.78-.8,6.1-2.36,12.51-5.98,17.51ZM268.08,918.25h18.5c33.74,0,61.86-59.76,68.83-87.17,9.02-35.47.13-70.92-10.82-104.82-5.06,11.94-5.52,26.39-8.99,39.01-4.56,16.53-25.44,59.52-39.6,68.4-.98.61-5.08,3.27-5.91,2.58,17.79-20.69,32.29-45.23,39.92-71.57,2.59-8.96,5.2-19.42,5.59-28.41l-3.5,1.99c-.92-1.03,8.84-18.3,10.17-21.32,10.35-23.39,12.02-40.48,2.31-64.66-2.89-7.19-17.48-32.2-24-35.01-1.54-.67-1.36.48-1.71,1.24-3.12,6.8-2.98,13.31-10.76,18.25,5.84,2.67,13.59,6.1,13.97,13.5-3.79-1.22-6.17-4.8-9.95-6.54-9.53-4.41-11.15-1.16-19.56-.46-6.66.55-16.1.78-21.49-3.5l21.8-2.69c4.37-14.02,7.16-29.07,7.2-43.8,1.23-1.62,1.81.02,2,1.48.88,6.94-.99,20.51-2.3,27.72-.86,4.76-2.38,9.18-3.7,13.79,13.08-3.96,16.16-12.52,18.7-24.79,1.73-8.37,4.29-26.55,1.78-34.2-.46-1.4-2.96-6.5-3.99-7-3.06,6.35-10.51,8.84-17.1,9.89-24.34,3.9-67.07-6.84-88.42-19.38-4.81-2.82-15.64-8.49-9.98-14.51-12.58.66-16.65,18.63-18.73,28.76-1.05,5.12-2.98,15.96-3.18,20.85-.07,1.87,1.08,3.5.9,5.38-4.36-.4-5.36-5.48-5-8.99-26.14,6.49-42.17,32.19-45.86,57.63-1.84,12.68-.64,24.12,1.01,36.72,1.79,13.66,5.24,27.15,7.85,40.64-3.98-4.53-6.3-12.56-8.01-18.48-2.16-7.5-3-15.18-5.48-22.53-12.89,23.46-28.37,52.62-23.24,80.25.89,4.77,4.42,11.44,4.7,15.37.25,3.52-1.8,7.97-2,11.85-3.09,61.56,43.15,115.08,102.83,126.24,42.04,7.86,73.77-6.52,101.2-37.7-1.47,3.59-4.57,7.46-7.02,10.47-8.67,10.65-16.35,16.04-27.68,23.29-1,.64-1.77-.11-1.29,2.24ZM560.08,597.23c2.83-.23,6.34.69,8.98-.51,1.11-.5,12.48-12.14,14.02-13.98.94-1.12,2.43-1.63,1.99-3.5l-24.99,17.99ZM668.08,606.25c-2.72-.61-1.71.82-2.47,1.98-3.7,5.62-7.42,11.06-12.01,16.02-7.91,8.56-17.34,13.22-17.51,26.98l22.67-14.33c5.73-9.48,6.92-20.06,9.33-30.66ZM336.07,614.24c-1.71-1.76-4.15,4.63-3.82,6.25.37,1.83,9.32,12.59,11.25,15.83,12.06,20.21,16.69,42.78,11.08,65.92-1.42,5.86-4.28,11.13-5.51,16.99,2.29.32,8.95.54,9.99,2.52.81,1.54-1.91,2.24-2.68,2.22-1.83-.06-6.74-3.79-6.29-.26,1,7.84,7.35,19.06,8.5,27.52l7.48,35c.01-6.79.35-13.74,1.02-20.49.73-7.48,5.39-31.42,3.78-36.8-.39-1.29-2.16-2.22-2.78-4.22-2.12-6.92-2.73-19.4-3.06-26.94-.58-13.45.51-27.08.05-40.54l1.98,11.51c1.64,14.97.48,30.23,1,44.95.13,3.75,1.51,10.33,3.52,13.54,3.83-16.5,7.89-32.86,14.48-48.51.85-2.01,3.69-5.09,3.56-6.57-.62-6.97-8.15-6.18-13.91-9.07-9.62-4.82-16.29-13.93-15.05-24.89-11.24-4.16-22.21-11.37-24.61-23.97ZM563.07,674.25c-8.66,1.94-3.86,12.49-4.06,18.34-.15,4.55-3.02,10.12-3.7,14.39-2.81,17.71-3.61,31.31,3.28,48.25.67,1.66,1.92,5.21,3.47,6.01-1.63-16.24,12.18-31.73,27-35.99l-8.47,6.01c-13.48,11.24-25.26,30.38-7.53,43.98-.42-5.04,1.1-10.62,3.5-15.05.76-1.39-.08-2.46,2.5-1.95-.19,4.53-4.9,16.17-2.79,19.79,1.78,3.06,18.45,9.01,22.78,8.19-.17-1.57-2.3-1.53-3.55-2.93-8.21-9.23-9.57-23.58-8.32-35.43.5-4.79,7.52-22.85,6.42-24.61-.66-1.05-9.34-6.27-11.59-8.47-2.65-2.58-10.59-15.14-11.46-15.54-1.45-.67-2.99,3.23-3.65,4.33-2.9,4.81-3.82,10.98-7.83,14.67-1.71-7.52,7.8-20.91,7.89-26.48.06-3.71-4.09-12.83-3.91-17.51ZM630.07,719.26c-6.37-2.32-9.24-9.68-12.17-15.33l-5.81-24.67c-1.92,7.76-6.45,33.18.7,37.78,3.48,2.24,10.65,3.38,14.79,3.23,1.13-.04,2.76.62,2.49-1Z"/>
      <path class="cls-1" d="M672.06,884.24c8.9-16.53,15.55-34.11,25.21-50.3,20.42-34.24,49.26-69.05,86.8-84.69-9.95,7.45-20.68,14.21-30.01,22.48-25.44,22.52-55.42,62.28-68.21,93.79-.37.91-1.88,3.83.21,3.71.09-1.46,1.03-2.52,1.97-3.54,15.34-16.49,45.09-40.82,66.64-47.36,1-.3,4.03-2.07,3.39.39-8.24,6.92-18.31,10.43-27.52,16.49-19.31,12.7-57.46,47.77-64.19,69.81-2.18,7.13-2.54,16.28-2.28,23.71.08,2.38,2.88,7.12-1.51,7.57-1.45.15-2.85-.11-3.35-1.71-1.08-3.5-1.38-14.85-1.14-18.84.59-9.69,4.23-18.42,8.76-26.84-5.68-10.99-13.53-20.58-18.95-32-5.08-10.71-11.77-29.56-12.82-41.2-.35-3.85,1.78.74,2.17,1.85,4.27,12.2,8.49,24.31,13.97,36.03l10.85,18.64c-3.53-22.7-9.62-46.56-10.98-69.5-.29-4.91-.66-35.2.47-37.51.23-.46,1.3-1.26,1.51-.98l3.02,40.49,7.98,48.51c4.21-23.93,12-48.79,21.24-71.26,5.12-12.45,11.35-26.28,19.76-36.73-7.08,18.6-15.39,36.68-22.01,55.48-8.02,22.79-21.21,57.58-12.95,80.98.38,1.07.5,2.39,1.95,2.53Z"/>
      <path class="cls-1" d="M528.08,699.25c-4.05,12.3-5.93,25.56-7,38.5-2.61,31.6-2.03,63.39-.97,94.95.39,11.51-.08,23.05.96,34.54l6.35-2.84,3.64,3.84c-3.17-.23-6.57.2-8.45,3.06-.48.73-6.8,14.91-7.08,15.92-2.04,7.39,6.43,13.04,10.51,18.53l-3.93,1.56c-.58.64,4.01,14.7,4.89,16.51.53,1.1.93,2.81,2.55,2.43l6.47-18.94c-1.38,0-4.4-.5-3.95-2.54l10.84-13.24c.87-5.71-12.49-15.34-2.86-18.27,5.97,11.98,12.84,18.07,1.15,29.68l4.85,5.81c-1.35,2.73-3.85-.28-4.93.52-1.71,1.26-4.78,17.99-6.98,21.3-2.35,3.55-8.7,1.87-10.83-2.06-.9-1.65-6.85-18.46-7.06-20.03-.34-2.64,1.02-5.05.67-6.54-.56-2.37-7.71-6.44-7.71-12.19s7.72-12.63,7.93-18.02c.14-3.6-1.79-9.12-2.05-13-2.55-36.83-2.66-76.1,0-112.98.63-8.81,2.19-17.71,2.98-26.51-12.1,5.53-25.61,10.07-39,9.5l39.37-13.41c2.42-2.17,1.27-20.48,9.65-16.08Z"/>
      <path class="cls-1" d="M659.09,688.24c6.01-21,25.26-39.25,44.98-48,.52,2.13-1.18,2.24-2.27,3.22-3.24,2.92-7.46,5.34-10.73,8.27-12.15,10.89-22.29,23.47-31.98,36.51Z"/>
      <path class="cls-1" d="M183.07,288.24c.62,4.61.37,12.37,4.02,15.5,1.73,1.48,4.74.63,3.99,3.49-6.67-.1-5.55,6.73-8.99,10.01-.51-7.82-5.41-9.56-12.01-11.49,10.48-3.87,8.05-8.24,10.88-16.12.51-1.42-.28-1.69,2.11-1.39ZM181.17,309.17l3.75-2.57-3.34-5.35-3.49,4.5c-.13.33,3.43,1.49,3.09,3.42Z"/>
      <path class="cls-1" d="M745.08,830.25c-6.57,7.62-14.57,14.8-22.54,20.95-6.17,4.76-13.33,10.04-20.46,13.03l43-33.98Z"/>
      <path class="cls-1" d="M170.06,319.25c.38,2.8,1.88,5.68,5.01,6.02l-5.98,9.98c-.33-3.82-3.62-5.95-6-8.5,1.07-1.25,2.49-2.21,3.45-3.55,1.37-1.92.85-4.64,3.52-3.95Z"/>
      <path class="cls-1" d="M747.08,635.26l-.48,1.97c-9.43-3.35-19.02-.16-28.51,1.01.44-1.69,4.27-2.31,5.78-2.7,8.27-2.12,14.93-2.71,23.21-.28Z"/>
      <path class="cls-1" d="M654.07,737.24c-1.68.26-1.09-2.42-1.03-3.52.34-6.36,2.86-15.92,5-22.01.52-1.47,1.46-5,3.03-5.46l-7,30.99Z"/>
      <path class="cls-1" d="M459.07,745.26c.23,1.85-2.09.87-3.03.53-4.46-1.62-12.16-6.12-15.68-9.32-1.08-.98-2.8-1.08-2.27-3.22l20.98,12.01Z"/>
      <path class="cls-1" d="M945.08,724.75c-2.64,26.1-25.67,58.95-51.22,66.78-2.46.75-14.08,4.3-14.78,1.2-.19-.86,10.16-8.85,12.02-10.96,27.31-30.95,12.8-76.4-2.02-109.53,6.94,7.03,11.11,16.28,15.47,25.02l5.52,15.48c.37-13.75-1.91-28.06-5.74-41.26-4.23-14.57-12.61-26.83-18.84-40.16-1.8-3.85-4.45-7.85-5.41-12.08,12.65,15.4,24.42,35.26,29.91,54.58,8.48,29.86,8.06,76.9-9.1,103.74l-9.81,11.68c25.31-7.73,44.26-30.62,50.5-55.99.65-2.63,2.49-10.41,2.49-12.51v-17.5h1c-.51,6.92.69,14.69,0,21.5Z"/>
      <path class="cls-1" d="M465.07,145.23c-14.33,5.13-26.47,15.8-37.02,26.49-1.54,1.56-8.23,11.69-10.97,9.52,7.97-14.71,25.09-32.19,41.32-37.16,2.72-.83,6.73-3.25,6.67,1.15Z"/>
      <path class="cls-1" d="M530.08,181.24c-1.79.38-2.45-.92-3.52-1.97-8.73-8.63-15.29-21.59-26.5-28.5-1.59-.81-.19-2.42.54-2.52,6.59-.89,28.61,25.28,29.48,32.99Z"/>
      <path class="cls-1" d="M889.07,515.24c-5.12-6.99-9.66-16.52-12.76-24.73-3.54-9.37-6.86-20.27-7.22-30.26l7.97,25.51,12.01,29.48Z"/>
      <path class="cls-1" d="M381.08,194.25c-13.79,13.19-24.82,28.6-35.99,43.99,5.79-13.35,14.91-25.12,24.98-35.51l11.01-8.48Z"/>
      <path class="cls-1" d="M871.06,664.24c-1.71.26-1.07-2.38-.98-3.47,1.55-18.75,1.87-37.13-3-55.51l3.49,8.99c3.31,16.14,3.87,33.85.48,50Z"/>
      <path class="cls-1" d="M659.06,585.24c-1.85.22-.87-2.09-.53-3.03,1.82-5.01,4.95-10.22,6.56-15.45l8.97-26.51c-1.02,16.27-8.39,30.56-15,44.99Z"/>
      <path class="cls-1" d="M533.07,99.26l-17.67,5.82-11.32,7.17c-.99-1.04,2.19-3.8,2.98-4.51,6.4-5.8,17.5-8.85,26.01-8.48Z"/>
      <path class="cls-1" d="M516.58,131.25c-.68.04-4.29,2.64-4.49.01,10.01-3.51,19.96-3.75,29.99,0-.31,2.76-4.85-.01-5.49-.01-6.52,0-13.57-.39-20,0Z"/>
      <path class="cls-1" d="M869.07,577.24c-7.54-8.13-12.76-19.31-15.98-30l2.54,2.95,13.44,27.05Z"/>
      <path class="cls-1" d="M938.07,578.24c-6.28-6.68-12.33-14.17-17.95-21.54-1.43-1.87-3.73-4.14-4.03-6.46l3.96,3.53,18.02,24.47Z"/>
      <path class="cls-1" d="M299.07,432.23c-5.12,2.65-7.95-3.6-8.99-7.98,2.79-1.01,9.69,7.15,8.99,7.98Z"/>
      <path class="cls-1" d="M547.07,83.26l-23.99,6.98,10.22-5.27c4.48-1.54,9.04-2.07,13.77-1.71Z"/>
      <path class="cls-1" d="M257.08,603.75c-.84,8.33-4.46,18.49-7.02,26.5-2.66.41-1.98-.49-2.03-2.52-.15-6.97,4.59-26.87,6.51-34.51.44-1.74.44-4.38,2.53-4.97-.36,5.01.5,10.57,0,15.5Z"/>
      <path class="cls-1" d="M814.08,257.25c.93,3.05-3.57,2.17-5.49,1.98-3.53-.35-8.3-1.96-11.49-3.51-1.74-.85-13.79-8.56-12.01-10.48,8.57,5.96,18.48,10.92,28.99,12.01Z"/>
      <path class="cls-1" d="M365.07,585.25c.31,10.14,6.43,20.99,13.04,28.47,8.87,10.04,21.23,11.82,28.97,22.52-6.24-1.52-14.9-4.78-20.68-7.81-10.15-5.31-20.25-16.68-23.04-27.96-.85-3.43-3.56-14.95,1.72-15.22Z"/>
      <path class="cls-1" d="M489.07,645.25c-5.69,12.84-19.78,18.8-33.22,14.72-12-3.65-27.36-21.74-30.77-33.72,15.57,15.45,27.86,38.98,53.32,25.83,1.6-.83,9.95-7.53,10.67-6.82Z"/>
      <path class="cls-1" d="M468.08,570.25c-10.27,12.96-29.56,16.36-40.98,3.47-.23-1.48-.12-1.78,1.41-1.42,4.17.95,8.83,4.63,13.52,5.49,10.39,1.9,16.86-4.44,26.05-7.53Z"/>
      <path class="cls-1" d="M418.08,567.24c-5.52-1.44-12.18-4.96-17.74-5.75-3.56-.51-14.43,1.34-14-3.76.07-.79,3.01-3.66,4.22-3.47,2.74.41.39,2.26,0,3-1.68,3.18,7.5,1.48,8.66,1.59,6.58.62,14.6,3.21,18.86,8.4Z"/>
      <path class="cls-1" d="M499.08,567.25h-20.5c-1.06,0-2.79,2.87-1.02-1.02,5.71-2.27,17.27-4.26,21.52,1.02Z"/>
      <path class="cls-1" d="M640.07,140.24c-.82.91-13.64-17.51-14.99-18.99l4.97,3.52,10.02,15.47Z"/>
      <path class="cls-1" d="M885.08,420.24c-12.43-1.28-27.16-2.91-39.23-6.26-2.34-.65-4.23-1.1-5.75-3.23,1.41-1.98,3.4-1.62,5.44-1.51,7.78.42,29.03,5.6,36.31,8.73,1.23.53,2.95.53,3.23,2.26Z"/>
      <path class="cls-1" d="M176.08,365.24c-.49-2.62.5-1.76,1.99-2.46,2.93-1.38,9.78-3.5,12.96-4.1,5.56-1.05,4.49,2.22-.14,3.88s-10.14,1.28-14.81,2.68Z"/>
      <g>
        <path class="cls-1" d="M231.58,638.25c-16.1-1.49-18.65-5.7-30.14-13.86-10.76-7.64-23.33-3.99-34.36.85,3.41-4.74,9.32-8.73,15-10l-3.99-6.98c6.37,2.54,9.94,7.77,17.99,7,.42-9.54,2.69-20.81,5.51-29.99,1.27-4.15,2.54-9.67,6.48-12.01l-10.94,43.92,20.97,12.56,32.98,8.52c-6.32-.42-13.27.58-19.5,0Z"/>
        <path class="cls-1" d="M159.08,855.24c-14.74-7-28.22-21.92-36.83-35.66-2.77-4.42-6.28-10.25-7.16-15.32l22.48,29.01,21.51,21.98Z"/>
        <path class="cls-1" d="M317.09,817.24l18.98-29c-1.65,11.33-9.28,22.93-18.98,29Z"/>
      </g>
    </g>
  </g>
  <path class="cls-1" d="M309.84,469.16c.06-3.31.08-6.45,1.18-9.57.06-.16.12-.32.18-.48.16-.4-.13.27.05-.12.14-.31.3-.62.46-.92s.34-.6.53-.88c.09-.14.19-.28.29-.42.24-.35-.19.22.07-.1.42-.53.9-1.01,1.42-1.45.32-.27-.25.17.09-.07.14-.1.28-.19.42-.28.32-.2.66-.38,1-.55,1.22-.58,1.54-2.32.9-3.42-.73-1.24-2.2-1.48-3.42-.9-3.22,1.54-5.36,4.55-6.63,7.79-1.41,3.58-1.47,7.58-1.54,11.38-.02,1.35,1.17,2.5,2.5,2.5s2.48-1.14,2.5-2.5h0Z"/>
  <path class="cls-1" d="M494.93,458.73c-7.72,4.65-12.69,12.99-13.26,21.96-.09,1.35,1.21,2.5,2.5,2.5,1.42,0,2.41-1.15,2.5-2.5.45-7.07,4.6-13.92,10.78-17.65,2.75-1.66.24-5.99-2.52-4.32h0Z"/>
</svg>