<?xml version="1.0" encoding="UTF-8"?>
<svg id="Calque_1" data-name="Calque 1" xmlns="http://www.w3.org/2000/svg" viewBox="0 0 1377.61 847.57">
  <defs>
    <style>
      .cls-1 {
        fill: #fff;
      }
    </style>
  </defs>
  <g>
    <path class="cls-1" d="M1366.16,96.29c.88.88,9.21-2.63,10.82,4.68.93,4.23.76,26.03-.03,30.6-.64,3.69-2.7,6.1-6.54,6.55-1.62.19-3.55-1.52-4.17.75-.83,3.04.24,8.79-.31,12.69-2.76,19.48-23.6,20.33-39.3,19.77-38.33-1.37-80.49-2.6-118.93,0-13.37.9-27.89-5.33-30.33-19.74-.5-2.97.26-6.11-.16-8.69-.16-.99-2.47-.66-2.96-2.2-.8-2.54-1.28-16.57-1.13-19.94.09-2.02,1.21-3.71,1.11-5.96-.28-6.29-2.13-10.83.1-17.83.46-1.44,2.29-2.02,2.68-3.32.88-2.93-.2-8.43.12-11.88,1.07-11.74,8.48-18.95,19.77-21.23l148.71-.18c10.58,1.69,19.59,9.36,20.59,20.41.23,2.56-.58,14.98-.03,15.53ZM1197.89,65.52c-10.27,1.67-14.93,8.22-15.77,18.23-1.74,20.76,1.32,43.95.09,64.98,1.23,9.27,7.06,15.28,16.41,16.59h145.06c8.26-.87,15.99-5.89,17.51-14.49-1.7-22.15,2.14-47.3,0-69.07-1.01-10.25-8.73-15.86-18.5-16.5l-144.8.27ZM1366.16,101.79v31.5c1.94-.02,5.25.62,5.89-1.61.81-2.8.38-17.07.15-20.94-.19-3.2-1.51-6.08-1.1-9.4-1.4.21-4.35-1.82-4.95.45Z"/>
    <path class="cls-1" d="M18.16,113.29l40.49-8.07c3.55-.1,3.87,1.9,3.46,5.03l-50.5,10.04c-1.46.03-2.6-1.45-3.38-2.62l38.92-59.38c-1.81.03-3.63-.13-5.44.05-11.55,1.18-24.72,5.11-36.02,5.98-5.73.44-7.9-2.38-2.87-5.88,6.4-.4,12.61-2.11,18.9-3.1,8.9-1.4,19.15-3.09,27.99-4,3.17-.33,6.87-.73,6.47,3.42-10.89,18.87-24.42,36.36-36.44,54.61l-1.58,3.92Z"/>
    <path class="cls-1" d="M580.16,831.29c.8.67.26,5,0,5h-200c-.5,0-.5-5,0-5h200Z"/>
    <path class="cls-1" d="M1011.16,831.29c.8.67.26,5,0,5h-197.5c-1.88,0-1.88-5,0-5h197.5Z"/>
    <path class="cls-1" d="M109.16,142.28c7.77-1.21,15.65-1.92,23.44-3.06,2.52-.37,12.59-3.93,13.56-.43.85,3.06-2.53,3.74-4.72,4.27-12.01,2.92-25.7,2.96-37.8,6.18-4.92-.01-4.19-4.58-1.94-7.91,7.18-10.59,18.75-21,26.47-31.53l4.99-7.51c-10.86.3-21.69,2.57-32.48,4.06-4.8-1.33-3.78-5.58.96-6.08,11.05-1.18,21.96-2.84,32.97-4.03,4.14-.45,10.08-3.43,8.06,4.07-11.1,14.1-22.98,27.5-33.52,41.98Z"/>
    <path class="cls-1" d="M165.16,193.28l24-3.55c2.88-1.67,4.12,3.8,2.41,4.58-2.97,1.36-5.06.62-7.86,1.01-7.75,1.09-15.51,2.57-23.25,3.72-2.39-.14-3.59-.92-4-3.27,7.61-11.18,16.44-21.73,24.71-32.49-4.42.37-9.04.58-13.45,1.05-2.55.27-6.49,1.64-9.07,1.57-4.4-.11-4.2-4.94,1.05-5.59,8.05-1,16.12-1.6,24.22-2.83,3.9-.59,6.3,1.6,4.1,5.15-5.76,9.27-14.93,18.61-21.34,27.66l-1.5,2.99Z"/>
    <path class="cls-1" d="M636.84,819.46c6.81-1.54,14.89,1.6,17.11,8.54,1.98,6.2.69,12.81-4.82,16.75-12.41,8.86-27.16-4.79-20.38-18.38,1.3-2.6,5.26-6.26,8.1-6.9ZM639.86,824.41c-4.3.79-8.2,5.8-7.53,10.14,1.63,10.53,19.69,9.41,16.64-4.58-.72-3.29-6.14-6.11-9.11-5.56Z"/>
    <path class="cls-1" d="M745.84,819.47c4.72-1,9.8-.03,13.35,3.28,6.17,5.72,6.06,16.11-.52,21.56-5.8,4.79-15.44,4.1-19.98-2.06-5.47-7.42-2.48-20.74,7.14-22.77ZM748.89,824.46c-3.55.55-7.24,3.68-7.72,7.35-1.85,14,21.06,12.45,16.84-1.88-.82-2.79-6.06-5.95-9.12-5.47Z"/>
    <path class="cls-1" d="M704.9,822.55c.36.34,2.75,3.83,3.06,4.44,4.03,8.1-1.32,18.91-10.31,20.27-16.44,2.48-22.89-20.59-8.75-26.74,4.79-2.08,12.1-1.67,16,2.03ZM692.84,824.47c-8.17,1.84-10.09,16.51,1.8,16.87,14.77.44,10.53-19.65-1.8-16.87Z"/>
    <path class="cls-1" d="M1202.88,79.5c13.92.69,30.18-1.67,43.82-.26,4.23.44,6.06,2.21,6.5,6.5,1.94,18.85-1.56,40.88,0,60.09.05,2.82-2.68,5.55-5.5,5.5-14.23-1.08-30.07,1.26-44.09-.01-4.29-.39-7.2-3.12-7.5-7.5l.06-58.02c.68-3.78,3.08-5.6,6.7-6.3ZM1249.16,84.29c-3.36.61-6.29-.97-9.48-1.06-4.6-.14-8.84.22-13.98.02s-9.27.76-14.01,1.08c-3.46.23-7.07-.23-10.53-.03v63h46.5c.11,0,1.5-1.39,1.5-1.5v-61.5Z"/>
    <g>
      <path class="cls-1" d="M112.66,707.29c-1.85-.49-2.26-4.16.11-4.89,5.25-1.61,15.02,1.54,20.85-1.15l135.53.03c.92-.87-4.41-8.61-5.19-10.3-9.85-21.3-9.29-45.37-3.35-67.74,1.4-5.26,6.99-16.67,7.33-20.63.16-1.86-2.42-7.15-2.73-9.88-1.94-17.08,5.41-34.96,15.51-48.38,3.65-4.86,9.1-9.45,12.94-14.06,3.6-4.31.83-2.19-1.96-1.96-16.54,1.36-34.58-.26-48.05-11.04-2.04-1.63-14.46-13.94-12.49-16l11.98,6.51c46.2,12.84,91.65-26.72,103.74-69.29.69-2.43,3.56-16.3,2.85-17.25-.54-.73-2.53-1.48-3.61-2.45-4.91-4.4-9.42-11.25-14.03-14.97-7.04-5.67-20.84-10.82-29.26-15.74-4.27-2.49-18.58-11.01-20.72-14.28-3.97-6.1,7.02-13.88,11.05-18.04,7.08-7.3,14.61-15.47,22.48-22.52,1.41-1.26,6.62-4.32,7.31-5.19.62-.78,1.3-5.83,1.92-7.58,1.84-5.18,3.95-10.26,7.18-14.73-12.35-9.12-21.72-19.69-28.09-33.79-17.32-38.34-12.18-86.13,4.69-123.7,31.19-69.43,112.87-127.27,190.78-100.77,1.75.6,8.2,3.86,9.08,3.66,1.73-.39,9.28-7.56,11.72-9.32,66.92-48.32,172.23-54.19,246.63-20.77,2.55,1.15,14.9,8.22,15.79,8.23,1.43.01,4.43-2.14,6.24-2.81,58.51-21.55,114.68-8.72,156.8,36.75,23.22,25.06,43.5,58.18,42.51,93.56-.04,1.39-1.08,3-.91,3.85.18.91,9.73,12.17,11.33,14.66,21.46,33.41,39,86.53,46.45,125.55,8.13,42.58,8.42,94.02,55.09,112.91,14.63,5.92,36.74,8,49.94-2.06,6.58-5.01,6.72-8.72,8.95-16.05.41-1.34.21-3.05,2.11-3.39,5.32,24.54-9.15,48.41-31.99,57.5-8.31,3.31-19.63,5.13-28.54,4.54-.98-.07-6.89-2.36-5.46.46l40,40c4.1,6.13,9.14,11.77,12.82,18.18,1.23,2.14,5.53,12.48,6.11,12.89,1.69,1.2,25.97.23,30.6.4,17.31.65,49.5,3,65.16,9.84,4.49,1.96,9.17,4.6,10.09,9.91,1.81,10.44-1.25,24.35.19,34.81.49,3.56,2.24,1.53,4.49,1.43,23.07-1.07,43.24,8.68,52.74,30.35,11.86,27.04,4.46,61.16-18.69,79.7-4.02,3.22-9.19,4.39-12.5,7.99,20.12-.6,40.42.8,60.53.04,2.31-.09,4.15-1.28,6.98-1.09,1.19.08,8.08,1.26,8.51,1.52,1.45.88.2,4.53-.03,4.53h-100.5c-.11,0-1.5,1.39-1.5,1.5v23c0,.27-1.74,4.06-2.15,4.85-4.39,8.37-15.93,12.88-24.61,15.39-34.06,9.84-82.97,9.87-117.47,2-12.27-2.8-33.66-8.53-38.98-21.02-.34-.8-1.79-4.93-1.79-5.21v-19.5h-116.51s-1.5.49-1.5.49c-9.6,10.15-22.68,16.14-35.97,20.03-30.82,9.02-64.06,7.08-95.46,2.43-4.52-.67-12.14-3.51-16.05-3.51-1.84,0-4.14,1.26-6.06,1.5-30.58,3.88-67.58,3.61-96.44-8.44-2.26-.94-8.68-5.15-9.64-5.35-1.33-.27-7.6,1.7-9.83,1.88-8.81.69-22.65.17-30.81-3.26-1.87-.79-6.18-4.37-7.36-4.62-1.72-.36-9.46,1.92-11.86,1.92-6.94,0-11.31-3.36-16.51-6.63-.72-.45-13.34,3.36-16.45,3.59-3.62.27-10.29-1.92-11.61-1.58-1.77.46-3.49,2.91-5.61,3.37-6.78,1.48-5.85.92-12.31,3.69-7.13,3.07-14.75,4.68-22.27,2.24-2.97-.96-6.12-3.58-8.72-4.33-3.51-1.02-12.17,3.54-15.71,5.39-2.28,1.19-4.36,3.3-6.6,4.4-7.17,3.51-19.31,4.45-27.24,3.83-3.36-.26-8.91-2.38-11.92-2.06-2.29.24-10.39,5.28-13.54,6.53-17.14,6.79-38.16,8.84-56.54,7.53-6.49-.46-16.39-3.96-21.97-3.96-3.53,0-10.82,2.4-15.05,2.87-27.76,3.11-71.73-2.71-94.39-20.51-1.34-1.05-6.1-6.44-6.56-6.44H112.66ZM775.16,31.29c-57.65-27.95-125.58-32.41-187.02-14.53-22.41,6.52-49.32,17.74-67.49,32.51-1.84,1.5-2.31,2.81-4.85,3.99-1.16.54-.68.94-.64,2.01,2.06-.32,13.54,8.68,14,8.01.15-.22-.15-1.5.2-2.28,2.59-5.6,31.78-18.5,38.8-21.23,51.8-20.17,116.25-22.95,168.28-2.27,2.83,1.13,12.85,5.01,14.22,6.83.71.94.08,2.64,1.96,1.91,2.34-.92,8.36-6,11.22-7.78,3.57-2.23,8.64-3.84,11.33-7.17ZM928.16,95.29c.21-.24,2.84,1.58,3.51,1.99,1.04.65.66,1.65,1.99.01,5.62-6.94,2.66-23.88-.3-31.71-6.81-18.07-36.49-32.87-54.19-37.81-16.27-4.55-31.66-5.02-48.55-4.52l-23.47,4.04c3.39,3.7,8.98,5.49,12.53,8.96,6.81,6.66,11.34,19.76,8.47,29.03,17.9-6.06,36.71-7.87,55.02-2.52,4.49,1.31,9.3,3.06,12.98,6.02-.59,1.33-2.52-.15-3.49-.51-18.68-7.05-36.4-8.09-55.74-2.73-6.35,1.76-9.91,1.95-12.96,8.04-8.29,16.56-8.72,34.6-1.8,51.7,3.94-1.23,7.55-3.73,11.46-5.03,20.74-6.91,48.58-2.44,60.99,17.08.96,1.51,2.33,5.71,2.55,5.96.78.87,11.22-5.38,12.93-6.57,5.51-3.83,10.07-8.63,13.93-14.07l7.14-14.35c.94,17.33-16.1,32.16-30.97,38.03l.97,5.97c-7.64-6.88-16.51-13.4-27.45-11.96-7.42.98-19.5,9.62-20.55,17.45-.38,2.81.72.71,2.53.53,6.95-.69,20.22.78,26.75,3.2,12.72,4.7,22.77,17.12,20.7,31.26-.34,2.33-2.76,3.92-1,5.04,2.62,1.68,18.7,4.94,22.58,5.43,1.33.17,5.2-.15,5.44.06,1.33,1.13.15,1.92-1.49,2-2.45.12-5.67.25-8.04.03-3.94-.37-18.42-5.33-19.81-4.95-.84.23-6.99,8.2-9.15,9.92-2.66,2.12-5.89,3.33-8.5,5.5l11.69,5.31c21.14,11.58,27.86,36.75,15.17,57.54-1.55,2.54-5.68,5.31.85,2.85,19.09-7.16,35.61-17.57,48.3-33.7,19.47-24.76,26.54-53.69,24.99-85.02-.1-1.95.12-1.57-2-1.49-.21,5.26-2.61,10.75-5.17,15.33-8.25,14.71-23.39,27.48-40.83,27.67l10.94-6.56c13.16-1.62,25.57-17.74,30.57-29.43,6.06-14.2,4.93-25.21.77-39.78-6.87-24.05-23.27-46.76-40.77-64.23-1.2.36-.29,2.17-.05,3.05,2.42,8.7,4.22,18.34,1.3,27.21-.63,1.92-2.26,3.85-2.61,5.43-.92,4.11,6.59,12.66,4.85,18.31-2.75.45-1.69-.51-2.23-2.23-1.24-3.98-2.26-7.86-4.57-11.47-1.24-1.93-7.79-7.48-6.2-9.3ZM584.16,84.29c-.67.57-13.16-.42-15.5,0l-13.5,4.5c2.69,1.21,4.96,9.38,5.93,10.07.67.47,7.79.95,10.29,1.71,1.04.31,3.01.31,2.77,1.72h-14.5c-2.01,0-13.87,4.18-16.78,5.22-72.27,25.84-119.14,96.64-145.5,165.5-6.09,15.91-12.93,37.01-15.17,53.83-.14,1.06-.79,3.69.94,3.44,2.24-8.81,5.09-17.56,8.5-26,1.25-3.1,3.03-7.59,4.64-10.36.62-1.05,2.09-3.05,1.85-.15-7.38,15.45-13.02,33.16-15.9,50.1-5.15,30.22-2.58,68.22,14.06,94.77,1.28,2.04,7.62,9.83,9.36,10.64,1.15.53,2.03-.35,1.49-1.49-.26-.55-1.35-1.24-1.84-2.16-11.24-21.23-13.51-47.49-8.16-70.85.32-1.42-.12-3.06,2-3.5-2.03,11.21-.76,23.25,2.27,34.23,4.15,15.03,14.4,30.92,26.79,40.21.86.64,4.23,3.18,4.94,2.55-6.42-6.73-9.39-12.69-11.97-21.53-.42-1.43-2.17-2.81.46-2.47,4.86,9.73,10.64,18.02,19.58,24.43,9.84,7.05,22.81,12.08,34.93,12.57l-14.46-18.04c-36.48-55.3-24.91-125.69-2.04-183.96l5.5-10-11.73,37.76c-10.25,38.68-14.72,77.06-3.78,116.26l4.51,11.98c-.66-14.62,2.13-28.84,4.25-43.25l1.75-4.75c-.15,2.48.22,5.06.04,7.53-1.15,15.28-3.05,37.62,1.69,52.25,1.61,4.98,4.95,9.16,6.28,14.22,9-10.29,16.47-21.78,20.51-34.98l3.98-17.02.46,13.53c1.22,4.81,1.41,10.03,1.07,15-.11,1.57-2.21,8.05.47,4.47,5.57-7.46,9.84-42.31,10.53-52.47.6-8.93-3.46-19.1-4.95-28.12-4.76-28.89-2.35-63.18,4.18-91.64,4.16-18.12,11-36.68,20.23-52.77,1.06.96-.53,3.86-1.01,4.99-20.54,48.36-30.46,108.95-15.02,160.02,9.09,30.08,28.05,58.59,57.83,71.17,6.33,2.67,13.04,4.26,19.69,5.81.42-1.72-.65-1.99-1.49-3-2.48-2.97-6.01-5.53-8.51-8.49-8.15-9.67-18.64-31.84-20.76-44.24-.19-1.14-.84-3.58.26-4.26,5.57,9.58,9.36,20.78,16.5,29.5,12.07,14.75,39.78,32.41,59.26,27.25,1.58-.42,4.62-1.28,5.73-2.27,2.74-2.46.13-2.24-1.48-3.46-5.58-4.24-10.25-9.17-13.69-15.34-.58-1.03-2.57-3.72-1.32-4.68,12.62,14.73,28.5,23.25,47.5,27,.42-1.71-.64-1.99-1.49-3-21.52-25.6-33.36-67.24-35.54-100.46-.15-2.23-.02-4.76.03-7.04.03-1.21-.74-3.73,1-3.5,1.01,9.85,2.78,19.64,5.27,29.23,6.27,24.18,19.52,52.85,39.79,68.21,1.75,1.33,7.98,5.92,9.44,6.56.58.25,1.71.17,1.49-.49-.98-2.97-4.3-7.16-5.55-10.45-.38-.99-1.34-3.22.55-3.05,3.5,7.54,10.63,13.65,17.68,17.82,2.7,1.6,8.52,4.8,11.27,5.74,1.16.39,1.82.8,2.59-.53.45-.77,2.06-8.84,2.38-10.62.78-4.28.89-8.69,1.72-12.95l-12.63-33.47c1.62.39,2.21,2.3,2.86,3.64,2.29,4.74,3.81,10.22,5.94,15.06,1.01,2.29,2.15,5.95,4.2,7.3-.39-8.05.53-16.54.04-24.53-2.07-33.66-11.34-68.86-22.26-100.74l-10.77-26.72c1.24.29,2.19,1.62,2.85,2.65,8.31,12.77,16.19,35.53,20.67,50.33,10.58,34.99,17.41,75.19,14.43,111.47-.69,8.39-2.98,18.49-5.43,26.57-4.26,14.09-10.76,27.9-20.52,38.98,31.34-9.48,63.01-29.01,76.5-60,2.39-5.5,4-11.34,6.02-16.98l3.48-15.02c-.29,20.86-6.03,42.64-13.22,62.27s-18.08,39.47-34.27,53.73c-5.22,4.6-11.78,8.28-16.51,13.49l10-3c-3.12,3.85-7.92,6.28-11.51,9.49-10.54,9.46-24.24,25.99-30.26,38.74-1.11,2.35-5.68,12.55-4.23,14.27,3.88-2.23,10.35-1.61,13.99-3.51,2.48-1.3,7.67-8.1,10.5-10.5,19.24-16.24,44.18-21.99,69.04-20.03,2.68.21,9.82,2.59,11.48,1.58,11.26-14.08,20.06-29.79,23.99-47.55l1.94,5.55c.9,10.55-3.3,27.69-9.48,36.41-2.26,3.18-5.98,5.13-8.46,8.03,4.67,2.32,11.28-2.57,14.94-5.56,18.48-15.09,17.73-66.25,16.11-87.99-1.13-15.15-2.33-30.96-5.11-45.89-.57-3.08-1.65-6.46-2.47-9.53-.32-1.21.04-3.27-1.47-3.03v27.5c0,1.47-1.99,6.21-1.05,8.95l-1.94,8.55c.17-5.82-.24-11.71-.04-17.53.41-12.24.89-24.59.07-37-1.23-18.55-6.06-34.54-4.07-54,.91-8.84,5.45-19.27,6.07-26.93.27-3.29-.84-5.23-1.07-8-.31-3.83.03-12.76-1.91-15.89-.79-1.27-5.44-3.04-7.01-4.18-5.25-3.83-10.06-8.31-15.04-12.46,2.19,8.51,5.83,17.85,6.94,26.56.13,1.04.85,4.63-.94,4.44-2.3-10.62-4.97-24.19-9.49-34.01-2.72-5.91-8.4-11.58-11.71-17.29-8.63-14.91-10.75-33.35-8.75-50.13.42-3.54,3.16-10.25,2.97-13.02s-7.44-12.55-9.6-15.47c-14.91-20.18-33.59-35.17-55.1-47.9-5.58-3.3-11.49-6.37-17.33-9.18-.91-3.31,3.74-2.03,6.05-1.55,1.3.27,3.45,1.73,4.38,1.53,1-.21,3.41-6.87,4.38-8.66,6.12-11.37,13.3-22.13,21.19-32.3-5.03-1.17-9.79-3.37-14.76-4.74-24.91-6.83-60.4-10.73-81.74,6.73-2.22,1.82-7.32,8.27-9,9-2.41,1.05-.89-1.64.05-2.95l8.45-8.54c-.46-.98-5.64-3.56-6.98-4.02-9.19-3.17-19.85-2.03-29.25-.22-10.4,2-22.24,6.38-31.46,11.54-2.25,1.26-5.87,4.54-7.81,5.19-.68.23-.84-5.49-3.1-5.93-.9-.18-2.18,1.27-3.4.93.13-1.04,1.27-1.81,2.06-2.43,11.18-8.8,37.27-17.59,51.4-18.6,8.76-.62,18.29.65,27.07.07,7.85-.52,16.33-3.48,23.93-4.07,20.38-1.58,43.41,1.97,62.8,8.27,3.1,1.01,13.33,6,15.22,5.82.83-.08,1.51-.39,2.06-1.02l18.45-18.04c-4.56-.33-8.52-3.25-12.72-4.78-57.67-20.99-123.05-17.8-179.28,6.28-3.61,1.54-26.41,12.89-27,15.01-.31,1.13.78,1.84,1.49,2.5,5.55,5.17,11.66,8.9,17.06,14.96.92,1.04,1.42,2.83,1.56,2.92,1.08.78,9.33-1.62,11.45-1.84,5.03-.51,11.03-.4,15.91-.02.82.06,8.48-.53,5.53,1.97ZM799.89,29.44c-2.98.46-11.5,3.97-14.73,5.35-19.02,8.1-46.31,27.14-56.85,45.15-2.28,3.9-3.39,7.09-.18,10.89,10.67,7.03,22.45,12.57,32.54,20.46,1.46,1.14,4.44,5.4,5.98,5,12.1-20.65,27.73-36.27,49.51-46.5,2.28-1.07,8.04-2.24,8.84-4.16,2.83-6.79-.1-17.54-4.38-23.31-3.12-4.21-15.53-13.69-20.74-12.88ZM458.16,49.28c.08-.06.36-2.11-.5-1.99-4.11,2.01-9.38.64-13.95,1.05-34.77,3.1-85.8,33.95-104.41,63.59-1.62,2.57-3.33,6.39-4.14,9.36,11.95-12.74,27.12-22.94,43.72-28.78,11.58-4.07,23.49-5.39,35.81-4.25,1.86.17,8.91,2.59,9.47,2.03.23-.23-.14-4.99.06-6.44,1.86-13.39,18.92-29.04,30.93-34.1,1.02-.43,2.87-.36,3.02-.46ZM545.16,86.28c-12.97-14.76-31.24-27.24-49.98-33.52-6.67-2.23-18.69-5.18-25.55-4.51-5.65.55-13.91,5.15-18.79,8.2-12.27,7.68-24.17,19.58-22.72,35.27,4.58,1.91,9.46,3.81,13.74,6.37,7.34,4.39,16.37,13.99,20.5,21.5l3.31,7.69c14.09-20.58,38.98-34.07,63.24-38.76,5.37-1.04,10.91-1.14,16.26-2.24ZM822.16,71.29c-1.34-1.34-14.8,7.1-16.93,8.57-11.73,8.07-24.35,21.04-31.9,33.1-1.1,1.76-4.4,6.82-4.75,8.31-.2.86,2.47,4.51,3.08,6.02,4.03,9.89,6.79,20.37,11.51,30,1.46.3,1.62-.13,2.45-1.04,1.83-2,3.71-5.43,5.53-7.47,8.29-9.29,18.44-16.43,28.97-22.98-7-11.9-6.43-31.42-2.24-44.29.58-1.77,4.78-9.72,4.28-10.22ZM755.16,148.28c.15-.16-.11-2.41.07-3.43,1.51-8.73,6.31-16.96,9.89-24.96-10.68-13.12-28.44-17.24-40.42-28.64l-2.53-4.96c-.9,3.63-15.53,27.61-13.97,28.94,13.67,7.09,26.73,16.04,38.47,26.05,1.25,1.07,7.31,8.27,8.49,7.01ZM554.16,98.28c-4-7.83-5.29-9.75-14.44-8.94-22.63,1.99-50.74,15.12-65.56,32.44-1.18,1.38-4.09,4.83-4.85,6.15-2.28,3.97-.11,4.39.89,7.82.4,1.36,1.7,7.25,1.97,7.53.63.68,1.9-.53,2.5-.99,6.34-4.87,12.06-10.74,18.55-15.45,17.63-12.78,39.82-23.45,60.94-28.56ZM425.01,94.44c-.36-.47-9.83-2.85-11.4-3.11-28.36-4.58-57.43,13.96-77.47,32.42-1.44,1.32-3.39,3.28-3.8,5.2-.49,2.31-1.31,8.55-1.24,10.85.26,8.95,6.23,22.49,14.8,26.24,9.43,4.13,9.42-2.09,15.24-7.29,12.73-11.39,29.81-14.29,46.05-9.99,2.31.61,10.84,4.64,11.44,4.51,3.53-.76,7.68-29.93,8.48-34.55.36-8.12-.53-16.33-2.1-24.29ZM440.16,178.29c10.61-11.81,15.25-28.37,21.78-42.71.55-1.22,2.31-2.34,2.11-3.62-.16-1.05-3.23-6.54-4.06-7.99-5.77-10.08-13.83-19.39-24.14-24.86-1.12-.6-6.15-3.36-6.69-2.81-.34.35,1.88,7.62,2.03,9.47,1.11,13.18-1.6,31.23-6.53,43.54-.47,1.18-3.84,6.78-3.51,6.99.17.11,1.12-.02,1.94.53,7.37,4.95,13.77,13.36,17.07,21.48ZM893.16,142.28c1.23-1.05-9.87-10.6-11.06-11.44-9.45-6.61-21.85-9.83-33.38-8.5-6.78.78-13.88,4.61-20.56,5.95-.58.45,2.25,5.64,2.81,6.69,3.57,6.73,8.8,12.74,12.7,19.31,1.93.54,3.44-3.34,4.49-4.51,7.16-8.03,18.61-14.57,29.47-15.53,1.23-.11,7.24-.21,7.53.03,2.24,1.86-4.83,2.61-2.02,4.52,1.8.06,9.46,3.95,10.02,3.48ZM352.16,171.29c-.15-.14-2.66,0-4.04-.46-14.17-4.84-22.32-23.87-19.99-38.07l1.53-8.47c-9.19,13.55-17.09,28.27-22.02,43.98-5.08,16.2-8.46,34.15.33,49.71,2.43,4.3,5.65,7.44,9.19,10.81-.68,1.2-2.93.4-3.98-.02-3.98-1.61-6.02-6.28-8.45-9.55l-4.56-9.93c-.6,15.9.04,30.68,4.48,46.02,5.17,17.87,14.83,33.15,30.02,43.98l-2.29-7.71c-4.59-23.65,5.58-43.32,28.52-51.07.79-.27,2.16-.12,2.27-.21.77-.68-3.05-5.25-3.55-6.95s-.28-4.86-.46-5.04c-.47-.5-7.17,3.55-8.72,3.77-6.87,2.84-19.55,5.57-25.97,1.42-.76-.49-3.58-2.1-2.3-3.19,1.41-1.21,8.16,2.65,10.54,2.95,7.53.96,15.69-3.85,22.46-6.49.96-.38,2.78-.37,2.96-.51.32-.27-.09-6.71.1-8.4,1.35-11.66,11.06-22.26,22.65-24.35,6.12-1.1,8.13,2.16,5.06-6.48-3.27-9.23-11.88-16.29-22.06-14.52-6.49,1.13-13.12,6.91-14.67,13.36-.42,1.73.95,2.9-2.04,2.43.22-2.47.51-5.99,1.21-8.28.54-1.77,4.51-8.03,3.79-8.71ZM768.15,124.29c-1.07-1.41-1.74.05-2.2,1.27-1.85,4.99-4.28,10.35-5.56,15.47-.51,2.06-2.2,10.19-2.05,11.61.27,2.59,4.25,5.13,5.82,7.14,3.66,4.68,7.07,9.67,10.49,14.5l7.23-13.5c-5.56-11.75-9.49-24.23-13.73-36.5ZM834.16,185.29c-.37-10.04,2.94-20.41,8.91-28.5-6.62-8.49-12.78-17.35-18.41-26.49-10.36,7.55-25.86,14.78-28.29,28.7-.78,4.5.44,9.21,2.27,13.31.5,1.11,3.81,5.7,3.52,5.98-2.06,1.96-6.69-7.05-7.19-8.3-1.48-3.7-2.17-6.05-1.78-10.17.15-1.58,2.36-6.04-1.03-2.02-18.24,21.67-24.19,62.43-8.85,86.86,8.23,13.1,26.06,16.65,40.13,11.42,1.56-.58,8.09-4.41,8.72-3.77,1.96,1.98-3.06,4.56-4.31,5.19-10.55,5.38-17.39,4.86-28.43,3.05-.92-.15-2.92-.86-3.25.25,2.26,2.05,4.2,4.5,6.49,6.51,20.71,18.18,59.06,29.28,85.52,20.5,27.92-9.26,33.44-42.13,10.49-60.52-10.49-8.4-19.68-7.64-31.95-9.05-2.64-.3-12.13-4.44-12.55-3.94-.28.33.16,5.82-.06,7.44-1.22,8.97-7.63,21.6-14.44,27.56-.63.55-2.59,2.99-3.5,2-1.66-1.82,9.01-13.71,10.51-16.98,1.88-4.1,5.89-18.41,4.01-22.04-.47-.9-6.32-4.91-8.05-6.95-2.33-2.74-4.61-6.69-5.97-10.03-.94-2.3-1.32-8.24-3.79-7.85-5.13.82-9.74,3.53-14.71-.65l16-1.5ZM454.16,162.29l13.84-14.65c1.31-4.38-1.61-8.14-1.85-12.35l-2.04,2.46-9.95,24.54ZM390.16,185.29c.53.63,1.81-.36,2.45-1.05,1.73-1.85,3.45-5.61,5.12-7.88,2.21-3.01,13.02-15.7,13.36-17.7s-4.08-3.62-5.67-4.13c-11.56-3.73-24.17-2.25-34.58,3.93-3.8,2.25-6.66,5.15-9.67,8.33-.3,2.39.55,1.36,2.04,1.05,9.79-2.03,21.93,4.7,26.18,13.73.62,1.32.66,3.58.78,3.72ZM423.03,204.15c.28-.21,2.6-5.13,3.3-6.2,1.74-2.64,10-13,9.68-15.01-.37-2.32-5.1-9.07-6.85-11.17-1.59-1.91-13.36-13.46-14.51-13.49-.98-.02-3.12,5.66-4.04,6.95-1.2,1.69-3.29,2.93-4.47,4.53-4.69,6.37-8.67,13.2-13.91,19.17l1.99,17.76c.63,2.56,5.52-.11,7.48-.37,4.64-.62,9.36-1.41,14-2,1.85-.23,6.54.37,7.32-.19ZM875.16,213.28c2.13,1.72,13.29-5.13,15.5-6.99,3.88-3.26,6.83-7.91,8.26-12.75,5.7-19.27-13.37-31.01-30.23-32.29-2.3-.18-15.54-.25-15.53,2.53,0,2.01,5.01,1.27,6.45,1.54,18.39,3.4,27.57,28.21,18.74,43.66-.54.95-3.43,4.11-3.2,4.3ZM849.16,165.29c-2.23-.31-1.6-.06-2.19,1.29-1.2,2.77-2.89,5.3-3.85,8.17l6.04,4.54v-14ZM856.78,168.35c-1.06.29-2.22,2.56-2.44,3.62-2.34,11.16.91,25.4,8.29,34.34.99,1.2,5.79,6.2,6.94,5.94,1.95-.44,6.94-9.55,7.41-11.65,1.95-8.82-1.35-21.32-8.31-27.32-2.21-1.9-9.22-5.67-11.88-4.94ZM989.16,169.29v22.5c0,6.7-5.58,23.73-8.22,30.78-.96,2.55-5.77,11.93-5.77,13.22,0,1.48,6.64,14.91,7.77,18.23.58,1.72,1.44,3.37,1.23,5.26l-9.22-17.3c-.57-.92-1.34-5.09-2.78-2.06l-8.9,12.86c4.29,4.4,7.7,9.82,10.74,15.17,5.74,10.08,11.5,22.33,13.11,33.89.26,1.86-.38,6.52.19,7.31.21.28,5.13,2.62,6.2,3.3,11.91,7.62,26.14,17.12,37.18,25.82,3.22,2.54,12.12,9.2,11.37,13.31-.76,4.13-10.8,10.24-14.55,12.53-8.63,5.27-18.64,10.51-27.6,15.4-.84.46-1.76.8-2.72.78l23,41c-6.81-5.64-10.15-15.1-15.19-22.31-1.92-1.88-7.36-17.72-8.34-17.71-1.63.02-9.13,4.43-11.47,5.52-1.06.49-4.7,1.34-4.89,1.62-.29.41-.19,2.69-.56,3.92-5.21,17.35-16.88,28.84-34.27,33.74-1.35.38-3.19-.08-4.32.68-.72.49-.88,1.86-1.49,2.54-.86.97-2.04.67-2.47,1.5,4.15,7.23,10.44,12.45,17.73,16.27,2.33.16,14.69,6.83,15.26,6.23.81-.84-5.53-18.96-5.94-22.55-.25-2.19-.11-4.71-.06-6.95.03-1.21-.75-3.73.99-3.49l12.02,37.49c.51,3.5-2.93-.58-4.01,1,10.84,10.17,21.44,17.9,26.28,32.72,1.41,4.32,2.05,14.49,3.2,16.8,1,2.01,7.91,7.52,10.04,9.96,18.43,20.99,32.05,46.46,37.48,74.02,1.74.24.97-2.29,1-3.5.29-14.65-.18-27.38-3.27-41.73-1.63-7.56-4.12-15.03-6.74-22.26-.05-2.95,1.23-1.03,1.79.21,2.99,6.59,6,16,7.95,23.05,9.01,32.45,8.43,76.13-12.3,104.17-3.91,5.3-8.99,9.4-13.44,14.06,5.18-.61,24.41-6.07,27.06-9.44.58-.74,2.39-5.09,1.94-5.56-.68-.71-5.94,3.41-7.46,4.04-1.08.45-3.71,1.7-4.54.46,1.46-3.93,5.55-5.6,7.96-8.04,2.02-2.04,4.11-4.85,6.03-6.97,6.86-7.55,12.82-15.88,18.83-24.17l.14-66.86c1.46-14.9,22.36-16.8,34.03-19.47-4.94-10.92-11.82-20.77-18-30.99l7.51,4.99c7.81,7.19,16.55,13.45,23.53,21.5.65.75.88,2.22,1.09,2.37,1.86,1.35,10.67-.69,13.34-.9,2.17-.17,11.48.92,11.52-1.46.01-.67-5.25-10.27-6.16-11.83-9-15.45-23.5-28.7-37.9-39.1-13.31-9.62-28.28-17.33-39.93-29.07,1.11-1.43,3.24,1.03,4.29,1.71,10.48,6.77,20.86,13.81,31.21,20.79l.49-1.49c-4.27-4.2-8.88-8.73-13.49-12.51-10.66-8.76-19.83-14.23-29.5-24.5-2.64-2.8-6.65-5.38-7-9.49,3.86,3.91,7.3,8.42,11.49,12.01,25.99,22.24,71.55,23.23,89.7-9.32,1.12-2.02,3.58-5.74,2.31-7.69-11.45,11.46-33.12,10.78-47.73,6.73-60.53-16.76-58.68-83.67-70.03-133.97-8.18-36.24-23.86-82.26-42.9-114.1-.93-1.55-2.16-3.91-3.83-4.67ZM843.93,182.52c-.75-.69-4.31-1.71-4.77-1.23-1.59,1.62,2.81,13.89,4.15,16.34,3.45,6.33,10.7,11.48,17.85,12.65-5.9-5.07-7.36-11.37-10.81-17.69-1.15-2.1-5.03-8.8-6.42-10.08ZM388.12,198.33c-.13-.13-2.91-.93-3.49-1.01-11.49-1.49-20.5,8.6-21.5,19.43-.77,8.36.76,16.12,7.54,21.53,2.63.33,1.07-.82.99-2.05-.92-13.58,11-22.32,15.73-33.23.47-1.09,1.38-4.05.74-4.68ZM391.16,206.29l-3.82,4.68c-2.57,5.84-6.85,10.07-8.72,16.28-.31,1.02-1.7,6.78-1.46,7.04.98,1.06,5.78-4.09,6.52-4.97,5.13-6.11,7.66-15.11,7.47-23.02ZM421.16,206.29l-25.99,3.01c-.87,12.43-7.03,24.02-16.51,31.99-1.47,1.24-5.98,3.29-6.39,4.61-2.23,7.28,3.34,19.89,8.86,24.91,1.22,1.11,5.24,4,6.61,4.4,1.7.5,2.3-2.57,2.91-3.93,5.4-12.06,9.82-24.66,15.29-36.71l15.21-28.28ZM368.16,243.29c-1.18-1.21-13.12,3.89-15.33,5.17-17.62,10.25-21.43,33.56-12.51,51.17,1.42,2.8,3.27,4.52,6.13,5.87,11.4,5.4,22.22,4.75,33.58-.34,1.32-8.09,3.82-16.02,7.03-23.52.35-2.05-3.17-3.23-4.41-4.34-6.32-5.63-13.46-14.92-14.44-23.56-.22-1.98.31-10.07-.06-10.44ZM968.15,270.29c1.11-1.21-6.6-12.27-8.99-13,.62,2.28-5,5.72-5,6.5,0,1.69,12.04,4.56,13.99,6.5ZM981.16,305.28c-.47-15.29-7.95-30.87-23.71-34.78-1.71-.42-7.18-1.35-8.78-1.29-3.84.13-8.7,4.89-12.17,6.9-4,2.32-21.82,10.03-23.13,11.37-.51.52-.7,2.17-1.34,3.14-4.13,6.27-9.05,12.02-12.05,18.97-12.1,28.05-5.3,84.63,19.69,104.7,16.2,13.02,35.5,6.27,46.94-9.07,2.03-2.72,3.17-6,5.56-8.44l-.49-1.49c-12.71,10.32-26.44-1.73-32.27-13.74-10.51-21.67-9-51.9,2.94-72.59,6.16-10.68,16.31-20.53,29.18-13.52l9.65,9.85ZM856.16,296.29c-.35-.31-7.73-.9-9.26-1.24-2.3-.51-11.35-3.58-12.27-3.52-3.41.24-11.07,18.76-12.2,22.52-12.41,41.34-2.34,110.53,45.68,124.78l16.05,1.45c.56-2.59-.67-1.67-1.91-2.54-3.62-2.51-7.8-5.08-11.11-7.94-29.75-25.66-37-90.99-19.84-124.9.27-1.59,5.84-7.77,4.87-8.63ZM902.16,291.29l-21.37,4.94c-6.18,9.95-10.79,22.95-12.57,34.61-4.66,30.55,1.86,80.46,31.62,97.27,12.08,6.82,18.26,2.59,29.89-.78,1.08-.31,3.33-.66,1.44-2.04-.29-.21-5.03-.75-7-1.5-36.14-13.7-43.74-86.3-29.5-117.5.42-2.08,8.11-14.42,7.5-15ZM867.16,297.29c-.86-.86-4.89,3.06-6.36,3.14-5.11,3.67-10.09,20.15-11.4,26.6-6.86,33.58.07,78.07,27.25,101.28l10.51,4.98c-3.42-3.58-7.56-5.74-11.01-9.49-22.91-24.92-27.23-80.48-16.27-111.29.03-2.39,7.87-14.62,7.28-15.22ZM895.16,432.28c.58-.49-9.76-9.05-11.01-10.49-27.18-31.4-26.98-81.43-13.8-118.82.34-.98,1.71-2.97.31-3.69-1.17.95-1.93,2.02-2.7,3.3-19.06,31.91-13.44,103.95,19.23,126.17,1.19.81,6.99,4.36,7.97,3.53ZM960.83,299.46c-2.22.64-7.55,5.86-9.11,7.88-14.4,18.62-15.53,55.37-3.39,75.27,4.51,7.39,12.48,14.26,21.18,8.52.64-.42,2.64-1.99,2.64-2.35,0-.43-5.01-3.81-6.43-5.56-8.49-10.48-10.44-33.46-8.51-46.38,1.5-9.99,5.27-22.27,12.92-29.08.72-.64,4.02-2.48,4.02-2.97,0-.54-4.73-4.66-5.94-5.06-1.95-.64-5.45-.82-7.38-.27ZM351.16,313.29c-.25-.19-4.49-.92-6.01-1.5-3.06-1.18-6.18-2.82-8.99-4.5-1.55,4.98-4.4,9.5-6.04,14.46-9.08,27.47-4.6,72.66,18.53,92.54,2.09,1.79,15.76,11.5,17.51,9.99.62-.53-7.83-11.84-8.83-13.67-13.62-24.93-18.29-59.25-9.93-86.59.53-1.74,4.72-10,3.76-10.74ZM1036.11,352.23c.56-2.22-.52-3.11-1.92-4.47-4-3.88-12.25-9.44-17.1-12.9-12.14-8.69-24.98-16.46-37.59-24.43-2.93-.98-5.61,2.24-7.34,4.35-10.84,13.21-12.37,50.26-2.01,64.02,1.18,1.57,5.18,5.54,7.06,5.06,10.02-5.48,20.58-9.99,30.65-15.38,9.59-5.13,18.82-10.89,28.26-16.25ZM374.16,313.29c-4.54,2.25-11.27-.1-15.39,1.1-1.55.45-3.73,8.52-4.34,10.66-5.88,20.64-5,43.75,1.21,64.26,3.31,10.91,8.08,21.74,15.51,30.49,1.91,2.25,13.57,13.59,16.01,11.49-2.46-5.09-4.84-10.4-6.78-15.72-8.83-24.32-15.91-51.9-12.17-77.72,1.2-8.29,4.25-16.38,5.94-24.56ZM327.16,394.28c.64-.66-4.18-15.06-4.73-17.77-2.6-12.67-2.5-22.01-1.23-34.7.15-1.48.32-4.32-.53-5.53l-27.03,25.97c-.63,2.15-6.77,6.96-6.44,8.44.43,1.93,9.37,7.04,11.63,8.42,6.14,3.75,13.32,8.02,19.64,11.36,1.29.68,8.16,4.36,8.69,3.81ZM566.16,443.28c-.99.91-6.5-3.04-6.79-4.65-.12-.66.49-1.4.46-1.87-.1-1.34-4.62-2.8-5.99-3.65-23.39-14.45-31.7-31.02-43.46-54.54-.47-.94-1.03-2.18-2.21-2.29-1.34,18.54-2.53,40.06-14,55.5-1.29,1.74-3.66,2.64-4.02,4.98-.66,4.3.73,8.87,5.54,9.5l6.47-.49c-4.55,5.01-15.35,2.34-16.82-4.18s3.67-9.98,3.85-14.8c.08-2-.19-1.61-2.02-1.52-1.22,3.96-5.44,6.45-6.8,10.71-1.16,3.62.01,8.47-.32,9.6-.27.94-1.63,1.54-1.9,3.18-2.35,14.15,20.98,13.72,30.05,11.05l11.96-5.53c-7.99,9.57-23.45,9.45-35,11,2.36,2.25,4.35,8.35,6.44,10.05,2.37,1.92,10.55,3.14,14.52,5.48.97.57,4.28,3.12,5.07,3.93,1.42,1.45,6.81,10.47,7.45,10.47.38,0,4.85-2.61,7.05-2.9,11.3-1.47,22.38,4.06,28.3,13.61.69,1.12,1.05,3.21,1.17,3.34.46.51,10.17-3.28,13.4-2.99,9.86.88,20.94,7.08,29.96,10.91,12.39-11.94,30.52-19.41,47.66-14.46,3.57,1.03,7.92,4.51,11.35,3.44.66-.21,3.66-4.59,5.1-5.9,6.94-6.32,16.33-9.52,25.55-10.45.53-1.53,7.02-8.59,5.95-9.54-.43-.39-9.49,2.04-11.53,1.03l-5.46-2.03c5.2.34,8.88.13,13.69-1.81,6.94-2.8,10.38-6.73,13.52-13.48.64-1.39,2.6-6.93,1.79-7.71-.59-.57-5.06,1.19-5-1,4.27.2,7.68-3.51,9.42-7.08,1.54-3.14,2.65-4.54-.86-5.99-5.17-2.13-10.94-3.45-16.26-5.74-15.52-6.69-28.14-16.23-37.81-30.19-1.48.75.26,2.39.69,3.31,3.49,7.53,7.6,14.71,12.81,21.19,1.35,1.68,10.45,8.89,5.43,10.42-2.74.84-8.41-1.98-11.87-.98l-18.99-5.01c-.87,2.01-2.83,3.33-4.85,4.28-15.53,7.29-35.4.27-49.03-8.38-1.13-.72-6.39-5.13-6.67-4.83-.94,1.04,1.39,2.81,2,3.5,3.03,3.42,6.63,7.05,9.5,10.5.52.63,2.39,2.18,1.5,3-1.21,1.11-14.57-1.99-17.44-1.06-4.7-.2-9.87-3.33-14.05-3.95-.59-.09-1.65-.26-1.51.51.77.74,4.03,3.55,3,4.5ZM829.16,415.29c1.33,4.14.71,11.41,2.49,15.01.77,1.56,5.05,4.66,6.11,6.92,11.98-2.67,1.33-8.72-2.61-13.43l-5.99-8.5ZM271.16,578.79c-.61,5.14.45,11.24,0,16.5,1.52-.23,1.88-1.87,2.52-2.98,14.78-26.14,31.89-39.22,52.99-59.01,6-5.63,11.43-11.94,17.47-17.53,1.97-1.82,6.29-4.13,7.56-6.45.44-.8-.67-2.19-.53-3.44.39-3.59.58-7.45,1.05-11.03,1.25-9.37,3.72-14.57,12.25-18.75,4.01-1.96,10.1-4.12,14.42-5.58,2.4-.81,12.78-4.65,14.28-3.22,1.02.97-1.12,5.96-2.5,5.99-1.08.02-1.13-3.92-2.95-3.01l-11.55,4.52,15,2.5c.09,5.98-2.35,2.9-5.72,2.22-10.45-2.1-25.51-3.21-28.83,9.73-1.51,5.88-.64,9.79-.45,15.57.04,1.23-.23,2.01,1.49,1.48,1-.31,3.08-1.85,4.51-2.49,6.34-2.83,8.42-6.34,14.05-9.96,2.74-1.76,9.61-5.62,12.47-6.53,2.57-.81,1.71,4.12.54,5.55-1.06,1.29-8.45,2.97-11.39,4.61-4.75,2.67-6.22,6.57-8.68,8.32-1.73,1.24-7.06,2.8-9.69,4.31-11.99,6.9-19.29,18.47-29.28,27.72-14.19,13.14-28.44,23.91-40.47,39.53-24.42,31.71-38.27,81.93-16.39,118.27,17.43,28.94,68.65,34.76,99.36,32.71,2.7-.18,5.44-1.73,8.47-1.04-1.05-2.64-4.44-2.73-6.7-3.8-5.73-2.71-12.37-5.92-17.63-9.37-1.31-.86-5.82-2.85-4.17-4.83.95,1.21,2.17,1.82,3.48,2.52,30.27,16.18,68.7,22.92,102.04,13,6.58-1.96,12.6-5.14,18.98-7.52.3-1.4-.2-1.64-.97-2.52-1.5-1.7-4.52-3.23-6.55-5.45-10.86-11.86-17.7-35.92-10.98-51.03.53-1.18,1.04-2.75,2.51-2.99v23.5c0,1.67,3.15,12.71,3.97,15.03,7.31,20.72,21.72,25.38,42.56,23.5,4.64-.42,8.19-2.72,12.47-4.04l-7.19-12.3c-10.07-23.32.24-52.37,12.34-73.05.84-2.21,9.24-9.85,8.86-11.13-.18-.62-1.58-1.38-2.28-1.73-7.75-3.83-17.45-6.24-25.02-9.98-1.1-.54-2.4-1.55-2.7-2.8l20.26,7.23c2.47,1.78,5.46,2.43,8.09,3.91,1.2.68,2.56,2.67,3.23,2.82.49.11,6.89-4.29,8.72-5.16,1.27-.61,5.47-1.62,5.69-1.81,1.05-.9-3.72-5.2-3.97-6.53-8.39-6.79-18.63-12.48-29.59-13.41-5.07-.43-9.6-.27-13.44,3.45,2.04,1.33,5.91.65,7,3.49-3.28.38-7.38-.52-10.51,0-1.29.21-7.9,4.62-8.49,4.01-1.71-1.78,4.92-4.79,5.52-5.97.63-1.26-1.61-2.47,2.52-5.49,3.55-2.59,8.15-2.8,12.45-3.57.95-.17,2.2.42,1.49-1.45-5.44-14.32-20.34-24.28-33.98-30.02-32.64-13.73-67.91-8.9-100,4-24.48,9.84-40.33,26.61-59.5,43.5-3.97,3.49-4.49,2.3-1.52-1.52,4.25-5.47,13.62-14.04,18.99-19.01,5.1-4.72,11.43-8.61,16.02-13.98-.73-.98-3.28-.59-4.44-.44-8.75,1.12-16.58,4.67-24.25,8.74-1.41.75-3.3,3.26-4.3,1.7,6.32-4.95,14.48-8.92,22-12,13.15-5.4,25.9-5.97,38-13l20-7-11.98-4.02c-6.16-1.88-21.46-6.69-27.09-5.99-2.67.33-4.99,2.93-7.93,2.51,1.27-2.86,5.68-4.57,8.54-4.95,4.86-.64,20.48,1.86,25.71,3.2,4.71,1.21,9.36,3.71,13.74,5.75l-5.94-18.56c-1.95-12.2-.91-24.57,1.18-36.7,1.92-11.16,5.48-22.15,7.82-33.23.12-1.47-5.06-6.58-6.06-5.51-.63.68,1.26,5.83-1,6-.9-5.54-3.37-10.54-6.64-15.05-3.12-.22-7.43-2.44-10.05-2.81-2.43-.34-6.95,9.33-8.07,11.61-3.16,6.46-5.46,13.87-8.77,20.27-.76,1.47.11,2.47-2.47,1.98l15-35.99c-4.57-1.15-9.69-2.65-14-4.5-1.32-.57-6.5-4.05-7-3.5-.31.35-.84,7.78-1.22,9.28-6.43,25.52-27.19,52.96-49.46,66.54-16.11,9.83-36.36,16.81-55.33,13.18l8,4.5c14.96,5.47,31.86,6.44,47,1l16-9.5c-13.77,15.61-31.12,28.72-41.19,47.3-3.02,5.57-7.07,14.99-7.81,21.19ZM431.16,456.28c-.83.89-2.37-.97-3-1.5-2.83-2.36-8.04-7.79-10.46-10.54-4.46-5.05-7.98-11.01-12.53-15.96-.77,2.28,1.43,3.35,1.82,4.68,2.6,8.89,1.84,10.78,8.17,18.83,1.25,1.59,5.14,3.74,3.51,5.49l-10.5-8c-1.41,12.33-5.22,24.27-6.96,36.55-2.16,15.31-3.26,31.98,2.18,46.73,1.35,3.67,3.98,6.84,4.79,10.72l5.98-1-5.5-10c-2.89-7.06-3.71-17.05-1.24-24.24.36-1.06.34-2.99,1.74-2.75.28,10.26,2.74,21.67,7.81,30.69.58,1.03,2.58,4.45,3.17,4.89,1.09.81,2.88-.54,4.49-.62,7.64-.39,15.41.39,23.07,0l25.46,5.03c-1.01-2.27-.54-5.07-1.17-7.32-.3-1.07-1.78-2.18-2.34-3.66-7.23-18.86-9.43-38.61-7.53-58.57.36-3.8.71-7.62,1.02-11.42l-18.97-6.03-.04,17.53,2.54,17.46c-1.63-1.35-2.15-3.31-2.78-5.22-1.73-5.27-3.29-13.72-3.76-19.24-.28-3.33,1.04-11.15-.95-13.05-.84-.81-3.95-1.89-5.36-2.64-.78-.41-4.44-3.79-3.57-.43.2.79,1.64,2.81.91,3.59ZM945.16,445.29c-.19-.14-1.5-.1-2.51-.96-4.17-3.56-6.92-8.92-12.98-9.64-5.2,1.06-10.81,2.99-16.07,3.54-1.82.19-9.1-.25-9.38.12-.21.27-.04,1.87-.57,2.9-3.05,5.83-9.12,1.77-12.91,2.04-1.9.14-4.2,1.72-6.57,1.01-.65.59,3.23,7.04,5.47,7.02,1.73-.02,6-2.18,8.3-2.75,7.56-1.86,15.26-3.12,22.74-5.34,4.86-1.11,10.85,4.53,13.98,5.07s6.85-.53,9.96-1.01c1.02-.16.64-1.92.55-1.98ZM870.16,445.29c-6.45-1.57-12.5-4.06-18.34-7.16-.84-.45-1.73-1.69-2.21-1.8-1.99-.46-1.89,2.12-3.1,3.01-3.99,2.95-12.86,1.46-13.35,1.94-.23.23-.13,5.39-.03,6.54.37,4.58,1.81,10.4,2.07,14.93.16,2.8-.66,16.92-.04,17.54.43.43,5.69-.13,7.05-.45,5.55-1.34,9.74-8.06,15.52-8.56,1.96-.17,3.53.9,3.96.88,2.34-.13,1.26-8.12,1.53-10.31.81-6.57,2.05-11.9,6.94-16.55ZM712.16,525.28c1.85.4,2.38-1.01,3.5-2,14-12.33,28.41-24.82,37.69-41.31,3.85-6.85,7.39-15.34,10.32-22.68,2.02-5.08,4.17-10.71,5.49-16-5.61,5.45-10.52,11.9-16.49,17.01-3.08,2.63-20.4,13.86-21.01,14.99-1.36,2.55-1.93,8.72-2.98,12.02-4.22,13.19-10.17,25.72-16.52,37.98ZM869.16,464.29c.37.46,8.59-6.55,8.91-7.66,1.13-4.03-4.71-10.85-7.7-3.63-.73,1.76-1.94,10.39-1.21,11.29ZM991.15,551.29c5.1-12.79,8.06-25.6,7.04-39.54-3.94-53.85-50.74-70.79-98.27-58.2-10.43,2.76-28.41,11.72-33.61,21.39-4.73,8.79-6.76,20.25-12.15,28.85.37,1.21,2.17.29,3.05.05,3.44-.95,7.25-2.54,10.65-3.35,1.02-.24,3.54-.98,3.3.8-5.53,1.95-11.62,3.16-17,5.5-4.56,1.99-8.91,5.46-13.29,7.71-1.69.87-8.88,3.12-9.55,3.95-.44.54-3.99,12.06-4.18,13.33-.11.73-.19,1.74.51,1.51,2.06-.68,5.39-3.16,7.81-4.19,24.15-10.24,50.42-15.31,75.96-7.57,21.22,6.43,37.26,20.08,53.24,34.76,2.17.63.98-1.32,2.1-2.04,1.2-.77,4.15-.8,4.38-.98,1.96-1.54-6.46-18.53-8.16-21.31-5.27-8.6-14.6-15.16-11.37-26.72.29-1.03,3.15-6.56,4.54-4.95.82.94-1.78,5.84-1.97,7.55-.88,7.82,8.03,14.05,11.83,20.09,6.38,10.16,10.41,26.49,11.7,38.39.23,2.12-1.35,5.74,2.28,1.3,6.26-7.64,5.87-20.39,3.93-29.6-1.26-6-4.63-10.85-5.76-16.73,2.15,1.04,3.63,3.69,4.82,5.67,3.49,5.79,7.52,16.27,6.41,23.01-.33,1.98-.12,1.27,1.76,1.32ZM485.16,476.28c.29-.24-3.65-5.22-4.23-6.28-.5-.93-.69-2.59-.78-2.71-.39-.53-6.38,4.08-6.86,5.65-.38,1.27.22,5.61.87,6.36.24.27,5-2.41,6.71-2.79,1.24-.27,4.12-.08,4.29-.22ZM861.16,475.29c-5.44-.12-9.45,4.48-13.98,6.51-3.7,1.66-7.82,2-11.57,3.43-.99,9.39-.98,18.93-3.44,28.05l12.7-5.8c8.99-5.76,10.4-23.35,16.3-32.19ZM515.15,513.29c-7.07-3.7-1.12-11.38-2.16-16.31-.65-3.08-5.28-8.3-7.87-10.15-2.75-1.97-15.36-7.24-18.53-7.54-2.98-.28-10.77,2.97-12.97,4.96-2.74,2.47-6.14,9.97-6.45,13.62-.25,2.9,1.99,12.77,3.22,15.69.71,1.7,5.99,9.72,7.27,9.72.6,0,5.11-5.92,10.03-6.02,2.59-.05,4.71,5.3,1.95,6.03-1.38.37-2.13-3.15-6.46-.47-6.97,4.3-7.85,19.51-2.52,25.45,1.83,2.04,13.16,6.82,16.81,9.19,7.39,4.78,14.47,11.64,18.44,19.56.87,1.73,2.16,7.03,3.21,7.79,1.65,1.21,10.63,2.62,14.03,3.97,11.68,4.61,23.7,14.78,28.52,26.48.87,2.11.81,5.99,2.46,7.54.58.54,9.73,4.18,10.69,4.25.48.04,6.1-.56,6.32-.79.28-.31.61-6.21,2.08-7.94.1-.11,2.85-.17,2.93-.05.17.25-.16,2.19.19,3.29.47,1.44,2.47,2.82,2.63,4.36.14,1.34-1.3,2.77-.72,4.7.29.95,4.44,4.87,5.53,5.52,3.11,1.85,12.19,3.74,15.92,4.08,2.89.26,4.53-.63,6.76-.69,1.64-.05,3.02,1.65,5.71.26,4.9-2.53,4.21-8.92,7.48-12.51l.5,6.99c1.07,1.17,4.3-2.8,4.85-3.64s3.88-6.63,4-7.03c.68-2.37-.9-4.03-.1-6,1.87-4.64,11.43-12.47,12.11-16.99.27-1.76-3.68-6.28-2.42-8.34,3.64-5.91,6.35,3.98,8.06,3.99.18,0,1.81-1.89,2.56-2.43,2.88-2.08,17.95-10.57,18.45-11.54.33-.63-.39-1.87-.08-3.01,1.54-5.62,4.37-12.95,6.81-18.27.7-1.52,4.75-7.51,4.75-8.24.02-3.78-8.03.6-8.48.51-.52-.11-1.77-1.61-1.51-2.5.57-1.91,5.71-3.92,6.52-5.48,1.05-2.01.1-6.65.48-7.02.41-.42,6.35,1.54,7.34,2,1.16.53.28,2.01,1.16,2.01,2.64-.01,8.79-7.7,7.03-11.04-.9-1.71-4.37-1.63-3.53-3.46.22-.48,4.18-4.38,4.5-4.38.61,0,1.82,2.53,3.49,1.88,1.83-5.42,4.8-10.34,6.78-15.73,2.8-7.63,6.64-14.3-5.31-13.31-2.06.17-3.76,1.3-5.92,1.06-2.43-.27-3.49-2.33-6.99-2.03-5.32.46-5.46,8.91-8.05,8.99-3.19.11-.2-7.69-.5-7.99-.94-.94-15.26,4.34-17.53,5.96-.79.56-6.71,6.5-6.97,7.01-.4.8.78,1.88.05,3.03-1.53,2.44-4.16-.81-6.56.44-1.31.69-6.1,11.9-7.91,5.97-1.51-4.96,4.75-6.44-1.36-9.64-10.73-5.62-30.2,1.02-39.22,8.21-.91.73-5.21,4.89-5.49,5.51-.47,1.01,5.75.57,3.51,3.5-.79,1.03-6.14,1.82-8.21,2.79-4.43,2.07-8.05,6.27-10.8,10.2-2.89.61-.9-3.36-1.5-4-1.16-1.25-6.21,2.81-7,2-1.52-1.57,2.1-4.97,3.97-5.59s3.49.56,4.06.16c.96-.66,1.51-3.29,2.96-4.07-1.66-1.14-3.96.06-6.02-.98-.88-.45-2.71-2.88-1.98-3.51.46-.41,7.1-1.77,8.5-2.02,1.69-.3,1.69.57,1.5-1.98-4.28-.17-7.77-3.32-11.73-4.78-6.33-2.33-13.67-3.43-20.01-.45-2.52,1.18-4.23,5.49-6.11,1.56-2.58-5.41-1.86-7.97-7.65-12.35-11.12-8.41-31.71-7.73-29.52,10.01ZM718.16,492.29l1-10c-6.23,3.29-13.08,4.79-19.78,6.72-1.54.44-3.15.2-4.21,1.79l8.5,1.57c2.46,0,4.45-1.06,6.97-1.13,1.81-.06,7.25,1.33,7.52,1.06ZM1023.16,642.28c.34.32,7.98.1,9.31-.18,6.18-1.3,10.16-8.49,11.96-14.04,9.31-28.64-8.14-71.08-24.85-94.71-1.07-1.52-14.68-19-15.43-18.07-.36.46.17,8.63.03,10.53-1.22,16.53-8.05,33.3-19.51,45.49-1.72,1.82-7.68,5.74-7.42,7.31.42,2.51,5.58,9.06,7.09,11.97,11.2,21.62,18.19,46.73,23.54,70.46,2.95,13.09,6.35,26.85,6.26,40.24l21.05-1.46c6.11-10.8,12.69-21.65,14.96-34.04-.38-1.23-2.17-.3-3.07-.07-8.03,2.13-17.37,5.71-25.65,6.34-1.55.12-3.28-1.13-4.28-2.28,1.8-1.21,1.83-3.43,2.95-5.03,1.95-2.77,7.2-5.68,10.04-8.96,1.42-1.64,6.46-8.4,6.99-10.02.16-.5.26-1.64-.49-1.49-1.93,1.51-6.58,3.11-8.93,2.99-1.19-.06-13.04-3.54-13.58-4-.28-.24,2.98-5.28,2.73-6.76l8.26-35.23c-.69,3.03.84,5.75,1.04,8.46.47,6.33.9,15.93-.09,21.98-.31,1.91-3.34,10.17-2.95,10.55ZM963.16,701.29h46c.02-14.67-4.8-28.63-7-43l-5.99,9.5-8,7.5c-.4-1.85,1-2.38,2-3.5,5.11-5.74,10.83-11.52,9.95-19.94-.88-8.36-6.44-25.18-9.44-33.56-17.77-49.56-59.18-102.36-117.94-93.94-20.25,2.9-40.52,10.78-56.56,23.44l13.53-.47c9.69-2.06,21.41.84,30.74,4.19,3.45,1.24,8.54,2.84,10.72,5.77-7.31-1.33-14.41-4.47-21.73-5.77-8.15-1.44-19.54-1.9-27.81-1.26-2.04.16-13.46,2.29-14.47,3.04-1.85,1.38.33,1.73,1.43,2.04,9.75,2.78,22.78,11.54,29.57,18.95l-19.3-10.19c-32.5-16.68-84.84-19.25-110.2,11.2-.52.62-2.39,2.19-1.5,3,.31.28,6.7.84,8.26,1.24,5.22,1.33,10.92,3.18,15.99,5.02,1.06.39,2.98.33,2.75,1.74-7.38-.61-24.47-7.84-31.01-4.51-1.25.64-8.14,8.84-9.42,10.58-2.44,3.3-10.03,15.28-10.41,18.67-.7,6.33-.88,5.13-2.91,11.01-1.15,3.3-1.91,7.74-2.24,11.26-1.23.35-1.61-1.8-1.59-2.49.11-6.35,3.15-11.42,3.59-17.51-6.6,2.27-12.95,3.58-13,12-1.85.2-.95-2.17-.76-3.26.17-1.03.61-3.27.94-4.06.53-1.29,5.54-4.32,7.11-4.89,1.97-.71,3.52-.5,5.04-.96,2.61-.78,5.77-10.42,7.48-13.52,1.16-2.1,10.27-15.28,9.19-16.31-.65-.62-11.33,2.49-13.27,3.22-12.52,4.73-31.62,16.89-33.7,31.31-.23,1.61-.54,2.87,1.5,2.5l16.47-2.54c-6.52,3.86-14.52,3.44-20.96,8.04-4.21,3-7.36,10.44-8.59,15.41-.59,2.37-2.32,15.14-1.44,16.05.53.55,9.89-4.26,12-3.99l-10.94,6.55c-2.97,1.78-2.28,6.66-2,9.89.95,11.02,6.51,22.96,13.94,31.06,5.88,6.4,11.73,8.86,20.47,9.53,7.45.57,16.21.1,23.53-1.04-.35-2.03-5.09-3.59-3.5-5.99,2.05,2.37,4.52,4.2,7.18,5.82,22.87,14.01,65.51,17.08,91.86,15.21,4.2-.3,9.13-1.98,13.46-2.04.23-1.4-1.69-1.36-2.75-1.74-4.97-1.78-11.68-3.32-15.25-7.25,5.78,1.32,11.28,3.94,16.98,5.51,37.06,10.24,94.14,13.93,130.02-1.02,46.42-19.34,48.33-73.12,36.52-115.52-4.87-17.47-12.58-34.59-25.52-47.48-.16-.74,1.06-.69,1.49-.49,2.18.96,7.79,6.44,9.51,8.49,25.67,30.7,32.2,91.99,16.19,128.2l-6.19,11.31ZM1142.9,532.53c-12.69.68-28.52,2.16-41,5-4.33.98-19.36,5.23-20.59,9.41-.79,16.92.53,33.97-.12,50.88-.37,9.76-.26,19.17,0,28.92.57,20.37-.7,40.97,0,61.01.47,13.59-.57,27.27.14,40.86,6.91,10.46,21.79,14.67,33.59,17.41,30.99,7.19,75.41,7.79,106.46,1,9.24-2.02,23.9-5.63,30.22-12.78,3.29-3.71,2.06-5.3,2.6-9.4,1.22-9.46-.51-16.67-.08-26.08,1.55-33.94.07-70.02,0-103.93-.03-16.29.23-32.59-.11-48.88-.95-3.24-10.5-6.25-13.83-7.17-27.55-7.61-68.47-7.79-97.28-6.24ZM973.15,572.28c.3-2.78-.38-5.49-1.48-8.01-.65-1.5-4.83-8.47-6.41-5.85-.95,1.58,1.24,2.33-3.1.86l11,12.99ZM1259.16,699.29c20.15-.05,39.67-10.09,49.83-27.67,12.78-22.12,10.68-57-9.8-73.85-5.09-4.19-14.25-8.34-20.76-9.24-2.36-.33-18.6-.92-19.22-.19-.35.4-2.06,9.1-2.1,10.44-.04,1.66,1.27,8.73,2.07,9.53.33.33,6.07-1.77,7.55-1.95,15.47-1.84,29.43,8.98,31.4,24.48.3,2.32.97,8.01.97,9.96,0,3.4-1.95,12.33-3.16,15.77-5.16,14.67-16.03,22.76-31.32,24.67-1.28.16-5.45-.22-5.45.05v18ZM1260.16,675.29c25.34,1.68,36.96-25.32,30.52-47.02-4.65-15.66-15.7-18.49-30.52-13.98v61ZM553.99,614.46c-2.33-2.43-13.46,2.42-14.83,5.82,3.73-1.07,7.63-1.31,11.54-1.04,1.36.1,4.91,1.57,5.46,1.04.33-.32-1.79-5.43-2.17-5.82ZM600.15,682.29c-.39-8.46-2.47-20.84-7.98-27.52-1.83-2.22-6.38-4.14-7.53-6.47-.75-1.52-.37-3.37-.93-5.07-3.5-10.64-24.99-17.56-35.12-18.88-1.23-.16-9.05-.71-9.51-.6-4.7,1.16-13.34,15.93-15.44,20.54-6.71,14.81-10.9,34.21-6.02,50.02.48,1.56,1.25,4.6,2.51,5.49,1.72,1.21,12.71,4.83,14.94,4.98,2.35.17,4.55-1.27,6.64-1.47,4.85-.47,11.11,6.43,16.99,6.98,1.93.18,9.02-1.99,10.23-3.19,1.07-1.06,1.4-4.7,1.19-6.28-.42-3.2-6.59-11.53-9.03-13.99-3.39-3.43-12.52-8-14.49-11.51-.75-1.34-1.15-3.69,1.02-3.02,1.92.59,10.05,6.35,12.02,7.99,4.62,3.84,16.06,16.52,15.52,22.45-.18,1.95-2.84,3.67,2.02,2.1,14.06-4.53,3.64-26.58-3.04-34.05l-15.01-16.49c4.1.8,8.39,4.25,11.51,6.99,5.65,4.97,17.03,18.95,19.04,25.96.75,2.6.4,4.94.45,7.55.02,1.2-.74,3.73,1,3.49,6.34-17.9-2.51-32.52-14-45.5-4.86-5.49.53-3.41,3.96-.96,5.72,4.08,13.09,14.87,15.53,21.47,1.14,3.07.91,7.39,3.5,9ZM1075.16,700.29v-77c-3.13,3.41-6.39,7.75-8.83,11.67-7.81,12.57-14.17,31.75-9.68,46.34.89,2.89,6.42,16.36,7.99,18.01,1.28,1.34,10.14,1.36,10.52.98ZM583.14,628.29c-.51-.61-4.02.47-3.97,1.49.02.46,4.67,5.24,5.82,7.17,1.91,3.21,3.37,9.54,4.67,11.33.35.49,3.58,2.62,4.17,2.76,1.23.3,2.23-1.4,3.8,1.27,3.96,6.76,9.14,21.84,8.57,29.52-.21,2.88-3.02,5.87,2.37,4.37,3.48-.97-1.09-8.5-1.38-11.49-.45-4.67,3.69-16.48,6.5-20.39,1.04-1.44,3.33-2.81,3.96-4.04.24-.48,1.7-4.82,1.51-4.99-.45-.38-7.61.25-9.48-.02-1.72-.25-6.71-1.62-8.84-2.16-1.42-.36-2.45-1.55-4.2-1.82-3.61-.56-2,1.14-2.48,2-.58,1.05-4.78-5.07-5.31-5.73-1.67-2.06-3.24-3.94-4.91-6.57-.57-.89-.65-2.53-.79-2.69ZM645.16,702.28c.4-.32-5.65-6.94-6.43-8.07-11.22-16.27-9.28-35.01-6.62-53.48.13-.89.52-3.13-.45-3.45-1.54,1.3-9.68,6.73-7.5,9,.71.73,5.3-3.1,4.99.5-12.98,7.1-15.8,20.13-16.99,33.93l1.5,4.58c2.77-4.55,4.79-7.74,9.57-10.43,3.47-1.95,8.66-4.44,3.93.93-5.12,5.82-9.9,6.87-9.03,16.04.67,7.11,9.16,10.9,15.5,11.49,2.27.21,10.07.15,11.53-1.04ZM1054.16,688.28c.34-.3-2.34-7.77-4-8l-3,10,7-2ZM612.11,689.33l-8.86.05c.29,2.46-6.7,9.33-5.09,10.91.94.92,15.51-.33,18-2-2.41-1.39-3.56-8.37-4.05-8.95ZM1059.16,700.29c.01-1.78-3.3-9.96-4.49-9.96-.46,0-3.72,2.45-5.19,2.78-1.71.38-4.06-.25-5.37.63-1.11.75-3,5.1-3.96,6.54h19Z"/>
      <path class="cls-1" d="M576.16,135.29c.85.82-.22,2.99-1.63,3.87-4.72,2.93-9.5,5.38-13.88,9.12-11.06,9.47-16.2,19.58-25.05,29.95-4.55,5.33-3.41.18-1.64-3.64,5.62-12.06,18.52-27.18,29.87-34.13,1.82-1.11,11.1-6.35,12.33-5.17Z"/>
      <path class="cls-1" d="M631.9,157.54c2.4,2.5,6.71,7.82,8.71,10.79.61.9,5.96,9.56,5.55,9.95-.91.85-2.86-1.26-3.53-1.97-3.15-3.37-6.34-8.12-9.47-11.53-6.51-7.1-13.57-13.81-20.01-20.99.82-1.41,3.06.49,3.94,1.06,3.66,2.36,11.78,9.56,14.8,12.7Z"/>
      <path class="cls-1" d="M667.16,130.28c-.53.44-9.82-4.17-11.74-4.76-9.81-2.99-18.57-3.23-28.26.26-1.92.69-6.68,4.78-6,.51,6.77-2.26,15.15-7.53,22.52-7.06,3.8.24,10.65,2.25,14.18,3.86,1.21.55,10.51,6.18,9.31,7.19Z"/>
      <path class="cls-1" d="M554.16,371.28c-2.83.49-1.64-.62-2.22-2.23-.86-2.37-2.17-4.99-2.81-7.23-3.36-11.7-4.17-24.39-3.96-36.53l1.95,8.55c.52,12.74,3.43,25.29,7.05,37.45Z"/>
      <path class="cls-1" d="M796.16,512.29l10.51-26.98c2.32-7.24,2.91-14.94,4.73-22.27.24-.97.41-3,1.75-2.74-1.54,15.02-5.41,29.99-11.8,43.69-1.26,2.69-2.75,6.66-5.19,8.3Z"/>
      <path class="cls-1" d="M635.16,94.29c.46,2.76-.53,1.69-2.23,2.23-2.58.82-5.23,1.28-7.77,2.27-2.1.82-11.55,7.01-12,6.5-2.56-2.91,8.44-8.44,10.3-9.19,4.05-1.63,7.23-2.27,11.69-1.81Z"/>
      <path class="cls-1" d="M640.16,76.29c-1.25,3.1-4.88,3.55-7.33,5.17-2.22.86-14.62,11.78-15.67,10.82-.84-.76,9.06-8.73,10.07-9.43,3.84-2.67,8.39-5.29,12.93-6.57Z"/>
      <path class="cls-1" d="M938.06,617.62c.64-2.15-1.42-2.97-2.11-4.62-2.84-6.75-2.77-14.79-7.31-20.69-1.69-2.19-5.17-2.89-5.35-3.15-.62-.89.31-4.22-2.13-6.36-3.51-3.09-6.73-.23-6.98-.51-.2-.22-1.14-4.44-1.8-5.72-2.87-5.58-8.78-9.75-15.26-7.83-5.62,1.66-2.54,2.01-9.42,1.51-9.92-.72-18.49,8.5-22.32,16.75-1.27,2.74-3.3,3.37-2.03,7.61.35,1.16,1.15,2.07,1.93,2.75.6-.37,1.33-.52,1.99-.31.25.08.49.18.74.28,1.68-.43,3.51-.14,4.99.9,3.46,2.43,5.44,7.19,5.43,11.35-.01,4.39-3.34,7.55-7.32,8.48.28,1.02.28,2.04.26,3.05.17-.15.36-.29.54-.42.06-.04.12-.09.19-.13.31-.18.65-.31.98-.44.16-.06.32-.11.49-.14.52-.11,1.06-.17,1.6-.19.41-1.92,4.17-1.44,5.55-.67.18-.04.36-.07.55-.08.77-.05,1.58.05,2.32.28.45.14.89.33,1.31.54.42.21.78.5,1.14.8.24.19.46.42.67.66.23-.52.37-.99.31-1.36-.47-3.07-5-5.17-5.68-7.34-1.25-4,.09-7.39-.29-9.63-.22-1.3-1.89-2.53-1.89-4.19,0-1.19.89-2.99,2.19-4.82.83-1.69,1.91-3.28,3.32-4.52.38-.34.8-.64,1.22-.92.15-.16.3-.3.48-.42.5-.33,1.02-.63,1.55-.92-2.34,1.24-4.87,2.25-6.99,3.83-.83.62-1.47,1.4-2.1,2.19-.16.29-.36.55-.6.75-.68.83-1.4,1.62-2.38,2.17-1.01.57-1.97.37-2.67-.18-.87-.02-1.92-.63-3.08-2.13-.91-1.18-.66-3.01-.04-4.67.2-1.94.64-3.86,1.62-5.57,1.02-1.77,2.6-3.21,4.45-4.06.61-.28,1.19-.39,1.84-.26,1.32-1.09,2.87-2.16,4.19-2.92.04-1.28,1.23-2.34,2.49-2.34,2.23,0,4.49-.1,6.73-.03,2.29-.56,4.72-.67,7.05-.56.35.02.68.1.98.23.4-.17.8-.32,1.22-.32,2.22-.02,7.84,4.74,6.49,5.98-.08.07-.41.1-.89.11,0,.14-.04.28-.07.42,1.19.75,1.35,2.6.47,3.73,2.93.33,4.14,2.54,6.18,3.55,1.54.76,4.02.77,5.3,1.7,2.42,1.76,3.21,7.36,4.17,8.32.7.69,2.72.57,3.61,1.4,1.97,1.84,4.25,14.91,3.21,15.76-.36.29-4.38-.61-4.99,1.52-1.21,4.22,2.96,1.71,3.92,2.57.14.12,1.06,3.02,1.1,3.48.19,2.25-2.17,5.93-4.04,7.01-1.41.82-2.81-1.07-4.02-.15-1,.76-2.4,6.57-5.59,7.5-2.91.85-3.89-3.31-5.79-2.89-1.53.34-2.3,4-6.07,4.04-4.49.05-2.75-2.49-4.02-5.07-1.44-2.92-4.68-3.15-7.71-3.07,1.2,1.29,2.1,2.8,2.05,4.6-.01.51-.17.97-.42,1.35.31.01.52.05.59.11.55.55-3.55,8.95,2.71,9.85,2.94.42,7.67-3.87,9.82-3.71,2.31.17,2.59,10.88,12.51-.63.76-.88.81-2.21,1.03-2.45.66-.73,3.13.87,4.28.76,5.13-.53,9.67-8.97,10.47-13.57.21-1.21-.65-2.32-.31-3.26.47-1.28,2.99-3.36,3.38-4.66Z"/>
      <path class="cls-1" d="M683.15,691.29c-1.53-.23-1.88-1.87-2.51-2.99-6.52-11.57-7.92-27.77.01-39.01,1.44.74-.01,2.71-.32,3.68-3.33,10.37-2.52,19.05.07,29.58.76,3.09,2.78,5.56,2.75,8.75Z"/>
      <path class="cls-1" d="M667.16,678.28l-25,6c-.23-1.41,1.68-1.35,2.75-1.74,7.13-2.6,14.63-3.64,21.76-6.25l.5,1.99Z"/>
      <path class="cls-1" d="M489.16,599.29c1.37,1.23-1.77,2.71-2.31,3.19-4.34,3.88-7.4,7.53-10.52,12.48l-11.17,21.32c-.23-12.44,8.18-29.22,19.31-35.19.84-.45,4.06-2.38,4.69-1.81Z"/>
      <path class="cls-1" d="M506.16,694.29c.21,1.37-2.67,1.87-3.54,1.96-5.27.56-18.24-1.05-23.91-2.02-1.97-.34-5.82-.84-6.55-2.94,11.23,2.07,22.64,1.61,34,3Z"/>
      <path class="cls-1" d="M392.16,534.28c-.88.95-4.08-2.59-5.28-3.22-2.97-1.57-7.44-2.75-10.72-3.78-.27-1.74,2.4-1.1,3.33-.83,1.48.43,8.67,3.84,9.67,2.83.91-.92-2.12-15.19-.99-18l1.94,7.55c.47,3.17-.43,6.9.04,9.96.22,1.42,3.16,4.25,2.01,5.49Z"/>
      <path class="cls-1" d="M333.16,578.29c.91.8-4.95,4.47-5.51,4.99-5.64,5.23-9.19,11.69-14.49,17.01-.51-2.02.63-2.74,1.4-4.1,2.71-4.81,8.77-11.4,13.09-14.91.83-.67,4.78-3.63,5.51-2.99Z"/>
      <path class="cls-1" d="M1067.15,473.29l-17-16.49-5.99-8.51c5.14,4.59,10.37,9.39,15,14.49.8.88,1.2,2.11,1.99,3.01,1.99,2.29,5.64,4.34,6,7.49Z"/>
      <path class="cls-1" d="M1044.15,442.29c-1.01,1.12-14.31-13.55-15.44-15.06-1.01-1.35-2.58-3.22-2.55-4.94,5.26,5.3,11.03,10.87,16,16.5.61.69,2.94,2.45,2,3.5Z"/>
      <path class="cls-1" d="M998.15,467.28c1.12,4.17,4.14,8.25,6.86,11.64l5.14,9.36c-1.39-.23-2.03-1.75-2.81-2.68-3.51-4.19-9.27-11.9-11.14-16.87-.65-1.73.67-1.64,1.95-1.45Z"/>
      <path class="cls-1" d="M660.16,559.28c1.03.88,5.39-1.49,7.42-.94,1.73.47,2.35,3.45.61,4.48-2.86.11-6.04,1.17-8.63,1.45-2.03.22-2.69-1.09-5.66.24-4.57,2.04-8.36,8.8-11.4,9.69-2.52.74-8.59-4.48-11.88-4.91-2.19-.29-7.85,1.6-8.47.99-.11-.11-.46-2.56.59-3.03,3.97-1.75,8.6-.76,12.7.23,2.34.57,3.72,2.93,6.74,1.33,1.45-.77,3.43-5.3,6-7,2.09-1.38,7.29-2.03,7.81-2.69.61-.77.98-5.35,2.25-7.24.37-.54,5.16-4.39,5.51-4.49,1.65-.49,3.86.76,3.38,2.38-.52,1.75-4.88,3.47-5.52,4.48-.14.22-1.67,4.85-1.47,5.02Z"/>
      <path class="cls-1" d="M576.2,586.24c.18.15,2,.14,2.96.51,1.77.69,7.93,3.35,8.54,4.52.74,1.42-.24,4.42-.56,6.43-.15,1-1.83.76-2.49.58-1.91-.54-1.02-4.26-2.47-5.53-.69-.61-4.8-2.19-5.76-2.32-2.3-.3-3.75,2.1-5.81-1.14-1.15-1.82,1.24-2.58,1.55-4.5.21-1.3.2-3.63-.16-4.87-.58-1.97-13.4-10.91-7.34-12.64,3.78-1.08,3.51,4.41,5.46,6.54,1.39,1.51,4.6,2.54,5.55,4.45,1.09,2.17.05,7.57.53,7.97Z"/>
      <path class="cls-1" d="M528.16,556.29c.16-1.36,1.85-8.27,4-6,.56.59-1.87,3.4-.52,6.02,2.18,4.22,6.91,3.15,9.54,4.46,1.01.5,3.19,3.96,2.98,5.01-.26,1.28-3.55,2.03-4,1.51-.26-.3-.32-2.82-1.24-3.78-1.38-1.45-6.02-2.65-8.15-4.35-1.22-.97-1.31-1.83-2.62-2.86-.12,1.01.22,3.77,0,4s-1.54.43-2.02-.66c-1.54-3.46-3.86-3.92-6.93-1.8-2,1.39-3.48,5.43-6.03,1.96l7-4-3.13-5.36c-1.29-.58-5.39.29-5.87-.13-2.01-1.78,3.63-3.26,4.03-3.49.96-.56.18-4.51-.25-5.8-.83-2.48-3.56-4.21-1.79-7.71,2.19-.34,2.41.84,2.97,2.52,1.52,4.51,3.22,15.53,7.06,17.94,1.44.91,3.25,1.18,4.97,2.54Z"/>
      <path class="cls-1" d="M622.16,592.29c.36.4.74,2.7.26,3.67-4.01,8.21-12.69,11.36-19.25,3.83,2.32-1.33,4.89.67,7.5.58,1.82-.07,3.7-.82,5.04-2.04.77-.7,4.9-7.8,6.46-6.04Z"/>
      <path class="cls-1" d="M595.16,606.29c.33,3.59-3.14,2.61-5.04,3.46-1.14.51-4.25,3.32-4.96,2.54-1-1.11-.72-7.12,0-8,1.06-1.28,3.58,2.65,4.45,2.7,1.2.07,3.72-1.37,5.54-.7Z"/>
      <path class="cls-1" d="M977.16,493.28c-.36.33-7.23-2.17-9.5-2.07-20.65.93-41.35,3.01-61.94,6.14-8.76,1.33-17.58,3.79-26.56,3.93-.16-1.41,2.39-1.67,3.48-2.01,6.81-2.15,12.94-3.21,19.98-4.02,21.63-2.48,43.31-4.12,65.09-5.91,2.13-.18,5.69-.47,7.47.43.88.44,2.7,2.85,1.98,3.52Z"/>
      <path class="cls-1" d="M464.9,538.55c-.59-.54-1.63-.66-2.23-1.24-8.02-7.73-14.14-20.17-16.51-31.03,4.62,4.02,6.77,10.94,10.17,16.33,3.23,5.13,7.66,9.52,10.67,14.33.87,1.39,1.67,4.42-.34,4.33-.79-.03-1.25-2.26-1.75-2.73Z"/>
      <g>
        <path class="cls-1" d="M1197.29,618.15c.66.45,2.82,0,4.15.34,5.95,1.58,9.45,4.7,11.52,10.53.35.98-.07,2.58.32,3.14.14.2,3.05,1.09,4.4,2.11,4.38,3.34,8.03,9.71,6.33,15.36-.46,1.54-5.52,6.13-5.71,7.26-.13.75.64,1.86.71,2.91.05.8-.76,1.76-.37,2.5.53,1.02,2.52,2.07,3.39,3.61,1.94,3.44,1.2,5.93-.43,9.29-2.66,5.49-9.26,12.21-15.37,13.62-1.64.38-5.75.33-5.96.54-.35.33-2.04,5.34-3.35,6.65-1.59,1.59-7.87,4.38-10.16,4.26s-7.66-2.85-8.09-2.82c-.75.04-6.01,7.23-11.92,6.84-2.35-.16-7.76-2.94-9.56-4.55-.91-.81-.79-2.46-1.59-2.54-3.76-.35-5.62,3.24-11.14.29-4.19-2.24-4.75-6.79-6.25-7.75-1.35-.85-3.73-.51-5.99-2.01-3.45-2.29-5.05-7.29-6-8s-2.99-.78-4.41-1.59c-5.4-3.1-2.52-6.57-4.08-8.92-.71-1.07-3.7-1.67-5.09-2.91-3.62-3.24-4.08-7.73-3.25-12.35.65-3.62,3.99-3.03,4.68-5.33.8-2.67-2.05-5.21.34-10.61,2.8-6.34,6.65-5.93,10.3-9.7,1.91-1.98,3.03-5.35,4.93-7.07s4.79-1.58,6.06-2.94c1.07-1.14,1.23-3.48,2.94-5.06,2.33-2.14,7.8-4.29,10.99-3.93,2.71.3,6.23,2.94,8.03,2.95,3.18.02,6.42-2.84,12-1.96,1.93.3,3.47,1.99,5.01,1.99s4.88-2.4,7.21-2.79c4.17-.71,9.14.39,12.25,3.33,1.31,1.24,2.92,5.15,3.18,5.32ZM1215.16,651.29c1.76,2.07,4.49-4.23,3.82-7.32-1.86-8.59-12.26-8.72-18.37-12.64-.55-.35-5.31-4.19-5.53-4.47-1.27-1.59-.94-4.24-2.46-6.54-3.35-5.04-7.88-6.17-13.78-4.85-1.91.43-3.4,2.54-4.32,2.75-1.35.3-5.81-5.67-12.73-1.79-1.19.67-2.53,2.68-3.22,2.83-1.36.31-3.64-3.24-6.1-3.78-6.47-1.44-12.72,1.92-14.15,8.5-.9,4.14,1.37,4.82,1.73,6.97.18,1.1-2.94,4.27-3.9,4.85s-1.86-.52-2-1.01c-.51-1.84,1.43-5.79,1-8.99-.12-.88-1.84-.66-2.43-.43-2.9,1.09-3.46,6.43-4.76,7.74-1.06,1.06-4.9,1.55-6.84,3.66-.92,1.01-2.91,4.8-3,6.08l1.53,5.45c3.54-2.86,11.5-11.54,15.94-11.06.77.08.66,1.71,1.56,2.53,1.81,1.65,5.51,2.45,4.88,5.84-.78,4.24-5.39,3.71-7.61,5.96-3.79,3.82-4.97,9.29-6.45,14.05-.35,1.14-1.42,1.52-1.82,2.18-.5.83,1.17.2,1.74.68,1.77,1.53-.17,4.35.36,6.16.31,1.05,1.78,1.68,2.37,2.69,1.57,2.68,1.81,4.96,5.18,6.82,5.2,2.88,8.23-1.85,11.36,2.64-.13,3.86-3.63,1.11-4,1.5-1.43,1.52,2.17,4.76,4.54,4.97,6.34.58,7.09-3.47,9.08-3.85.89-.17,1.98.78,2.96.87,2.84.25,6.58-2.38,10.44-.51,1.59.78,2.6,2.88.42,3.45s-10.86-.45-11.43.07c-1.12,1.03,3.71,5.74,5.48,6.01,4.84.72,7.75-.59,10.55-4.47,1.04-1.43,1.06-2.99,2.41-4.59,2.08-2.46,6.7-4.49,9.87-3.78,1.49.33,5.44,3.12,6.69,2.39,1.08-.63,3.36-4.47,4.21-5.86.44-.72,1.45-5.15,2.78-2.12,1.24,2.82.22,4.3,4.31,3.25,1.45-.37,4.12-2.02,4.53-3.48,2.26-7.96-2.72-1.89-5.46-1.44-1.32.22-2.74-1.27-2.39-2.4.28-.91,3.35-2.01,4.48-3.52,1.81-2.43.76-7.04,4.54-4.51,1.88,1.26.65,6.28.98,8.53,2.14-1.07,4.88-4.17,5.03-6.55.42-6.76-5.13-3.69-6.04-4.46-.32-.27,3.22-3.69,1.48-7.98-1.54-3.81-5.07-4.85-6.97-7.02-1.41-1.61-.97-4.75-2.95-3.93-1.49.61-2.51,3.66-5.07.95-3.72-3.94,2.27-9.25,6.16-9.86,2.13-.33,7.51,5.07,8.8,6.89,1.11,1.57,2.24,5.61,2.54,5.96ZM1208.16,630.28c.85-.81-2.36-5.34-3.45-6.05-.71-.46-5.36-2.17-5.55-1.95s-.09,3.51.15,4.35c.73,2.57,7.56,4.88,8.85,3.65ZM1117.72,652.33c-.5.15-3.27,4.03-3.45,4.64-1.25,4.18,8.52,12.45,11.46,4.36.31-.84.62-1.43.34-2.39-.4-1.4-6.38-7.2-8.35-6.61ZM1194.16,690.29c-4.41-1.03-6.75-1.45-11,.49-3.87,1.77-3.44,3.4.69,4.31,4.49.99,8.09-.92,10.31-4.81Z"/>
        <path class="cls-1" d="M1247.1,549.21c-.92.77-8.88,3.37-10.68,3.83-27.69,7.2-66.22,6.9-94.72,5.21-14.47-.86-39.82-1.83-52.55-8.49-.61-.32-3.81-.96-1.98-2.47.4-.33,4.14.06,5.26.23,14.18,2.22,27.57,5.64,42.2,6.8,20.56,1.64,43.56,1.58,64.08.02,16.14-1.23,32.72-2.51,47.95-8.05.93.04.55,2.83.44,2.92Z"/>
        <path class="cls-1" d="M1193.16,650.29c-.68-.69-3.44,1.07-4.37.87-1.07-.22-2.44-2.52-3.66-3.34-9.19-6.15-9.92,1.51-15.46,1.55-3.49.02-4.64-4.17-9-4.16-1.55,0-4.69,1.28-5.9,2.19-1.32.99-1.53,2.84-2.2,2.95-2.04.31-6.5-1.12-6.43,2.43.07,3.79,4.72,4.92,4.97,6.11.19.91-1.26,2.51-.8,4.71.29,1.4,1.76,3.23,2.83,4.23,2.25,2.1,12.69,6.66,15.54,6.53,4.83-.21,7.62-5.2,10.14-5.92,2.61-.75,5.67.7,8.34-1.66,4.29-3.78-.41-9.16.02-9.44.25-.16,1.19-.07,1.93-.57,1.38-.95,5.53-4.99,4.06-6.47ZM1159.34,657.14c-3.22,0-3.22-5,0-5s3.22,5,0,5ZM1175.28,666.12c-.29.54-.91.99-1.49,1.15-.69.19-1.3.03-1.93-.25-.21-.1-.43-.19-.64-.29-.09-.04-.18-.07-.28-.11-.32-.12-.65-.21-.99-.28-.12,0-.25,0-.37,0-1.55.34-2.98,1.14-4.57,1.37-.7.1-1.29.08-1.93-.25-.58-.31-.95-.89-1.15-1.49-.19-.6-.06-1.39.25-1.93.28-.48.92-1.07,1.49-1.15,1.11-.16,2.14-.58,3.19-.95-.01-.1-.03-.2-.03-.31-.1-.85-.11-1.7-.11-2.56,0-.68.28-1.28.73-1.77.31-.31.68-.52,1.1-.64.22-.03.44-.06.66-.09.34-.01.67.06.96.22.31.1.58.27.8.52.24.23.42.49.52.8.16.3.23.62.22.96,0,.85,0,1.71.11,2.56,0,.02,0,.04,0,.05.86.26,1.7.63,2.55,1.01,1.27.58,1.48,2.32.9,3.42ZM1180.12,656.58c-3.22,0-3.22-5,0-5s3.22,5,0,5Z"/>
      </g>
    </g>
  </g>
  <path class="cls-1" d="M1132.59,688.28c-.36,2.89-.66,5.79-.89,8.7s-.15,5.8,2.43,7.57c2.44,1.68,5.7,1.25,8.23.05s4.28-3.24,5.96-5.3c.82-1.01,1.06-2.56,0-3.54-.91-.84-2.65-1.08-3.54,0-.71.87-1.42,1.73-2.21,2.53s-1.11,1.1-2.08,1.65c-.22.12-.44.24-.66.34.39-.18-.24.09-.32.11-.23.08-.48.13-.71.2-.3.05-.32.06-.06.03-.12.01-.24.02-.37.03-.25.01-.49-.01-.73,0-.19-.02-.16-.01.07.02-.15-.03-.3-.06-.44-.1l-.22-.07c.24.12.24.11-.03-.02l-.19-.11c.2.18.19.17-.02-.03-.17-.19-.2-.22-.09-.09.11.13.09.09-.04-.12.03.44,0-.07-.05-.22-.17-.53-.03.3-.05-.22,0-.23-.02-.46-.02-.69,0-1.16.15-2.32.25-3.47.21-2.42.47-4.84.77-7.25.16-1.3-1.26-2.56-2.5-2.5-1.49.07-2.33,1.1-2.5,2.5h0Z"/>
  <path class="cls-1" d="M1192.03,693.07c2.41,3.61,5.3,6.9,8.66,9.65,1.15.95,2.36,1.99,3.96,1.78s2.56-1.37,3.08-2.85c.82-2.35,1.34-4.94.85-7.42-.24-1.23-.84-2.39-1.41-3.5-.24-.47-.5-.95-.7-1.44.19.45-.03-.13-.08-.29-.05-.15-.21-1.05-.14-.47-.15-1.3-1.05-2.57-2.5-2.5-1.23.06-2.66,1.11-2.5,2.5s.56,2.59,1.17,3.86c.25.51.52,1.02.77,1.53.09.19.19.39.27.58-.24-.53.09.29.13.4.03.08.22.96.15.48.04.24.04.5.04.74,0,.33-.02.66-.05.99.05-.46-.09.49-.11.58-.12.58-.28,1.15-.45,1.72-.09.3-.19.59-.27.89-.09.26-.08.22.05-.11.09-.13.2-.24.33-.32.66-.5,2.35.28,1.33-.37.43.28-.32-.26-.39-.32-.42-.35-.84-.7-1.24-1.06-.87-.77-1.71-1.59-2.52-2.43s-1.57-1.73-2.3-2.64c-.06-.08-.44-.57-.18-.23-.19-.25-.38-.5-.56-.75-.37-.5-.72-1.01-1.07-1.53-.72-1.09-2.24-1.66-3.42-.9-1.08.7-1.67,2.26-.9,3.42h0Z"/>
  <path class="cls-1" d="M908.7,575.04c4.42-.29,8.6.77,12.33,3.23,1.79,1.18,2.96,2.28,3.24,4.43.07.59.06,1.88.02,2.74-.04.71.12-.35-.05.33-.06.24-.11.48-.19.72.13-.38-.1.18-.16.27.24-.36-.28.22.08-.04-1.08.81-1.63,2.16-.9,3.42.62,1.07,2.33,1.71,3.42.9,2.52-1.88,2.99-4.84,2.81-7.82-.1-1.62-.4-3.2-1.12-4.66-.67-1.36-1.73-2.42-2.91-3.34-4.68-3.66-10.63-5.55-16.57-5.17-1.35.09-2.5,1.09-2.5,2.5,0,1.29,1.15,2.59,2.5,2.5h0Z"/>
  <path class="cls-1" d="M927.93,591.1c.07-.31.07-.27.47-.41.69-.25,1.54-.17,2.26-.17,1.78-.02,3.57-.03,5.31.42,2.62.68,5.65,2.04,7.46,4.01.62.67.97,1.54.86,2.27-.19,1.2-1.12,2.21-2.03,3.08-2.06,1.99-4.57,4.17-7.43,4.8-1.32.29-2.09,1.82-1.75,3.08.37,1.36,1.75,2.04,3.08,1.75,3.35-.74,6.12-3.01,8.66-5.21,2.39-2.06,4.69-4.86,4.46-8.21s-2.68-5.87-5.46-7.55c-3.08-1.86-6.52-3.14-10.12-3.38s-9.53-.46-10.6,4.2c-.3,1.31.41,2.71,1.75,3.08,1.26.35,2.77-.42,3.08-1.75h0Z"/>
  <path class="cls-1" d="M938.3,611.23c2.75.17,4.97,2.26,6.7,4.25s3.9,4.77,4.15,7.61c.11,1.19-.14,2.27-1.12,2.99-1.26.91-2.98,1.25-4.46,1.55-3.47.69-7.07.59-10.6.54-3.22-.05-3.22,4.95,0,5,3.53.05,7.04.04,10.54-.48,3.08-.46,6.8-1.34,8.87-3.87,4.66-5.71-.52-13.44-4.66-17.76-2.54-2.66-5.69-4.58-9.42-4.82-1.35-.09-2.5,1.21-2.5,2.5,0,1.42,1.15,2.41,2.5,2.5h0Z"/>
  <path class="cls-1" d="M863.24,592.08c-3.1,2.11-5.1,5.2-6.29,8.73-.62,1.83-.98,3.74-1.27,5.64s-.65,3.89-.64,5.84c.01,3.72,1.7,6.99,4.99,8.84,3.5,1.96,7.52,1.82,11.39,1.49,1.35-.12,2.5-1.07,2.5-2.5,0-1.26-1.15-2.62-2.5-2.5-2.73.23-5.8.63-8.37-.55-2.4-1.1-3.11-3.08-2.98-5.61.15-2.88.65-5.9,1.49-8.66.75-2.46,2.02-4.91,4.2-6.4,1.11-.76,1.61-2.2.9-3.42-.65-1.1-2.3-1.66-3.42-.9h0Z"/>
  <path class="cls-1" d="M864.72,621.67c-2.72,7.62,1.05,15.89,8.24,19.41,7.56,3.7,16.09,2.12,23.29-1.67,2.85-1.5.32-5.82-2.52-4.32-5.41,2.85-12.03,4.42-17.86,1.84-2.57-1.13-4.69-3.03-5.99-5.52-1.42-2.71-1.34-5.58-.33-8.41.45-1.27-.51-2.74-1.75-3.08-1.38-.38-2.62.47-3.08,1.75h0Z"/>
  <path class="cls-1" d="M889.71,637.76c-.62,4.37.9,8.57,4.03,11.69,2.96,2.94,6.93,4.65,10.91,5.7,2.31.61,4.68.99,7.06,1.2,2.13.18,4.43.34,6.52-.2,4.72-1.21,6.33-5.96,7.09-10.23.24-1.33-.36-2.69-1.75-3.08-1.21-.33-2.84.41-3.08,1.75-.46,2.56-.95,6.42-4.13,6.85-3.37.45-7.14-.24-10.39-1.1-2.88-.76-5.85-1.85-8.11-3.86-2.02-1.79-3.74-4.56-3.34-7.38.19-1.34-.33-2.69-1.75-3.08-1.17-.32-2.88.4-3.08,1.75h0Z"/>
  <path class="cls-1" d="M918.42,640.55c.52,2.84,2.55,5.24,5,6.68,2.82,1.66,6.2,2.05,9.41,2.07s6.73-.51,8.92-3.06,2.23-6.19,1.24-9.26-3.15-5.79-6.34-6.98c-1.27-.47-2.74.53-3.08,1.75-.38,1.4.48,2.6,1.75,3.08.62.23,1.5.98,1.93,1.62.66.99.97,1.78,1.22,2.99.1.48.17.98.15,1.68-.02.46-.06.91-.27,1.33-.46.95-1.54,1.4-2.57,1.64-1.36.31-2.83.25-4.21.19s-2.77-.24-4.12-.68c-2.24-.73-3.82-2.22-4.21-4.37-.24-1.33-1.85-2.08-3.08-1.75-1.4.38-1.99,1.74-1.75,3.08h0Z"/>
  <path class="cls-1" d="M880.67,619.83c.35,0,.35,0,.7.19.4.22.62.4.97.7.82.7,1.63,1.42,2.43,2.14,1.58,1.42,3.14,2.87,4.61,4.4,2.74,2.85,5.23,6.11,6.58,9.78.47,1.27,1.69,2.13,3.08,1.75,1.22-.33,2.22-1.8,1.75-3.08-1.72-4.67-4.64-8.65-8.08-12.21-1.66-1.71-3.42-3.32-5.21-4.9-1.98-1.75-3.99-3.79-6.82-3.78-3.22.02-3.22,5.02,0,5h0Z"/>
  <path class="cls-1" d="M879.9,598.48c.55-2.35,2.84-4.36,4.58-5.89,2.02-1.77,4.33-3.18,6.74-4.35,5.36-2.59,11.39-3.65,17.28-4.12,1.35-.11,2.5-1.07,2.5-2.5,0-1.27-1.15-2.61-2.5-2.5-6.96.55-13.87,1.85-20.17,4.98-2.78,1.38-5.38,3.14-7.69,5.22s-4.84,4.74-5.57,7.83,4.08,4.47,4.82,1.33h0Z"/>
</svg>