<?xml version="1.0" encoding="UTF-8"?>
<svg id="Calque_1" data-name="Calque 1" xmlns="http://www.w3.org/2000/svg" viewBox="0 0 1212.59 1047.1">
  <defs>
    <style>
      .cls-1 {
        fill: #fff;
      }
    </style>
  </defs>
  <g>
    <path class="cls-1" d="M122.23.37c82.2-6.21,148.94,67.77,135.91,148.91-.98,6.11-9.64,27.6-9.5,29.13.38,4.32,25.71,30.63,29.65,36.27,1.16,1.67,1.99,5.68.19,6.94-4.36,3.04-48.93-4.66-57.37-4.41C139.51,308.41-8.59,242.14.39,120.53,4.88,59.77,61.98,4.92,122.23.37ZM269.42,215.05l-28.51-35.87C284.5,85.61,199.41-15.18,99.43,11.57,53.25,23.92,14.81,68.34,8.6,115.74c-15.71,119.89,132.22,184.48,210.55,94.51l50.27,4.8Z"/>
    <path class="cls-1" d="M734.92,1026.06h220c2.44,0,2.44,7,0,7h-220c-2.33,0-3.57-5.79,0-7Z"/>
    <path class="cls-1" d="M460.42,1026.06c2.29,1.39.27,8.66-4.44,7.06l-214.11-.02c-6.48-1-3.93-7.04-3.46-7.04h222Z"/>
    <path class="cls-1" d="M661.16,1010.3c27.96-4.7,30.36,32.95,7.52,36.51-23.95,3.74-31.39-32.51-7.52-36.51ZM661.14,1017.28c-11.73,2.73-9.1,23.99,5.52,22.59,15.14-1.45,13.66-27.06-5.52-22.59Z"/>
    <path class="cls-1" d="M522.16,1010.29c30.47-6.1,31.24,39.34,2.9,36.66-20.48-1.93-22.01-32.83-2.9-36.66ZM523.14,1017.28c-12.43,2.9-8.14,24.53,5.53,22.6,14.9-2.1,13.02-26.93-5.53-22.6Z"/>
    <path class="cls-1" d="M591.16,1010.29c28.15-5.35,31.48,32.95,8.52,36.52-24.73,3.85-29.86-32.47-8.52-36.52ZM595.15,1016.29c-14.17,1.14-14.76,25.34,3.69,22.71,14.31-2.05,10.55-23.85-3.69-22.71Z"/>
    <path class="cls-1" d="M1.43,793.04c-.34-.52.03-2.3.46-3,1.88-3.09,23.91-2.56,29.01-3,20.68-1.79,45.8-6.2,66.03-6.06,6.67.04,8.83,3.9,1.92,5.01-17.79,2.88-42.6,4.66-60.95,6.05-4.62.35-35.48,2.54-36.47,1Z"/>
    <path class="cls-1" d="M77.23,841.37c2.46-.16,17.2-1.37,17.17,1.19-.03,2.2-34.31,4.61-38.59,7.49-1.34.54-4.37-1.8-4.36-2.49.04-3.63,21.92-5.94,25.79-6.19Z"/>
    <path class="cls-1" d="M700.42,937.05c-.45-.35-.23-2.79,1.51-2.02,19.07,2.02,39.09.61,57.47,6.53l-58.98-4.51Z"/>
    <path class="cls-1" d="M1212.42,821.06c.39.39.14,2.75-.98,3.51-1.5,1.03-34.49,2.08-36.34,1.52-.55-.17-1.68-2.4-1.65-2.55.44-2.4,37.58-3.88,38.97-2.49Z"/>
    <path class="cls-1" d="M117.42,862.05c-4.87-1.31-35.01,4.79-35.99.49-.36-1.59,1.23-2.19,2.51-2.47,2.05-.45,30.3-1.34,31.81-.83,1.33.45,1.96,1.4,1.68,2.81Z"/>
    <path class="cls-1" d="M711.42,950.05l-37.52-3.98-1.47-2c12.38.3,28.18.18,38.99,5.98Z"/>
    <path class="cls-1" d="M52.42,828.06c.16,2.43.28,1.73-1.48,2-4.34.68-13.98.87-18.97,1.05-3.89.14-13.41,1.51-11.55-3.05h32Z"/>
    <path class="cls-1" d="M879.42,959.05c1.6-4.3,24.99-1.04,24.98.51-.04,3.36-21.99-1.3-24.98-.51Z"/>
    <path class="cls-1" d="M880.42,942.06h-23c-.22-2.65-.1-1.65,1.51-1.97,4.66-.95,20.39-3.31,21.49,1.97Z"/>
    <path class="cls-1" d="M88.28,175.2c-.45-.29-8.08-.97-10.63-1.87-16.1-5.63-21.25-18.86-16.26-34.81,1.31-4.2,7.62-12.45,7.86-14.18.32-2.26-2.38-8.59-2.7-11.92-2.2-22.84,12.65-40.82,36.26-38.26,2.72.3,11.5,3.65,12.13,3.6.7-.07,8.83-7.4,10.96-8.73,16.42-10.24,32.79-9.99,42.35,8.71,1.67,3.27,4.13,14.7,4.64,15.36,1.05,1.36,17.75,3.54,23.97,13.03,6.65,10.13,3.24,19.05-2.6,28.26-1.09,1.72-7.47,8.48-7.54,9.15-.08.79,2.39,4.77,2.61,7.11,1.97,20.19-7.97,32.39-28.38,33.44-3.95.2-10.84-1.83-13.53-.54-1.16.55-10.06,11.79-13.67,14.34-15.02,10.6-32.2,8.04-40.84-8.81-1.54-3-4.02-13.48-4.63-13.87ZM166.42,92.06c-3.61-28.05-28.26-30.41-45-11.01,7.88.61,18.33,10.28,25.01,11.6,3,.59,3.59-.59,4.49-.59h15.5ZM110.42,82.07c-24.73-9.23-45.14,11.39-35.98,35.99,4.24-4.73,14.03-8.15,17.91-11.58,5.35-4.73,10.8-19.45,18.08-24.41ZM136.42,97.04c.89-1.44-17.34-12.48-20.28-11.84-2,.44-14.83,16.88-13.71,17.85,2.65,2.31,12.78-3.45,15.54-3.94,4.46-.78,8.75,1.35,11.87.95.36-.05,6.39-2.71,6.58-3.02ZM167.42,98.06h-19c7.78,6.39,14.49,13.32,20.99,21,.58-2.87-.61-19.94-1.99-21ZM183.44,137.05c2.59,1.75,16.02-15.65,8.99-27.5-2.07-3.49-17.06-11.76-17.99-10.5-.66.9.86,20.53,1.22,22.27.18.86,7.06,15.24,7.78,15.73ZM143.75,114.74c3.83,4.45,11,8.44,14.18,14.3,7.31-5.6,7.77-5.38,1.52-12.5-1.67-1.9-16.86-15.7-18.03-16.01-.87-.23-5.93,2.53-5.97,3.03-.03.39,4.51,4.29,5.41,5.56,1.26,1.77,1.71,4.25,2.89,5.62ZM111.31,120.9l-1.9-13.84c-19.2,3.19-15.59,14.65-13.98,29.99,2.48-2.96,4.23-6.68,6.94-9.54,1.61-1.7,8.69-6.12,8.93-6.62ZM135.41,109.08c-4.48-5.65-11.54,3.9-14.99,6.97,3.74-.71,10.75-2.69,13.73-4.73.73-.5,2.57-.58,1.26-2.24ZM84.41,136.06l5-21c-10.66,6.44-16.78,10.81-5,21ZM117.42,123.07c1.72,8.17,9.56,23.58,18.77,24.84,4.46.61,17.01-8.85,17.77-12.75.98-5.04-12.94-15.11-14.57-20.1l-21.98,8.01ZM125.44,152.05c-.53-7.48-6.23-12.54-9.57-18.94-.82-1.57-1.79-6.95-2.94-7.03-1.88-.14-15.42,16.9-13.8,20.7,2.17,5.07,19.92,10.15,24.59,9.11,1.43-.32,5.45-4.59,8.7-3.84-.53-1.71-2.91-2.74-4.49-3-3.54-.58,1.9,3.82-2.49,3.01ZM88.43,169.06c.39-.39,0-9.38-.46-11.04-.42-1.52-15.17-27.77-16.53-26.96-.76.46-5.78,14.53-5.93,16.64-.54,7.7,3.02,15.36,10.02,18.76,2.02.98,11.76,3.74,12.91,2.6ZM164.44,156.06c.76.91,14.28-9.09,14.88-11.71.41-1.79-4.62-9.67-6.41-11.27l-8.47,22.99ZM157.41,157.06c2.12-7.35,6.42-13.98,6-22-1.52,3.98-17.78,14.32-17.97,15.5-.28,1.78,9.26,1.02,9.91,1.57.45.39-.49,4.61,2.05,4.92ZM152.43,178.05c1,.93,13.63-.86,16.02-1.47,8.2-2.1,13.47-6.67,14.71-15.28,2.74-19.11-3.56-7.36-10.81-2.82-3.24,2.03-11.21,4.4-12.88,6.12-.53.54-7.59,12.95-7.03,13.46ZM148.31,156.16c-2.25-3.57-13.88-2.52-17.27.8-2.03,1.99,5.67,6.1,7.77,6.08,2.68-.02,12.16-2.67,9.5-6.88ZM134.42,166.07l-31.99-9.01c-.32,5.93,7.6,12.71,12.72,13.76,3.08.63,21.53-2.09,19.27-4.75ZM149.42,167.06c-.74-.72-16.87,6.64-18.99,7.98,2.84-.22,11.07,2.27,13.07,1.49.74-.29,6.85-8.58,5.92-9.47ZM140.42,182.07c-10.2-.34-20.62-3.18-30.27-6.24-2.3-.73-5.2-3.33-6.46-3.56-.76-.14-8.97,1.43-9.27,1.8-.37.45,2.57,9.81,3.23,11.26,9.92,21.82,32.54,12.66,42.77-3.26Z"/>
    <g>
      <path class="cls-1" d="M790.43,925.07c.17,2.44.25,1.71-1.49,1.99-9.03,1.47-34.47-.33-44.04-1.99-1.47-.25-3.08-.07-3.48-2.01l49,2Z"/>
      <path class="cls-1" d="M825.42,908.07c1.74,1.35-.2,1.78-1.48,1.99-11.02,1.78-25.23.37-36.52.99v-2.99c6.82.74,33.69-3.33,38.01,0Z"/>
      <path class="cls-1" d="M865.42,929.06c.65.56-.42,2.39-1.68,2.82-1.53.52-22.72.61-24.81.17-1.72-.37-2.81-1.01-2.51-2.99h29Z"/>
      <g>
        <path class="cls-1" d="M1095.42,530.07c40.83,19.46,84.62-3.39,91-48-2.57-.61-1.76.76-2.6,1.87-13.88,18.31-19.23,26.23-45.78,23.01-65.32-7.91-72.25-103.61-82.93-152.07-9.79-44.43-23.98-88.53-45.17-128.83-4.75-9.04-15.59-23.45-18.72-31.28-3.3-8.25-4.51-21.64-7.78-31.22-20.86-61.23-79.8-110.09-146.5-106.46-4.74.26-22.54,4.34-24.83,3.81-1.01-.23-13.82-10.44-16.78-12.24-78.96-47.81-175.03-44.06-254.58.24-3.52,1.96-19.59,13.71-20.84,13.79-1.19.07-18.6-7.15-22.49-8.13-132.42-33.26-253.98,149.01-165.54,240.54,1.47,1.52,10.66,7.79,10.53,8.46-.11.56-5.46,7.51-6.51,9.49-1.9,3.57-5.5,13.97-6.78,15.72-6.72,9.16-36.49,25.74-45.73,35.77-6.57,7.13-.1,9.55,5.31,13.75,6.52,5.07,39.32,22.58,40.81,24.44.41.51,5.53,11.18,5.55,11.83,0,.38-.3,1.38-.73,2.69,1.27,1.25,2.6,2.44,3.99,3.52.32.23.63.47.93.74.07-.24.14-.39.2-.43,1.2-.73,17.61,17.07,22.96,16.05-4.11,10.97-4.62,22.83-10.12,33.3-7.67,14.61-26.85,27.44-43.57,21.85-6.69-2.24-18.76-13.91-7.69,2.69,9.37,14.07,20.61,18.14,37.39,16.11l-1,7-250.62-43.91c-9.15,2.29-34.28,15.5-36.14,24.63-1.29,6.34,3.59,24,5.07,31.46,20.11,101.44,46.15,202.33,70.25,302.75,9.74,7.55,4.8,14.15,9.23,22.77,2.25,4.39,8.33,10.11,12.83,12.17,114.5,26.26,229.88,49.83,345.36,71.64,20.42,3.86,81.41,18.55,97.87,15.83,10.61-1.75,26.17-7.65,37.15-10.85,61.88-18.04,123.12-38.55,185.28-55.72,11.39-5.58,9.86-16.13,11.73-17.78.81-.71,15.95,6.49,20.49,7,5.59.63,13.12,0,19,0,2.72,0,2.72-6,0-6h-16c-10.05,0-25.4-8.43-32.49-15.51l11.99-8.48c-14.7,2.99-29.61,11.74-44.47,13.02-17.3,1.49-46.39-2.41-62.22-9.84-16.95-7.95-5.07-8.06,1.52-17.86,1.5-2.24,6.17-12.68,6.17-14.83v-17c0-.19-1.38-1.59-1.99-1.5,4.2,35.09-26.67,55.34-58.01,42.99l10.42-12.07c9.78-14.75,5.33-32.69-.94-47.9-9.51-23.07-28.33-39.9-53.47-43.51,12.47-20.09,40.44-12.32,56.99-1.52-4.23-6.9-9.86-11.34-17.46-14.03-2.16-.76-14.6-2.71-14.53-3.46.25-2.84,36.13-28.83,41.33-31.67,49.03-26.81,112.79-6.65,145.66,36.17-9.17-18.1-25.15-31.41-41.99-42h25.5c1.25,0,10.1,2.36,12.04,2.96,19.02,5.78,34.53,20.65,48.44,34.04-12.7-20.04-37.92-37.14-61.62-40.87-13.75-2.17-27.65.06-41.37-2.14,5.79-4.67,9.37-11.99,15.07-16.42,2.86-2.22,7.51-3.72,10.25-5.75,30.8-22.96,59.98-40.55,100.68-37.83-3.08-3.11-11.15-2.21-15.48-1.97-20.96,1.16-42.23,8.59-60.54,18.46-3.72,2.01-30.58,20.75-31.98,19.51-1.03-.92,14.54-20.61,16.03-22.46,18.08-22.39,36.53-38.17,67.52-38.55,8.72-.11,36.44,7.67,41.49,14.55,1.55,2.12-1.77,12.75-1.03,13.46,5.27,5.04,4.74-11.02,5.49-10.99,4.55.18,30.67,31.67,32.5,38.5-3.29.14-5.81-.9-9.41-.39-10.4,1.47,5.05,5.32,8.56,6.24,1.54.4,4.05-.72,4.72-.27.48,4.26,4.81,5.99,6.37,9.19.75,1.54,1.35,7.43,1.78,7.73,3.86,2.7,2.73-6.93,1.74-9.25-10.03-23.78-34.69-53.08-57.4-65.59-4.06-2.24-34.75-14.54-36.75-14.03-5.1,1.3,1.35,3.37,2.39,4.87-15.6-.61-31.07,5.5-44.99,12.01,7.12-11.12,12.71-23.09,15.98-36-5.42,3.18-6.88,11.3-10.95,15.54-1.57,1.64-3.91,1.3-4.04,1.47-.26.32,1.2,3.35.84,5.22-4.06,21.22-29.75,26.52-46.83,33.76,6.22-8.27,13.06-15.22,18-24.49,1.86-3.5,6.84-17.66,7.53-18.47,1.04-1.24,5.52-2.43,6.96-2.04,2.18.59-3.59,13.63-4.66,15.34-.82,1.31-20.33,20.3-9.1,14.9,7.68-3.7,21.09-20.61,22.22-28.77.23-1.67-1.49-3.99-.83-5.3.3-.59,9.24-4.97,10.41-8.18.63-1.75-.9-3.51-.36-5.23,1.06-3.4,3.54-6.24,3.73-10.34.21-4.64-3.88-12.1-3.78-12.76.2-1.36,6.69-5.7,7.66-10.38.9-4.33-1.34-13.84-.76-14.25.7-.5,16.15,3.62,16.8,4.19,1.74,1.53-1.12,9.82,6.03,2.63.19-.19-.92-1.78-.83-1.82,2.94-1.46,27.58.08,34.39-1.12,5.64-.99,15.77-6.9,19.01-6.84.55.01,10.24,2.55,10.6,2.96.44.5-8.59,11.45.38,8.91,2.17-.61-.39-4.15,8.67-2.46,15.46,2.88,39.9,24.66,30.71,41.81-4.44,8.29-13.91-1.5-19.32-2.26-5.76-.81-5.41,3.98-.7,5.74,11.84,4.42,25.62.32,26.28,19.81.19,5.63-3.52,9.21-3.62,11.94-.06,1.61,2.63,6.13,1.58,7.51-1.19,1.56-25.63-14.16-27.71-14.78-6.35-1.92,1.09,5.74,3.4,7.6,12.81,10.32,32.56,13.01,40.83,30.18,9.07-6.28-9.41-17.88-11.06-22.48-.09-.26-.67-5.34-.45-5.51,1.05-.83,10.08,1.49,10.99-1.55,1.74-5.84-8.5-5.15-8.99-5.47-.55-.36,2.47-10,.01-12.99,21.07,19.98,37.4,47.98,33.71,78.22-1.24,10.15-7.53,18.91-8.71,28.78,19.97-25.84,30.69-56.42,20.97-88.99-1.71-.26-1.06,2.37-.97,3.46,1.47,17.96,3.1,37.04-6.02,53.53v-16.5c0-16.17-22.19-49.74-33.48-61.52-1.79-1.87-12.41-9.66-12.43-10.47,0-.28,2.04-2.14,2.41-3.51,2.8-10.43.07-20-6.53-28.47-1.93-2.48-11.62-10.16-11.8-11.17-.13-.76,3.92-10.6,3.91-14.86-.01-4.11-3.35-11.87-2.92-13.78.17-.73,8.08-9.07,9.66-11.39,2.01-2.95,3.41-8.8,5.15-10.85,4.62-5.45,40.51-19.75,49.35-24.65,14.87-8.23,14.69-8.42,3.21-19.84-6.2-6.16-39.24-32.68-41.05-37.02-1.07-2.57.82-5.87.42-9.29-1.69-14.24-5.38-19.83-12.91-31.17-4.88-7.35-4.9-7.81-8.51-16.48-1.22-2.93-6.13-10.75-6.34-12.77-.22-2.04,10.72-16.3,12.71-19.89,14.99-27.09,18.21-59.79,17.16-90.35,26.17,39.41,42.58,87.01,53.5,132.99,10.71,45.13,13.47,107.04,43.51,143.49,17.22,20.89,47.79,38.5,75.23,28.28,6.76-2.52,15.62-11.19,5.16,2.16-13.59,17.34-39.61,22.71-60.19,17.36-30.38-7.88-44.57-38.28-60.21-62.28,5.68,15.32,14.16,31.3,24.01,44.48,7.04,9.42,18.11,18.9,24.21,28.79,1.07,1.74,10.15,20.94,8.27,20.73-2.43-.27-28.65-31.99-32.47-36.53-3.72-4.42-7.78-11.61-11.6-15.41-2.1-2.09-1.81-.57-1.03,1.03,12.6,26.03,43.19,46.75,56.62,72.9,1.65.05,2.19.57,1.88-1.38-.47-2.95-6.65-11.06-8.29-14.73l-7.12-19.88c22.98,24.12,46.01,49.71,59.36,80.64,13.91,32.23,20.93,71.25,6.16,104.35,1.59-37.81-16.49-72.03-37.61-101.9-4.26-6.03-10.33-14.46-15.18-19.82-.6-.66-1.89-3.45-3.22-2.26-.78.7,8.91,15.26,10.18,18.31,9.65,23.2,16.61,62.2,14.8,87.16-1.21,16.63-6.75,29.87-13.98,44.51,2.62,1.11,1.74-2.07,2.5-2.03,1.66.09,3.25,2.74,4.48,2.03.56-.33,5.22-10.08,5.88-11.64,12.65-29.67,7.88-65.98.15-96.36,15.37,21.98,28.92,56.43,27.03,83.54-.43,6.21-7.71,23.7,2.47,12.47,13.53-14.93,16.94-46.13,15.47-65.49-4.73-62.38-46.1-106.98-85.98-150.5ZM326.41,395.06c-1.42,1.85-36.21-22.96-38.97-25.5,4.52-1.36,37.12-33.16,38.98-31.49.66.59-2.87,14.02-3.05,17.44-.36,6.8-.45,16.3.07,23.03.21,2.76,3.68,15.59,2.96,16.52ZM819.91,66.99c9.83.8,16.72,13.92,21.51,21.07-.88-9.48-8.18-16.25-14.98-21.99,36.72-7.1,79.36,6.4,106.01,32.46,14.41,14.09,17.62,25.17,13.97,45.52l-11.51-13.99-8.49-6c5.42,6.28,19.01,19.62,17.58,28.04-1.16,6.87-10.01,20.95-15.04,25.99-3.56,3.57-21.25,16.07-25.54,13.52-.81-.48-7.8-12.8-10.46-15.6-33.09-34.73-85.66-15.13-113.05,16.03-1.97,2.24-8.23,13.23-8.98,13.01-1.22-.37-13.13-20.48-13.35-21.74-1.55-8.99,17-37.03,23.33-44.27,9.15-10.46,35.37-31.51,49.08-32.93,2.98-.31-4.57,12.16.41,7.94.24-.2,1.64-4.01,3.05-5.46,10.1-10.36,37.66-7.91,50.98-5.03,9.35,2.02,17.86,6.49,26.99,9.01-58.88-39.4-138.86,2.28-157.01,66.49-6.89-8.2-13.5-16.73-21.46-24.02-2.83-2.59-19.44-14.43-19.36-16.28.28-6.42,23.56-30.72,29.31-35.72,14.99-13.02,57.31-37.63,77.01-36.04ZM824.42,180.07c3.29,4.37,8.37,6.35,10.83,11.66,7.14,15.39-4.48,19.98-7.38,34.28-3.26,4.26-6.11.86-8.02,1.17-.57.09.29,1.92-2.86,1.99-5.61.13-9.41-3.18-14.57-4.1,1.57,6.67,18.23,6.28,19,6.99,1.15,1.08-7.46,25.69-8,30.49-.28,2.47-.53,10.95.3,15.56.26.76.48,1.53.69,2.31.15.29.32.51.51.63.71.45.02-3.82,1.98-.98,1.69,2.44,1.57,5.92,4.02,7.98.3-4.72-2.89-8.63-3.51-13.49-.18-1.38-.75-7.37.2-10.14-.04-3.32.11-6.67.12-9.97,0-1.31.84-2.08,1.82-2.32.57-4.39,5.2-20.95,8.37-21.06.78-.03.45,6.66.76,8.23,1.58,8.19,4.64,14.73,9.75,21.25,1.25,1.6,4.56,2.99,4.85,4.11.31,1.24-4.02,10.86-5.05,12.71-15.57,28.04-57.04,36.06-70.55,1.93-20.77-52.47,30.09-118.92,86.1-114.1,13.47,1.16,29.05,7.81,36.65,19.35-12.5-5.21-27.09-1.4-37.73,6.29l-13.27,11.21c1.45-9.85-5.69-19.24-15.01-21.98ZM835.49,240.49c-.55-3.61.55-19.38,2.94-21.43,3.62-3.11,10.43,16.42,10.73,18.76.39,3.02-.05,18.54-3.25,19.24-2.93.64-9.95-13.52-10.41-16.57ZM842.44,214.56c-.02-1.47,8.01-5.15,9.75-5.32,15.18-1.41,24.03,18.34,23.1,31.19-.4,5.59-7,27.07-14.41,22.69-9.08-5.38-6.04-24.6-9.74-35.28-1.64-4.71-8.68-12.49-8.69-13.29ZM875.45,254.58c7.33-20.33.75-48.61-24.69-49.45-3.31-.11-5.53,1.92-5.84,1.92-2.74.02,8.71-10.95,10.03-11.97,20.71-15.8,47.05-9.44,47.46,18.97-24.74-25.45-4.59-1.2-1.98,11.99,3.29-1.33-1.78-9.17-1.01-9.99,3.42-3.61,3.09,10.27,2.98,11.48-1.26,13.28-11.25,27.89-22.97,34.03-14.87,7.79-6.83.88-3.99-6.99ZM751.92,87.04c-21.07-10.8-49.93-20.34-73.86-18.84-6,.38-15.2,3.83-20.17,3.68-6.59-.19-16.82-5.42-24.99-5.8-23.36-1.09-55.46,8.95-74.99,21.79l-15.48-12.32c60.56-36.81,140.19-40.47,206.24-16.24,6.69,2.46,19.98,7.6,25.45,11.55,1.24.9,2.75,1.08,2.3,3.18l-24.5,12.99ZM560.07,46.2c78.37-36.52,173.14-34.91,245.35,14.88l-.61,1.98c-5.32-.5-17.97,7.13-21.75,6.74-1.67-.17-25.04-12.49-30.39-14.49-60.73-22.7-131.44-22.15-190.6,4.89-3.84,1.76-21.99,12.61-23.32,12.66-.82.03-12.1-6.62-12.32-7.31-.59-1.85,30.52-17.9,33.64-19.35ZM474.16,58.31c25.4-4.28,79.04,25.64,92.25,48.74-32.71,4.14-61,21.5-87.99,39-1.03-17.08-11.16-33.88-24.68-43.82-3.67-2.7-18.17-8.77-18.4-9.78-2.54-11.01,29.06-32.49,38.82-34.14ZM361.91,101.05c24.08-28.67,67.55-44.91,104.5-43.98-14.12,8.28-29.28,17.61-33,34.99-20.71-7.35-43.15-2.88-62.01,7.48-7.7,4.23-24.55,19.43-9.49,1.51ZM393.79,93.93c27.72-6.82,59.51,3.93,73.8,29.46,3.17,5.67,8.75,19.98,7.58,26.05-.42,2.18-25.38,21.52-27.73,26.61-12.45-28.89-52.38-41.97-76.57-19.05-1.3,1.23-6.7,9.4-7.44,9.05-.73-.35-8.54-11.44-9.38-13.13-16.56-33.45,10.6-51.82,39.73-58.99ZM418.32,213.44l-28.39,51.62c-6.05-3.43-13.56-15.54-12.53-22.45.17-1.11,10.41-10.67,12.45-13.62,15.38-22.32,14.56-58.43-16.42-65.42,21.25-23.82,59.32-10.07,68.81,17.84l-22.32,28.62c-4.86-5.51-12.58-6.39-19.49-5.95l17.89,9.37ZM341.93,294.05c-27.25-21.02-34.58-59.29-30.49-91.99,7.15,11.21,16.39,21.13,29.99,23.99-4.3-3.35-9.63-5.06-13.91-8.58-30.57-25.09,1.25-72.03,17.93-96.4,1.59-.27,1.06,1.39.97,2.46-1.11,13.99-1.63,21.73,5.59,34.45,1.65,2.9,10.07,11.98,10.25,12.78.93,4.18-3.37,15.93,1.44,21.04,1.27,1.35,6.74,2.76,10.35,3.66.15-.34.29-.68.45-1.02-5.3-4.52-8.88-8.52-9.68-16.36-1.14-11.19,9.48,2.72,3.72-7.66l1.36-2.29c5.92.54,22.3,9.99,21.58,16.37-.02.14-.45.51-1.12,1,2.11,1.96,2.84,4.85,2.75,7.69.1-.04.19-.08.29-.12,2.06,15.55-6.41,28.09-15.01,39.99-.19-.35-.37-.7-.55-1.05-.28.74-.58,1.47-.94,2.19-.76,1.54-2.61,1.5-3.74.59-.35.43-.71.85-1.1,1.24-.4.41-.93.63-1.47.69-.89.45-1.6,1-.75,3.36,1.12,3.1,3.76,3.22,4.54,4.77,1.04,2.08,1.43,7.79,2.75,10.99,2.57,6.26,6.44,9.95,10.99,14.69l-10.72,30.51-10.97-20.99c-3.35,6.35,10.88,28.73,7.98,31.99-.91,1.02-22.49-9.71-24.51-11.97-13.62-15.24-3.93-50.38,11.52-62.01-20.07,10.72-23.79,35.38-19.49,55.98ZM369.93,420.05c-19.05-23.73-21.65-66.38-8.36-93.35,2.73-5.54,3.44-10.43,10.85-7.62-7.61,33.8-11.97,67.03-2.49,100.97ZM334.98,330.12c1.56-4.41,8.7-19.68,11.93-22.12,1.69-1.28,5.48,2.26,5.49,2.56.04.72-6.35,8.9-7.84,12.15-4.89,10.72-7.68,23.03-3.13,34.35l3.69-21.79c1.88-2.76,8.28-22.51,9.32-23.21.55-.37,5.88,1.54,5.96,2.5.03.43-3.87,5.53-4.68,7.3-1.5,3.29-3.16,7.28-4.31,10.69-1.68,4.99-5.25,26.33-6,27.52-.09.14-2.54-2.42-1.98.47,3.39,2.74,1.54,7.2,2,11,2.74,22.12,9.54,43.75,25.98,59.51-44.88-5.02-48.13-67.85-36.44-100.93ZM337.81,505.94c-11.34,1.24-19.11-1.89-28.37-7.9h12.48c16.9-2.82,31.71-16.24,37.99-32.01,1.98-4.97,5.46-26.1,6.53-26.98.48-.39,11.09,3.01,11.94,3.55,4.35,2.79,10.37,14.05,16.59,16.47l-1.55,13.98c-.07.09-.42.06-.94-.03.1.97.01,1.97-.15,2.95,1.23,1.09,1.85,2.73,2.68,3,5.14,1.68,3.13-10.67,3.68-14.19.54-3.4,2.68-4.08,2.7-4.33.54-5.43-5.42-13.29-2.48-19.39,4.9,5.4,9.11,11.55,14.49,16.51,2.55,2.35,15.94,10.99,15.99,11.99.03.51-4.38,5.02-5.3,8.68-.84,3.36-.83,6.4-.68,9.81,2.83.51,1.65-.68,2.26-2.19.87-2.16,4.06-15.35,4.75-15.81l18.57,6.94c-2.58,6.02,1.42,13.39,1.08,18.43-.5,7.52-6.98,11.78-5.66,24.13.73,6.82,9.87,18.84,9,19.48-2.4,1.79-51.73-10.67-58.99-10.49-.21-.5-.44-.96-.68-1.4-.06,0-.11.02-.17.02-.2,0-.4-.02-.6-.02-.32.05-.65.05-.96-.04-1.18-.06-2.36-.18-3.53-.36.32.46.63.89.95,1.3l-48-9c4.83-2.81,5.17-11.07,7.29-13.71,1.4-1.74,7.33-2.88,10.01-4.47,9.52-5.67,14.67-17.44,18.54-27.47,1.7-4.39-.65-4.6-3.14-.13-9.18,16.49-13.99,30.24-36.32,32.68ZM473.85,429.09c-1.66-8.46,10.1-30.06,14.57-38.03.65,2.45.75,4.81.49,7.11.57.18,1.08.54,1.35,1.09.67,1.36,1.26,2.78,2.08,4.05l.58-1.26c5.31,11.29,12.24,22.16,20.49,31.53,3.93,4.47,14.8,12.61,17.14,15.94.05.07.1.22.14.39,2.03,1.16,4.02,2.53,5.72,4.15,4.01,1.71,12.88,6.42,14.5,7,3.92,1.4,15.19,4.84,18.78,3.79,7.53-2.2-7.98-10.76-8.26-13.31-.23-2.16,7.56,4.96,8.47,5.53,12.41,7.78,33.95,15.95,47.92,8.87,2.54-1.29,4.69-4.69,5.2-4.82.83-.2,12.42,5.16,16.16,5.66,12.04,1.6,25.67.2,11.24-11.73,3.45,2.29,8.57.83,10.96,1.5,1.8.5,9.3,7,12.37,8.66,5.78,3.12,11.89,5.55,17.75,8.46l-6.23,16.22c-.63-.14-1.67-.26-2.97-.34.65.95.69,2.38-.15,3.29.69.04,1.15.11,1.27.2.99.73-8.29,12.36-9.96,13.54-3,2.11-11.5,2.87-6.54,7.46,1.22,1.13,3.37.88,3.5,1.01.45.44-1.66,1.68-1.74,2.62-.1,1.22,1.14,3.97.73,4.36-.84.81-6.64-.76-8.34-.61-7.49.62-15.18,3.99-20.69,9.09-1.81,1.68-4.6,7.3-4.99,7.53-.63.36-9.67-5.63-12.96-6.51-16.48-4.41-36.99-.54-45.51,15.49-6.75-11.43-16.94-19.79-31.04-19.01-2.43.13-10.47,2.7-11.4,1.97-.32-.25-1.26-5.02-3.07-7.43-4.86-6.48-13.17-11.6-21.49-11.57-2.5,0-9.39,2.4-10.53,1.65-.67-.44-4.48-10.07-8.49-13.56-5.96-5.2-14.55-5.28-17.21-7.29-.52-.39-6.02-10.58-6.17-11.39-.38-1.98,2.52-.76,1.85-2.76-.69-2.07-4.4-4.61-4.01-8.09.31-2.76,4.63-2.18,3.05-4.47-.61-.89-3.66-.04-4.05-5.55-.25-3.5,4.33-22.56,7.57-23.46.11-.03.33.21.63.63.05-.54.12-1.09.22-1.63.28-1.51.83-2.9,1.63-4.09-.27-.65-.45-1.33-.56-1.88ZM635.44,427.06l22.99,26.98c-15.26,1.72-19.49-15.55-22.99-26.98ZM465.43,491.05c-.12.15-2.58.07-3.7.77-1.2.76-3.55,3.23-3.8,3.21-2.11-.15-3.28-15.91-2.49-16.98.18-.24,5.6.97,5.84,1.15.5.38,4.55,11.35,4.15,11.83ZM455.78,502.41c1.58-1.88,10-8.47,12.46-7.17.38.2.44,2.22,1.83,2.63,8.55,2.56,20.38,3.35,22.9,15.18.68,3.19-1.83,9.29,2.08,9.91.87.14,6.26-3.71,8.38-4.38,11.14-3.54,20.07,1.94,25.21,11.75,1.33,2.54-.28,5.32,3.05,7.04,2.07,1.07,11.5-3.5,16.17-3.34,6.62.23,16.71,5.04,20.38,10.7,4.78,7.38-2.11,6.21-7.31,11.34-2.73,2.7-8.54,10.55-9.99,14.01-.73,1.75-2.28,3.58-.03,4.95,4.9-9.56,14.23-21.52,26.04-22.02,3.52-.15,9.57,3.83,9.35-.31-.21-3.92-7.03-4.14,3.37-10.9,10.32-6.71,25.41-7.29,36.42-1.92,2.71,1.32,8.73,7.43,10.69,7.04,1.19-.24,5.39-8.19,7.6-10.39,4.08-4.06,12.77-8.44,18.53-8.55,3.2-.06,7.56,2.1,8.86,1.87,5.57-1.01-.71-10.74,16.88-6.53,1.71.41,3.9,2.56,4.27,2.55,1.06-.02,9.09-9.95,7.25,4.45-.27,2.13-9.69,24.38-10.69,25.32-6.16,5.78-9.77-3.67-14.03-2.09-7.58,2.81,2.23,10.09,2.81,12.24,2.37,8.72-17.1,4.53-17.84,5.29-1.77,1.82,2.32,4.41,3.81,4.65l12.17,1.83c-5.73,4.51-8.77,17.95-17.98,13.99-1.76-.75-5.35-9-6.97-3.88-.18.56,2.53,11,2.96,11.41,2.6,2.5,4.32-7.39,8.99-3.99.46.34-5.04,9.64-5.49,10-2.16,1.75-9.32,2.2-11.5,7.5-1.99,4.82,8.55-2.89,8.99-2.5.23.21-1.87,5.69-2.14,5.85-1.09.65-4.28-.27-6.13.36-2.99,1.01-23.04,8.44-14.69,12.31,4.16,1.93,13.97-8.72,18.95-9.54l-1.99,9.99-4.49-2.97c-6.81,5.83.31,10.46,1.85,15.13.35,1.08,2.93,11.26,2.64,11.79-.7,1.27-10.85,5.1-13.34,4.99-5.12-.21-14.83-8.46-15.63-7.93-.36.24-2.12,6.2-3.56,7.95-11.11,13.52-42.34,10.42-50.92-4.03-3.23-5.44,6.69-19.72-1.09-14.98-5.31,3.24-3.09,9.37-7.07,11.92-4.12,2.64-9.23,2.39-12.94-.82-8.31-24.84-10.18-52.8-17.31-77.69-9.22-32.18-41.2-23.01-65.58-31.42-5.31-1.83-.37-3.29-.64-5.31-.15-1.11-5.17-4.94-6.34-6.7-5.21-7.84-5.44-19.21.79-26.58ZM681.43,518.05c5.76-4.99,15.09-4.26,21.99-7.98l-3.57,7.82c-6.51-2.08-11.35,3.31-18.41.16ZM597.42,879.06c-.75-.66-4.86,1.61-3.99-2l34,8c2.04,1.38-.65,1.75-1.41,2.09-2.54,1.16-26.6,9.21-28.02,8.84-1.23-.32-3.72-12.28-3.58-13.35.1-.76,4.72-2.09,3.01-3.58ZM619.42,880.05c-.39-2.55.23-1.56,1.41-2.1,12.96-5.88,24.12-7.05,37.58-1.88l-23.65,7.94-15.35-3.96ZM627.43,862.56c.08-.38,5.66-4.88,6.06-5.02,6.56-2.17,37.53,9.58,45.92,11.52l-14.45,4.94-37.54-11.45ZM634.43,869.07c1.93,1.34-.52,1.74-1.4,2.1-4.3,1.78-10.91,2.83-15.69,4.34-1.89.6-1.92,2.46-2.61,2.57-1.58.25-11.96-2.29-12.3-3.53,5.05.16,14.37-7.73,17.65-8.21.72-.11,13.75,2.3,14.35,2.72ZM592.47,874.02l-3.04-12.95c2.86,1.6,9.94-4.05,10.51-3.99.85.1,6.58,11.97,13.49,8.99-1.43,2.28-20.06,8.65-20.96,7.95ZM593.37,908.73c1.81,3.24-10.1,12.85-10.93,12.32-25.38-115.1-47.1-231.19-75.72-345.51l8.73-11.48,3.18,3.3,74.74,341.38ZM87.46,481.52c124.5,22.69,249.75,41.97,373.99,66.02,3.93.76,54.8,8.91,51.98,14.5l-10.31,8.88c-2.79-2.23-5.38-3.35-8.84-4.21-13.81-3.46-30.39-5.74-44.65-8.35-127.21-23.23-255.07-43.25-382.2-66.79,5.48-2.73,14.09-10.08,20.03-10.05ZM130.47,826.52c-24.89-108.08-50.93-216.01-73.61-324.53.75-2.73,2.53-6.04,5.91-5.88,131.49,25.44,264.22,44.53,395.84,69.27,8.43,1.58,36.17,5.22,41.33,9.67,1.79,1.55,2.38,2.59,3.24,4.76,4.02,10.23,7.08,30.52,9.77,42.23,23.02,100.27,41.35,201.75,64.49,302-39.55-5.96-78.78-13.88-118.02-21.47-107.28-20.77-215.02-42.03-321.48-65.52l-7.46-10.54ZM238.24,881.74c-23.89-5.08-65.77-11.09-86.84-19.16-7.83-3-12.98-10.06-11.97-18.52l439.99,85,4,19.98c-115.11-21.88-230.57-42.93-345.18-67.31ZM809.19,861.22c2.29-.11,3.24,1.45,5.22,1.85-6.16,3.98-14.83,5.23-21.99,4.97,3.61-1.76,13.3-6.66,16.76-6.82ZM787.38,872.51c3.57-.79,7.43-.89,11.04-1.44-3.85,4.14-20.06,3.55-20.09,9.48-.04,8.16,12.63-.05,16.59-1.5,2.61-.96,11.57-2.77,12.53-3.49,1.96-1.49-.53-3.9-.03-4.49.35-.42,9.98-3.05,10.52-2.99,2.48.27-2.59,14.01-5.92,14.08-74.46,20.89-148.24,44.03-222.11,66.83l-6.32-20.45,11.41-10.46,7.16,3.75c62.04-9.7,124.09-35.85,185.22-49.31ZM686.87,854.08c4.79-.01,18.83-4.94,19.88-4.8.87.11,11.85,7.56,15,8.96,12.77,5.65,27.45,7.78,41.2,9.8l20.47,1.01-179.26,50.01-5.65-4.14.9-14.35,91.57-29.45.44-3.04-55-15.03c2.35-2.66,6.17-7.82,9.42-9.06,1.39-.53,14.72-1.15,15.41-.79.38.19.68,2.26,1.62,2.88,6.32,4.16,16.39,8.03,24,8.01ZM651.9,757.09c15.31,11.72,31.59,44.72,24.71,63.65-.97,2.66-8.56,14.26-10.62,15.37-5.08,2.74-10.88-1.15-15.97-.94-15.33.63-20.94,25.6-38.17,23.78-12.31-1.3.97-23.48,4.6-28.37,1.85-2.48,20.85-19.34,10.72-18.36-5.63.55-17.95,16.07-20.91,21.16-2.63,4.53-6.49,18.43-11.31,18.76-2.15.15-6.09-.68-7.36-2.75-1.42-2.32-4.45-19.65-4.07-22.74,1.17-9.39,21.5-28.93,20.9-31.08-1.75-6.3-14.41,7.21-15.96,9.01-2.19,2.54-6.39,10.81-7.05,11.46-1.74,1.71-1.68-.34-1.95-1.51-.9-3.81-6.34-28.46-6.07-29.96.67-3.77,11.52-5.96,11.04-9.01-.7-4.44-12.56,3.02-12.98,2.48-.48-.61-3.01-14.54-2.84-15.3,1.57-6.86,27.08-19,34.34-19.68,11.86-1.11,39.21,6.55,48.96,14.01ZM620.96,734.11c-.91,1.02-1.34,3.64-1.66,3.83-1.21.73-9.84-1.69-12.38-1.65-15.15.2-29.63,8.76-40.48,18.77l-17.01-78.99c1.68-.31,2.23.03,3.47,1.02,5.91,4.72,14.6,22.34,20.52,25.49,1.5.8,2.71.71,2.01-1-.5-1.21-9.34-10.51-11.4-13.6-2.31-3.48-6.14-9.56-7.83-13.2-1.41-3.05.42-12.06-7.75-4.71l-3-13c4.5,5.03,12.76-.42,15.27.13,1.06.24,9.37,9.06,13.04,11.05,2.73,1.48,13.27,4.24,13.68,4.83.87,1.25-2.7,4.49.51,4.01,5.59-4.19,12.57-3.16,19.46-5.54,5.71-1.98,15.67-11.22,16.67-11.37,1.09-.16,3.33,2.08,5.11,2.64,1.67.53,6.96,1.02,7.2,1.3,2.38,2.74-3.08,13.76-6.04,16.36-8.82,7.74-16.71,5.08-26.42,6.59-1.32.21-3.01.52-1.48,1.99,5.82,5.6,28-4.08,28.99-2.98.58.65-2.22,13.65-1.88,17.38.31,3.39,2.97,16.44,7.33,15.67,3.74-.66-.27-25.81,4.54-30.05l1.93,27.85c-8.22,4.73-16.04,10.12-22.38,17.2ZM649.71,676.25c-1.04,1.17-1.13,3.69-1.3,3.8-1.27.85-8.74-13.12-5.86-16.88.19-.25,5.62-2.32,5.86-2.12.59.51,4.51,14.4,4.01,14.99-.14.17-2.26-.31-2.72.2ZM651.43,709.05c-.47-.55-.14-12.69.02-14.47,1.73-18.99,4.07-5.54,13.96-.52.2-4.91-3.32-8.89-3.89-13.59-1.67-13.64,5.82-32.84,12.89-44.41-3.27,16.85-2.6,35.46,9.99,48.49l-32.98,24.49ZM819.42,612.07c-4.89,5.85-10.31,11.47-14.97,17.52-5.44,7.06-23.66,36.55-28.51,39.49-9.87,5.98-15.89,2.31-26.04,1-7.48-.96-9,2.83-10.39-7.62-.74-5.55-.37-13.76,4.48-17.32,5.81-4.27,33.56-16.69,41.75-20.27,10.96-4.79,22.81-7.72,33.68-12.8ZM749.91,627.04c8.84-16.65,27.16-26.87,37.51-42.98-.47,11.4-5.79,33.34-13.55,41.94-2.88,3.18-27.49,15.64-29.44,14.05-.55-.45,4.7-11.54,5.48-13.01ZM784.44,618.06c8.45-18.19,6.54-38.66,10.25-57.23,1.73-8.67,6.38-16.8,7.62-26.38.15-1.13.99-5.4-.87-5.38-5.48,21.58-11.54,46.18-25.51,64-1.94,2.47-15.01,16.49-17.03,16.98-.69.17-1.48.28-1.47-.48,0-.85,7.12-12.26,7.78-15.23.53-2.41.49-3-1.29-1.29-15.3,14.66-26.9,49.98-29.48,70.61-.21,1.71,1.47,5.96.99,6.4-.29.27-7.64.21-7.94-.05-.44-.38-2.03-10.06-2.09-11.42-.55-13.48,5.97-25.71,8.54-38.52-9.65,13.42-15.16,27.79-14.55,44.53.06,1.59,1.53,6.99,1.05,7.46-.61.6-13.37,2.57-16.78,3.73-11.53,3.93-13.8,12.13-20.71-3.74-9.73-22.35-.63-52.08,11.47-71.98-17.23,18.77-33.79,42.72-39,67.99-1.46-.17-1.69-4.38-1.86-5.62-3.44-26.52,7.1-53.06,22.47-74.27,15.37-21.23,37.21-36.18,53.4-56.6l-30.51,24.5c-1.56.22-1.71.09-1.47-1.47.6-3.83,5.93-12.31,7.46-16.55,1.96-5.44,7.98-30.51,9.48-32.52,1.33-1.79,16.64-11.05,20.52-14.48,3.88-3.44,6.56-7.7,10.52-10.97-2.37,13.74-7.28,27.31-13.98,39.51,1.58,2.08,1.64-.01,2.29-.77,11.41-13.37,12.02-31.59,17.48-46.46,2.38-6.47,7.21-12.69,9.5-20.5,2.41-8.25,3.94-17.18,3.71-25.78-1.91.35-1.65,2.09-2.04,3.45-2.01,7-2.43,13.54-5.19,20.81-11.62,30.62-43.56,56.22-76.76,57.73,26.67-35.31,29.62-84.54,22.99-126.98l-4.49,55.99-24.48-47.99c3.35,10.57,6.41,21.47,10.82,31.67,2.02,4.67,12.56,21.9,12.95,24.07.29,1.64-3.84,21.64-4.8,22.27-1.65,1.08-21.36-10.98-24.31-13.17-22.04-16.32-38.66-42.09-45.38-68.62l-8.27-45.21c.23,40.23,5.59,88.12,31.99,119.98-12.87,1.17-25.78-5.25-35.91-12.57-1.79-1.3-13.45-13.11-14.07-12.41-1.59,1.78,16.79,23.45,19.99,24.99-57.28,10.59-84.43-49.63-86.98-97.51l-1.01-25.47c-6.23,42.83,5.05,88.68,32.99,121.98-38.29-9.92-62.99-46.04-72.92-82.57-15.25-56.08-1.49-113.73,25.91-163.42-29.59,38.23-42.21,91.39-36.85,139.36.82,7.37,6.28,24.8,5.84,30.04-.94,11.3-19.3,43.47-22.99,59.08-1.52,6.44-2.75,11.65-2,18.52-23.4-17.23-18.95-48.69-15-73.99-6.75,13.81-6.92,30.91-5,45.99-21.37-45.93-8.91-100.06,9-144.99-5.06,5.22-8.09,14.72-10.73,21.76-16.05,42.82-21.11,94.92,2.57,135.91,5.86,10.15,14.36,17.97,21.16,27.32-41.28-2.68-73.86-43.54-72.01-83.99-1.44-.2-1.55,2.74-1.7,3.77-3.16,20.78.54,38.19,5.22,58.22-26.87-26.13-23.73-71.01-18.21-105.2,12.19-75.5,53.46-154.78,116.98-199.02,25.26-17.59,57.4-32.97,88.72-32.79-1.27-1.65-16.98-19.16-15.99-19.98,1.81-1.52,41.43.42,46.99,2.98-10.82-8.68-26.66-5.64-39.45-4.94-1.16.06-5.54.7-5.54-1.03,27.95-12.93,60.28-21.76,90.98-14l-2.99,2.49c9.05.11,18.11-4.12,27.51-4.48,21.67-.83,45.86,7.56,65.48,15.99-13.83,11.88-26.4,23.64-36.42,39.07-1.18,1.82-3.23,7.69-3.6,7.92-.66.41-12.17-5.73-14.98-3.51,21.95,12.75,40.58,27.8,55.82,48.18,3.32,4.43,18.54,26.84,18.02,30.56-.48,3.4-5.95,13.61-7.34,18.77-11.41,42.3,9.64,77.47,41.97,103.02,2.61,13.56,5.36,23.45-2.46,35.97-.52-8.12-1.11-17.71-5-24.99,6,35.8-6.96,71.15,4.07,106.51l-3.07,46.48c3.8.46,2.73-6.38,3.87-8.62l3.12-30.36c.11,5.08,4.42,8.23,5.74,12.77,2.47,8.52,3.63,29.09,4.25,38.75,2.52,39.22,2.04,77.55-26.97,107.48ZM838.32,550.47c-2.36,12.33-10.88,13.25-20.89,17.59l2-29c9,4.09,4.48,15.34,5.48,22.99,6.68-5.36,4.48-15.38.51-21.98l12.99-4.01c.49.53.12,13.29-.09,14.4ZM844.21,514.57c-.49,11.27-13.49,21.84-24.78,19.48-.78-4.16,3.05-.02,4.49-1.95.33-.45,3.51-9.99,3.51-10.54,0-3.28.82-22.66,0-23.5-2.79-2.84-7.34,7.86-7.59,9.99-.66,5.65,4.81,14.25-.39,20l-3-35.99c3.06,3.49,3.98,4.85,6.49.01,2.87,4.89,17.2,10.52,19.52,13.47.9,1.14,1.84,7.46,1.77,9.03ZM818.92,343.08c8.76,5.56,20.2,9.06,30.5,9.99-28.4,46.37-23.78,120.79,23,153.98-78.16-6.48-87.75-109.82-53.5-163.97ZM847.91,367.04c3.67-6.5,11.73-17.89,10.44-2.62-1.12,13.26-8.72,30.03-9.9,45.17-2.39,30.66,5.03,65.02,23.97,89.46-38.64-22.7-44.8-96.05-24.52-132.01ZM853.39,408.52c.6-8.79,9.4-50.66,17.73-53.27,6.32-1.98,19.97.71,27.3-3.19-33.09,45.94-33.47,116.9,18,149.5-51.99,19.51-65.51-56.96-63.03-93.04ZM909.41,349.06c-10.74,14.33-21.26,29.78-24,47.99-2.18-.24-.59-4.6-.33-5.84,2.68-13.01,10.56-37.66,24.34-42.15ZM958.4,516.06c-.85.49-13.98-9-17.98-7.49,5.22-2,2.7-9.03,2.99-9.49.48-.76,14.19-5.3,16-8.02,2.19,4.14,2.45,22.99-1.01,25ZM1031.42,433.04c-9.55.88-60.73,31.44-64.52,30.85-.52-.08-5.63-7.27-6.29-8.52-9.07-17.1-6.83-40.67,2.31-57.33,2.1-3.82,9.1-14.15,13.86-13.78,4.69.37,47.93,42.54,54.66,48.78ZM961.44,467.55c-31.49,4.62-34.99-40.71-29.27-62.25,5.08-19.15,25.63-51.98,45.26-26.25-9.7-.65-15.94,7.89-20.17,15.34-12.48,21.99-12.77,53.36,4.18,73.16ZM983.41,376.06c-30.28-37.61-59.26,14.3-60.97,43.52-1.27,21.78,9.6,59.64,38.04,54.04,2.22-.44,8.96-5.07,7.93-2.08-2.46,7.13-18.31,18.65-25.32,21.68-39.32,17.04-57.22-37.48-56.71-67.72.52-31.09,19.7-77.53,51.05-88.94,22.96-8.36,47.51,16.89,45.98,39.5ZM965.41,335.06l-16.98-8.49,9.98-8.5,7.01,17ZM984.41,233.07c-2.21,53.8-38.97,107.47-94.98,113.5,5.96-4.88,13.78-8.96,14.98-17.5-15.59,22.29-34.5,22.22-59.19,16.7-27.09-6.06-51.7-21.81-66.8-45.2,3.87-.1,7.07,3.02,10.95,4.05,24.44,6.49,52.56-14.42,57.05-38.54l26.98,9c-2.65-6,3.06-4.36,7.68-6.82,9.01-4.79,14.32-11.82,19.82-20.16,7.1,7.48,18.02,13.31,28.5,12.97-4.18-2.26-26.33-10.83-27.91-14.11-.38-.8,4.83-13.33,5.47-16.82,2.23-12.18,1.14-23.27-2.56-35.05,31.84-6.38,50.97-44.6,46.02-75.01,18.26,20.8,32.2,51.64,34.03,79.46,1.78,27.18-6.86,43.66-30.04,57.53,13.35-2.98,22.71-13.11,29.99-23.98Z"/>
        <path class="cls-1" d="M1055.42,652.56c.06,12.01,1.97,10.05,5.76,20.24,4.07,10.94,8.24,21.96,11.25,33.26,1.75-1.33,2.09-6.47,2.07-8.48-.14-17.88-5-35.73-12.09-52,5.15,5.54,8.78,15.91,10.73,23.27,3.86,14.57,4.33,33.71,3.1,48.75-.1,1.19-1.84,6.64-2.81,5.47-.65-.79-3.34-16.22-4.56-19.95-4.21-12.92-10.23-25.73-15.96-38.04-3.85,20.53-17.93,39.89-38.49,45.98,5.87-6.38,13.85-10.32,19.51-16.98,16.92-19.91,17.84-49.69,11.49-74,2.59-.48,1.79.43,2.45,1.99,2.72,6.39,3.2,16.03,3.56,23,3.48-2.23,1.46-8.39,3-12,3.21.99.99,2.71.99,3.5,0,5.33-.03,10.67,0,16Z"/>
        <path class="cls-1" d="M931.42,552.05c-10.02-1.57-20.44-1.14-30.48.03-5.79.68-21.37,5.48-25.02,5.06-3.16-.36-2.57-3.13.15-4.94,9.92-6.6,45.34-7.99,55.35-.16Z"/>
        <path class="cls-1" d="M901.42,668.05c-10.16-2.67-20.84-6.69-31.46-7.02-12.01-.37-23.65,3.56-35.54,3.54,20.23-8.83,48.02-9.01,66.99,3.48Z"/>
        <path class="cls-1" d="M998.42,663.05c-3.97,0-3.65-8.32-4-10.99l-5.99,4.98c2.21-4.47,2.47-11.64.76-16.25-.7-1.87-2.61-2.45-3.2-3.8-1.45-3.29-3.09-10.43,1.61-4.61,7.18,8.89,10.55,19.17,10.82,30.66Z"/>
        <path class="cls-1" d="M1093.44,751.06c4.59-14.25,4.33-28.25,3.48-42.99,5.31,12.76,4.68,31.41-3.48,42.99Z"/>
        <path class="cls-1" d="M1023.41,693.06c-1.14.8-3.94-1.67-3.83-3.33.09-1.38,8.35-15.7,9.35-18.65,1.75,1.22,1.7,2.46,1.47,4.4-.11.94-6.21,17.03-6.98,17.58Z"/>
        <path class="cls-1" d="M1023.41,484.06c-5.97-9.71-8.79-22.78-10.98-33.99,5.9,10.22,7.96,22.65,10.98,33.99Z"/>
        <path class="cls-1" d="M700.41,365.05l-26.98-89.99c14.41,27.81,23.24,58.86,26.98,89.99Z"/>
        <path class="cls-1" d="M584.42,148.07c-8.59,5.34-17.43,9.72-25.47,16.02-10.57,8.28-18.9,18.75-28.52,27.97,11.29-19.58,31.35-38.79,53.99-43.99Z"/>
        <path class="cls-1" d="M697.42,675.05c-5.26-1.61-5.41-15.06-4.9-19.41.41-3.5,6.73-23.33,8.4-26.6,1.04-2.03,2.34-4.02,4.5-4.99-5.55,17.05-12.82,32.73-8,50.99Z"/>
        <path class="cls-1" d="M644.41,190.06l-28.99-33.99c13,5.83,23.76,20.87,28.99,33.99Z"/>
        <path class="cls-1" d="M666.42,101.07l-20.97,6.51c-2.91-.42-15.38,10.17-16.01,9.48-4.14-4.56,32.06-20.03,36.98-15.99Z"/>
        <path class="cls-1" d="M675.42,85.07l-29.99,7.98c7.22-7.23,20.06-8.58,29.99-7.98Z"/>
        <path class="cls-1" d="M659.42,136.07l-29.99-.03c7.64-6.18,21.22-2.27,29.99.03Z"/>
        <path class="cls-1" d="M905.41,318.06c-2.85,3.76-.9-7.61-.98-8.45-1.27-14.74-5.85-26.72-16.01-37.54,12.12,3.4,23.11,37.93,16.99,45.99Z"/>
        <path class="cls-1" d="M601.41,615.06c3.38,2.09-.48,9.18-2.97,11.51-9.97,9.35-30.98-.67-39.51-8.52-7.11-6.55-6.83-16.33-7.51-17-.41-.41-9.68,2.67-7.84-4.27.39-1.46,4.36-4.91,5.87-4.29,2.94,1.2,4.29,12.84,7.92,17.11,6.41,7.54,25.09,17.05,35.1,14,3.04-.93,7.86-9.21,8.94-8.55Z"/>
        <path class="cls-1" d="M603.5,597.97c-.5-.77.66-5.69.97-5.89,1.64-1.07,5.81,2.41,7.68,2.74,10.71,1.91,20.1-2.74,26.68-10.86,2.72-3.36,3.97-10.5,7.12-7.95,10.73,8.72-14.64,23.86-23.12,24.94-3.06.39-18.06-1.04-19.33-2.99Z"/>
        <path class="cls-1" d="M435.42,529.05c-2.69.59-1.72-.78-2.49-1.97-1.82-2.81-12.86-28.59-8-29.02l10.49,30.99Z"/>
        <path class="cls-1" d="M535.42,96.06c.53,3.07-.87,1.55-2.42,2.02-5.44,1.67-11.19,2.44-16.56,4.48-2.98,1.13-15.39,9.16-16,8.49-3.87-4.26,30.49-18.32,34.98-14.99Z"/>
        <path class="cls-1" d="M1004.42,429.07c.26,1.68-2.41,1.08-3.51,1.02-4.47-.25-11.21-1.43-15.82-2.19s-11.19-1.09-14.65-3.83l33.99,5Z"/>
        <g>
          <path class="cls-1" d="M1093.95,764.08c-16.29.97-10.27,6.87-8.55-9.55,2.39-22.78.44-27-23.4-27.4-1.82-.03-4.66,1.9-5.1,1.82-1.16-.21-1.58-3.7-2.94-4.92-.95-.86-9.67-6.66-10.3-6.79-7.38-1.5-30.9,15.58-36.21,21.82,2.65-19.83-.45-45.89-11.61-62.9-1.66-2.52-9.33-11.91-11.95-12.15-10.34-.92-27.94,34.27-27.46,44.04-.29-.26-.58-.57-.87-.89-.07.42-.15.84-.24,1.27.06.09.13.18.16.29.26.88-.51,17.59-1.06,18.33-.46.62-10.01-7.39-12.79-8.7-3.86-1.83-14.81-5.86-18.65-5.31-6.94.99-8.06,25.19-6.56,31.01-11.37-6.9-28.97-13.86-42.46-10.96-6.3,1.35-2.21,10.6-1.03,14.96,4.35,16.13,13.93,30.42,22.49,44.51-16.62,4.61-24.73,12.35-26.04,29.94-3.69,49.45-1.74,117.89,51.79,139.31,47.46,19,129.91,14.98,158.08-34.45,1.18-2.07,3.82-10.83,4.3-11.19.61-.46,12.28-.87,15.08-1.42,87.47-17.16,87-156.13-4.68-150.68ZM923.43,719.06c33.35,3.78,44.45,39.18,53.04,66.46,1.09,3.47,4.15,10.91,1.97,13.53-1.86-6.23-5.54-12.75-9.99-17.51-5.05-5.41-13.16-8.03-16.47-11.53-3.88-4.11-6.36-14.38-9.29-18.67-.65-.95.07-1.78-2.27-1.28.36,4.66-.5,9.93,0,14.5.08.76,2.28,4.28,2,4.49-5.49,4.07-17.33-15.55-18.77-19.72-3.7-10.7-2.07-19.48-.22-30.27ZM948.75,812.23c-5.03-2.06-4.59,5.14-12.77,4.86-14.19-.49-31.76-15.9-36.05-29.09-1.45-4.47,7.74-7.81,11.45-8.49,29.34-5.37,33.77,27.59,47.04,45.54l-12.99-4.01c-1.5-1.68,9.48-6.29,3.32-8.82ZM948.26,796.73c-1.12-2.04-12.9-22.88-11.83-23.66,1.13-.83,9.32.61,11.38,1.1,16.98,4.06,25.5,15.95,28.35,32.65.5,2.92,1.59,17.83.26,19.24-.62.66-8.81-.02-10.71-1.31-2.19-1.49-15.24-23.95-17.46-28.02ZM883.25,758.73c-1.17-2.76-7.21-18.3-5.83-19.66,1.27-1.26,16.39,1.53,19.21,2.29,8.15,2.19,16.14,6.92,21.75,13.25,1.18,1.33,15.03,20.64,14.04,21.45-.69.56-11.46-3.55-17.39-2.87-5.86.67-18.69,9.47-19.6,8.88-1.1-.72-11.02-20.59-12.19-23.33ZM1106.86,905.99c-6.09,1.82-25.3,2.96-27.01,3.99-2.31,1.4-5.35,12.17-7.26,15.74-22.24,41.44-86.61,43.42-127.39,36.06-65.48-11.82-69.06-61.59-69.81-118.19-.24-17.8-2.94-36.19,16.67-43.41,10.45-3.84,7.11.08,13.36,7.38.05.65-10.72,3.09-9.81,7.84,1.31,6.87,14.76-.47,19.19-.06,8.2.76,20.35,11.45,26.58,13.26,13.15,3.81,43.47,1.3,57.63.54,22.99-1.23,23.63.56,42.31-13.69,2.56-1.96,11.36-11.3,13.07-11.88,3.35-1.14,23.3,9.49,26.26,12.48,3.44,3.46,3.56,16.81,3.66,22.4.25,13.65-3.84,32.69-2.98,45.14.7,10.18,19.47,4.66,26.07,1.95,46.16-18.96,34.86-101.48-7.38-95.38-6.03.87-19.51,10.67-15.12,16.93,2.83,4.04,6.17-4.83,9.04-7.02,15.12-11.55,28.78,3.64,33.51,17.48,10.46,30.53-4.73,63.74-39.02,65.51.96-19.5,5.44-43.66,1.3-62.79-1.95-9.01-9.28-13.24-16.94-17.06-2.56-1.28-11.92-3.66-12.35-4.15-.96-1.1,15.92-23.01,12.99-25.99-1.24-1.26-2.51.51-3.31,1.23-1.28,1.14-7.39,8.48-8.78,10.27-1.02,1.31-.02,2.99-.84,4.02-14.27,17.85-39.87,37.11-63.52,37.52-2.1.04-4.52.96-4.52-1.51,0-3.83,6.18-15.87,8.58-19.44,2.91-4.35,14.52-14.14,14.97-15.1.88-1.84-1.94-6.21-3.93-5.92-5.36.78-20.59,24.19-23.12,29.94-1.04,2.35-3.1,11.52-3.57,11.93-.22.2-5.71.22-5.95.04-.85-.6,3.31-18.31,3.99-20.5,2.4-7.7,7.28-12.16,10.38-18.62,4.88-10.18,2.14-9.96-4.35-2.35-3.41,4-5.52,8.95-8.01,13.47-.6-16.59-5.49-33.35-11.84-48.66-4.76-11.48-9.09-12.14-8.77-26.66.39-17.67,8.75-41.28,23.58-51.67,12.85,15.31,18.4,38.7,18.11,58.51-.24,16.13-9.93,23.74-14.82,38.25-2.21,6.55-3.86,13.3-4.25,20.24,11.67-22.18,20.79-41.71,42.26-56.23,2.26-1.53,15.85-9.61,17.24-9.48,2.89.27,9.17,10.61,10.48,11.22,5.31,2.46,8.93-2.84,2.54,9.54-3.72,7.2-25.49,29.38-32.51,31.49-3.21.96-10.3.04-12.56,3.44-2.45,3.69,4.96,4.99,7.94,4.93,7.62-.15,11.89-5.3,23-3.81,3.81.51,16.87,7.5,17.59,6.9,1.17-.98-8.9-9.48-10.3-10.19-4.84-2.44-9.67-1.39-14.69-2.3,14.23-7.89,23.75-18.82,30.52-33.5,1.57-3.4-1.56-6.27,5.98-6.1,19.47.45.25,33.61,5.9,38.2,2.44,1.98,14.04-1.79,18.11-2.09,81.02-5.84,79.55,115.7,11.91,135.91Z"/>
          <path class="cls-1" d="M1043.42,833.07c-9.83,6.02-25.88,7.03-37.52,7.97-29.74,2.39-62.58,1.35-91.67-5.3-6.82-1.56-37.84-9.63-36.82-19.16.4-3.71,5.33,2.45,6.07,2.91,41.77,25.69,113.09,16.85,159.93,13.58Z"/>
          <path class="cls-1" d="M1075.42,815.06c1.58,14.28-13.88,15.06-23.98,17.99-.54-2.61.6-1.75,1.94-2.51,4.47-2.55,10.59-3.91,14.98-7.05l7.06-8.43Z"/>
        </g>
      </g>
      <g>
        <path class="cls-1" d="M316.43,914.07c.88,3.14-3.45,2.07-5.48,1.97-13.82-.69-34.44-5.68-48.71-8.29-23.43-4.28-54.61-8.83-76.88-15.12-1.81-.51-4.3-1.03-3.93-3.56l135,25Z"/>
        <path class="cls-1" d="M728.41,779.05c-4.47-8.28-6.99-17.5-11.82-25.66-1.29-2.18-11.87-14.69-11.17-15.32,4.53-4.05,27.98,33.7,22.99,40.98Z"/>
        <path class="cls-1" d="M302.46,649.05c.45.27,7.84-2.07,10.24-1.77,6.52.81,10.41,10.53,11.19,10.67.4.07,4.84-2.08,7.99-1.92,14.24.7,14.31,17.01,15.45,17.56,2.13,1.04,5.11.07,7.84,1.23,1.03.44,8.64,4.74,9.59,5.41,10.81,7.7,3.17,16.94,3.67,17.81.14.24,4.08,1.29,4.54,2.98,4.73,9.14,12.41,9.28,11.49,21.56-.18,2.42-2.02,4.41-1.98,5.98.05,1.99,3.02,4.82,2.71,8.78-.78,9.81-9.48,10.13-10.72,11.78-.75.99,7.45,17.1-6.2,21.28-3.92,1.2-10.35-.62-10.8-.31-.93.64-1.55,9.59-9.02,11.5-7.61,1.94-11.46-3.36-13.55-3.26-1.81.08-4.93,7.6-10.73,6.58-2.19-.38-4.05-3.09-6.46-3.63-4.32-.97-7.77.59-12.69-1.31s-7.41-8.83-10.3-9.7c-5.82-1.74-12.5.61-18.64-4.36-5.46-4.42-4.18-11.39-4.64-11.86-.4-.4-7.04-.62-10.94-2.56-12.25-6.1-12.49-13.2-15.35-24.65-.42-1.7-2.16-2.85-2.66-5.35-1.67-8.3,3.73.16,4.43.58,5.81,3.48-2.98-6.4-3.28-7.75-.61-2.78,1.18-9.9.8-10.27-.72-.69-15.04-.18-16.81-8.78-1.4-6.81,13.06-15.19,13.67-17.94.64-2.91-4.39-7.64-1.78-11.64,3.25-4.99,10.33-1,10.91-1.65.62-.7-1.45-9.93,6.68-14.82,10.2-6.13,19.39,2.39,20.31,1.83,1.16-.71,5.13-16.23,13.53-15.94,6.38.22,10.73,13.45,11.53,13.93ZM296.42,650.05c-4.93-15.02-9.89-6.8-14,3l14-3ZM256.43,665.05c2.76,3.02,28.16-10.04,10.39-11.97-7.55-.82-13.54,8.51-10.39,11.97ZM318.42,660.05c-2.48-9.82-10.23-8.11-11.99,1l11.99-1ZM286.08,658.36c-8.73.28-12.02,9.09-17.92,10.94s-12.19-1.76-14.26,6.74c-1.81,7.42,2.92,7.83,3.03,12.12.2,7.45-8.17,15.64-7.59,23.42.32,4.29,5.59,5.78,5.87,9.13.15,1.85-2.48,4.76-2.81,7.84-.88,8.06,4.57,14.99,11.28,18.76,3.39,1.9,8.61,2.46,9.76,3.24,1.55,1.06,2.73,8.94,7.04,11.96,6.13,4.3,11.89,1.17,17.24,2.76,2.55.76,3.65,4.6,5.75,6.25,3.31,2.58,16.2,5.64,20.24,5.3,4.9-.41,7.99-5.62,10.28-5.81,3.86-.33,6.22,6.04,13.18,3.29,6-2.37,4.21-9.18,6.38-13.62,1.52-3.11,11.23-10.63,12.31-13.57.31-.83,2.64-16.39,2.64-17.57-.01-12.2-12.44-17.2-13.66-22.45-.6-2.59,1.85-5.16,1.57-8.44-.26-2.95-8.27-17.05-11.02-18.14s-3.5,1.26-5.56,1.56c-5,.73-7.81-6.46-11.4-9.52-11.71-10.01-18.03-1.76-28.91-7.09-4.47-2.19-7.5-7.29-13.44-7.1ZM325.43,664.04c4.79-.43,10.36,9.71,12.99,10.53,5.88,1.82-2.34-21.19-12.99-10.53ZM360.44,694.05c2.83,1.86,5.01-2.51,3.47-5.98-.56-1.27-10.86-8.57-11.49-8-.3.27,4.46,5.04,5.21,6.28,1.1,1.82,2.47,7.48,2.81,7.7ZM245.42,686.07c-2.1-3.38-12,7.71-11.97,8.49.04,1.2,5.48,3.31,6.88,2.4.5-.33,3.34-9.27,5.09-10.9ZM377.41,725.05c.64-.43,1.21-6.02.98-7.41-.72-4.34-9.52-11.42-11.97-7.57-.51.8,9.37,16.05,10.98,14.98ZM370.43,745.05c8.17-2,12.62-10.52,3.48-14.98l-3.48,14.98ZM358.43,765.05c2.36,2.03,12.69-.8,12.98-6.57.05-.97-1.71-6.25-2-6.42-.83-.48-12.25,11.9-10.98,12.99Z"/>
        <path class="cls-1" d="M72.43,513.07c-1.26,1.17,5.92,12.74,2.48,14.98-2.23-.65-3.51-7.23-3.83-9.14-.38-2.25-1.3-6.11-.69-8.17.53-1.77,7.25-2.63,8.02-.17,1.61,5.11-5.68,2.21-5.98,2.5Z"/>
        <path class="cls-1" d="M730.42,897.06c.27.28.29,3.16-.63,4.09-1.23,1.24-20.77,9.27-22.37,7.89-2.82-2.44,20.75-14.32,22.99-11.99Z"/>
        <path class="cls-1" d="M338.18,717.81c-7.07,7.12-14.73-7.9-6.72-11.26,6.8-2.86,10.4,7.55,6.72,11.26Z"/>
        <path class="cls-1" d="M273.15,693.27c9.93-2.96,8.48,11.01,1.62,11.57-6.08.49-7.64-9.78-1.62-11.57Z"/>
      </g>
    </g>
  </g>
  <path class="cls-1" d="M294.02,727.09c.93.03,1.86.11,2.78.21.54.06-.46-.08.13.02.2.03.39.06.59.09.46.08.92.16,1.37.26,1.76.37,3.48.9,5.15,1.56,1.22.48,2.8-.53,3.08-1.75.33-1.44-.44-2.56-1.75-3.08-3.61-1.43-7.47-2.19-11.35-2.32-1.31-.04-2.56,1.18-2.5,2.5.06,1.39,1.1,2.45,2.5,2.5h0Z"/>
  <path class="cls-1" d="M297.35,727.07c-.4,1.94-.79,3.87-1.19,5.81-.14.66-.1,1.33.25,1.93.3.52.9,1.01,1.49,1.15.64.15,1.36.11,1.93-.25.53-.34,1.02-.86,1.15-1.49.4-1.94.79-3.87,1.19-5.81.14-.66.1-1.33-.25-1.93-.3-.52-.9-1.01-1.49-1.15-.64-.15-1.36-.11-1.93.25-.53.34-1.02.86-1.15,1.49h0Z"/>
  <path class="cls-1" d="M297.79,732.84c-2.07.33-4.09,1.07-5.92,2.09-.54.3-.99.9-1.15,1.49s-.09,1.4.25,1.93c.75,1.16,2.2,1.58,3.42.9.5-.28,1.02-.53,1.55-.76l-.6.25c1.21-.51,2.47-.87,3.77-1.08.58-.09,1.21-.67,1.49-1.15.31-.54.45-1.33.25-1.93s-.57-1.19-1.15-1.49l-.6-.25c-.44-.12-.89-.12-1.33,0h0Z"/>
  <path class="cls-1" d="M298.85,739.35l2.72,3.06c.23.24.49.42.8.52.3.16.62.23.96.22.34.01.67-.06.96-.22.31-.1.58-.27.8-.52.44-.48.76-1.1.73-1.77l-.09-.66c-.12-.42-.33-.79-.64-1.1-.91-1.02-1.81-2.04-2.72-3.06-.23-.24-.49-.42-.8-.52-.3-.16-.62-.23-.96-.22-.34-.01-.67.06-.96.22-.31.1-.58.27-.8.52-.44.48-.76,1.1-.73,1.77l.09.66c.12.42.33.79.64,1.1h0Z"/>
  <path class="cls-1" d="M394.3,580.73c1.95,7.43,2.68,15.06,2.23,22.73-.08,1.35,1.21,2.5,2.5,2.5,1.46,0,2.37-1.15,2.5-2.5.25-2.57,3.24-3.81,5.38-4.28,1.42-.31,2.92-.44,4.36-.44,1.34,0,2.23.37,2.98,1.5.43.65,1.56,2.38,1.21,3.2s-2.41,1.35-3.22,1.65c-1.5.55-3.09,1.03-4.67,1.28-.95.15-1.84.26-2.38-.4-.86-1.04-2.65-.89-3.54,0-1.03,1.03-.86,2.49,0,3.54,2.38,2.9,6.72,1.96,9.82,1.08,3.31-.94,8.19-2.33,8.9-6.26.62-3.42-1.82-8.04-4.87-9.65-1.77-.93-3.72-1.01-5.67-.88s-3.85.34-5.67.93c-4.04,1.32-7.2,4.36-7.63,8.72h5c.48-8.09-.35-16.22-2.41-24.06-.81-3.11-5.64-1.79-4.82,1.33h0Z"/>
  <path class="cls-1" d="M430.63,597.45l-.32-.79c-.56-1.4-2.19-2.47-3.67-1.49-2.22,1.46-3.87,3.46-4.82,5.95-1.07,2.8-.65,5.97,2.47,7.09,5.03,1.79,10.29-2.24,12.1-6.69l-4.57.6c3.9,5.43,10.06,8.77,16.78,8.84,3.22.04,3.22-4.96,0-5-4.84-.06-9.62-2.41-12.46-6.37-1.32-1.84-3.74-1.45-4.57.6-.77,1.91-3.19,3.62-5.22,3.41.14.01-.6-.12-.58-.15.19-.31.4.52.44.51.02,0,.39-1.4.47-1.58.54-1.18,1.4-2.18,2.48-2.89l-3.67-1.49.32.79c.5,1.25,1.67,2.13,3.08,1.75,1.19-.33,2.25-1.81,1.75-3.08h0Z"/>
  <path class="cls-1" d="M456.55,595.64c-3.45-1.37-7.88-.89-10.39,2.05-2.37,2.78-2.79,7.03-.13,9.78,2.36,2.45,6.19,3.01,9.23,1.6,3.49-1.61,5.23-5.28,5.63-8.93l-4.27,1.77c6.73,5.22,14.39,9.02,22.68,11.02,3.13.76,4.46-4.06,1.33-4.82-7.4-1.79-14.44-5.06-20.47-9.74-1.78-1.38-4.02-.5-4.27,1.77-.32,2.97-3.52,6.31-6.11,4-.93-.83-.71-2.37.27-3.31,1.41-1.36,3.51-1.05,5.17-.39,1.25.5,2.75-.55,3.08-1.75.39-1.42-.49-2.57-1.75-3.08h0Z"/>
  <path class="cls-1" d="M371.46,159.42c-7.34,6.19-11.41,16.11-10.73,25.68.39,5.54,2.45,10.56,5.04,15.42s5.8,9.1,10.51,12.01,10.64,4.36,16.26,3.74c1.34-.15,2.5-1.04,2.5-2.5,0-1.24-1.15-2.65-2.5-2.5-4.28.47-8.59-.27-12.41-2.3-4.14-2.2-7.01-5.56-9.29-9.6s-4.41-8.36-4.99-13c-.52-4.15.02-8.37,1.41-12.3,1.53-4.33,4.23-8.15,7.74-11.11,1.03-.87.9-2.64,0-3.54-1.02-1.02-2.5-.87-3.54,0h0Z"/>
</svg>