<?xml version="1.0" encoding="UTF-8"?>
<svg id="Calque_1" data-name="Calque 1" xmlns="http://www.w3.org/2000/svg" viewBox="0 0 1194.71 973.47">
  <defs>
    <style>
      .cls-1 {
        fill: #fff;
      }
    </style>
  </defs>
  <g>
    <path class="cls-1" d="M98.94.45c81.34-7.28,139.4,74.76,105.45,149.04l25.64,31.33c1.5,1.56.83,4.82-.88,5.85-1.61.97-21.04.7-24.5.48-8.74-.57-17.54-2.66-26.04-4.62C95.84,261.79-38.18,170.99,10.29,63.79,25.6,29.91,61.7,3.79,98.94.45ZM221.14,181.15l-23.84-31.72c4-9.97,7.94-19.26,9.58-30.05C218.57,42.24,140.79-14.88,69.46,14.97-4.72,46.01-16.41,150.61,54.84,191.96c41.18,23.9,88.58,15.79,122.85-15.83,14.27,3.31,28.85,4.3,43.45,5.02Z"/>
    <path class="cls-1" d="M261.64,955.15h230c1.95,0,3.54,6.15-3.98,7.02l-224.82-.22c-2.97-.87-3.87-5.03-1.2-6.8Z"/>
    <path class="cls-1" d="M986.14,955.15c1.21.79,1.47,6.62-1.96,6.55l-221.56.47c-7.84-.9-5-7.02-4.48-7.02h228Z"/>
    <path class="cls-1" d="M688.88,936.4c28.84-4.9,30.09,40.82-.15,36.66-19.15-2.63-19.85-33.26.15-36.66ZM691.78,942.47c-14.94.91-15.12,24.7.86,24.7,15.96,0,15.06-25.67-.86-24.7Z"/>
    <path class="cls-1" d="M621.88,936.4c26.2-4.55,29.53,32.92,8.52,36.52-27.58,4.72-30.8-32.65-8.52-36.52ZM624.91,942.34c-17.94,2.05-12.01,31.64,6.24,23.32,12.72-5.8,6.12-24.73-6.24-23.32Z"/>
    <path class="cls-1" d="M553.88,936.4c24.69-4.2,29.81,32.19,8.54,36.53-26.88,5.49-31.49-32.63-8.54-36.53ZM555.91,942.34c-13.18,1.48-14.73,21.73-.81,24.39,18.74,3.59,18.56-26.39.81-24.39Z"/>
    <path class="cls-1" d="M112.97,604.38c1.74-.09,2.91-.53,4.26,1.19,4.32,5.5-3.86,6.04-7.72,6.46-20.2,2.21-40.73,2.32-60.88,5.22-10.01-4.5-3.18-7.15,4.13-7.96,19.25-2.13,40.87-3.94,60.2-4.9Z"/>
    <path class="cls-1" d="M1193.92,611.91c-3.49,3.23-21.07.29-26.23.2-11.46-.2-27.4,1.5-38.09.09-2.68-.36-4.77-1.43-4.5-4.49.59-6.54,15.12-2.61,19.5-2.51,15.99.36,31.92-.4,47.87,1.12,2.07.7,3.04,4.12,1.44,5.6Z"/>
    <path class="cls-1" d="M131.83,647.32c2.71-.25,4.7,4.47,2.32,6.35l-55.76,30.31c-2.87,1-6.4-1.83-4.79-4.83l58.23-31.83Z"/>
    <path class="cls-1" d="M73.64,537.56l55.44,23.16c3.22,1.9,2.66,5.73-.57,7.28-19.27-8.08-39.2-15.73-57.89-24.83-1.47-2.83-.01-5.15,3.03-5.61Z"/>
    <path class="cls-1" d="M1166.89,538.32c3.64-.73,6.39,2.74,4.35,5.38l-54.1,26.06c-3.87.95-6.98-5.27-2.29-7.4l52.03-24.04Z"/>
    <path class="cls-1" d="M1115.4,646.41c.64-.63,1.62-.85,2.46-1.1,18.15,7.95,35.55,18.45,53.62,27,4.42,2.65,3.76,8.13-2.37,6.39-8.59-2.45-43.29-20.88-51.66-26.35-2.28-1.49-4.8-3.25-2.05-5.93Z"/>
    <g>
      <path class="cls-1" d="M994.14,488.15c-7.56-14.16-19.83-25.6-28.83-38.67-1.61-2.33-10.25-17.4-10.15-18.84.02-.25,1.57-1.75,1.96-1.49l13.51,18.01c17.79,21.51,54.53,18.24,71.34-2.68.91-1.13,5.98-8.51,5.17-9.32s-5.36,3.1-6.76,3.73c-8.64,3.88-25.87,5.78-33.26-1.21-6.32-5.98,3.14-1.84,6.53-1.54,12.26,1.1,26.78-.87,34.48-11.49,2.38-3.28,5.36-16.23,8.49-15.49,5.18,1.22.39,18.63-.77,22.21-7.17,22.12-29.9,37.57-53.24,36.83-5.43-.17-11.09-2.82-16.47-2.55,13.64,20.09,31.8,36.37,45.81,56.19,25.42,35.96,43.18,85.32,23.36,127.99-2.64,5.69-10.41,18.36-15.8,21.2-12.51,6.58.69-9.98,1.84-13.16,8.32-23.04-7.25-65.48-24.2-82.71,1.18,5.27,2.78,10.45,3.7,15.79,6.44,37.35,4.14,69.75-20.73,99.68-1.99,2.4-7.07,5.83-8.02,7.24-1.5,2.23-2.51,7.64-4.13,10.61-2.08,3.81-13.36,19.21-13.68,20.39-1.83,6.9,11.4,8.73,12.41,10.23,1.37,2.03.56,4.71-2.08,5.1-7.24,1.08-19.55-9.97-21.99-9.77-1.51.12-11.51,12.85-14.48,10.72-4.22-3.05,7.41-10.93,8.92-13.63l-7.92-11.36c-.8,4.59-2.4,9.15-3.99,13.51-1.3,3.55-4.05,8.02-5,11-1.14,3.58,7.09-4.22,3.46,3.46-1.37,2.9-16.29,14.57-14.73,4.33,8.5-15.14,17.96-32.59,17.26-50.31,2.83-.51,1.64.67,2.25,2.19,1.8,4.51,5.9,19.1,9.95,21.67.52.33,1.91-.69,2.82-.32,1.94.78,5.81,8.02,6.04-1.08.36-14.28,4.7-26.92,5.93-40.98.23-2.58-.48-14.89.02-15.48,1.02-1.22,2.61,1.3,3.08,2.41,5.25,12.35-2.36,35.58-4.86,48.32-.2,1.03-1.03,3.5.76,3.25,2.43-5.74,8.32-11.31,10.53-17.02,1.33-3.42.04-5.95.96-7.93,1.09-2.36,5.73-4.65,7.52-6.55,24.31-25.87,29.6-56.17,24.87-90.86-3.06-22.43-12.21-43.06-20.86-63.63l28.4,36.09c10.02,13.64,25.59,42.51,25.59,59.41v15.5l4.26-10.24c16.22-60.72-20.81-107.77-59.26-148.76,3.59,6.72,6.04,13.98,6.92,21.6.23,1.96-1.24,2.08-1.91,1.4-.26-.27-1.59-5.42-2.47-7.04-2.67-4.91-6.4-10.79-9.71-15.29-9.91-13.45-24.04-24.02-30.82-39.67,13.75,11.93,25.69,25.89,37.99,39Z"/>
      <path class="cls-1" d="M598.15,771.15c.27.31,6.51-3.05,4.56,3.05-2.21,1.05-10.4,24.54-13.56,20.95-2.74-3.11,4.77-15.17,4.87-18.46.06-2.14-1.64-5.34-1.87-8.05-2.86-34.63-2.91-73.31-1-107.98.12-2.1,2.45-11.14,1.99-11.5-.72-.56-13.72,5.57-17.15,6.34-4.34.97-9.38,1.46-13.85,1.64.35-1.99,2.16-1.6,3.47-2.02,6.75-2.18,25-8.12,28-15,.76-1.74,2.62-14.94,5.03-14.95.6,0,2.39,2.38,2.5,3.5.35,3.49-2.6,15.16-2.99,19.99-3.35,40.82-1.8,81.64,0,122.49Z"/>
      <path class="cls-1" d="M967.15,673.15c4.55-12.84,9.09-23.8,10.98-37.51.42-3.04-1.41-7.89,2-9.49-.18,16.23-1.06,34.67-12.98,47Z"/>
      <path class="cls-1" d="M832.14,496.16l-12.79,3.69-16.2,1.29c-.45-2.54.39-1.8,2-2.45,7.53-3.01,19.18-4.68,26.99-2.54Z"/>
      <path class="cls-1" d="M903.13,473.16l16.01,37c-1.5-.23-1.86-1.89-2.51-2.98-2.81-4.74-15.38-29.64-15.49-33.51-.03-.93,1.18-.46,2-.51Z"/>
      <path class="cls-1" d="M937.13,443.15c-1.5-.23-1.86-1.89-2.51-2.98-6.15-10.37-11.62-23.29-14.47-35.02,1.76.27,1.72,2.02,2.26,3.23,5.07,11.48,9.58,23.31,14.72,34.77Z"/>
      <path class="cls-1" d="M1010.13,539.15c-1.4.24-1.36-1.68-1.74-2.73-2.92-7.98-4.88-16.42-8.24-24.26,6.71,7.01,8.49,17.71,9.98,26.99Z"/>
      <path class="cls-1" d="M680.15,480.15l13.98-36c-.57,6.49-3,13.14-5.24,19.25-2,5.45-4.25,13.16-8.74,16.75Z"/>
      <path class="cls-1" d="M889.39,642.93c.23.41,1.88.83,2.6,1.84,7.2,10.07,20.58,34.61,18.13,46.87-.77,3.85-4.5,5.19-7.91,2.97-7.44-4.86-17.86-29.11-22.89-38.12-3.96-7.08-19.09-24.76-12.22-31.88,4.04-4.18,17.26,6.45,20.06,10.03,2.79,3.56,1.18,6.41,2.22,8.29ZM905.14,689.14c.62-.62-3.83-14.91-4.54-16.95-4.41-12.71-12.54-24.89-20.06-35.94-1.83-.44-9.09-9.42-10.39-8.1-.56.57,6.52,12.4,7.39,14.11.51,1,.52,2.78.62,2.88.31.33,4.17-5.2,7.22,1.27,2.17,4.6.44,3.32-3.23,4.23l9.01,17.5c1.95.33.51-2.49,1.01-2.99,2.83-2.82,6.98,4.38,7.07,7.53s-2.4,4.85-1.96,6.71c.18.77,6.53,11.1,7.87,9.74Z"/>
      <path class="cls-1" d="M768.14,780.16c.22,2.62.13,1.66-1.5,1.96-15.47,2.88-32.77-2.18-44.97-11.99-1.4-1.13-10.09-9.41-8.52-10.97,1.45-1.45,14.1,8.89,16.3,10.19,11.65,6.86,25.12,10.56,38.69,10.81Z"/>
      <path class="cls-1" d="M852.14,615.15c-.67.65-13.18-2.71-15.6-2.9-1.74-.14-7.85,2.38-8.18-1.58-.56-6.77,18.99-7.65,23.03.74.42.87,1.22,3.29.75,3.74Z"/>
      <path class="cls-1" d="M812.15,766.14l28.98-31.99c-3.06,13.59-15.24,28.42-28.98,31.99Z"/>
      <path class="cls-1" d="M848.15,740.15l9.47-20.02,2.51-2.98c2.54,8.5-6.27,17.41-11.98,23Z"/>
      <g>
        <path class="cls-1" d="M315.14,774.16c1.72,1.64-.4,1.69-1.46,2.02-16.73,5.17-57.31-10.5-63.77-28.3-3.89-10.73,4.3-.3,6.21.64,12.54,6.16,22.99,16.24,37.24,20.91,3.67,1.2,20.98,3.96,21.78,4.73Z"/>
        <path class="cls-1" d="M357.15,771.15c-1.78-1.63,1.36-2.13,1.96-2.49,13.82-8.11,26.91-14.21,36.02-28.51-2.35,12.03-11.95,20.85-22.63,25.86-1.97.92-14.75,5.69-15.35,5.14Z"/>
      </g>
      <path class="cls-1" d="M578.15,562.15c-1.03-.79,2.36-3.68,2.76-3.95,3.12-2.05,6.8-3.1,10.15-5.64,1.92-1.46,12.78-13.42,14.07-12.41.14.11.92,3.08.9,3.52-.33,6.54-22.86,22.32-27.89,18.47Z"/>
      <path class="cls-1" d="M559.13,582.15c1.77,1.82-7.31,7.79-9.16,8.32-7.59,2.19-21.38-2.31-28.15-6.5-2.14-1.32-10.74-8.2-10.65-10.33.2-5.08,8.68,4.85,9.5,5.48,4.8,3.73,15.29,9.28,21.27,9.82,5.47.49,16.55-7.46,17.2-6.79Z"/>
      <path class="cls-1" d="M921.14,366.16c.18,1.82-3.33,1.02-4.38.88-5.49-.73-11.55-2.3-16.6-4.39,6.05-3.52,14.75,2.25,20.99,3.51Z"/>
      <g>
        <path class="cls-1" d="M615.19,795.65c-.45.29-6.48,7.88-6.62,8.45-.45,1.77.79,3.55.51,5.39-.25,1.7-1.58,11.19-1.94,11.66-1.46,1.92-1.72-.42-2.02-1.47-1.38-4.68-4.27-21.55-9.61-22.45-1.12-.19-3.09,1.65-3.25,2.56-.38,2.2,5.15,6.17,5.69,8.06,1.26,4.32,1.03,18.33,6.9,20.13,9.02,2.76,8.04-16.06,9.55-21.08,1.44-4.78,6.28-4.67,3.75-11.75-.64.23-1.76-.27-2.96.5Z"/>
        <path class="cls-1" d="M980.17,416.62c-24.81-29.95-24.37-85.68-31.51-123.49-6.03-31.93-15.88-66.06-31.35-94.65-2.12-3.92-8.8-12.21-9.72-15.28-1.8-6.04-.89-18.68-2.77-27.23-14.81-67.21-79.03-113.04-147.17-108.8-3.68.23-13.16,2.99-15.64,2.46-2.03-.43-13.4-8.29-16.85-10C645.3.17,544.13,4.6,470.81,56.32c-1.55,1.09-4.24,4.42-5.3,4.63-1.19.23-12.58-4.53-15.37-5.3-69.22-19.01-128,21.49-161.17,79.83-23.12,40.66-28.69,107.77,7.64,142.7,2.05,1.97,12.54,8.74,12.59,9.53.12,1.72-12.39,20.25-11.61,25.4-5.35,4.66-44.38,30.78-45.3,33.74-.36,1.16-.36,2.45,0,3.61.57,1.87,14.18,10.3,16.92,12.11,4.91,3.25,31.07,17.91,32.66,19.84,4.8,5.86,5.46,11.46,13.34,18.15,1.23,1.04,4.68,2.46,4.84,2.69.9,1.29-6.51,26.74-7.9,30.42-2.9,7.63-11.52,20.1-12.79,26.2-1,4.79,1.09,8.15.76,11.68-.23,2.48-2.65,5.13-3.46,7.62-1.05,3.25-2.94,16.19-.44,17.87,5.29,3.55,4.87-6.26,5.59-8.72,1.72-5.84,11.24-16.68,4.86-21.29-2.21-1.6-6.12,2.98-4.32-4.18.71-2.81,4.84-6.34,6.59-9.41,5.84-10.31,9.79-20.65,12.91-32.09.63-2.33,2.71-14.71,3.29-15.22,1.12-.98,15.94,6.7,16.02,7.59.76,8.53-17.32,27.45-14.02,38.41l3.81-8.68c2.67-5.55,9.45-12.06,11.42-17.58.68-1.92,1.41-9.4,1.77-9.74.84-.76,19.41,9.51,20.07,10.42,3.74,5.18-4.34,32.43-8.58,38.57-2.91-9.52,4.7-23.35-9.82-14.82-1.8,1.06-9.05,6.84-9.67,8.34-.79,1.91,1.06,1.61,2.28,1.28,2.41-.65,10.49-5.83,11.7-4.8.28.24,1.27,6.33.91,7.36-.48,1.41-7.19,3.53-9.23,4.82-13.32,8.42-27.05,28.93-29.45,44.56-.44,2.84.62,5.8.27,7.39-.65,2.94-8.02,8.85-6.5,13.86-1.56-.15-1.51-1.52-1.92-2.57-4.86-12.3-9.3-32.57-23.27-37.72-10.93-4.03-21.02,2.59-24.27,13.32-4,13.2,1.29,30.9,4.97,43.97,1.51,5.36,11.15,30.49,10.56,33.31-.18.84-10.53,8.2-13.03,11.22-4.04,4.88-5.43,10.63-8.48,14.52-3.12,4-11.03,8.67-15.07,12.93-24.77,26.18-44.75,84.84-37.21,120.24,18.62,87.37,131.29,111.56,201.39,70.95,1.64-.95,9.92-7.66,10.32-7.17.82,1.01-9.52,19.61-6.51,24.03,1.43,2.11,4.13.84,4.75-1.3,3.37-9.71,6.27-21.97,11.04-30.96,3.28-6.19,8.22-11.4,11.6-18.4,9.9-20.54,13.13-42.2,12.18-64.9-.13-3.19-2.31-9.45-1.84-11.73.37-1.82,7.7-11.47,9.32-14.71l4.47-11.02c-1.44,21.38-3.05,43.05-2.03,64.54.48,10.16,4.21,24.89,3.91,34.01-.15,4.44-7.36,12.98-6.86,17.86.43,4.23,5.5,6.84,6.3,8.82,1.66,4.1,6.61,34.09,15.16,23.73,4.83-5.85,3.41-13.17,4.74-19.25.86-3.9,6.48-8.89,6.86-14.22.53-7.38-5.37-11.58-6.11-16.94-2.5-18.09.45-41.51-.99-60.09,1.69-15.87,1.3-31.97,3.17-47.83.72-6.12,8.64-50.86,10.89-52.62.35-.27,6.33,4.08,6.79,5.7.59,2.09-.07,4.52.32,6.68,4.06,22.54,17.2,49.63,36.37,62.63-1.14-3.28-4.78-5.33-6.91-8.09-8-10.42-16.59-28.88-20.57-41.44-.16-.51-.27-1.63.48-1.48,4.84,4.9,11.16,11.68,18.5,11.5-6.15-3.93-11.31-8.48-15.4-14.6-1.37-2.05-7.67-13.52-6.58-14.91.14-.18,2.67,1.16,4.48,1.1,2.61-.09,5.3-1.65,7.78-.94.97.28,9.7,8.27,13.04,10.03,6.04,3.17,10.65,2.99,15.92,4.84,1.57.55,2.67,6.04,6.69,2.42,5.14-4.64,6.03-3.09,12.43-5.6,4.27-1.68,11.66-8.27,13.37-8.72,1.8-.47,6.84,2.68,9.87,2.77,3.5.1,13.01-2.91,15.38-5.43,1.1-1.17,1.14-3.44,1.99-4.07,1.09-.8,3.41.31,5.1.19,1.17-.08,2.88-1.54,3.46-1.49.81.07,3.35,6.14,3.25,7.23-.13,1.45-2.05,3.46-2.5,5.44-8.52,37.14-6.61,97.73-5.32,136.76.08,2.36,1.27,4.85,1.05,6.95-.09.86-3-1.25-3,1.96,0,.96,6.98,14.05,8.12,15.91,1.54,2.5,2.67,1.31,3.86,4.64.39-.14,1.27.3,1.82-.14,4.14-3.28-5.38-15.58-5.88-20.3-3.34-31.16,2.67-68.3.02-100.11l3.19-35.8c1.51-.98,2.76-3.05,3.77-3.99,2.3-2.17,2.04.82,3.52,2.36,3.7,3.85,16.38,16.68,21.14,16.99,3.79.25,4.42-2.32,1.94-5.03-6.26-6.84-24.25-14.82-23.44-26.34.35-4.95,2.62-10.94,7.43-12.64,1.91,11.85,5.95,23.2,13.08,32.91,1.51,2.05,10.05,10.62,10.26,11.73.93,4.95-16.41,31.45-21.84,35.35,2.16-.1,4.42-2.13,6.01-3.48,6.19-5.25,14.13-17.25,17.21-24.79.65-1.58.62-4.54.78-4.72.56-.63,8.07,5.13,9.6,5.89,1.41.7,4.23.96,4.4,1.11.24.22-2.09,4.43-2.5,5.99-3.54,13.45-5.81,35.33-.29,48.29,1.33,3.13,4.31,5.09,4.76,8.29.71,5.01-1.39,15.38-1.01,21.96,1.8,31.58,17.98,44.68,27.81,71.19,1.12,3.03,4.29,16.75,5.77,17.23,7.49,2.44.82-16.82-.23-19.77-.51-1.44-1.09-2.7-2.3-3.71-.16-.74,1.04-.68,1.48-.49,1.11.5,7.74,7.08,10.2,8.81,41.29,29.06,97.83,31.16,140.23,3.6,7.78-5.06,14.86-7.05,23-12,47.71-29.03,57.17-88.85,43.8-139.63-1.08-4.09-8.8-23.83-8.56-25.14.11-.59,6.24-7.12,7.64-9.34,7.39-11.74,12.53-26.7,15.21-40.3,11.54,15.07,19.52,32.79,15.52,52.03-3.57,17.19-13.44,24.77-19.26,38.73-5.07,12.17,9.5,6.3,15.02,3.03,5.54-3.28,13.9-11.83,16.23-17.77.33-.83,1.12-2.7-.03-3.03-1.34,4.07-22.25,21.15-24.5,18.99-.67-.64,9.04-13.84,9.52-15.97,25.03-44.16,2.87-93.65-14.54-136.02-1.56-.01-2.26-.6-1.83,1.33,2.54,11.44,7.31,23.56,9.86,35.16-1.46.63-2.29-2.12-4.49-1.49-1.87.53-.6,4.13-2.51,3.99-1.14-10.57-7.77-18.26-12.53-26.98-1.86-3.42-2.73-7.5-4.44-10.56-4.18-7.52-1.99.8-1.94,3.03.04,1.68-1.08,3.66-.86,4.89.17.96,5.95,7.6,7.18,9.7,13.96,23.89,9.97,41.9-.56,66.28l-10.85,20.64c-1.9-7.08-5.01-13.93-7.84-20.67-1.35-3.23-5.1-8.57-5.76-11.33-.42-1.74.98-7.03-.42-8.01-.63-.44-3.16,1.45-3.88.95-.88-.61-9.26-15.42-11.3-18.26-6.62-9.23-14.04-17.1-21.21-25.79-2.66-3.23-5.32-8.93-7.67-11.33-.45-.46-7.01-5.4-7.44-5.56-2.57-.95-.91,3.54-1.98,2.99-.86-.44-2.33-3.43-4.16-4.84-2.6-2.01-6.02-4-9.34-4.16-.54-1.39,4.04-.89,1.99-2.98-.27-.28-6.67-1.89-7.59-1.92-6.83-.24-17.75,4.85-22.4,9.91,1.9-13.66,6.85-38.61-7.06-47.45-17.91-11.39-31.99,20.5-34.87,33.86-.24,1.01-2.97.7-3.08.59-.85-.83,2.78-20,2.98-23.5.23-4.03-.79-26.36.11-27.39.22-.26,4.95-1.19,6.58-1.92,1.52-.69,9.01-5.61,9.31-5.17,2.25,3.28-2.8,15.78-.5,19.99,7.65-5.89,2.84-13.53,3.56-20.38.47-4.46,5.18-10.73,4.91-15.05-.07-1.16-1.63-4.55-2.47-4.55-1.75,0-4.41,12.91-6.47,15.51-2.93,3.69-10.57,5.5-15.02,6.48l-5-47,8.52,8.97c1.39,2.51,12.82,7.61,13.25,8.26.77,1.16-.06,4.66,2.74,5.76,2.75,1.09,1.24-4.02,2-4,3.92.1,10.93,2.95,15.96,3.07,17.29.41,27.94-6.81,45.47,3.51,4.34,2.56,5.22,2.99,9.78,5.22,14.3,7,29,21.14,26.22,38.66-.26,1.66-4.58,10.54-5.44,10.54-.25,0-2.41-2.49-3.8-3.18-3.43-1.71-7.92-3.02-11.7-3.79,3.18,5.73,14.44,6.91,18.56,9.93,6.55,4.8,4.61,20.48.66,26.77-1.51,2.4-6.75,4.89-5.19,7.24.28.42,8.09,2.88,9.29,4.22,2.04.75,15.68,13.93,16.67,12.82,3.77-4.2-15.64-18.2-15.75-19.48-.07-.82,4.3-10.13,4.67-13.1.46-3.74-.75-6.85-.42-10.41,17.12,16.12,32.69,47.82,20.69,70.68-1.38,2.64-9.15,11.07-9.16,11.82-.07,3.43,6.63-.87,7.48-1.5,11.04-8.29,12.63-25.7,11.49-38.48-.56-6.27-5.61-22.67-9.33-27.16-6.21-7.49-12.83-16.73-20.18-23.32-1.43-1.28-6.24-3.74-6.47-4.05-.28-.38,3.37-6.37,3.76-8.72,1.44-8.56-.2-15.65-4.57-22.96-1.25-2.09-4.69-4.67-5.05-6.03-.55-2.07,1.17-18.1.9-22.82-.2-3.39-1.21-18.25-4.05-10.97l-1,28.51c-2.68-3.91-11.3-6.76-13.73-9.26-1.05-1.08-.76-2.91-2.9-4.61-4.89-3.9-12.01-.04-16.36-5.64,15.05-6.26,35.5-12.96,44.82-27.18,2.88-4.4,4.12-9.75,6.77-14.23,14.65-7.92,30.63-13.66,45.08-21.92,5.32-3.04,16.31-7.26,10.01-14.86l-46.46-35.52c-.26-7.05.18-12.71-1.94-19.57-1.57-5.09-5.1-8.94-6.78-13.22-1.47-3.76-1.98-8.71-3.24-12.76-.83-2.68-5.02-11.87-5.11-12.92-.07-.85,8.04-11.93,9.37-14.3,10.85-19.33,16.18-41.88,16.49-64.01,1.53.56,2.69,3.51,3.51,4.98,16.09,29.11,26.07,66.17,32.17,98.83,6.37,34.07,11.01,69.42,15.44,103.56.98,7.54,3.27,15.51,5.89,22.61,1.76.24.99-2.27.87-3.37-.78-7.11-3.68-14.34-3.39-21.62,7.82,13.26,16.63,26.86,30.49,34.51,2.37,1.31,6.24,3.58,9.01,2.99-6.45-7.18-14.79-12.58-20.97-20.03ZM939.15,580.15c12.07,9.46,12.18,27.99,14.98,41.99l-8.19-17.3c-.75-2.8-8.24-9.68-8.56-11.31-.56-2.84,2.79-9.76,1.77-13.39ZM493.12,49.63c67.34-36.18,146.47-39.03,216.99-9.95,1.94.8,24.52,10.52,23.03,12.46l-23.53,7.94c-7.98-4.23-16.42-7.97-24.95-10.95-48.15-16.79-102.7-18.31-151.28-2.25-16.36,5.41-34.36,13.38-46.94,25.16l-16.29-7.91,22.97-14.51ZM703.14,63.16l-23.5,13.96c-8.3-4.43-17.38-7.22-26.48-9.48-40.09-9.96-93.62-8.45-132.26,6.76-3.52,1.39-18.2,9.55-19.27,9.46-.66-.06-10.24-7.6-10.48-8.22-.5-1.27,4.11-3.88,5.27-4.71,31.1-22.42,88.59-32.03,126.21-28.76,27.64,2.4,55.13,10.21,80.5,21ZM508.12,98.68c.75.9,4.75,5.79,4.02,6.47-29.9,5.28-56.82,21.52-79.51,40.99-2.17.3-1.22-.22-1.45-1.5-1.54-8.59-4.03-14.98-8.61-22.41-1.45-2.35-11.57-16.63-14.42-14.07-.66.59,8.83,13.01,9.8,14.69,3.31,5.74,10.84,22.51,8.99,28.6-1.15,3.79-8.81,7.39-11.23,9.78-2.12,2.08-6.81,10.9-9.07,11.93-3.14-8.04-9.74-13.48-15.38-19.63,7.98-16.91,9.51-37.37.89-54.35l11.99,4.99c.29-6.5-12.07-7.06-10.83-13.25,2.54-12.65,25.44-31.83,38.31-32.21,22.71-.68,62.15,22.67,76.49,40ZM354.65,202.16c-4.52,3.59-6.48,7.97-7.4,13.6-.46,2.82,1.3,10.15-4.07,7.93-.9-.37-3.22-3.17-3.88-4.2-9.91-15.41,5.1-32.86,21.84-30.34-1.08,5.8-.33,12.72-1.24,18.26-.23,1.43-4.16,10.2-4.78,10.73-2.87,2.45-2.12-7.61-1.9-9.41.29-2.35,2.37-4.54,1.42-6.58ZM361.95,218.46c2.31-4.09,4.78-16.45,5.37-17.13,2.44-2.8,17.53-1.3,17.79,2.31.06.84-7.3,12.22-8.49,14.49-6.86,13.16-13.95,26.87-18.49,41.02-1.71,1.52-9.28-8.37-10.16-10.33-7.93-17.49,7.23-18.42,13.98-30.37ZM340.61,162.1c-4.55-.14-10.11,5.28-3.86-2.85,11.3-14.72,35.49-14.46,48.4-2.11-9.37,2.22-18.79,11.64-21.01,21.01-5.24-6.88-14.22-15.76-23.53-16.05ZM372.69,195.21c-1.34.2-4.79,2.51-5.54,1.94-.22-.17.72-1.36.62-2.27-.28-2.61-2.48-13.6-2.12-14.67.71-2.08,9.85-12.45,12-14.05,1.88-1.4,10.88-6.35,12.47-5.55,2.36,1.18,13.15,15.83,12.55,17.54l-15.01,20.97c-4.35-3.54-9.38-4.72-14.97-3.9ZM340.67,84.18c22.53-17.73,50.74-27.1,79.47-27.02-4.12,3.66-9.03,5.4-13.47,9.02-5.41,4.41-11.11,11.63-14.03,17.97-.91,1.98-2.16,8.69-2.51,9-.56.5-11.12-3.67-14.51-3.99-11.04-1.02-22.89.75-33.16,4.8-3.15,1.24-20.43,11.98-21.32,11.17-2.08-1.88,17.54-19.4,19.53-20.96ZM324.66,109.17c15.1-11.69,31.73-16.79,50.96-15,1.9.18,12.56,2.47,13.3,3.2,3.16,3.15,4.67,28.09,4.25,33.32-.2,2.55-4.08,18.74-5.05,19.46-.59.44-11.04-5.22-13.55-5.94-18.5-5.35-33.9.95-45.32,15.6-1.45,1.86-.25,4.89-4.12,2.85-7.14-3.77-13.07-17.34-13.89-25.1-1.51-14.23,2.91-20.25,13.41-28.38ZM278.15,198.16l8.44,12.04c5.78,5.66,17.8,11.32,26,10.99,1.78-.07,12.82-3.26,13.55-4.05,3.36-3.66-5.83-.15-6.58-.07-21.02,2.38-40.69-13.33-39.32-35.27,1.22-19.6,14.01-44.67,26.41-59.64,1.63.74-.5,2.33-.5,2.49,0,4.83-.61,11.5,0,16,.86,6.35,6.83,17.02,11.45,21.55,1.47,1.44,6.88,4.57,7.27,5.23.66,1.11.03,3.33,1.22,4.28,2.97,2.36,6.22-4.84,9.75-5.36,6.27-.94,17.14,6.9,20.73,11.88.54.74,3.88,6.7,3.56,6.93-.21.15-3.66.14-5.05.46-11.92,2.76-24,10.25-24.02,24.05,0,3.9,4.61,16.77,4.08,17.49-.49.66-12.04,4.15-15.33,6.19-15.16,9.42-20.21,28.38-13.69,44.82-23.48-18.92-31.79-50.79-27.98-79.99ZM317.6,241.11c3.11-3.03,14.1-9.8,18.23-9.7.44.01,4.96,1.69,5.14,1.9.68.77-.11,8.04.23,10.28.98,6.56,5.81,12.21,10.41,16.59.99.94,4.34,2.85,4.39,3.45.07.77-4.83,11.93-5.57,14.31-1.73,5.55-3.5,11.44-4.29,17.22-8.09-1.22-28.96-6.33-33.41-13.09-7.31-11.11-4.7-31.61,4.87-40.95ZM296.66,372.14c-3.99-3.32-36.51-21.32-36.5-23.49.01-2.1,30.38-21.03,33.49-25.49,3.18-.39.49,2.07.49,2.49,0,9.7-.9,21.64,0,31,.37,3.82,2.28,9.8,3.21,13.79.29,1.25,1.97,1.9-.69,1.69ZM333.13,402.15c-.46.48-10.8-4.28-12.31-5.18-20.35-12.18-22.71-51.97-19.41-73.05,1.8-11.47,5.96-22.88,13.37-31.85l14.36,5.1c.44.56-6.11,9.82-7.18,12.31-10.81,25.18-8.32,54.55,3.47,78.89.92,1.9,8.33,13.12,7.7,13.79ZM347.64,409.15c-20.18-16.64-29.18-53.17-25.23-78.23.93-5.91,7.53-28.86,12.67-31.27,1.43-.67,6.79,2.19,9.06,1.51-16.13,37.16-7.47,74.17,7,109.98-1.88.43-2.37-1.06-3.5-1.99ZM368.47,444.98c2.63-11.14,3.76-22.44,4.69-33.82,3.71,3.43,6.63,7.77,9.96,11.53,1.76,1.99,6.75,5.42,7.47,6.53,1.56,2.41,2.47,11.03,3.51,14.49.4,1.34.08,3.11,2.03,3.46l1.02-13c7.19,3.51,16.54,7.58,24.61,7.91,1.29.05,4.14-1.18,4.37-.91.27.31.68,6.12,1.3,8.21,1.02,3.43,2.37,6.51,3.71,9.78l-7,2-1.02-7.46c-6.11-.73-2.87,9.29-3.26,11.82-.19,1.26-2.95,3.99-3.75,6.11-4.08,10.79-4.37,23.37,3.49,32.56,1.04,1.22,4.35,2.69,4.54,3.49.25,1.01-7.27,8.84-5.01,12.47-19.88-22.27-20.39-54.71-18-83-3.55,3.9-4.58,13.21-4.98,18.51-2.41,32.48,10.21,71.44,40.09,87.88,1.35.74,4.73,1.41,4.9,1.62.26.32-4.27,6.22-5.42,5.95l-11.08-8.95c-.75-.16-.65.97-.48,1.48.97,2.99,7.91,12.6,10.17,15.83,6.96,9.97,15.54,18.58,22.31,28.68-.98,3.35-2.08,6.36-1.5,10l-6.58-11.91-14.4-16.09c2.44,7.22-2.16,30.42-7.48,35.03-2.93,2.54-3.04-1.28-5.12-3.94-15.01-19.17-32.53-35.46-39.42-60.08-1.8.5-1.16,6.16-.93,7.43.53,2.86,2.67,5.8,3.17,8.83,0,3.87,14.74,24.65,13.76,25.73-1.1,1.21-10.58-9.74-11.43-11.06-1.77-2.77-2.24-5.74-3.74-8.26-4.52-7.58-10.19-13.11-9.8-22.17.66-15.62,8.11-47.02-10.77-55.25-1.98-.86-6.02-1.04-6.25-1.26-1.48-1.49,11.03-34.67,12.33-40.17ZM448.31,400.82c.49-1.43,4.19-2.84,5.69-5.31.77-1.26,7.83-17.99,7.92-19.02.11-1.22-1.37-4.16-2.31-4.35-1.31-.26-3.51,3.65-4.36.39-.89-3.39.97-8.81,3.4-11.38,7.14,16.86,15.85,33.88,30.02,45.97,2.91,2.48,10.85,6.65,12.45,8.55,1.36,1.61.8,3.68,2.46,5.54,4.4,4.95,4.23-1.69,4.57-2.07.46-.5,10.35,4.1,12.78,4.72,5.58,1.42,20.14,5.98,17.72-3.72,10.57,5.33,32.43,10.91,42.86,3.88,2.46-1.66,2.73-4.87,3.15-4.89,1.68-.06,12.49,5.14,17.26,5.74,3.95.5,15.95,2.31,14.12-4.06-.38-1.33-3.27-2.26-4.45-3.62-3.25-3.75-6.06-8.04-8.87-12.13l-5.09-12.91c12.38,18.89,30.25,32.77,51.48,40.47-3.86,10.68-8.27,23.28-16.48,31.52-5.48,5.49-23.23,12.59-2.49,12.02-1.49,1.72-5.31,6.71-7.02,7.47-2.47,1.11-6.03.25-9.06.94-3.42.78-11.42,6.41-13.97,9.03-1.3,1.33-5.91,8.45-6.44,8.5-.44.04-5.79-3.42-7.84-4.13-18.35-6.32-39.33,2.87-50.17,18.17-5.66-9.89-18.37-19.54-30.05-20.03-2.79-.12-11.02,2.44-11.44,2.04-.35-.33-1.85-6.48-3.57-8.94-3.27-4.67-10.19-9.49-15.93-10.06-2.92-.29-9.95,1.22-10.37.92-.4-.29-3.78-6.78-5.15-8.4-4.13-4.87-9.07-8.55-15-11-2.16-.9-7.87-1.55-8.53-2.47-.47-.65-4.03-14.52-3.96-15.56.06-.94,1.65-1.78,1.38-3.74-.33-2.46-4.05-6.58-4.65-9.48-1.86-9.02,6.12-15.54,8.8-23.27,2.59-.46,1.54.35,2.08,1.41,1.29,2.56,2.3,10.51,6.91,8.13,3.95-2.04.89-11.18,2.16-14.88ZM396.67,622.12c-2.9-10.83-17.69-25.37-28.36-29.12l1.84-16.84c1.57-1.14,17.23,13.17,19.75,13.79,3.94.97,5.16-1.6,7.81-1.79,5.57-.41,16.69,10.95,19.27,15.65.75,1.37,3.86,9.48,3.68,10.42-1.33,7.2-12.44,15.58-15.54,21.92h-1.46c-1.07-2.15-6.38-4.55-7.01-5.93-.34-.73.83-5.05.02-8.1ZM371.15,562.15c1.6.7,13.73,14.33,12.99,14.99-.88.78-10.65-6.74-12.79-7.19l-.2-7.8ZM353.14,468.16l-2.1,16.89c-8.51,1.47-13.05,6.74-16.1,14.39-.73,1.83-1.07,6.86-1.99,7.52-.72.52-5.3.87-7.5,1.99-2.88,1.48-4.04,4.89-7.3,5.19,5.44-18.9,14.8-39.56,34.99-45.99ZM308.3,543.85c.24-1.01,4.46-5.17,5.55-5.49,3.59-1.07,12.63,1.99,8.36-3.77-3.17-4.28-8.73-1.07-9.06-1.44-4.49-5.06,16.86-23.03,18.99-20.99.42.4-1.78,9.46-1.99,11.5-2.03,19.9-2.45,42.58-6.04,61.97-.3,1.63.68,1.74-1.95,1.52-1.04-8.06-15.29-37.26-13.85-43.31ZM262.37,508.88c2.65-13.05,15.76-14.24,23.77-4.23,11.05,13.82,18.69,51.63,24.98,70.02,1.11,3.26,5.61,11.88,5.8,14.16.13,1.62-4.53,8.59-.29,9.32,3.13-5.23,6.48-7.55,12.44-4.41.98.52,5.25,6.02,6.08,1.9.49-2.45-4.53-5.86-5.59-7.93,4.82-24.82,3.57-51.08,8.9-75.74,1.48-6.85,3.87-19.39,12.24-20.75,19.02-3.09,19.04,20.35,18.49,33.48-1.01,24-6.87,49.13-8.03,72.97-.2,4.05-.59,10.62.77,14.21.86,2.29,12.02,15.54,10.21,17.28-.22.22-5.75-1.43-6-1.61-2.33-1.58-2.7-3.89-7.29-5.6-10.73-3.98-33.41,3.28-42.18,10.23-2.86,2.27-4.31,5.08-6.44,7.34-.68.72-1.55,1.11-2.07.64-.62-.56-5.98-12.39-7.59-14.92-2.86-4.47-13.84-16.63-14.84-19.04-.39-.94-.38-6.05-1.3-8.82-7.09-21.36-26.29-67.58-22.05-88.49ZM288.56,617.23c7,9.49,12.41,19.96,17.36,30.64-.03,5.48,5.97,13.48,6.29,17.78.53,7.16-6.2,14.57-13.64,10.56-10.88-13.06-21.67-26.34-32.91-39.08-1.45-1.64-6.1-4.83-6.3-5.19-1.72-3.1-.78-11.48,1.34-14.75,5.15-7.97,14.06-8.1,19.44-15.05-2.43,5.98,4.98,10.4,8.43,15.08ZM266.25,595.76c1.05-1.1,8.08-7.19,8.89-6.6.33.25,2.35,6.73,1.56,7.98-.23.36-5.66,4.75-6.6,5.45-3.38,2.51-8.58,4.41-11.93,7.56-1.69-2.14,6.26-12.48,8.09-14.4ZM257.42,636.3c8.58,10.3,18.33,19.94,26.69,30.38,3.22,4.02,13.88,16.38,10.85,21.31-.19.31-5.84,2.54-6.77,2.73-8.89,1.75-13.5-1.29-21.55-3.57-1.63,1.23,1.14,3.33,1.99,4.01,10,7.86,31.35,5.45,37.96-5.07,3.02-4.81,5.03-6.71,10.06-10.9,11.46-9.52,3.11-.48,1.92,4.99-1.67,7.63,8.93,19.91,10.55,17.99.73-.87-2.94-6.36-3.48-8-1.64-5.08-1.35-8.25.94-13.04,5-10.51,7.06-2.78,14.13-5.88,2.38-1.04,8.13-6.31,7.91-9.1-.35-4.62-6.65,1.84-9.1,2.92-20.66,9.07-39.41-19.99-13.07-32.06,7.33-3.36,22.78-8.55,30.41-6.06,4.53,1.48,11.75,8.51,16.25,9.84,2.09.62,4.37-.88,4.88-.54,2.17,1.45,5.88,16.1,6.17,19.39,2.1,24.38-6.41,48.41-34.04,49.55,2.24,5.28,13.54,1.42,13.99,1.99,1.12,1.41-5.66,8.31-6.98,9.51-20.33,18.44-51.13,19.25-72.92,2.9-3.93-2.95-19.73-18.96-20.06-22.96-.12-1.49,1.13-2.84.51-4.43-.52-1.34-7.28-6.16-9.36-8.7-6.19-7.55-9.84-19.06-9.21-28.87.33-5.19,4.49-20.17,11.31-18.32ZM435.87,742.38c-7.63,52.97-41.21,76.55-92.35,82.65-60.6,7.22-134.74-24.15-140.36-92.39-2.86-34.76,19.53-98.72,50.44-117.53.77-.47,1.78-1.98,2.54-.46-1.75,1.84-3.52,5.9-3.81,8.28-.32,2.65,1.01,5.03.66,6.53-.46,2.02-3.9,3.26-5.24,4.8-10.08,11.6-9.54,28.82-3.46,42.25.9,1.99,5.87,9.32,5.75,10-.1.57-5.39,7.56-6.41,9.62-1.14,2.3-3.3,6.04-3.32,8.51-.07,6.52,8.47,24.08,13.32,28.54.77.71,1.83,1.9,2.52.48-1.97-3.6-4.36-7.38-5.77-11.23-1.86-5.12-4.98-15.08-3.45-20,.38-1.23,5.71-10.9,6.24-11.26,5.35-3.68,4.91,17.02,5.1,18.37,1.79,13.17,8.26,27.13,20.37,33.63l-8.14-10.86c-4.14-7.32-6.26-14.62-5.34-23.15,25.17,33.05,72.43,39.26,101.02,6.53,3.33-3.81,5.35-8.25,8.15-11.85.59-.75,1.92-2.7,2.82-1.67,1.98,2.27-1.8,20.89-2.56,24.94-.19,1.03-1.31,3.28.55,3.05,3.54-8.54,6.05-17.22,7.07-26.46.28-2.56-.91-5.89-.54-7.66.59-2.8,5.01-6.28,4.97-9.87,15.87,19.8-.41,49.66-14.49,65.99,3.2-.83,6.86-4.99,8.97-7.52,11.33-13.55,21.61-34.29,16.09-52.03-1.38-4.43-7.58-12.57-8.04-14.97-1.02-5.31,1.75-17.36.88-24.86-.92-7.92-6-13.85-7.47-19.57-.41-1.62.8-3.22.46-4.38-.34-1.2-13.81-15.83-15.28-19.64-.11-.28-.82-5.8-.61-6.01,1.18-1.21,18.09,9.5,20.03,11.46,1.47,1.47,9.02,12.45,7.96,13.53-.93.95-3.9-2.52-5.61-2.72-.61-.07-6.2.21-5.38,2.21,1.18,2.89,16.55,12.96,20.04,16.97,1.55,1.78,1.83,3.6,2.96,5.04,1.67,2.12,7.12,10.28,7.48,5.52,17.77,24.21,25.52,57.4,21.23,87.22ZM453.13,663.15c-1.57,0-1.07-7.09-3.98-4.99-.81.58-1.8,16.02-2.73,19.78-1.37,5.57-4.25,13.02-8.27,17.22-.27-6.17-2.9-12.65-4.99-18.52-4.79-13.44-8.66-22.55-19.54-32.46-1.42-1.29-7.22-4.67-7.47-5.04-.41-.6,9.56-6.89,11.51-8.98,11.94-12.84,16.8-34.15,19.5-51.01,16.58,16.02,22.94,42.17,13.02,63.53-.46.99-.58,2.35-2.02,2.47.72-7.44-2.74-13.9-6.6-19.91-.75-1.17-10.21-14.79-11.42-8.56-.29,1.49,13.82,20.35,13.59,26.98-.18,5.24-14.02,12.92-9.6,16.03,2.98,2.1,12.74-4.37,15.75-5.8l7.25-12.73-4,21.99ZM471.12,768.68c.04,1.28,1.18,3.35,1.04,3.46-1.27,1-3.79-2.29-2.58,3.08.98,4.36,9.47,16.29,9.29,18.44-.16,1.94-8.05,8.36-8.56,10.21-.66,2.41.85,4.36.62,6.53-.14,1.31-2.55,11-3.76,9.74-.72-.75-3.53-14.38-4.53-16.98-1.4-3.65-6.33-7.74-6.51-9.56-.38-3.87,10.33-20.77,10.04-21.94-.36-1.45-3.49-.85-4.35-2.73-.77-1.7-1.36-10.41-1.66-13.3-3-29.7-1.5-61.24,2.14-90.85,1.58-12.89,5.92-41.25,12.02-51.98,3.2-5.65,10.89-10.35,11.83-1.23-16.78,50.33-16.82,104.57-15.02,157.1ZM461.13,616.67c-.76-7.98-4.03-15.35-1.97-23.52,1.35,3.41,14.96,10.55,14.97,11.5,0,.3-2.78,2.56-3.42,3.56-4.24,6.67-6.78,15.25-8.57,22.93-1.74.24-.94-2.27-.99-3.48-.14-3.61.32-7.46-.02-10.99ZM609.1,581.61c-2.82,2.65-14.74,4.29-14.96,5.05-.63,2.19,5.04,2.65,6.71,3.28,1.09.41,2.24,2.01,2.89,2.13,3.39.6,1.19-3.76,1.39-3.92.12-.1,2.89-.11,3,0,.42.4-.19,9.42.01,11.5.27,2.73,2.54,7.91,1.91,9.87-.61,1.89-6.08,2.55-8.28,3.79-3.23,1.82-5,5.35-9.57,6.42-10.64,2.51-12.42-5.37-15.14-5.15-2.22.18-2.73,3.83-4.39,5.63-4.07,4.45-19.06,10.74-25.05,10.74-6.38,0-25.35-7.28-26.48-14.36-.43-2.73,2.61-13.2-3.59-8.5-2.23,1.68-1.66,5.44-4.09,6.91-5.88,3.56-17.57-2.23-21.33-7.34-1.64-2.23-3.63-9.24-4.55-9.49-1.9-.52-3.21,1.8-4.91,1.91-7.38.48-22.84-9.66-17.6-18.22.57-.93,2.54-1.51,3.59-2.63,3.28-3.52,5.55-4.71,8.48-7.55,3.97-3.84,1.86-4.38-2.56-2.56-9.94,4.09-9.22,12.79-21.92,3.03-3.28-2.52-11.99-11.28-11.36-15.22.65-4.08,11.26-13.33,14.51-13.62,1.64-.15,6.1,5.33,8,6.69,3.64,2.62,13.55,7.62,17.81,7.17,3.66-.39,4.14-2.83.88-4.86-9.82-6.1-19.75-6.52-25.14-19.85-.96-2.39-1.86-9.9-2.22-10.28-2.04-2.19-3.87,5.4-3.92,6.64-.24,5.74,5.55,10.4-3.66,11.35-7.35.75-22.2-9.63-23.22-16.76-1.3-9.06,9.8-14.17,8.67-18.53-1.04-4.04-4.71-1.27-6.82-2.16-4.08-1.72-8.1-12.72-8.11-17.05-.03-9.3,6.51-21.59,17.11-21.04,7.91.41,20.77,9.18,23.48,16.61.85,2.33-1.85,6.09,1.07,6.9,2.03.56,5.39-2.48,7.97-2.9,9.29-1.51,20.1,4.71,21.23,14.66.21,1.88-2.04,5.31.83,6.2,1.6.5,9.81-3.83,13.94-3.96,5.66-.18,13.03,3.08,17.47,6.5,1.51,1.17,10.22,10.16,8.97,11.52-.28.31-5.9,1.34-8.05,2.45-5.65,2.93-12.36,9.91-13.75,16.26-1.49,6.8,5.93-3.47,6.77-4.24,4.23-3.86,8.78-6.71,14.05-8.94,2.38-1.01,5.93-.91,7.93-2.07,2.1-1.22,2.5-4.18,4.04-5.96,9.43-10.84,22.91-17.12,37.51-15.51,4.03.45,15.7,6.17,16.78,5.9,2.13-.52,6.92-8.73,9.16-10.94,2.75-2.71,10.24-7.83,14.05-7.82,2.89,0,7.21,3.32,9.79,2.71,1.39-.33,8.14-6.24,11.43-7.62,2.66-1.12,13.72-3.69,15.27-2.22,1.59,1.51-7.43,24.71-9.56,27.93-1.53,2.32-7.29,5.55-5.24,8.9.69,1.13,3.88-.09,2.04,3.89-.47,1.02-5.31,6.26-5.74,6.26-.95,0-3.31-5.56-6.51-3.52-.46.29-5.77,8.69-5.85,9.23-.66,4.26,5.83,2.47,7.86,2.81l-8.15,13.34-13.84-.83c-1.21,7.07,8.84,5.21,9.99,6,.42.28-3.96,7.82-4.47,9.02-1.58,3.71-4.51,14.49-6.58,16.42ZM658.62,650.18c-20.06-18.07-26.17-47.4-18.98-73.03,1.5-5.37,4.52-9.65,5.5-14.99l-9.16,14.32c-6.69,12.91-11.96,26.62-15.84,40.66l-4.52-10.96c-7.13-23.12,13.66-55.91,27.55-73.51,10.82-13.71,26.5-26.07,33.84-42.16.32-.69,3.43-6.14.66-5.35-7.9,9.56-15.99,18.96-25.5,26.99,3.32-7.54,6.35-14.99,8.5-22.99,1.95-7.26,2.56-17.95,4.72-24.28.63-1.84,15.18-13.25,18.27-16.73,13.27-14.91,20.67-34.26,22.48-54.01l-5.95,19.54c-5.26,14.65-19.08,32.13-31.56,41.44-2.77,2.06-18.43,10.42-18.44,11.51,0,.22,2.41,3.55,2.63,3.59,1.72.35,3.55-1.25,5.33-1.07l-2.01,9.99c-7.63-4.64-15.58-1.1-22.99,1.99,1.8-6.26,14.93-5.56,16-10.5,1.71-7.92-7.88.45-11.99-1.99,25.45-31.18,24.47-74.46,18.98-112.5l-.99,40.99c-1.36,1.55-5.78-6.05-6.41-7.07-5.21-8.37-8.65-18.15-14.57-25.92,2.15,7.65,5.43,16.43,8.82,23.67,1.78,3.81,9.82,16.05,10.11,17.88.42,2.64-1.27,17.42-2.42,19.47-.84,1.48-6.69-1.22-8.2-1.84-44.85-18.55-52.58-59.35-63.3-100.74-.43-1.65,1.02-2.93-2.01-2.43,1.17,26.59,6.47,52.79,15.81,77.68-.2,3.31,13.05,20.46,12.17,21.32-1.76,1.73-20.51-6.94-23.66-8.83-2.66-1.59-19.54-16.17-20.32-15.17-2.97,3.82,14.58,20.25,18.99,21.5-17.65,11.61-46.84-2.44-58.97-17.02-14-16.84-20.27-49.42-22.02-70.98-.34-4.19.51-8.99,0-13.01-.23-1.81.34-1.63-2-1.48-3.11,36.33,4.04,77.46,29.99,104.5-4.41,1.39-12.93-4.29-16.36-3.55-.71.15-.6,2.08-1.23,2.1-.24,0-3.29-.93-3.4-1.07-.48-.59,1.99-2.06,1.98-2.49-.01-.74-8.42-5.02-9.89-6.09-40.21-29.14-49.39-89.32-41.78-135.59,4.51-27.4,15.75-53.04,27.68-77.81-16.39,20.07-27.84,47.24-32.67,72.82-4.7,24.87-4.09,46.52,0,71.36.63,3.8,3.29,10.44,3.21,13.33-.17,6.16-9.45,21.56-9.58,27.97-.2,10.02,6.73.19,7.06-4.48,4.72,2.96-.75,12.01-2.81,15.7-2.15,3.83-6.49,5.61-5.21,11.3-1.37.33-1.69-3.03-1.65-3.69.12-2.45,1.43-4.78,1.71-7.76.1-1.04.75-7.75-1.53-6.53-1.9,1.02-12.9,33.04-19.5,35.99-1.65-3.87-4.59-6.13-6.2-10.31-5.26-13.7-2.93-34.36-.82-48.68-2.13,1.38-2.72,5.82-3.31,8.17-1.71,6.81-2.71,13.88-3.69,20.82-1.72-.46-2.27-4.22-2.71-5.78-11.74-41.72.57-89.94,15.71-129.21l-5.85,10.64c-25.76,53.54-28.4,121.57,8.86,170.35-18.55-.34-33.9-12.72-45.51-25.98-1.68-1.92-7.09-10.55-8-11.01-2.53-1.26-1.18,5.28-4.48,4-1.55-14.04-6.13-27.72-5.01-42-1.46-.18-1.79,2.61-1.9,3.58-1.27,11.23-1.71,23.51.16,34.67.51,3.06,5.67,19.53,4.74,20.75-.23.3-6.26-3.69-6.55-3.94-.37-.33-3.84-8.29-4-9.03-1.66-7.69-3.07-12.97-5.15-20.82-14.54-54.68,7.89-120.9,34.54-168.89,25.42-45.77,68.71-90.26,120.41-104.59,5.27-1.46,26.63-4.62,28.73-6.27,3.07-2.41-1.8-3.89-3.71-4.22-3.46-.6-11.04,1.3-12.12.61-.22-.14-2.3-4.64-2.14-4.85,1.17-1.52,30.08-6.89,34-4.02-5.12-4.57-15.82-4.49-22.48-3.97-3.91.3-12.51,3.29-15.04,3.03-1.59-.16-5.46-4.36-4.39-5.96.78-1.16,22.81-9.58,25.95-10.55,19.06-5.92,38.2-8.54,57.96-4.53l-6,6.98c5.34-.11,9.91-3.74,15.04-5.45,25.43-8.49,50.71-.99,74.96,7.47-10.25,9-19.44,19.08-27.03,30.46-1.5,2.25-7.26,13.68-7.95,14.1-.65.4-10.2-4.77-11.02.91,23.14,11.91,42.94,27.52,58.96,48.05,2.67,3.43,12.48,16.41,13.57,19.52.47,1.35-3.46,11.04-4.06,13.91-5.48,26.1,3.62,53.29,21.51,72.56,3.32,3.58,14.78,11.72,16.1,13.9,1.45,2.39,4.08,23.4,3.69,26.79-.21,1.8-.87,4.49-2.27,5.78l-2.51-9.99c-1.92.2-1.94,4.02-2.03,5.45-2.25,34.98,4.8,68.69,4.95,103.15,0,1.06-2.77,15.53.09,13.39,1.64-1.23,4.89-27.95,5.02-31.99l4.71,9.78c4.46,32,10.34,67.34,6.16,99.59-1.55,11.93-4.4,25.39-14.86,32.63l4.98-41c-1.83.31-1.68,2.05-2.13,3.36-2.39,7.01-4.76,15.54-7.77,22.23-.53,1.19.47,1.81-2.09,1.41-1.52-13.82-9.2-48.52-29.3-40.79-23.33,8.98-11.14,60.63-7.73,79.25-1.83,5.39-7.07,8.35-10.39,12.62-12.08,15.56-18.8,38.59-11.77,57.61,1.22,3.3,8.89,14.41,6.19,17.31-2.18,2.33-17.23-8.91-19.52-10.97ZM697.98,592.57c-.29,1.15-2.41,1.66-3.23,2.69-1.53,1.93-8.67,12.86-10.1,12.85-.21,0-2.81-2.5-3.04-3-2.16-4.73,10.77-19.4,14.52-22.96-.64,2.63,2.3,8.61,1.84,10.42ZM729.75,680.05c2.33.4,6.8-.49,8.19.32,1,.59,5.36,7.83,5.92,9.57,1.55,4.79,1.41,9.25,1.29,14.22,6.02-5.77,6.08-12.93,2.54-20.05-3.24-6.52-5.98-2.45,1.95-7.93,2.03.02,4.83,19.72,10,21.98.66.29,1.2-4.4,2.52-5.48,1.77-1.44,6.95-1.47,8.97-4.52,3.33,28.88,35.22,11.35,39-8-5.18,6.05-21.82,25.24-30.44,15.95-5.43-5.85-2.3-13.02,1.03-18.87,8.21-14.39,22.33-26.47,32.03-39.97,4.95-2.92,8,.32,10.12,4.66,5.06,10.39,2.03,35.12-2.55,45.9-2.65,6.24-3.87,6.01-5.8,13.11-4.09,15.04-19.98,32.42-36.17,34-5.57.54-10.81-3.79-13.54-3.56-2.46.21-8.68,3.71-12.61,4.32-11.59,1.78-25.45-4.53-32.05-14.05l5.99-1.48c-1.73.08-3.3.2-4.96-.55-26.77-12.05-43.68-37.35-35.3-67.22,1.71-6.11,4.77-12.17,9.76-16.24,9.17-7.48,6.77-.21,11.19.84,2.76.65,7.62-2.56,10.79-2.88,8.65-.87,27.23,6.68,33.07,12.99,8.03,8.7-2.52,27.29-13.09,28-4.19.28-20.77-6.33-22.45-3.95-3.21,4.56,12.05,8.45,14.6,8.88ZM787.13,610.14l1.02-6.99,4,1.98c-7.99,3.22,2.35,4.3,5,5.52,10.45,4.82,12.37,16.13,8.2,26.2-3.16,7.64-11.24,12.71-16.2,18.8-4.52,5.56-15.5,25.93-21.72,27.31-10.03,2.22-12.03-8.16-10.83-15.86,2.04-13.03,15.07-41.42,26.22-48.78,2.97-1.96,8.99-2.82,9.34-3.17,1.59-1.6-2.48-5.94-5.02-5.01ZM680.13,650.14c-1.93-1.35-2.87-5.75-3.48-8-2.44-9.05-3.09-16.27-.46-25.44,2.7-9.41,6.8,5.19,7.77,7.13.91,1.83,4.85,6.89,5.02,8,.2,1.25-9.63,14.53-8.85,18.31ZM691.15,630.15c-.7-6.63-4.29-10.99-2.57-18.07.6-2.47,9.92-14.92,11.56-12.92.4.49,1.99,11.32,2.03,12.55.21,6.67-4.42,16.19-11.02,18.44ZM670.1,681.61c.13-2.14,1.51-15.83,2.05-16.46.16-.19,4.7.94,4.86,1.13.41.5,1.09,10.71,1.58,12.92.82,3.67,5.65,13.88,5.57,15.37-.09,1.71-4.76,9.51-5.8,12.3l-4.21,13.27c-4.35-12.23-4.81-25.62-4.05-38.53ZM809.47,543.98c8.03-3.49,10.76-3.64,19.21-.86,2.21.73,19.22,8.23,20.02,8.98,1.19,1.12,6.43,7.74,5.43,9.06-.54.71-4.53-4.16-5.99-2.5,2.01,2.29,4.53,4.19,6.51,6.49,39.18,45.57,74.54,108.6,65.21,171.24-4.5,30.23-22.35,61.58-50.72,74.77,7.55-13.39,14.38-32,15.04-47.45.05-1.14.34-6.78-2.02-4.53-1.79,1.7-2.65,12.01-4.03,13.99-.84,1.21-1.1-4.01-2.98-1.99-.13.14-.14,2.49-.8,3.69-3.57,6.5-8.75,14.87-13.67,20.35-.24.27-7.53,6.09-4.05,4.95,7.18-2.34,14.03-13.33,18.5-18.99-5.85,27.51-23.27,43.61-49.47,52.02-69.67,22.36-158.45-23.67-146.25-105.25.52-3.48,6.2-25.62,7.74-26.77,1.55-1.16,7.66,8.1,8.94,9.55,1.22,1.39,4.05,2.6,4.54,3.46,1.23,2.19,1.11,9.21,1.78,12.22,1.56,6.93,4.28,12.86,8.32,18.68.52.75,10.8,12.9,9.4,8.6-.67-2.05-4.2-5.95-5.51-8.49-2.08-4.03-9.75-22.94-7.47-26.02.22-.3,6.35,2.99,6.69,3.3,1.26,1.14,2.45,4.35,4.27,6.22,19.83,20.36,64.62,18.54,85.49.45,6.2-5.38,7.38-9.39,11.67-15.33,1.49-2.06,5.78-4.48,6.66-7.36,1.35-4.43-2.23-6.51-1.7-8.58.42-1.66,4.11-3.13,3.92-5.7,8.94,11.12,8.39,27.01,9.98,40.52.17,1.41.63,2.92,2,1.48.57-.6,1.98-13.3,1.91-15.35-.44-12.49-9.12-27.94-9.59-36.29-.27-4.66,3.64-15.6,3.69-21.86.02-2.57-.81-10.04-1.26-12.74-.71-4.23-6.54-19.4-10.43-20.57-1.46-.44-5.11.03-5.32-.18-.22-.22.05-4.36-.42-6.08-.41-1.5-3.16-5.33-2.57-5.92.87-.86,12.52,5.16,14.3,6.19,36.66,21.32,51.2,62.72,57.42,102.58.44,2.83-1.11,9.95,2.28,9.22-.58-7.88.79-16.75,0-24.5-3.71-36.59-32.47-84.85-68.02-97.98-3.56-1.32-8.04-1.21-11.26-2.74-4.63-2.21-10.98-9.47-16.79-11.47l11.07-49.33c3.64,1.68,5.28-1.84,8.32-3.16ZM766.43,530.94c2.97-9.88,10.71-35.4,25.47-29.03,13,5.61,4.18,42.43,1.94,53.43-2.72,13.33-9.34,30.81-10.57,43.43-.37,3.75.85,9.7.49,11.93-.15.93-11.67,9.15-14.05,12.51-4.75,6.71-8.95,17.36-12.58,24.93l-6.07-7.41c-7.04-6.01-23.12-12.91-32.34-12.52-3.84.16-10.24,6.37-12.36-.78-1.54-5.22,1.5-9.78,1.51-14.51.01-12.64-7.15-35.75-9.41-49.6-2.35-14.4-9.89-51.59,2.73-61.64,14.33-11.42,21.31,18.41,23.47,27.45,4.46,18.69,5.78,40.14,11.77,58.23.78,2.36,5.17,9.47,4.72,9.77-.37.25-7.99-.54-7.98,2.51,0,.29,3.59,3.86,4,4.07,2.25,1.13,4.18-2.82,6.43-2.63.57.05,2.41,6.29,5.36,1.38,5.84-23.65,10.47-48.23,17.47-71.53ZM758.13,536.15c1.75,2.34-12.66,50.01-13,57-2.34-1.78-2.88-6.77-3.71-9.78-1.09-3.97-5.29-19.94-4.88-22.76.28-1.92,4.25-3.44,5.59-4.96,1.46-1.67,14.75-21.16,16-19.49ZM741.46,382.34c-4.59-25.37-3.3-54.82,12.37-76.25l22.31,6.08c.65.63-5.93,14.24-6.71,16.78-12.16,39.36-4.4,89.13,30.71,114.2-35.29,2.2-53.19-30.45-58.68-60.81ZM782.71,313.28c.27-.07,5.21.71,5.43.88.47.36-4.09,8.82-4.72,10.77-8.94,27.98-9.58,64.2,3.54,90.9,2.39,4.86,6.22,9.24,8.17,14.32-24.86-22.05-29.79-64.21-21.49-94.99.81-3.01,7.38-21.45,9.07-21.88ZM824.62,442c-9.99-.15-21.36-11.41-26.7-19.12-15.34-22.13-17.46-51.84-13.49-77.93,1.1-7.25,5.47-24.59,9.81-30.19,2.3-2.96,9.38-1.21,13.28-1.72,4.57-.61,9.08-2.15,13.62-2.87-24.34,34.19-24.65,94.92,10.52,121.97,2.48,1.91,5.18,4.06,8.47,4.03-2.5,2.5-12.18,5.89-15.52,5.84ZM938.63,369.17l1.51,2.97-57.42,28c-5.57-1.29-7.83-23.54-9.59-27.35-1-2.17-3.89-.33-4.07,2.86-.3,5.22,3.12,18.66,5.53,23.57.54,1.09,5.01,6.59,4.56,6.93-.38.28-7.96.1-9.29-.2-13.79-3.08-18.45-30.67-17.69-42.28.86-13.26,11.01-45.2,28.42-42.46,2.18.34,8.29,4.99,7.56,5.93-.13.17-2.65.57-3.96,1.55-6.92,5.2-14.21,19.55-14.96,28.09-.24,2.75.13,9.71,3.86,7.33,1.58-1.01,6.47-32,17.41-31.79l48.13,36.85ZM893.13,324.15c-20.85-25.55-42.47,8.16-46.53,28.97-4.38,22.49,1.38,57.18,29.05,59.03,1.08.07,3.34-.54,2.47,1.49-3.18,7.46-21.23,18.57-29.49,18.6-15.06.05-26.4-17.81-30.51-30.57-9.3-28.82-6.71-61.14,10.79-86.24,8.21-11.78,13.12-11.64,24.53-18.47,8.57-5.13,9.02-10.58,19.92-5.54,11.75,5.43,18.36,20.44,19.76,32.73ZM870.14,284.14c-.39-.37,6.78-8.08,7.99-6.99l3,12c-1.4-2.54-10.55-4.59-10.99-5.01ZM898.65,203.16c.26,35.75-19.03,70.78-49.58,89.42-3.21,1.96-24.28,12.77-26.37,12.64-.56-.04-.53-2.04-1.14-2.13-.98-.15-12.4,3.74-15.94,4.05-30.66,2.72-62.82-7.31-83-30.97-9.41-11.03-2.79-5.07,3.46-3.46,1.83.47,5.97,1.09,7.84,1.17,1.23.05,5.93-.1,6.22-1.71-8.34,1.03-13.51-1.96-20.33-5.27-1.39-.68-3.01.33-4.13-.71-.91-.84-4.31-6.49-5.08-7.99-17.64-34.32-5.46-73.18,23.07-97.01,21.83-18.24,57.22-27.47,77.47-2.04-16.75-4.83-30.1,6.55-40.5,18-1.84-9.8-9.12-20.28-19.49-21.99,4.93,4.41,17.41,15.94,17.82,22.66.05.76-6.09,10.31-7.1,13.55-.62,2.01-1.29,4.32-1.61,6.39-.28,1.79.17,8.08-.11,8.39-.57.62-10.23-5.37-10,0,12.08.13,10.75,7.97,14.83,15.68,2.05,3.87,6.74,7.28,7.22,10.77,2.25,16.46-13.85,36.06-30.04,38.57-.19,1.87,3.28.99,4.25.75,12.75-3.18,27.87-18.55,30.5-31.5.37-1.82.01-6.92.25-7.26.33-.48,7.41,4.46,10.55,4.94,19.1,2.91,39.15-13.98,37.48-33.42-.13-1.53-.89-2.93-2.04-1.52-.35.43-1.71,8.16-2.81,10.7-2.73,6.28-9.77,15.37-16.46,17.54-1.18.38-4.22.96-6.16,1-2.08.44-4.33.38-6.47.13-3.44-.41-7.07-1.03-9.92-3.14-1-.74-1.79-1.61-2.44-2.56-1.07-.55-2.03-1.2-2.79-1.94.02.09.02.19.04.28-8.16-6.16-10.9-16.42-6.08-25.57.26-.5.34-1.83.91-2.04.13-.53.28-1.06.45-1.58.58-4.06,1.98-8.08,4.35-11.39.31-1.23.76-2.4,1.53-3.32-.06-.04-.13-.08-.15-.11-.3-.38,4.91-7.17,5.6-7.88,7.63-7.81,22.2-14.02,31.79-6,1.86,1.56,1.73,3.85,3.05,5.03,1.2,1.06,2.97-.42,3.44-.09.56.4.84,4.75,3.11,4.95.11-9.41-1.93-15.28-7.97-22.52-33.13-39.74-92.97-4.87-111.52,32.5-2.22-3.66-13.24-16.22-13.23-19.29.02-3.67,4.8-16.4,6.55-20.37,8.53-19.35,26.58-37.94,45.15-47.85,1.72-.92,12.34-6.03,13.02-5.47.43.36-5.32,7.58-6.18,9.31-5.07,10.33-7.14,22.24-4.12,33.47.52,1.95,1.23,5.35,3.29,6.2-2.06-9.67-2.64-17.25-.52-27.03,1.13-5.21,7.04-20.93,11.6-23.4,3.29-1.78,16.43-4.1,20.56-4.44,17.32-1.41,29.69,3.09,45.58,8.16.67.21,3.63,1.83,2.3-.29-40.41-27.38-94.7-7.7-122.49,28.53-8.27,10.78-16.89,25.88-18.03,39.48-6.96-5.42-12.38-12.74-18.98-18.51-3.26-2.85-22.61-15.71-22.88-17.12-.47-2.43,11.14-19.33,13.44-22.29,15.76-20.29,39.99-36.34,64.17-44.83,4.11-1.44,16.58-5.89,20.17-4.75,1.95.62,9.97,6.75,11.62,8.46l11.45,18.04c-1.2-10.12-7.98-22.06-16.98-27.01-.21-1.44,2.73-1.53,3.77-1.7,31.47-5.15,73.08,5.82,96.69,27.74,12.23,11.35,10.21,27.62,9.52,42.97l-6.01-8.47c-2.82-2.87-5.46-5.92-8.87-8.13-.85-.55-2.22-2.46-3.11-.89,4.53,3.15,17.15,19.88,16.51,24.57-.62,4.49-6.19,14.03-9.09,17.85-4.89,6.44-10.58,9.59-16.12,14.88-.56.54-3.58,1.9-2.29,3.2.71.72,11.77-5.7,13.47-7.02,11.33-8.84,20.52-28.17,20.52-42.48,0-6.15.43-12.97,0-19-.05-.66-2.15-2.67-.5-3.5,8.28,7.95,15.47,17.89,21.03,27.97,15.54,28.22,24.55,67.94-3.51,91.53-4.59,3.86-9.64,5.71-14.01,9.48,12.68-1.59,23.68-11.68,30.5-21.99Z"/>
        <path class="cls-1" d="M652.13,332.15c-1.89-.31-1.63-2.11-2.11-3.38-2.77-7.46-4.34-16.39-6.85-24.15-5.7-17.67-12.38-35.14-19.03-52.46,7.38,10.16,12.86,22.64,17.01,34.48,5.18,14.78,8.35,30.1,10.97,45.52Z"/>
        <path class="cls-1" d="M536.14,143.14c-.28.33-6.15,2.47-7.92,3.6-12.75,8.13-20.39,17.89-30.57,28.43-4.82,5-3.49.52-1.31-3.31,5.57-9.75,20.98-24.61,31.52-28.48,1.46-.54,11.07-3.52,8.28-.24Z"/>
        <path class="cls-1" d="M593.13,175.15l-27.99-26.99c7.79,2.1,15.75,10.39,20.97,16.52,2.45,2.88,5.55,6.98,7.02,10.47Z"/>
        <path class="cls-1" d="M611.14,85.14c-11.12.72-20.98,5.81-31,10,4.77-7.63,17.98-11.84,26.56-12.03,1.79-.04,3.85-.12,4.44,2.03Z"/>
        <path class="cls-1" d="M592.14,102.16l-22.99,9.98c-1.73-1.64,6.43-5.75,7.31-6.18,4.7-2.27,10.42-4.12,15.68-3.8Z"/>
        <path class="cls-1" d="M858.14,228.14c-7.07,1.04-12.19.93-18.98-1.51-1.46-.52-13.28-6.58-11.02-8.47.55-.46,10.89,4.59,13.22,5.27,4.3,1.25,9.14,1.47,13.33,2.67,1.36.39,3.1.11,3.45,2.04Z"/>
        <path class="cls-1" d="M834.14,270.15c-3.04.55-1.54-.9-2.09-2.35-5.34-14.02-11.59-21.87-23.91-30.63,14.09,3.36,23.89,19.36,26,32.98Z"/>
      </g>
    </g>
    <path class="cls-1" d="M126.88,68.39c23.66-4.07,32.8,22.39,23.27,41.27-5.39,10.67-22.76,31.27-30.99,41.01-.38.45-7.99,6.43-8.52,6.46-3.34.19,1.74-5.93,1.07-7.01-.94-1.52-26.44-15.41-30.71-18.34-13.06-8.97-25.17-19.18-22.61-36.87,2.57-17.74,22.82-24.9,37.66-16.18,1.94,1.14,8.98,7.42,9.59,7.4s3.52-5.3,4.52-6.46c4.19-4.84,10.16-10.16,16.71-11.28ZM128.9,74.37c-6.95,1.02-14.64,9.19-17.95,15.09-1.07,1.91-.65,5.88-3.49,6.59s-5.91-5.26-8.31-7.41c-12.75-11.42-32.93-9.67-34.79,9.3-2.14,21.77,36.28,36.15,50.29,47.19,9.34-14.23,34.53-34.44,33.51-52.45-.55-9.74-8.68-19.88-19.26-18.32Z"/>
  </g>
  <path class="cls-1" d="M444.85,429.19c-1.89,2.49-3.78,4.98-5.68,7.46-.37.48-.4,1.37-.25,1.93.16.58.61,1.21,1.15,1.49.58.31,1.28.46,1.93.25s1.08-.6,1.49-1.15c1.89-2.49,3.78-4.98,5.68-7.46.37-.48.4-1.37.25-1.93-.16-.58-.61-1.21-1.15-1.49-.58-.31-1.28-.46-1.93-.25s-1.08.6-1.49,1.15h0Z"/>
  <path class="cls-1" d="M454.44,430.1c-.39.54-.79,1.07-1.19,1.6l.39-.51c-1.4,1.81-2.9,3.54-4.5,5.17-.91.94-1,2.61,0,3.54s2.56,1,3.54,0c2.21-2.27,4.23-4.71,6.08-7.28.36-.5.41-1.36.25-1.93s-.61-1.21-1.15-1.49c-.58-.31-1.28-.46-1.93-.25s-1.09.59-1.49,1.15h0Z"/>
  <path class="cls-1" d="M465.42,430.21c-1.92,2.45-4.14,4.66-6.6,6.57l.51-.39-.09.07c-.54.42-.96.81-1.15,1.49-.16.6-.09,1.4.25,1.93s.86,1,1.49,1.15,1.41.15,1.93-.25c2.68-2.06,5.11-4.36,7.2-7.03.43-.55.73-1.04.73-1.77,0-.61-.27-1.35-.73-1.77s-1.1-.76-1.77-.73c-.62.03-1.37.22-1.77.73h0Z"/>
  <path class="cls-1" d="M818.24,169.55c2.95,8.87,4.95,18.12,5.63,27.45.32,4.31.18,8.62-1.56,12.64s-4.31,7.28-6.92,10.55c-.84,1.05-1.03,2.51,0,3.54.87.87,2.69,1.06,3.54,0,2.89-3.62,5.8-7.31,7.7-11.56,2.03-4.54,2.59-9.31,2.3-14.24-.59-10.08-2.69-20.14-5.87-29.71-1.01-3.04-5.84-1.74-4.82,1.33h0Z"/>
  <path class="cls-1" d="M606.81,445.3l5.03-7.41c.35-.52.41-1.34.25-1.93s-.61-1.21-1.15-1.49c-1.27-.67-2.63-.26-3.42.9l-5.03,7.41c-.35.52-.41,1.34-.25,1.93s.61,1.21,1.15,1.49c1.27.67,2.63.26,3.42-.9h0Z"/>
  <path class="cls-1" d="M616.96,436.81c-1.31,2.12-2.63,4.23-3.94,6.35-.69,1.11-.28,2.8.9,3.42s2.68.29,3.42-.9c1.31-2.12,2.63-4.23,3.94-6.35.69-1.11.28-2.8-.9-3.42s-2.68-.29-3.42.9h0Z"/>
  <path class="cls-1" d="M626.05,436.62c-.92,1.94-2.05,3.78-3.36,5.48l.39-.51c-.4.52-.82,1.03-1.26,1.53s-.73,1.08-.73,1.77c0,.61.27,1.35.73,1.77.94.87,2.61,1.05,3.54,0,2-2.27,3.71-4.79,5.01-7.52.29-.62.44-1.25.25-1.93-.16-.58-.61-1.21-1.15-1.49-.58-.31-1.28-.46-1.93-.25-.59.19-1.22.57-1.49,1.15h0Z"/>
</svg>